<svg width="20" height="20" viewBox="0 0 20 20" fill="none" xmlns="http://www.w3.org/2000/svg"><path d="M6.752 5.247c-.177 0-.36.047-.546.14-.177.084-.317.2-.42.35L3.084 9.419a.949.949 0 0 0-.196.574.99.99 0 0 0 .196.574l2.702 3.696a1.217 1.217 0 0 0 .966.504h6.496c.177 0 .355-.047.532-.14.187-.093.331-.215.434-.364l2.716-3.696a.949.949 0 0 0 .196-.574.948.948 0 0 0-.196-.574l-2.716-3.682a1.019 1.019 0 0 0-.434-.35 1.133 1.133 0 0 0-.532-.14H6.752Zm-2.058-.154c.243-.327.56-.588.952-.784a2.623 2.623 0 0 1 1.204-.308h6.286c.401 0 .803.103 1.204.308.401.196.719.453.952.77l2.646 3.598c.29.383.434.826.434 1.33 0 .467-.14.896-.42 1.288l-2.632 3.612a2.599 2.599 0 0 1-.966.784 2.54 2.54 0 0 1-1.19.308H6.85c-.401 0-.803-.103-1.204-.308a2.534 2.534 0 0 1-.952-.77l-2.632-3.612a2.145 2.145 0 0 1-.434-1.33c0-.467.14-.896.42-1.288l2.646-3.598Z" fill="#000"/></svg>