<svg width="20" height="20" viewBox="0 0 20 20" fill="none" xmlns="http://www.w3.org/2000/svg"><path d="M9.986 16.888a6.76 6.76 0 0 1-3.472-.924 6.79 6.79 0 0 1-2.492-2.492A6.84 6.84 0 0 1 3.112 10c0-1.26.303-2.417.91-3.472a6.79 6.79 0 0 1 2.492-2.492 6.76 6.76 0 0 1 3.472-.924c1.27 0 2.431.308 3.486.924a6.653 6.653 0 0 1 2.492 2.492A6.76 6.76 0 0 1 16.888 10a6.76 6.76 0 0 1-.924 3.472 6.653 6.653 0 0 1-2.492 2.492c-1.055.616-2.217.924-3.486.924Zm0-1.246a5.512 5.512 0 0 0 2.842-.756 5.538 5.538 0 0 0 2.03-2.044A5.56 5.56 0 0 0 15.614 10c0-1.027-.252-1.97-.756-2.828a5.508 5.508 0 0 0-2.03-2.058 5.512 5.512 0 0 0-2.842-.756c-1.027 0-1.97.252-2.828.756a5.508 5.508 0 0 0-2.03 2.058A5.565 5.565 0 0 0 4.386 10c0 1.027.247 1.974.742 2.842a5.538 5.538 0 0 0 2.03 2.044 5.486 5.486 0 0 0 2.828.756Z" fill="#000"/></svg>