<svg width="20" height="20" viewBox="0 0 20 20" fill="none" xmlns="http://www.w3.org/2000/svg"><path d="M10.028 15.425c1.372 0 2.6-.229 3.682-.686 1.083-.457 1.923-1.097 2.52-1.918.607-.821.91-1.76.91-2.814 0-1.055-.303-1.993-.91-2.814-.597-.821-1.437-1.46-2.52-1.918-1.083-.467-2.31-.7-3.682-.7-1.381 0-2.618.233-3.71.7-1.083.457-1.932 1.097-2.548 1.918-.607.821-.91 1.76-.91 2.814 0 1.055.303 1.993.91 2.814.616.821 1.465 1.46 2.548 1.918 1.092.457 2.329.686 3.71.686Zm0 1.274c-1.633 0-3.09-.285-4.368-.854-1.279-.56-2.277-1.349-2.996-2.366-.719-1.017-1.078-2.175-1.078-3.472 0-1.297.36-2.455 1.078-3.472.719-1.017 1.717-1.81 2.996-2.38 1.279-.57 2.735-.854 4.368-.854 1.624 0 3.07.285 4.34.854 1.279.57 2.273 1.363 2.982 2.38.71 1.017 1.064 2.175 1.064 3.472 0 1.297-.355 2.455-1.064 3.472-.71 1.017-1.703 1.806-2.982 2.366-1.27.57-2.716.854-4.34.854Z" fill="#000"/></svg>