<svg width="20" height="20" viewBox="0 0 20 20" fill="none" xmlns="http://www.w3.org/2000/svg"><path d="M9.937 15.306c1.064 0 2.002-.22 2.814-.658a4.679 4.679 0 0 0 1.89-1.848c.448-.803.672-1.722.672-2.758V4.974a.241.241 0 0 0-.084-.196.226.226 0 0 0-.182-.084h-5.11c-1.036 0-1.95.224-2.744.672a4.588 4.588 0 0 0-1.848 1.876c-.439.803-.658 1.736-.658 2.8 0 1.036.22 1.955.658 2.758a4.632 4.632 0 0 0 1.848 1.848c.793.439 1.708.658 2.744.658Zm0 1.274c-1.26 0-2.39-.28-3.388-.84a5.945 5.945 0 0 1-2.324-2.31c-.55-.999-.826-2.128-.826-3.388 0-1.279.275-2.417.826-3.416a5.991 5.991 0 0 1 2.324-2.352c.999-.57 2.128-.854 3.388-.854h5.53c.336 0 .607.103.812.308.215.196.322.462.322.798v5.516c0 1.26-.285 2.385-.854 3.374a6.063 6.063 0 0 1-2.38 2.324c-1.008.56-2.151.84-3.43.84Z" fill="#000"/></svg>