<svg width="20" height="20" viewBox="0 0 20 20" fill="none" xmlns="http://www.w3.org/2000/svg"><path d="M6.787 5.275c-.27 0-.518.08-.742.238a1.32 1.32 0 0 0-.462.616l-2.87 8.05a.719.719 0 0 0-.042.224c0 .103.033.182.098.238a.53.53 0 0 0 .322.084h10.15c.27 0 .513-.08.728-.238.224-.159.383-.364.476-.616l2.856-8.064a.57.57 0 0 0 .042-.196.28.28 0 0 0-.112-.238.452.452 0 0 0-.308-.098H6.787Zm-2.45.546c.196-.541.532-.98 1.008-1.316a2.723 2.723 0 0 1 1.582-.504h10.122c.523 0 .929.121 1.218.364.29.233.434.56.434.98 0 .233-.047.485-.14.756l-2.87 8.078c-.187.541-.523.98-1.008 1.316a2.681 2.681 0 0 1-1.582.504H2.951c-.523 0-.929-.121-1.218-.364-.29-.233-.434-.56-.434-.98 0-.233.047-.485.14-.756l2.898-8.078Z" fill="#000"/></svg>