<svg width="20" height="20" viewBox="0 0 20 20" fill="none" xmlns="http://www.w3.org/2000/svg"><path d="M4.239 4.736c-.327 0-.588.098-.784.294-.196.196-.294.457-.294.784v5.936c0 .327.098.593.294.798.196.196.457.294.784.294h9.212c.327 0 .588-.098.784-.294.196-.205.294-.471.294-.798V5.814c0-.327-.098-.588-.294-.784-.196-.196-.457-.294-.784-.294H4.239Zm-2.324.98c0-.672.205-1.209.616-1.61.42-.41.966-.616 1.638-.616h9.31c.681 0 1.227.205 1.638.616.41.401.616.938.616 1.61v.224h.126c.672 0 1.209.21 1.61.63.41.41.616.952.616 1.624v6.062c0 .672-.205 1.213-.616 1.624-.401.42-.938.63-1.61.63H6.647c-.663 0-1.2-.21-1.61-.63-.41-.41-.616-.952-.616-1.624v-.21h-.252c-.672 0-1.218-.205-1.638-.616-.41-.41-.616-.947-.616-1.61V5.716Zm3.766 8.526c0 .327.098.588.294.784.196.196.457.299.784.308h9.072c.327 0 .588-.098.784-.294.196-.205.294-.471.294-.798V8.236c0-.327-.098-.588-.294-.784-.196-.196-.457-.294-.784-.294h-.098v4.662c0 .663-.205 1.2-.616 1.61-.41.41-.957.616-1.638.616H5.681v.196Z" fill="#000"/></svg>