<svg width="20" height="20" viewBox="0 0 20 20" fill="none" xmlns="http://www.w3.org/2000/svg"><path d="M9.433 15.152c.159.065.35.098.574.098.215 0 .401-.033.56-.098l5.46-2.282a.94.94 0 0 0 .392-.35.86.86 0 0 0 .168-.504V8.012a.936.936 0 0 0-.154-.518.837.837 0 0 0-.406-.336l-5.46-2.31a1.364 1.364 0 0 0-.56-.112c-.196 0-.383.037-.56.112l-5.46 2.296a1.011 1.011 0 0 0-.42.35.912.912 0 0 0-.154.504v4.032c0 .177.051.345.154.504.112.159.252.275.42.35l5.446 2.268Zm1.876 1.078a3.55 3.55 0 0 1-1.316.238c-.457 0-.882-.08-1.274-.238l-5.278-2.198a2 2 0 0 1-.938-.756 2.059 2.059 0 0 1-.364-1.162v-4.2c0-.41.117-.793.35-1.148a2.06 2.06 0 0 1 .938-.784L8.705 3.77a3.51 3.51 0 0 1 1.302-.238c.457 0 .882.08 1.274.238l5.292 2.212c.383.159.69.42.924.784.243.355.364.737.364 1.148v4.172c0 .41-.117.798-.35 1.162a2.006 2.006 0 0 1-.924.77l-5.278 2.212Z" fill="#000"/></svg>