<svg width="20" height="20" viewBox="0 0 20 20" fill="none" xmlns="http://www.w3.org/2000/svg"><path d="M6.64 13.136c.15.168.224.336.224.504a.58.58 0 0 1-.154.378.57.57 0 0 1-.462.224c-.187 0-.36-.08-.518-.238l-3.024-3.22c-.224-.243-.336-.509-.336-.798 0-.299.112-.56.336-.784L5.73 5.996a.652.652 0 0 1 .49-.224c.177 0 .331.065.462.196a.537.537 0 0 1 .168.392c0 .168-.075.336-.224.504l-2.87 3.052c-.047.047-.047.098 0 .154l2.884 3.066Zm7.658.854a.676.676 0 0 1-.518.252.57.57 0 0 1-.462-.224.58.58 0 0 1-.154-.378c0-.187.07-.35.21-.49l2.87-3.08c.028-.019.042-.042.042-.07a.094.094 0 0 0-.042-.084l-2.87-3.08a.698.698 0 0 1-.196-.462c0-.159.06-.299.182-.42a.602.602 0 0 1 .434-.196.65.65 0 0 1 .504.238l2.996 3.192c.224.233.336.5.336.798 0 .29-.107.55-.322.784l-3.01 3.22Z" fill="#000"/></svg>