<svg width="20" height="20" viewBox="0 0 20 20" fill="none" xmlns="http://www.w3.org/2000/svg"><path d="M10.01 15.04a10.673 10.673 0 0 0 2.969-1.805c.887-.756 1.587-1.587 2.1-2.492.513-.915.784-1.82.812-2.716.028-.598-.056-1.134-.252-1.61-.196-.486-.486-.864-.868-1.134a2.132 2.132 0 0 0-1.316-.42c-.514 0-1.031.168-1.554.504a3.954 3.954 0 0 0-1.26 1.288.94.94 0 0 1-.294.28.662.662 0 0 1-.336.098.787.787 0 0 1-.378-.098.846.846 0 0 1-.266-.28A3.578 3.578 0 0 0 8.135 5.38c-.513-.336-1.031-.504-1.554-.504-.485 0-.915.126-1.288.378s-.667.606-.882 1.064c-.205.448-.308.956-.308 1.526 0 .924.252 1.852.756 2.786.513.933 1.218 1.787 2.114 2.562.896.774 1.909 1.39 3.038 1.848Zm0 1.359a12.606 12.606 0 0 1-3.71-2.086C5.21 13.407 4.356 12.39 3.74 11.26c-.616-1.139-.924-2.282-.924-3.43 0-.812.159-1.536.476-2.17a3.718 3.718 0 0 1 1.316-1.512 3.51 3.51 0 0 1 1.932-.546c.635 0 1.274.182 1.918.546a4.468 4.468 0 0 1 1.554 1.386 4.504 4.504 0 0 1 1.568-1.414c.662-.364 1.311-.537 1.946-.518.746.018 1.4.224 1.96.616.57.392 1.003.924 1.302 1.596.299.662.43 1.414.392 2.254-.037 1.12-.369 2.23-.994 3.332-.625 1.092-1.475 2.076-2.548 2.954a12.263 12.263 0 0 1-3.626 2.044Z" fill="#000"/></svg>