<svg width="20" height="20" viewBox="0 0 20 20" fill="none" xmlns="http://www.w3.org/2000/svg"><path d="M5.051 5.282c-.327 0-.588.098-.784.294-.196.196-.299.457-.308.784v7.28c.01.327.112.588.308.784.196.196.457.294.784.294h9.898c.327 0 .588-.098.784-.294.196-.196.299-.457.308-.784V9.804h-2.982c-.467 0-.845-.145-1.134-.434-.29-.29-.434-.672-.434-1.148v-2.94h-6.44Zm-2.366.938c0-.663.205-1.195.616-1.596.42-.41.966-.616 1.638-.616h7.294c.215 0 .434.047.658.14.233.093.425.215.574.364l3.332 3.318c.159.159.285.35.378.574.093.224.14.443.14.658v4.704c0 .672-.21 1.209-.63 1.61-.41.41-.952.616-1.624.616H4.939c-.672 0-1.218-.205-1.638-.616-.41-.401-.616-.938-.616-1.61V6.22Zm10.024 1.848a.51.51 0 0 0 .14.378.56.56 0 0 0 .392.14h2.548l-3.08-3.066v2.548Z" fill="#000"/></svg>