<svg width="20" height="20" viewBox="0 0 20 20" fill="none" xmlns="http://www.w3.org/2000/svg"><path d="M4.008 5.289a.246.246 0 0 0-.182.07.246.246 0 0 0-.07.182l-.014 8.932c0 .075.023.135.07.182.056.047.121.07.196.07h8.162a.65.65 0 0 0 .294-.07.77.77 0 0 0 .238-.182l3.43-4.214a.373.373 0 0 0 .098-.252.34.34 0 0 0-.098-.252l-3.444-4.214a.768.768 0 0 0-.238-.182.649.649 0 0 0-.294-.07H4.008Zm-1.54-.252c0-.308.098-.555.294-.742.196-.196.443-.294.742-.294h8.946c.205 0 .406.047.602.14.205.093.373.22.504.378l3.612 4.494c.243.299.364.63.364.994 0 .345-.117.672-.35.98l-3.598 4.494c-.121.15-.285.27-.49.364a1.342 1.342 0 0 1-.602.154H3.518c-.308 0-.56-.098-.756-.294-.187-.187-.28-.43-.28-.728l-.014-9.94Z" fill="#000"/></svg>