<svg width="20" height="20" viewBox="0 0 20 20" fill="none" xmlns="http://www.w3.org/2000/svg"><path d="M4.939 15.999c-.681 0-1.227-.205-1.638-.616-.41-.41-.616-.947-.616-1.61V6.255c0-.672.2-1.213.602-1.624.41-.42.952-.63 1.624-.63h10.15c.672 0 1.213.205 1.624.616.42.401.63.938.63 1.61v7.504c0 .681-.205 1.227-.616 1.638-.41.42-.947.63-1.61.63H4.939Zm-.98-2.366c0 .327.098.588.294.784.196.196.457.299.784.308h9.912c.327 0 .588-.098.784-.294.205-.205.308-.471.308-.798v-7.28c0-.327-.098-.588-.294-.784-.196-.196-.457-.294-.784-.294H5.037c-.327 0-.588.098-.784.294-.196.196-.294.457-.294.784v7.28Z" fill="#000"/></svg>