<svg width="20" height="20" viewBox="0 0 20 20" fill="none" xmlns="http://www.w3.org/2000/svg"><path d="M5.289 4.197c.187-.243.434-.439.742-.588.308-.159.616-.238.924-.238h6.216c.308 0 .616.08.924.238.308.15.55.345.728.588l2.506 3.402c.168.233.252.49.252.77 0 .317-.107.597-.322.84l-6.3 6.958c-.28.308-.597.462-.952.462-.345 0-.658-.15-.938-.448L2.755 9.209a1.202 1.202 0 0 1-.336-.84c0-.28.089-.527.266-.742l2.604-3.43Zm1.568.448a.621.621 0 0 0-.28.07.66.66 0 0 0-.21.182L3.889 8.131a.353.353 0 0 0-.084.238c0 .093.033.173.098.238l5.922 6.468c.065.065.126.098.182.098.056 0 .117-.033.182-.098l5.936-6.468a.341.341 0 0 0 .098-.252.339.339 0 0 0-.07-.224l-2.436-3.234a.574.574 0 0 0-.49-.252h-6.37Z" fill="#000"/></svg>