<svg width="20" height="20" viewBox="0 0 20 20" fill="none" xmlns="http://www.w3.org/2000/svg"><path d="M16.496 6.717c.308 0 .555.093.742.28.196.187.294.434.294.742v4.424c0 .308-.093.56-.28.756-.187.187-.434.28-.742.28h-5.068a.26.26 0 0 0-.168.056.208.208 0 0 0-.056.154v.994c0 .653-.098 1.148-.294 1.484-.196.345-.467.518-.812.518-.448 0-.957-.252-1.526-.756L2.86 10.721c-.261-.224-.392-.471-.392-.742 0-.27.126-.509.378-.714l5.698-4.9c.597-.513 1.12-.77 1.568-.77.345 0 .616.168.812.504.196.336.294.821.294 1.456v.952c0 .065.019.117.056.154a.26.26 0 0 0 .168.056h5.054Zm-.196 1.68a.39.39 0 0 0-.126-.308.436.436 0 0 0-.322-.126h-5.194a.662.662 0 0 1-.49-.182.693.693 0 0 1-.182-.49V5.289a.398.398 0 0 0-.056-.224c-.028-.056-.065-.084-.112-.084-.065 0-.15.042-.252.126L4.288 9.671c-.112.093-.168.196-.168.308 0 .121.056.224.168.308l5.278 4.606c.103.084.187.126.252.126.047 0 .084-.028.112-.084a.398.398 0 0 0 .056-.224v-2.072c0-.205.06-.369.182-.49a.62.62 0 0 1 .476-.196h5.208c.13 0 .238-.037.322-.112a.436.436 0 0 0 .126-.322V8.397Z" fill="#000"/></svg>