<svg width="20" height="20" viewBox="0 0 20 20" fill="none" xmlns="http://www.w3.org/2000/svg"><path d="M10.098 15.404a9.56 9.56 0 0 0 3.304-.588c1.083-.401 1.979-.929 2.688-1.582.121-.121.215-.27.28-.448a1.3 1.3 0 0 0 .112-.504v-4.55c0-.168-.042-.336-.126-.504a1.043 1.043 0 0 0-.308-.406 11.62 11.62 0 0 0-2.968-1.596c-1.083-.41-2.09-.616-3.024-.616-.933 0-1.955.205-3.066.616-1.101.401-2.11.933-3.024 1.596-.13.103-.238.238-.322.406a1.092 1.092 0 0 0-.126.49l.014 4.55c0 .177.037.35.112.518.084.159.196.285.336.378a14.914 14.914 0 0 0 3.164 1.624c1.11.41 2.095.616 2.954.616Zm0 1.274c-.999 0-2.119-.224-3.36-.672a16.146 16.146 0 0 1-3.5-1.75 2.45 2.45 0 0 1-.728-.84 2.303 2.303 0 0 1-.266-1.064l.014-4.662a2.495 2.495 0 0 1 .938-1.932A13.03 13.03 0 0 1 6.57 3.994c1.241-.448 2.403-.672 3.486-.672 1.083.01 2.23.238 3.444.686a12.684 12.684 0 0 1 3.304 1.75c.29.233.518.527.686.882.177.355.266.714.266 1.078v4.438c0 .364-.08.737-.238 1.12a3.04 3.04 0 0 1-.588.952c-.812.737-1.834 1.33-3.066 1.778a10.942 10.942 0 0 1-3.766.672Z" fill="#000"/></svg>