<svg width="20" height="20" viewBox="0 0 20 20" fill="none" xmlns="http://www.w3.org/2000/svg"><path d="M4.288 5.24c-.13 0-.196.042-.196.126 0 .047.019.093.056.14L6.71 9.132c.187.27.28.56.28.868 0 .29-.089.57-.266.84l-2.576 3.64a.241.241 0 0 0-.056.154c0 .084.065.126.196.126h11.676a.246.246 0 0 0 .182-.07.297.297 0 0 0 .07-.196V5.492a.246.246 0 0 0-.07-.182.246.246 0 0 0-.182-.07H4.288Zm-1.484.574a1.225 1.225 0 0 1-.266-.756c0-.205.056-.392.168-.56.093-.14.229-.257.406-.35.177-.103.36-.154.546-.154h12.768c.308 0 .555.098.742.294.196.187.294.434.294.742v9.926c0 .308-.093.56-.28.756-.187.196-.434.294-.742.294H3.7c-.205 0-.401-.047-.588-.14a.85.85 0 0 1-.392-.35c-.103-.15-.154-.34-.154-.574 0-.28.08-.527.238-.742l2.842-4.004a.336.336 0 0 0 .07-.196.355.355 0 0 0-.07-.21L2.804 5.814Z" fill="#000"/></svg>