<svg width="20" height="20" viewBox="0 0 20 20" fill="none" xmlns="http://www.w3.org/2000/svg"><path d="M16.232 12.872c.186 0 .34.06.462.182.13.121.196.27.196.448a.632.632 0 0 1-.196.462.626.626 0 0 1-.462.182H3.744a.656.656 0 0 1-.462-.182.656.656 0 0 1-.182-.462c0-.177.06-.327.182-.448a.657.657 0 0 1 .462-.182h12.488Zm0 2.17c.186 0 .34.06.462.182.13.13.196.285.196.462a.587.587 0 0 1-.196.448.626.626 0 0 1-.462.182H3.744a.656.656 0 0 1-.462-.182.609.609 0 0 1-.182-.448c0-.177.06-.331.182-.462a.657.657 0 0 1 .462-.182h12.488Z" fill="#000"/></svg>