<svg width="20" height="20" viewBox="0 0 20 20" fill="none" xmlns="http://www.w3.org/2000/svg"><path d="M5.555 14.942c.13.14.196.303.196.49a.53.53 0 0 1-.154.392.57.57 0 0 1-.448.21c-.196 0-.373-.089-.532-.266-.616-.69-1.125-1.577-1.526-2.66-.392-1.083-.593-2.123-.602-3.122.01-1.008.21-2.049.602-3.122s.9-1.96 1.526-2.66a.65.65 0 0 1 .938-.07c.13.112.196.247.196.406a.765.765 0 0 1-.196.49c-.532.607-.97 1.372-1.316 2.296-.336.924-.504 1.81-.504 2.66 0 .85.168 1.736.504 2.66.345.924.784 1.69 1.316 2.296Zm9.842.826a.667.667 0 0 1-.952.098.545.545 0 0 1-.196-.434c0-.159.06-.313.182-.462.541-.607.98-1.372 1.316-2.296.345-.933.518-1.83.518-2.688 0-.859-.168-1.75-.504-2.674-.336-.924-.775-1.685-1.316-2.282a.657.657 0 0 1-.182-.462c0-.177.08-.331.238-.462a.74.74 0 0 1 .406-.126c.187 0 .35.075.49.224.625.71 1.134 1.605 1.526 2.688.392 1.083.588 2.114.588 3.094 0 .99-.196 2.025-.588 3.108-.392 1.073-.9 1.965-1.526 2.674Z" fill="#000"/></svg>