<svg width="20" height="20" viewBox="0 0 20 20" fill="none" xmlns="http://www.w3.org/2000/svg"><path d="M5.016 12.905a.6.6 0 0 1 .168.42c0 .15-.056.275-.168.378-.15.159-.313.238-.49.238-.196 0-.355-.093-.476-.28l-1.862-2.8a1.566 1.566 0 0 1-.28-.91c0-.308.089-.602.266-.882l1.848-2.744c.121-.177.275-.266.462-.266.168 0 .331.08.49.238a.43.43 0 0 1 .14.336c0 .15-.051.299-.154.448L3.224 9.713a.466.466 0 0 0-.07.252c0 .075.023.159.07.252l1.792 2.688Zm2.506 0a.618.618 0 0 1 .168.434c0 .14-.051.261-.154.364-.159.159-.327.238-.504.238-.196 0-.355-.093-.476-.28l-1.862-2.8a1.558 1.558 0 0 1-.266-.896c0-.336.089-.635.266-.896l1.834-2.744c.13-.177.285-.266.462-.266.159 0 .327.08.504.238a.436.436 0 0 1 .126.322c0 .15-.051.303-.154.462L5.744 9.713a.472.472 0 0 0-.084.266c0 .084.023.163.07.238l1.792 2.688Zm9.254-2.688a.466.466 0 0 0 .07-.252c0-.112-.023-.196-.07-.252L15.04 7.081a.73.73 0 0 1-.14-.434c0-.159.051-.285.154-.378.159-.14.313-.21.462-.21.177 0 .331.089.462.266l1.848 2.744c.177.28.266.574.266.882 0 .336-.093.64-.28.91l-1.862 2.8c-.121.187-.28.28-.476.28-.177 0-.34-.08-.49-.238a.522.522 0 0 1-.168-.378.6.6 0 0 1 .168-.42l1.792-2.688Zm-2.506 0a.441.441 0 0 0 .07-.238.472.472 0 0 0-.084-.266L12.52 7.081a.73.73 0 0 1-.14-.434c0-.159.051-.285.154-.378.159-.14.317-.21.476-.21.177 0 .331.089.462.266l1.834 2.744c.187.27.28.57.28.896 0 .327-.093.625-.28.896l-1.862 2.8a.559.559 0 0 1-.49.28c-.177 0-.34-.08-.49-.238a.58.58 0 0 1-.154-.378c0-.15.051-.29.154-.42l1.806-2.688Z" fill="#000"/></svg>