<svg width="20" height="20" viewBox="0 0 20 20" fill="none" xmlns="http://www.w3.org/2000/svg"><path d="M9.986 17.042a5.92 5.92 0 0 1-3.22-1.498c-.924-.83-1.638-1.909-2.142-3.234-.504-1.335-.756-2.819-.756-4.452 0-.43.023-.924.07-1.484A15.072 15.072 0 0 0 7.186 5.03c1.027-.57 1.769-1.139 2.226-1.708.187-.243.387-.364.602-.364.233 0 .434.121.602.364.43.541 1.153 1.097 2.17 1.666 1.017.57 2.11 1.031 3.276 1.386.047.43.07.933.07 1.512 0 1.633-.257 3.113-.77 4.438-.504 1.325-1.223 2.399-2.156 3.22a5.92 5.92 0 0 1-3.22 1.498Zm0-1.274c.952-.177 1.797-.63 2.534-1.358.737-.728 1.311-1.661 1.722-2.8.41-1.139.616-2.394.616-3.766 0-.243-.005-.425-.014-.546a16.862 16.862 0 0 1-2.772-1.288c-.896-.532-1.587-1.04-2.072-1.526-.495.513-1.195 1.036-2.1 1.568-.905.523-1.82.943-2.744 1.26l-.014.504c0 1.372.2 2.632.602 3.78.41 1.139.985 2.077 1.722 2.814.737.728 1.577 1.18 2.52 1.358Z" fill="#000"/></svg>