<svg width="20" height="20" viewBox="0 0 20 20" fill="none" xmlns="http://www.w3.org/2000/svg"><path d="M4.008 8.901c0 .187-.06.345-.182.476a.626.626 0 0 1-.462.182.674.674 0 0 1-.476-.182.674.674 0 0 1-.182-.476V5.107c0-.317.098-.579.294-.784.205-.205.467-.308.784-.308h3.668c.187 0 .345.065.476.196.13.121.196.275.196.462a.632.632 0 0 1-.196.462.674.674 0 0 1-.476.182H4.274a.297.297 0 0 0-.196.07.246.246 0 0 0-.07.182v3.332Zm8.554 7.084a.648.648 0 0 1-.476-.196.587.587 0 0 1-.196-.448c0-.187.065-.34.196-.462.13-.13.29-.196.476-.196h3.178a.246.246 0 0 0 .182-.07.246.246 0 0 0 .07-.182v-3.682c0-.187.06-.34.182-.462a.632.632 0 0 1 .462-.196c.187 0 .34.065.462.196.13.121.196.275.196.462v4.144c0 .327-.098.588-.294.784-.196.205-.453.308-.77.308h-3.668Z" fill="#000"/></svg>