<svg width="20" height="20" viewBox="0 0 20 20" fill="none" xmlns="http://www.w3.org/2000/svg"><path d="M2.762 10c0 .98.2 1.857.602 2.632a4.68 4.68 0 0 0 1.68 1.806c.71.43 1.517.644 2.422.644h5.054c.915 0 1.727-.215 2.436-.644a4.447 4.447 0 0 0 1.666-1.806c.401-.775.602-1.652.602-2.632 0-.98-.2-1.857-.602-2.632a4.332 4.332 0 0 0-1.666-1.806c-.71-.43-1.521-.644-2.436-.644H7.466c-.905 0-1.713.215-2.422.644a4.552 4.552 0 0 0-1.68 1.806c-.401.775-.602 1.652-.602 2.632Zm-1.274 0c0-1.223.257-2.32.77-3.29.513-.97 1.223-1.722 2.128-2.254.905-.541 1.932-.812 3.08-.812h5.054c1.157 0 2.189.27 3.094.812a5.453 5.453 0 0 1 2.128 2.254c.513.97.77 2.067.77 3.29 0 1.223-.257 2.32-.77 3.29a5.568 5.568 0 0 1-2.128 2.254c-.905.541-1.937.812-3.094.812H7.466c-1.148 0-2.175-.27-3.08-.812a5.694 5.694 0 0 1-2.128-2.254c-.513-.97-.77-2.067-.77-3.29Z" fill="#000"/></svg>