<svg width="20" height="20" viewBox="0 0 20 20" fill="none" xmlns="http://www.w3.org/2000/svg"><path d="M12.268 8.446a.798.798 0 0 1-.42-.154 1.036 1.036 0 0 1-.294-.35L10 4.666 8.446 7.942a.984.984 0 0 1-.308.35.798.798 0 0 1-.42.154L4.26 8.81l2.492 2.492a.87.87 0 0 1 .196.308c.047.112.07.229.07.35 0 .037-.01.103-.028.196l-.77 3.164 3.332-1.848a.902.902 0 0 1 .434-.098.84.84 0 0 1 .448.112l3.332 1.876-.756-3.22a1.189 1.189 0 0 1-.028-.196.9.9 0 0 1 .07-.35.871.871 0 0 1 .196-.308l2.436-2.478-3.416-.364Zm4.298-.756a.835.835 0 0 1 .42.168.717.717 0 0 1 .322.63.872.872 0 0 1-.252.644l-2.758 2.926.742 3.472c.019.075.028.187.028.336 0 .364-.103.611-.308.742a.962.962 0 0 1-.602.182c-.224 0-.448-.056-.672-.168L10 14.676l-3.612 1.946c-.187.093-.392.14-.616.14-.224 0-.415-.051-.574-.154a.781.781 0 0 1-.266-.308 1.055 1.055 0 0 1-.084-.42c0-.056.01-.14.028-.252l.826-3.57L2.93 9.132a.855.855 0 0 1-.182-.28 1.232 1.232 0 0 1-.056-.364c0-.103.014-.196.042-.28A.703.703 0 0 1 3 7.872a.853.853 0 0 1 .434-.182l3.92-.462 1.75-3.472a.924.924 0 0 1 .364-.392.935.935 0 0 1 .518-.154c.177 0 .35.051.518.154a.901.901 0 0 1 .378.392l1.778 3.472 3.906.462Z" fill="#000"/></svg>