<svg width="20" height="20" viewBox="0 0 20 20" fill="none" xmlns="http://www.w3.org/2000/svg"><path d="M7.403 4.49a.587.587 0 0 1-.196.449c-.13.112-.303.168-.518.168-.41 0-.747.117-1.008.35a1.108 1.108 0 0 0-.378.868v1.624c0 .485-.135.91-.406 1.274a1.733 1.733 0 0 1-1.022.7v.098c.42.093.76.327 1.022.7.27.364.406.793.406 1.288v1.75c0 .327.126.597.378.812.261.205.597.308 1.008.308.215 0 .387.051.518.154.13.112.196.257.196.434a.532.532 0 0 1-.224.448.881.881 0 0 1-.574.182c-.495 0-.938-.098-1.33-.294a2.204 2.204 0 0 1-.924-.798 2.156 2.156 0 0 1-.322-1.162v-1.694c0-.252-.084-.49-.252-.714a1.336 1.336 0 0 0-.63-.504 1.1 1.1 0 0 1-.462-.392 1.055 1.055 0 0 1-.168-.574 1.055 1.055 0 0 1 .63-.966c.261-.084.471-.233.63-.448.168-.215.252-.448.252-.7V6.24c0-.448.107-.85.322-1.204.224-.355.532-.63.924-.826a2.823 2.823 0 0 1 1.33-.308c.233 0 .425.056.574.168.15.103.224.243.224.42Zm5.194.043c0-.187.075-.336.224-.448a.881.881 0 0 1 .574-.182c.495 0 .938.103 1.33.308.392.196.695.471.91.826.224.355.336.756.336 1.204v1.61c0 .252.08.485.238.7.168.215.383.364.644.448a.91.91 0 0 1 .448.392.996.996 0 0 1 0 1.148 1.012 1.012 0 0 1-.448.392c-.261.103-.476.27-.644.504a1.214 1.214 0 0 0-.238.714v1.694c0 .43-.112.817-.336 1.162a2.11 2.11 0 0 1-.91.798 2.933 2.933 0 0 1-1.33.294.84.84 0 0 1-.574-.196.57.57 0 0 1-.224-.462.56.56 0 0 1 .196-.448.73.73 0 0 1 .518-.182c.383 0 .695-.098.938-.294a.928.928 0 0 0 .364-.756v-1.75c0-.485.14-.91.42-1.274.29-.373.653-.611 1.092-.714v-.098a1.922 1.922 0 0 1-1.092-.7 2.068 2.068 0 0 1-.42-1.274V6.325c0-.345-.121-.625-.364-.84-.243-.215-.555-.322-.938-.322a.803.803 0 0 1-.518-.168.603.603 0 0 1-.196-.462Z" fill="#000"/></svg>