<svg width="20" height="20" viewBox="0 0 20 20" fill="none" xmlns="http://www.w3.org/2000/svg"><path d="M3.49 11.771c-.355 0-.653-.126-.896-.378a1.3 1.3 0 0 1-.364-.938c0-.644.159-1.171.476-1.582.327-.42.733-.63 1.218-.63.159 0 .28.037.364.112.093.075.14.173.14.294 0 .112-.037.21-.112.294a.461.461 0 0 1-.294.14.887.887 0 0 0-.546.238c-.14.14-.215.331-.224.574l.084.042a.412.412 0 0 1 .21-.182.719.719 0 0 1 .35-.084c.243 0 .443.093.602.28.159.177.238.406.238.686 0 .327-.117.597-.35.812-.233.215-.532.322-.896.322Zm3.038 0c-.364 0-.667-.126-.91-.378a1.328 1.328 0 0 1-.35-.938c0-.644.159-1.171.476-1.582.317-.42.719-.63 1.204-.63.159 0 .28.037.364.112.093.075.14.173.14.294 0 .112-.037.21-.112.294a.461.461 0 0 1-.294.14.828.828 0 0 0-.532.238c-.14.14-.22.331-.238.574l.084.042a.495.495 0 0 1 .224-.182.773.773 0 0 1 .35-.084c.243 0 .439.093.588.28.159.177.238.406.238.686 0 .327-.117.597-.35.812-.233.215-.527.322-.882.322Zm9.996-3.542c.355 0 .649.126.882.378a1.3 1.3 0 0 1 .364.938c0 .653-.159 1.185-.476 1.596-.308.41-.705.616-1.19.616-.345 0-.518-.135-.518-.406a.41.41 0 0 1 .098-.28.435.435 0 0 1 .308-.14.828.828 0 0 0 .532-.238.844.844 0 0 0 .238-.588l-.084-.028c-.037.075-.112.135-.224.182a.837.837 0 0 1-.35.07.773.773 0 0 1-.602-.266 1.085 1.085 0 0 1-.224-.7c0-.327.117-.597.35-.812.233-.215.532-.322.896-.322Zm-3.052 0c.355 0 .649.126.882.378a1.3 1.3 0 0 1 .364.938c0 .653-.159 1.185-.476 1.596-.308.41-.705.616-1.19.616-.345 0-.518-.135-.518-.406a.41.41 0 0 1 .098-.28.435.435 0 0 1 .308-.14.828.828 0 0 0 .532-.238.844.844 0 0 0 .238-.588l-.084-.028c-.037.075-.112.135-.224.182a.837.837 0 0 1-.35.07.773.773 0 0 1-.602-.266 1.085 1.085 0 0 1-.224-.7c0-.327.117-.597.35-.812.233-.215.532-.322.896-.322Z" fill="#000"/></svg>