<svg width="20" height="20" viewBox="0 0 20 20" fill="none" xmlns="http://www.w3.org/2000/svg"><path d="M2.468 7.739c0-.308.098-.555.294-.742.196-.187.448-.28.756-.28h5.054a.208.208 0 0 0 .154-.056.208.208 0 0 0 .056-.154v-.952c0-.635.098-1.12.294-1.456.196-.336.471-.504.826-.504.448 0 .97.257 1.568.77l5.684 4.9c.252.205.378.443.378.714 0 .27-.13.518-.392.742l-5.712 4.928c-.57.504-1.078.756-1.526.756-.355 0-.63-.173-.826-.518-.196-.336-.294-.83-.294-1.484v-.994a.208.208 0 0 0-.056-.154.208.208 0 0 0-.154-.056H3.504c-.308 0-.56-.098-.756-.294a1.033 1.033 0 0 1-.28-.742V7.739Zm1.68.224a.436.436 0 0 0-.322.126.416.416 0 0 0-.112.308v3.122c0 .13.037.238.112.322a.467.467 0 0 0 .322.112h5.208c.205 0 .369.065.49.196a.662.662 0 0 1 .182.49v2.072c0 .205.056.308.168.308.065 0 .145-.042.238-.126l5.292-4.606a.384.384 0 0 0 .154-.308c0-.112-.056-.215-.168-.308l-5.278-4.564c-.093-.084-.173-.126-.238-.126-.112 0-.168.103-.168.308v2.002c0 .196-.065.36-.196.49a.662.662 0 0 1-.49.182H4.148Z" fill="#000"/></svg>