<svg width="20" height="20" viewBox="0 0 20 20" fill="none" xmlns="http://www.w3.org/2000/svg"><path d="M11.554 16.307c-.43.364-.929.546-1.498.546-.55 0-1.05-.182-1.498-.546l-6.244-5.054c-.457-.383-.686-.798-.686-1.246 0-.448.22-.854.658-1.218l6.23-5.096a2.281 2.281 0 0 1 1.498-.546c.57 0 1.073.187 1.512.56l6.16 5.054c.224.177.392.378.504.602.121.215.182.434.182.658 0 .215-.056.43-.168.644a1.987 1.987 0 0 1-.49.574l-6.16 5.068Zm-2.142-.966c.187.15.401.224.644.224.252 0 .471-.08.658-.238l6.006-4.97c.13-.112.196-.229.196-.35 0-.13-.065-.247-.196-.35l-6.062-4.984a.966.966 0 0 0-.644-.238.966.966 0 0 0-.644.238L3.294 9.657a.426.426 0 0 0-.182.35c0 .121.06.238.182.35l6.118 4.984Z" fill="#000"/></svg>