<svg width="20" height="20" viewBox="0 0 20 20" fill="none" xmlns="http://www.w3.org/2000/svg"><path d="M13.738 14.844c.57 0 1.078-.112 1.526-.336a2.544 2.544 0 0 0 1.064-.938 2.5 2.5 0 0 0 .378-1.358c0-.672-.229-1.25-.686-1.736-.448-.495-1.04-.807-1.778-.938a.53.53 0 0 1-.378-.168.613.613 0 0 1-.14-.406c-.01-.747-.14-1.405-.392-1.974-.243-.579-.584-1.027-1.022-1.344a2.443 2.443 0 0 0-1.498-.49 3.05 3.05 0 0 0-2.072.77c-.588.504-.97 1.176-1.148 2.016a.544.544 0 0 1-.196.364.5.5 0 0 1-.392.098 2.785 2.785 0 0 0-.322-.014c-.672 0-1.265.13-1.778.392a2.835 2.835 0 0 0-1.176 1.12c-.28.476-.42 1.04-.42 1.694 0 .625.15 1.185.448 1.68.308.495.732.882 1.274 1.162.55.27 1.176.406 1.876.406h6.832ZM6.906 16.09c-.934 0-1.769-.191-2.506-.574a4.247 4.247 0 0 1-1.722-1.596c-.41-.681-.616-1.456-.616-2.324 0-.84.186-1.596.56-2.268.382-.672.91-1.2 1.582-1.582.681-.392 1.451-.597 2.31-.616a4.385 4.385 0 0 1 .924-1.652c.43-.495.933-.877 1.512-1.148a4.248 4.248 0 0 1 1.848-.42c.756 0 1.437.191 2.044.574a3.974 3.974 0 0 1 1.442 1.568c.364.672.564 1.437.602 2.296.597.168 1.13.448 1.596.84.476.383.84.84 1.092 1.372a3.62 3.62 0 0 1 .364 1.652c0 .747-.178 1.414-.532 2.002a3.616 3.616 0 0 1-1.498 1.372c-.635.336-1.358.504-2.17.504H6.906Z" fill="#000"/></svg>