<svg width="20" height="20" viewBox="0 0 20 20" fill="none" xmlns="http://www.w3.org/2000/svg"><path d="M5.681 14.711c.187 0 .34.065.462.196.13.13.196.29.196.476a.53.53 0 0 1-.196.42.626.626 0 0 1-.462.182H3.735c-.308 0-.56-.098-.756-.294a.96.96 0 0 1-.294-.728V5.051c0-.299.093-.546.28-.742.196-.196.448-.294.756-.294h1.96c.187 0 .34.065.462.196.13.121.196.27.196.448a.587.587 0 0 1-.196.448.626.626 0 0 1-.462.182H4.225a.246.246 0 0 0-.182.07.246.246 0 0 0-.07.182l-.014 8.918c0 .075.023.135.07.182.056.047.121.07.196.07h1.456Zm8.652 1.274a.674.674 0 0 1-.476-.182.587.587 0 0 1-.196-.448c0-.177.065-.327.196-.448.13-.13.29-.196.476-.196h1.442a.246.246 0 0 0 .182-.07.226.226 0 0 0 .084-.182V5.541a.226.226 0 0 0-.084-.182.246.246 0 0 0-.182-.07h-1.442a.674.674 0 0 1-.476-.182.587.587 0 0 1-.196-.448c0-.177.065-.327.196-.448.13-.13.29-.196.476-.196h1.946c.299 0 .546.098.742.294a.96.96 0 0 1 .294.728v9.912c0 .308-.098.555-.294.742a.96.96 0 0 1-.728.294h-1.96Z" fill="#000"/></svg>