<svg width="20" height="20" viewBox="0 0 20 20" fill="none" xmlns="http://www.w3.org/2000/svg"><path d="M16.447 8.117c.13-.14.28-.21.448-.21.15 0 .299.06.448.182.15.13.224.28.224.448 0 .15-.065.299-.196.448l-3.99 4.312c-.224.233-.471.35-.742.35a.965.965 0 0 1-.7-.308L6.493 7.851c-.047-.056-.098-.056-.154 0l-2.786 2.744c-.15.15-.308.224-.476.224-.177 0-.336-.084-.476-.252a.553.553 0 0 1-.168-.406c0-.15.06-.299.182-.448l3.01-3.024c.224-.224.476-.336.756-.336.261 0 .5.107.714.322l5.46 5.488c.047.047.093.047.14 0l3.752-4.046Z" fill="#27292A"/></svg>