<svg width="18" height="18" viewBox="0 0 18 18" fill="none" xmlns="http://www.w3.org/2000/svg"><path d="m1.992 8.613-.003.014a.75.75 0 0 1-1.479-.25l.01-.058.028-.122a5.117 5.117 0 0 1 .703-1.613c.607-.91 1.695-1.834 3.499-1.834 1.035 0 1.947.59 2.713 1.272.75.667 1.487 1.54 2.186 2.368l.08.095c.743.88 1.447 1.704 2.157 2.32.717.621 1.333.931 1.883.945.667.017 1.09-.152 1.372-.362.29-.218.492-.526.629-.878a3.995 3.995 0 0 0 .233-1.44l-.001-.018a.75.75 0 0 1 1.496-.104v.008l.002.013a2.832 2.832 0 0 1 .004.181c.001.116-.003.278-.018.47-.031.38-.112.901-.318 1.433-.207.533-.553 1.105-1.129 1.536-.585.438-1.35.685-2.308.66-1.075-.027-2.022-.613-2.828-1.311-.814-.706-1.593-1.625-2.32-2.485L8.54 9.4c-.729-.864-1.404-1.664-2.073-2.259-.694-.617-1.25-.892-1.716-.892-1.196 0-1.858.576-2.251 1.166a3.617 3.617 0 0 0-.507 1.197Z" fill="#27292A"/></svg>