<svg width="20" height="20" viewBox="0 0 20 20" fill="none" xmlns="http://www.w3.org/2000/svg"><path d="M16.203 9.909a.618.618 0 0 1 .63-.602c.215 0 .378.065.49.196.122.13.178.308.168.532a4.598 4.598 0 0 1-.63 2.002 3.943 3.943 0 0 1-1.386 1.386c-.56.327-1.18.49-1.862.49-.69 0-1.376-.229-2.058-.686a4.711 4.711 0 0 1-1.582-1.764l-1.12-2.17a4.004 4.004 0 0 0-1.176-1.372c-.485-.355-.966-.532-1.442-.532-.42 0-.807.117-1.162.35-.345.224-.634.546-.868.966-.224.41-.359.882-.406 1.414a.64.64 0 0 1-.21.406.587.587 0 0 1-.434.168.637.637 0 0 1-.49-.196.623.623 0 0 1-.154-.504c.066-.756.266-1.428.602-2.016.346-.597.789-1.06 1.33-1.386a3.331 3.331 0 0 1 1.792-.504c.71 0 1.414.238 2.114.714a4.875 4.875 0 0 1 1.624 1.834l1.12 2.184c.271.523.644.957 1.12 1.302.486.336.962.504 1.428.504a2.28 2.28 0 0 0 1.232-.35 2.67 2.67 0 0 0 .91-.966c.234-.41.374-.877.42-1.4Z" fill="#000"/></svg>