<svg width="40" height="12" viewBox="0 0 40 12" fill="none" xmlns="http://www.w3.org/2000/svg"><path fill-rule="evenodd" clip-rule="evenodd" d="M11.428 6.25c-.682 0-1.324.01-1.933.026l-1.07.03-.085-1.5 1.07-.029a73.088 73.088 0 0 1 2.018-.027c.735 0 1.397.005 2.002.015l1.072.018-.05 1.5-1.072-.018c-.587-.01-1.231-.015-1.952-.015Zm4.966-1.388 1.065.082c.839.065 1.64.144 2.512.231.45.045.92.091 1.424.139l1.062.1-.286 1.487-1.062-.1c-.541-.051-1.027-.1-1.483-.145-.85-.085-1.595-.159-2.402-.221l-1.065-.082.235-1.491ZM6.712 6.405l-1.064.092c-1.015.087-1.946.187-2.873.287l-1.005.108-1.06.11L.393 5.52l1.06-.11c.319-.034.642-.07.97-.104.936-.101 1.913-.207 2.964-.297l1.063-.092.262 1.49Zm32.345.142-1.063.097-1.107.102c-1.056.098-2.13.198-3.179.284l-1.064.088-.25-1.49 1.065-.088c1.032-.084 2.081-.182 3.132-.28.375-.034.75-.07 1.125-.103l1.063-.098.278 1.488Zm-14.848-.991 1.067.073c.598.041 1.247.082 1.955.124.612.035 1.293.043 2.03.028l1.072-.021.06 1.5-1.07.02a29.31 29.31 0 0 1-2.27-.033c-.718-.041-1.377-.083-1.986-.125l-1.066-.073.208-1.493Z" fill="#27292A"/></svg>