<svg width="40" height="12" viewBox="0 0 40 12" fill="none" xmlns="http://www.w3.org/2000/svg"><path d="M.045 6.749.022 6 0 5.251C2.51 5 5.144 4.945 7.681 4.945c2.686 0 4.073.23 5.587.305 2.511.126 3.548 0 6.514 0 2.965 0 5.92-.297 7.552-.498 2.991-.369 4.96-.178 6.794-.002 1.58.152 3.23.5 4.872.5v1.5c-1.12 0-1.626-.226-3.478-.383-1.851-.158-2.76-.339-5.507 0-1.654.204-7.892.601-9.76.601-2.813 0-4.23-.225-7.483-.444-3.064-.205-4.936.023-7.008.219-2.526.238-3.796-.187-5.719.006Z" fill="#27292A"/></svg>