<svg width="20" height="20" viewBox="0 0 20 20" fill="none" xmlns="http://www.w3.org/2000/svg"><path d="M4.75 4.736c-.224 0-.41.07-.56.21a.739.739 0 0 0-.21.546v6.622c0 .224.07.41.21.56.15.14.336.21.56.21h1.792a.77.77 0 0 1 .588.238.77.77 0 0 1 .238.588v1.148c0 .047.014.08.042.098.028.019.065.01.112-.028l2.156-1.596c.196-.13.43-.238.7-.322a2.56 2.56 0 0 1 .756-.126h4.13c.224 0 .406-.07.546-.21.14-.15.21-.336.21-.56V5.506a.739.739 0 0 0-.21-.546.714.714 0 0 0-.546-.224H4.75Zm-2.044.686c0-.579.177-1.05.532-1.414.364-.364.83-.546 1.4-.546h10.724c.57 0 1.031.182 1.386.546.364.355.546.821.546 1.4v6.79c0 .579-.177 1.05-.532 1.414-.355.364-.817.546-1.386.546h-4.704l-2.8 2.016c-.336.243-.644.364-.924.364a.664.664 0 0 1-.588-.322c-.13-.205-.196-.504-.196-.896v-1.162H4.666c-.579 0-1.05-.177-1.414-.532-.364-.364-.546-.83-.546-1.4V5.422Z" fill="#000"/></svg>