<svg width="20" height="20" viewBox="0 0 20 20" fill="none" xmlns="http://www.w3.org/2000/svg"><path d="M10.308 13.71c1.11 0 2.086-.187 2.926-.56.85-.383 1.503-.915 1.96-1.596.467-.681.7-1.47.7-2.366 0-.915-.247-1.727-.742-2.436-.485-.71-1.176-1.26-2.072-1.652-.887-.401-1.913-.602-3.08-.602s-2.198.2-3.094.602c-.887.392-1.577.943-2.072 1.652-.485.71-.728 1.521-.728 2.436 0 .737.196 1.433.588 2.086a4.602 4.602 0 0 0 1.652 1.568c.215.103.387.261.518.476.13.215.191.439.182.672l-.014 1.26v.028c0 .065.019.107.056.126.037.019.084.01.14-.028l1.736-1.204c.196-.13.43-.238.7-.322a2.6 2.6 0 0 1 .77-.126l-.126-.014Zm-.336 1.288-2.38 1.484c-.327.205-.63.308-.91.308a.75.75 0 0 1-.644-.336c-.15-.215-.22-.527-.21-.938v-1.498a5.99 5.99 0 0 1-2.17-2.072c-.55-.896-.826-1.815-.826-2.758 0-1.148.303-2.175.91-3.08.616-.915 1.47-1.624 2.562-2.128 1.092-.513 2.324-.77 3.696-.77 1.372 0 2.6.257 3.682.77 1.092.513 1.946 1.223 2.562 2.128.616.905.924 1.932.924 3.08 0 1.12-.299 2.123-.896 3.01-.588.877-1.405 1.563-2.45 2.058-1.045.495-2.226.742-3.542.742h-.308Z" fill="#000"/></svg>