<svg width="20" height="20" viewBox="0 0 20 20" fill="none" xmlns="http://www.w3.org/2000/svg"><path d="M5.051 4.729c-.327 0-.588.098-.784.294-.196.196-.299.457-.308.784v6.034c.01.327.112.593.308.798.196.196.457.294.784.294h1.484a.77.77 0 0 1 .588.238.77.77 0 0 1 .238.588v1.092c0 .056.014.089.042.098.028.019.065.014.112-.014l2.086-1.54c.196-.14.425-.252.686-.336a2.6 2.6 0 0 1 .77-.126h3.906c.327-.01.588-.112.784-.308.196-.196.294-.457.294-.784V5.807c0-.327-.098-.588-.294-.784-.196-.196-.457-.294-.784-.294H5.051Zm-2.366.98c0-.681.205-1.227.616-1.638.41-.41.947-.616 1.61-.616h10.178c.672 0 1.209.205 1.61.616.41.41.616.957.616 1.638v6.23c0 .681-.205 1.232-.616 1.652-.401.41-.938.616-1.61.616h-4.424l-2.8 1.988c-.345.233-.649.35-.91.35a.664.664 0 0 1-.588-.322c-.14-.205-.21-.509-.21-.91v-1.106H4.939c-.672 0-1.218-.205-1.638-.616-.41-.41-.616-.947-.616-1.61V5.709Z" fill="#000"/></svg>