<svg width="20" height="20" viewBox="0 0 20 20" fill="none" xmlns="http://www.w3.org/2000/svg">
<path d="M0 10C0 4.47715 4.47715 0 10 0V0C15.5228 0 20 4.47715 20 10V10C20 15.5228 15.5228 20 10 20V20C4.47715 20 0 15.5228 0 10V10Z" fill="#1C2834" fill-opacity="0.12"/>
<path d="M7.33516 13.5362C7.1965 13.6576 7.04483 13.7182 6.88016 13.7182C6.70683 13.7182 6.55516 13.6576 6.42516 13.5362C6.30383 13.4062 6.24316 13.2546 6.24316 13.0812C6.24316 12.8992 6.30383 12.7476 6.42516 12.6262L12.6522 6.47723C12.7822 6.34723 12.9338 6.28223 13.1072 6.28223C13.2805 6.28223 13.4322 6.34723 13.5622 6.47723C13.6922 6.60723 13.7572 6.75889 13.7572 6.93223C13.7572 7.10556 13.6922 7.25723 13.5622 7.38723L7.33516 13.5362ZM13.5622 12.6262C13.6922 12.7562 13.7572 12.9079 13.7572 13.0812C13.7572 13.2546 13.6922 13.4062 13.5622 13.5362C13.4322 13.6576 13.2805 13.7182 13.1072 13.7182C12.9252 13.7182 12.7735 13.6576 12.6522 13.5362L6.42516 7.38723C6.30383 7.26589 6.24316 7.11423 6.24316 6.93223C6.24316 6.75889 6.30383 6.60723 6.42516 6.47723C6.55516 6.34723 6.70683 6.28223 6.88016 6.28223C7.03616 6.28223 7.18783 6.34723 7.33516 6.47723L13.5622 12.6262Z" fill="#1F2326"/>
</svg>
