<svg width="212" height="271" viewBox="0 0 212 271" version="1.1" xmlns="http://www.w3.org/2000/svg"><g transform="translate(-64 -64)" stroke="none" stroke-width="1" fill="none" fill-rule="evenodd"><path fill="#817F7F" opacity=".099" d="M64 123h180v167H64z"/><path d="M168.21 104.63h71.038a4.752 4.752 0 0 1 4.752 4.752V123H64v-13.618a4.752 4.752 0 0 1 4.752-4.752h71.037L154 92l14.21 12.63Z" fill="#A7AEB3" opacity=".696"/><path d="M64 290h180v40.248a4.752 4.752 0 0 1-4.752 4.752H68.752A4.752 4.752 0 0 1 64 330.248V290Z" fill="#A7AEB3" opacity=".699"/><rect fill="#FFF" opacity=".5" x="118.128" y="304" width="72" height="18" rx="2.376"/><rect fill="#F5B800" fill-rule="nonzero" x="117.596" y="150.995" width="158.404" height="21.451" rx="2.376"/><rect fill="#CFCFCF" fill-rule="nonzero" opacity=".699" x="64" y="64" width="212" height="20" rx="2.376"/><ellipse fill="#000" fill-rule="nonzero" opacity=".303" cx="91.393" cy="161.72" rx="10.719" ry="10.725"/><ellipse fill="#F5B800" fill-rule="nonzero" cx="91.393" cy="201.046" rx="9.528" ry="9.534"/><ellipse fill="#CFCFCF" fill-rule="nonzero" cx="91.393" cy="239.181" rx="9.528" ry="9.534"/><rect fill="#CFCFCF" fill-rule="nonzero" x="117.596" y="191.513" width="142.921" height="19.067" rx="2.376"/><path d="m148.411 68.726 8.145-1.291a2.376 2.376 0 0 1 2.719 1.975l1.288 8.145a2.376 2.376 0 0 1-1.975 2.718l-8.144 1.292a2.376 2.376 0 0 1-2.719-1.975l-1.288-8.145a2.376 2.376 0 0 1 1.975-2.718Z" fill="#EF3420" fill-rule="nonzero"/></g></svg>