<svg width="56" height="10" viewBox="0 0 56 10" version="1.1" xmlns="http://www.w3.org/2000/svg"><g fill="#FFF" stroke="none" stroke-width="1" fill-rule="evenodd"><path d="M5 7.349 2.684 8.994a.5.5 0 0 1-.767-.557l.85-2.711L.485 4.03a.5.5 0 0 1 .293-.9l2.84-.031.907-2.693a.5.5 0 0 1 .948 0L6.38 3.1l2.841.03a.5.5 0 0 1 .293.901l-2.28 1.695.849 2.711a.5.5 0 0 1-.767.557L5 7.35ZM16.5 7.349l-2.316 1.645a.5.5 0 0 1-.767-.557l.85-2.711-2.281-1.695a.5.5 0 0 1 .293-.9l2.84-.031.907-2.693a.5.5 0 0 1 .948 0L17.88 3.1l2.841.03a.5.5 0 0 1 .293.901l-2.28 1.695.849 2.711a.5.5 0 0 1-.767.557L16.5 7.35ZM28 7.349l-2.316 1.645a.5.5 0 0 1-.767-.557l.85-2.711-2.281-1.695a.5.5 0 0 1 .293-.9l2.84-.031.907-2.693a.5.5 0 0 1 .948 0L29.38 3.1l2.841.03a.5.5 0 0 1 .293.901l-2.28 1.695.849 2.711a.5.5 0 0 1-.767.557L28 7.35ZM39.5 7.349l-2.316 1.645a.5.5 0 0 1-.767-.557l.85-2.711-2.281-1.695a.5.5 0 0 1 .293-.9l2.84-.031.907-2.693a.5.5 0 0 1 .948 0L40.88 3.1l2.841.03a.5.5 0 0 1 .293.901l-2.28 1.695.849 2.711a.5.5 0 0 1-.767.557L39.5 7.35ZM51 7.349l-2.316 1.645a.5.5 0 0 1-.767-.557l.85-2.711-2.281-1.695a.5.5 0 0 1 .293-.9l2.84-.031.907-2.693a.5.5 0 0 1 .948 0L52.38 3.1l2.841.03a.5.5 0 0 1 .293.901l-2.28 1.695.849 2.711a.5.5 0 0 1-.767.557L51 7.35Z"/></g></svg>