<svg width="25" height="24" viewBox="0 0 25 24" fill="none" xmlns="http://www.w3.org/2000/svg">
<path fill-rule="evenodd" clip-rule="evenodd" d="M17.5 9H18.5C19.6 9 20.5 9.9 20.5 11V21C20.5 22.1 19.6 23 18.5 23H6.5C5.4 23 4.5 22.1 4.5 21V11C4.5 9.9 5.4 9 6.5 9H7.5V7C7.5 4.24 9.74 2 12.5 2C15.26 2 17.5 4.24 17.5 7V9ZM9.4 7V9H15.6V7C15.6 5.29 14.21 3.9 12.5 3.9C10.79 3.9 9.4 5.29 9.4 7ZM12.5 15.1663L12.4851 15.1665C12.1238 15.1586 11.8333 14.8632 11.8333 14.5C11.8333 14.1318 12.1318 13.8333 12.5 13.8333C12.8682 13.8333 13.1667 14.1318 13.1667 14.5C13.1667 14.8632 12.8762 15.1586 12.5149 15.1665L12.5 15.1663ZM10.5 14.5C10.5 15.3708 11.0565 16.1116 11.8333 16.3862V18.833C11.8333 19.2012 12.1318 19.4997 12.5 19.4997C12.8682 19.4997 13.1667 19.2012 13.1667 18.833V16.3862C13.9435 16.1116 14.5 15.3708 14.5 14.5C14.5 13.3954 13.6046 12.5 12.5 12.5C11.3954 12.5 10.5 13.3954 10.5 14.5Z" fill="#000" fill-opacity="0.3"/>
</svg>
