<svg width="42" height="24" viewBox="0 0 42 24" fill="none" xmlns="http://www.w3.org/2000/svg">
<g clip-path="url(#clip0_3171_600)">
<path d="M28.7899 7.46001C28.3951 7.45773 28.0037 7.5334 27.6382 7.6827C27.2727 7.83199 26.9402 8.05197 26.6599 8.33001L26.5199 7.64001H24.1299V20.56L26.8499 19.97V16.84C27.3909 17.2931 28.0742 17.5409 28.7799 17.54C30.7199 17.54 32.4999 15.95 32.4999 12.43C32.4999 9.21001 30.6999 7.46001 28.7899 7.46001ZM28.1399 15.09C27.9013 15.1038 27.6627 15.0642 27.4413 14.9743C27.2199 14.8843 27.0213 14.7462 26.8599 14.57V10.46C27.022 10.2773 27.2228 10.1331 27.4477 10.038C27.6726 9.94284 27.9159 9.89911 28.1599 9.91001C29.1599 9.91001 29.8399 11.04 29.8399 12.49C29.8399 13.94 29.1499 15.09 28.1399 15.09Z" fill="#000" fill-opacity="0.3"/>
<path d="M37.5196 7.45996C34.8996 7.45996 33.3096 9.71996 33.3096 12.57C33.3096 15.94 35.1896 17.65 37.8696 17.65C38.9155 17.667 39.9484 17.4157 40.8696 16.92V14.67C40.033 15.0921 39.1065 15.3048 38.1696 15.29C37.0896 15.29 36.1696 14.9 36.0296 13.59H41.4096C41.4096 13.44 41.4096 12.85 41.4096 12.59C41.4996 9.71996 40.1396 7.45996 37.5196 7.45996ZM36.0496 11.53C36.0496 10.27 36.8196 9.73996 37.4996 9.73996C38.1796 9.73996 38.8996 10.27 38.8996 11.53H36.0496Z" fill="#000" fill-opacity="0.3"/>
<path d="M16.7898 8.3903L16.6198 7.5703H14.2998V17.2803H16.9798V10.7003C17.2218 10.4064 17.5478 10.1935 17.9141 10.0898C18.2805 9.98618 18.6697 9.99681 19.0298 10.1203V7.5703C18.6207 7.41003 18.1671 7.40494 17.7545 7.55599C17.3419 7.70703 16.9988 8.00378 16.7898 8.3903Z" fill="#000" fill-opacity="0.3"/>
<path d="M3.25 10.4904C3.25 10.0504 3.61 9.88037 4.18 9.88037C5.12467 9.90071 6.05064 10.1476 6.88 10.6004V7.97037C6.02253 7.62367 5.10486 7.45033 4.18 7.46037C1.97 7.46037 0.5 8.64037 0.5 10.6204C0.5 13.7204 4.64 13.2204 4.64 14.5504C4.64 15.0704 4.2 15.2404 3.64 15.2404C2.58346 15.1786 1.55605 14.8704 0.639999 14.3404V17.0304C1.58414 17.4515 2.60621 17.6695 3.64 17.6704C5.9 17.6704 7.46 16.5204 7.46 14.5104C7.41 11.1504 3.25 11.7504 3.25 10.4904Z" fill="#000" fill-opacity="0.3"/>
<path d="M11.0698 5.27051L8.41979 5.85051V14.7805C8.40613 15.1568 8.46935 15.532 8.60559 15.8831C8.74183 16.2342 8.94822 16.5538 9.21215 16.8224C9.47608 17.091 9.79202 17.303 10.1406 17.4454C10.4893 17.5878 10.8633 17.6576 11.2398 17.6505C11.8968 17.6799 12.5513 17.5531 13.1498 17.2805V15.0305C12.7998 15.1805 11.0898 15.6905 11.0898 14.0305V10.0305H13.1498V7.69051H11.0898L11.0698 5.27051Z" fill="#000" fill-opacity="0.3"/>
<path d="M20.04 6.73L22.77 6.16V4L20.04 4.57V6.73Z" fill="#000" fill-opacity="0.3"/>
<path d="M22.77 7.64062H20.04V17.2806H22.77V7.64062Z" fill="#000" fill-opacity="0.3"/>
</g>
<defs>
<clipPath id="clip0_3171_600">
<rect width="41" height="24" fill="#fff" transform="translate(0.5)"/>
</clipPath>
</defs>
</svg>
