<svg width="228" height="142" viewBox="0 0 228 142" version="1.1" xmlns="http://www.w3.org/2000/svg"><g stroke="none" stroke-width="1" fill="none" fill-rule="evenodd"><path fill="#FFF" d="M0 0h228v142H0z"/><path fill="#FFF" d="M0 0h228v142H0z"/><g transform="translate(23 36)"><path d="M133 36.557h21a2 2 0 0 1 2 2v6h-25v-6a2 2 0 0 1 2-2Z" fill="#50A7FD"/><path d="M134 58.057c-18.384 0-25-8.955-25-20 0-11.046 6.212-20 25-20" stroke="#06274F" stroke-width="1.2"/><g fill="#D5D9EC" stroke="#ADB2C9" transform="matrix(-1 0 0 1 158 11.057)"><rect x=".5" y=".5" width="26" height="13" rx="2"/><rect x=".5" y="39.5" width="26" height="13" rx="2"/></g><g stroke="#06274F" stroke-width="1.2"><path d="M50 58.057c18.384 0 25-8.955 25-20 0-11.046-6.212-20-25-20M82.75 38.057h-30.5"/></g><g fill="#D5D9EC" stroke="#ADB2C9" transform="translate(26 11.057)"><rect x=".5" y=".5" width="26" height="13" rx="2"/><rect x=".5" y="20.5" width="26" height="13" rx="2"/><rect x=".5" y="39.5" width="26" height="13" rx="2"/></g><path d="M52.64 6.972C64.564 1.665 77.851-.612 92.5.14c14.649.752 26.816 3.955 36.5 9.61" stroke="#06274F"/><path fill="#06274F" d="m125.577 10.495 2.51-4.417 2.55 4.417z"/><g transform="translate(0 10.675)"><g stroke="#06274F"><path d="M24.016 0c-2.755 1.759-4.133 7.346-4.133 16.762 0 14.124 1.938 17.326 4.133 18.238M16.883 17.5h2.788"/></g><rect fill="#50A7FD" x="0" y="12.882" width="15" height="9" rx="1"/></g><rect stroke="#1975CD" fill="#50A7FD" x="68.5" y="28.557" width="47" height="19" rx="2"/><g transform="translate(158 48.057)"><path d="M7.14 3.558H4.803a2 2 0 0 0-2 2v7.734a2 2 0 0 0 2 2H7.14" stroke="#06274F"/><rect stroke="#ADB2C9" fill="#D5D9EC" x="6.921" y=".5" width="13" height="6" rx="1"/><rect stroke="#ADB2C9" fill="#D5D9EC" x="6.921" y="12" width="13" height="6" rx="1"/><path stroke="#06274F" d="M2.804 9.425H0"/></g><path d="M131.5 44.557h47a4 4 0 0 1 4 4v17a4 4 0 0 1-4 4h-47a4 4 0 0 1-4-4v-17a4 4 0 0 1 4-4Z" stroke="#06274F" stroke-linecap="round" stroke-dasharray="3"/></g></g></svg>