<svg width="114" height="96" viewBox="0 0 114 96" version="1.1" xmlns="http://www.w3.org/2000/svg"><g stroke="#FFF" stroke-width="1" fill="none" fill-rule="evenodd" opacity=".5"><g stroke-width="2"><path d="M49.358 66h16a2 2 0 0 1 2 2v1a2 2 0 0 1-2 2h-16a2 2 0 0 1-2-2v-1a2 2 0 0 1 2-2ZM50.858 71h13a2 2 0 0 1 2 2v1a2 2 0 0 1-2 2h-13a2 2 0 0 1-2-2v-1a2 2 0 0 1 2-2ZM52.996 76c.028 2.773 1.53 4.16 4.504 4.16 2.975 0 4.364-1.387 4.167-4.16M57.358 33a17.445 17.445 0 0 0-12.375 5.126A17.445 17.445 0 0 0 39.858 50.5c0 5.953 2.972 11.21 7.512 14.372 1.457 1.014 5.884.943 10.493.972 3.919.025 7.76.163 9.058-.685 4.779-3.125 7.937-8.523 7.937-14.659 0-4.832-1.96-9.207-5.126-12.374A17.445 17.445 0 0 0 57.358 33Z"/><g stroke-linecap="round"><path d="m50.99 49.652 5.868 5.889M63.358 49.5l-6 6.389"/></g><path d="M57.358 54.54V66"/></g><path stroke-width="3" stroke-linecap="round" d="M39.785 28.75 34.358 23M76.715 29.25l6.143-5.75M30.644 44.625h-8M92.144 44.625h-8M57.858 22.5v-8"/></g></svg>