<svg width="20" height="20" viewBox="0 0 20 20" fill="none" xmlns="http://www.w3.org/2000/svg"><path d="M9.426 5.282c-.336 0-.686.056-1.05.168a3.384 3.384 0 0 0-.966.434L4.596 7.76a1.91 1.91 0 0 0-.84 1.568v1.4c0 .308.075.607.224.896.159.28.364.509.616.686l2.786 1.806c.28.177.602.322.966.434a3.94 3.94 0 0 0 1.05.182h4.942c.579 0 1.04-.173 1.386-.518.345-.355.518-.821.518-1.4V7.186c0-.579-.173-1.04-.518-1.386-.345-.345-.807-.518-1.386-.518H9.426Zm-2.996-.28a5.839 5.839 0 0 1 1.554-.728 5.822 5.822 0 0 1 1.708-.28l4.452.014c.663 0 1.25.14 1.764.42.513.27.91.658 1.19 1.162.28.504.42 1.087.42 1.75v5.278c0 .672-.14 1.265-.42 1.778-.27.513-.658.91-1.162 1.19-.504.28-1.087.42-1.75.42H9.678a5.86 5.86 0 0 1-1.722-.28 5.546 5.546 0 0 1-1.554-.714L3.91 13.36a3.117 3.117 0 0 1-1.036-1.134 3.122 3.122 0 0 1-.392-1.498V9.356c0-.513.126-1.013.378-1.498A3.134 3.134 0 0 1 3.882 6.71L6.43 5.002Z" fill="#000"/></svg>