<svg width="20" height="20" viewBox="0 0 20 20" fill="none" xmlns="http://www.w3.org/2000/svg"><path d="M8.67 5.268c-.215 0-.43.065-.644.196L4.05 8.124a.613.613 0 0 0-.224.238.638.638 0 0 0-.084.308l.014 2.716c0 .112.023.22.07.322.056.093.13.173.224.238l3.934 2.59c.187.13.406.196.658.196h7.056c.168 0 .299-.047.392-.14a.549.549 0 0 0 .154-.406V5.828a.503.503 0 0 0-.154-.392.503.503 0 0 0-.392-.154L8.67 5.268Zm-1.316-.896c.168-.112.364-.2.588-.266.224-.075.439-.112.644-.112l7.588.014c.401 0 .723.121.966.364.252.243.378.565.378.966v9.324c0 .401-.121.723-.364.966-.243.252-.565.378-.966.378h-7.63c-.205 0-.42-.037-.644-.112a2.355 2.355 0 0 1-.602-.266l-4.27-2.842a1.254 1.254 0 0 1-.406-.448 1.203 1.203 0 0 1-.154-.588V8.32c0-.196.051-.392.154-.588.103-.196.233-.345.392-.448l4.326-2.912Z" fill="#000"/></svg>