<svg width="20" height="20" viewBox="0 0 20 20" fill="none" xmlns="http://www.w3.org/2000/svg"><path d="M3.301 5.506c-.093.392-.14.845-.14 1.358 0 .14.01.34.028.602a3.838 3.838 0 0 0 .784 2.016.577.577 0 0 1 .182.42.56.56 0 0 1-.14.392 4.579 4.579 0 0 0-.532 1.092 6.36 6.36 0 0 0-.28 1.302 11.73 11.73 0 0 0-.028.644c0 .597.06 1.013.182 1.246.103.093.34.173.714.238.373.056.803.084 1.288.084.317 0 .64-.065.966-.196.336-.14.635-.327.896-.56a.508.508 0 0 1 .364-.168c.14 0 .266.06.378.182.252.224.55.406.896.546.355.13.705.196 1.05.196.317 0 .64-.065.966-.196.336-.13.63-.308.882-.532a.505.505 0 0 1 .378-.182c.13 0 .252.06.364.182.27.224.574.401.91.532.345.13.677.196.994.196.485 0 .938-.033 1.358-.098.42-.075.719-.173.896-.294.112-.317.168-.747.168-1.288 0-.121-.01-.303-.028-.546a5.286 5.286 0 0 0-.266-1.218 5.272 5.272 0 0 0-.504-1.106.65.65 0 0 1-.14-.406c0-.177.056-.327.168-.448.187-.27.35-.593.49-.966s.229-.742.266-1.106c.019-.224.028-.41.028-.56a6.78 6.78 0 0 0-.14-1.386c-.196-.112-.5-.2-.91-.266a7.191 7.191 0 0 0-1.288-.112c-.327 0-.667.07-1.022.21a3.14 3.14 0 0 0-.924.574c-.112.112-.229.168-.35.168-.13 0-.252-.065-.364-.196a2.79 2.79 0 0 0-.868-.546 2.47 2.47 0 0 0-.98-.21c-.355 0-.714.075-1.078.224a2.75 2.75 0 0 0-.91.574c-.093.121-.205.182-.336.182-.121 0-.238-.06-.35-.182a2.824 2.824 0 0 0-.882-.574 2.434 2.434 0 0 0-.994-.224c-.42 0-.83.037-1.232.112-.392.075-.695.173-.91.294Zm-1.078-.672c.233-.29.653-.523 1.26-.7a6.633 6.633 0 0 1 1.96-.28c.317 0 .681.065 1.092.196.41.13.78.299 1.106.504.327-.205.71-.373 1.148-.504.439-.13.84-.196 1.204-.196.336 0 .71.065 1.12.196.42.13.793.299 1.12.504.327-.205.7-.373 1.12-.504.42-.13.803-.196 1.148-.196.756 0 1.447.098 2.072.294.635.187 1.06.43 1.274.728.168.625.252 1.279.252 1.96a6.437 6.437 0 0 1-.35 2.002 4.75 4.75 0 0 1-.532 1.134c.205.383.383.812.532 1.288.15.467.243.873.28 1.218.019.299.028.523.028.672 0 .495-.037.938-.112 1.33-.075.383-.177.649-.308.798-.233.252-.653.457-1.26.616a7.375 7.375 0 0 1-1.974.252c-.317 0-.69-.065-1.12-.196a4.987 4.987 0 0 1-1.134-.476 4.987 4.987 0 0 1-1.134.476c-.42.13-.789.196-1.106.196-.345 0-.737-.065-1.176-.196a4.877 4.877 0 0 1-1.162-.476 5.29 5.29 0 0 1-1.148.476c-.41.13-.765.196-1.064.196-.71 0-1.353-.089-1.932-.266-.579-.177-.961-.401-1.148-.672-.103-.187-.187-.457-.252-.812a6.34 6.34 0 0 1-.098-1.148c0-.261.014-.523.042-.784.028-.308.117-.69.266-1.148.15-.467.331-.91.546-1.33a6.265 6.265 0 0 1-.546-1.176 5.757 5.757 0 0 1-.28-1.218 8.497 8.497 0 0 1-.056-.84c0-.364.028-.714.084-1.05a3.61 3.61 0 0 1 .238-.868Z" fill="#000"/></svg>