<svg width="20" height="20" viewBox="0 0 20 20" fill="none" xmlns="http://www.w3.org/2000/svg"><path d="M16.657 15.782a2.598 2.598 0 0 0-.868-.504 3.231 3.231 0 0 0-1.05-.182c-.345 0-.681.065-1.008.196-.327.14-.607.331-.84.574-.112.159-.243.238-.392.238-.13 0-.261-.07-.392-.21a3.17 3.17 0 0 0-3.234-.588c-.355.14-.649.327-.882.56-.121.177-.252.266-.392.266s-.266-.065-.378-.196a3.627 3.627 0 0 0-.952-.616 2.474 2.474 0 0 0-.98-.224c-.355 0-.7.051-1.036.154-.336.112-.588.252-.756.42l-1.036-.868c.168-.252.303-.574.406-.966.103-.401.154-.793.154-1.176 0-.392-.06-.789-.182-1.19-.121-.41-.29-.78-.504-1.106a.598.598 0 0 1-.154-.42c0-.187.08-.34.238-.462.187-.243.331-.55.434-.924.112-.373.168-.775.168-1.204 0-.383-.06-.784-.182-1.204a3.738 3.738 0 0 0-.476-1.064l1.05-.854c.177.177.439.327.784.448.355.112.719.168 1.092.168.299 0 .616-.07.952-.21.336-.14.649-.327.938-.56a.562.562 0 0 1 .406-.182c.177 0 .317.08.42.238.233.215.527.387.882.518.364.13.742.2 1.134.21.383-.01.756-.084 1.12-.224.364-.14.681-.327.952-.56.13-.14.27-.21.42-.21.159 0 .294.07.406.21.196.159.443.28.742.364.299.084.625.126.98.126.401 0 .784-.037 1.148-.112.364-.084.625-.191.784-.322l.98.966c-.14.177-.252.448-.336.812-.075.364-.112.76-.112 1.19 0 .215.005.373.014.476.019.364.07.714.154 1.05.093.327.205.602.336.826.14.15.21.322.21.518 0 .15-.051.299-.154.448-.215.336-.387.71-.518 1.12a3.884 3.884 0 0 0-.182 1.12c0 .373.065.77.196 1.19.13.41.299.756.504 1.036l-1.008.896Zm-.672-1.708a3 3 0 0 1-.196-.616 4.527 4.527 0 0 1-.07-.798c0-.383.07-.821.21-1.316.15-.495.336-.952.56-1.372a4.937 4.937 0 0 1-.42-1.092 6.633 6.633 0 0 1-.182-1.218 7.594 7.594 0 0 1 .014-1.022c.037-.373.089-.7.154-.98-.159.037-.373.07-.644.098a7.103 7.103 0 0 1-.756.042c-.401 0-.798-.042-1.19-.126a3.748 3.748 0 0 1-.98-.336c-.327.224-.719.41-1.176.56-.457.14-.887.215-1.288.224-.41-.01-.85-.084-1.316-.224a4.067 4.067 0 0 1-1.162-.546c-.327.215-.7.392-1.12.532-.42.14-.798.21-1.134.21-.224 0-.448-.014-.672-.042a2.698 2.698 0 0 1-.546-.14c.13.42.196.9.196 1.442 0 .41-.065.863-.196 1.358-.13.485-.303.915-.518 1.288.215.392.387.835.518 1.33.13.485.196.929.196 1.33 0 .261-.019.518-.056.77a2.993 2.993 0 0 1-.112.588 3.774 3.774 0 0 1 1.19-.168c.336 0 .71.075 1.12.224.42.14.798.327 1.134.56.327-.233.719-.42 1.176-.56.457-.15.891-.224 1.302-.224.392 0 .812.07 1.26.21.448.14.835.327 1.162.56.299-.233.658-.42 1.078-.56.43-.14.835-.21 1.218-.21.187 0 .392.023.616.07.233.037.443.089.63.154Z" fill="#000"/></svg>