<svg width="20" height="20" viewBox="0 0 20 20" fill="none" xmlns="http://www.w3.org/2000/svg"><path d="M2.678 8.418V4.68c0-.205.06-.369.182-.49a.692.692 0 0 1 .49-.182h4.046v1.274H4.092c-.093 0-.14.042-.14.126v3.01H2.678Zm4.718 7.588H3.364a.711.711 0 0 1-.504-.182.662.662 0 0 1-.182-.49v-3.752h1.274v3.024c0 .037.014.07.042.098.028.019.06.028.098.028h3.304v1.274Zm8.652-7.588v-3.01a.134.134 0 0 0-.042-.098.094.094 0 0 0-.084-.042H12.59V3.994h4.06a.644.644 0 0 1 .672.672v3.752h-1.274Zm-3.458 6.314h3.332a.094.094 0 0 0 .084-.042.134.134 0 0 0 .042-.098v-3.01h1.274v3.738c0 .205-.06.369-.182.49a.636.636 0 0 1-.49.196h-4.06v-1.274Z" fill="#000"/></svg>