<svg width="20" height="20" viewBox="0 0 20 20" fill="none" xmlns="http://www.w3.org/2000/svg"><path d="M6.059 15.992c-.663 0-1.25-.14-1.764-.42a2.857 2.857 0 0 1-1.19-1.162c-.28-.504-.42-1.087-.42-1.75V7.382c0-.672.135-1.26.406-1.764.28-.513.672-.91 1.176-1.19.504-.28 1.087-.42 1.75-.42h7.91c.672 0 1.265.14 1.778.42.513.27.91.658 1.19 1.162.28.504.42 1.087.42 1.75v5.278c0 .663-.14 1.25-.42 1.764-.27.513-.663.91-1.176 1.19-.504.28-1.087.42-1.75.42h-7.91Zm-2.1-3.388c0 .635.191 1.148.574 1.54.383.383.896.574 1.54.574h7.84c.635 0 1.143-.191 1.526-.574.392-.383.593-.896.602-1.54V7.396c0-.635-.196-1.143-.588-1.526-.383-.392-.891-.588-1.526-.588H6.073c-.635 0-1.148.191-1.54.574-.383.383-.574.896-.574 1.54v5.208Z" fill="#000"/></svg>