<svg width="20" height="20" viewBox="0 0 20 20" fill="none" xmlns="http://www.w3.org/2000/svg"><path d="M16.65 14.263c-.027-.252-.111-.588-.251-1.008-.112-.401-.201-.742-.266-1.022a4.705 4.705 0 0 1-.084-.896c0-.336.028-.64.084-.91.065-.27.158-.579.28-.924.102-.327.177-.597.224-.812.056-.215.084-.448.084-.7 0-.215-.019-.406-.056-.574a4.586 4.586 0 0 0-.14-.574 23.666 23.666 0 0 1-.168-.658 6.008 6.008 0 0 1-.084-.686 7.157 7.157 0 0 0-.434.168c-.402.15-.742.266-1.022.35-.28.084-.57.126-.868.126a2.73 2.73 0 0 1-.84-.126 8.357 8.357 0 0 1-.91-.364 7.28 7.28 0 0 0-.602-.252 1.384 1.384 0 0 0-.462-.084c-.15 0-.304.028-.462.084-.159.056-.355.14-.588.252-.355.159-.658.28-.91.364a2.598 2.598 0 0 1-.826.126 2.72 2.72 0 0 1-.826-.112 8.512 8.512 0 0 1-.812-.35 6.45 6.45 0 0 0-.644-.266 1.494 1.494 0 0 0-.546-.098c-.15 0-.29.019-.42.056-.131.037-.304.098-.518.182-.28.103-.5.182-.658.238-.15.047-.341.084-.574.112.037.168.135.434.294.798.158.355.28.686.364.994.084.299.126.667.126 1.106 0 .457-.038.845-.112 1.162-.075.317-.182.672-.322 1.064a8.204 8.204 0 0 0-.21.63 2.195 2.195 0 0 0-.056.504c0 .261.046.672.14 1.232.074.392.126.723.154.994.196-.047.401-.103.616-.168.382-.112.718-.2 1.008-.266.289-.065.578-.098.868-.098.308 0 .588.042.84.126.261.084.574.205.938.364.233.112.424.196.574.252.158.056.308.084.448.084.149 0 .294-.023.434-.07.14-.056.354-.145.644-.266.336-.159.634-.28.896-.364a2.73 2.73 0 0 1 .84-.126c.317 0 .592.042.826.126.242.075.508.187.798.336.233.121.434.215.602.28.177.056.364.084.56.084.214 0 .392-.014.532-.042.14-.037.317-.089.532-.154.14-.047.289-.089.448-.126.158-.047.331-.08.518-.098Zm1.275.756a.413.413 0 0 1-.154.308.394.394 0 0 1-.322.112c-.28-.01-.504 0-.672.028a6.75 6.75 0 0 0-.574.168 5.7 5.7 0 0 1-.7.196 4.35 4.35 0 0 1-.882.07c-.392 0-.728-.047-1.008-.14a6.518 6.518 0 0 1-.91-.392 5.916 5.916 0 0 0-.49-.224 1.043 1.043 0 0 0-.378-.07c-.14 0-.29.028-.448.084-.15.056-.341.14-.574.252a10.3 10.3 0 0 1-.938.364 2.693 2.693 0 0 1-.854.126 2.73 2.73 0 0 1-.84-.126 8.342 8.342 0 0 1-.91-.364 8.826 8.826 0 0 0-.616-.252 1.233 1.233 0 0 0-.434-.084c-.168 0-.355.023-.56.07-.196.056-.444.13-.742.224a12.34 12.34 0 0 1-.924.252c-.243.065-.49.098-.742.098a2.42 2.42 0 0 1-.308-.014.557.557 0 0 1-.308-.21.514.514 0 0 1-.098-.35c.009-.243 0-.462-.028-.658a9.371 9.371 0 0 0-.112-.756 8.652 8.652 0 0 1-.168-1.568c0-.336.028-.64.084-.91a9.68 9.68 0 0 1 .28-.924c.102-.299.182-.56.238-.784.056-.233.084-.48.084-.742 0-.224-.028-.42-.084-.588a6.207 6.207 0 0 0-.252-.616 5.183 5.183 0 0 1-.406-1.05c-.094-.364-.136-.84-.126-1.428a.431.431 0 0 1 .154-.294.38.38 0 0 1 .322-.084c.261.019.49.005.686-.042.196-.047.424-.126.686-.238.27-.121.522-.21.756-.266a3.37 3.37 0 0 1 .868-.098c.401 0 .742.047 1.022.14.289.093.597.224.924.392.224.112.392.191.504.238a1.233 1.233 0 0 0 .812-.028 6.12 6.12 0 0 0 .588-.252c.345-.159.648-.28.91-.364.261-.084.546-.126.854-.126.317 0 .602.042.854.126.261.084.574.205.938.364.233.112.424.196.574.252.158.056.308.084.448.084.149 0 .308-.028.476-.084.177-.056.387-.14.63-.252.41-.159.732-.275.966-.35.233-.075.485-.112.756-.112.121 0 .214.005.28.014.13.028.228.093.294.196.074.103.107.22.098.35-.01.27.004.5.042.686.037.177.093.378.168.602.093.29.163.579.21.868.056.28.084.663.084 1.148 0 .448-.038.835-.112 1.162a10.28 10.28 0 0 1-.308 1.036 8.24 8.24 0 0 0-.21.63c-.038.168-.056.34-.056.518 0 .187.018.373.056.56.046.187.121.457.224.812.14.439.242.835.308 1.19.074.345.098.719.07 1.12Z" fill="#000"/></svg>