<svg width="20" height="20" viewBox="0 0 20 20" fill="none" xmlns="http://www.w3.org/2000/svg"><path d="M3.714 16.006c-.308 0-.56-.098-.756-.294-.196-.187-.294-.434-.294-.742V5.044c0-.317.093-.57.28-.756.196-.196.448-.294.756-.294h12.6c.308 0 .555.098.742.294.196.187.294.434.294.742v9.926c0 .308-.093.56-.28.756-.187.196-.434.294-.742.294h-12.6Zm.224-1.596c0 .103.028.182.084.238.065.056.15.084.252.084H15.74c.103 0 .182-.028.238-.084a.353.353 0 0 0 .084-.238V5.604c0-.103-.028-.182-.084-.238a.296.296 0 0 0-.238-.098H4.274a.341.341 0 0 0-.252.098c-.056.056-.084.135-.084.238v8.806Z" fill="#000"/></svg>