<svg width="40" height="40" viewBox="0 0 40 40" version="1.1" xmlns="http://www.w3.org/2000/svg"><g stroke="none" stroke-width="1" fill="#000" fill-rule="evenodd"><path d="M24.528 3c.552 0 .88.137.88.34 0 .201-.367.266-.88.266-.514 0-.876.024-1.513.053-2.021.088-2.75 2.111-2.648 4.19.101 2.078.73 7.44.633 12.19 0 .822-.448 1-1 1a1 1 0 0 1-.993-.884L19 20.038V7.961C19 5.67 20 3.19 23.015 3h1.513Z"/><path d="M24.528 37.038c.552 0 .88-.136.88-.339 0-.202-.367-.267-.88-.267-.514 0-.876-.024-1.513-.052-2.021-.088-2.75-2.112-2.648-4.19.101-2.078.73-7.44.633-12.19 0-.823-.448-1-1-1a1 1 0 0 0-.993.883L19 20v12.078c0 2.29 1 4.77 4.015 4.96h1.513Z"/></g></svg>