<svg width="16" height="16" viewBox="0 0 16 16" fill="none" xmlns="http://www.w3.org/2000/svg">
<path fill-rule="evenodd" clip-rule="evenodd" d="M8 -0.000488281C3.582 -0.000488281 0 3.58151 0 7.99951C0 12.4175 3.582 15.9995 8 15.9995C12.418 15.9995 16 12.4175 16 7.99951C16 3.58151 12.418 -0.000488281 8 -0.000488281ZM11.3585 4.64394C11.0915 4.37692 10.6585 4.37693 10.3915 4.64396L8.00195 7.03359L5.61257 4.64412C5.34555 4.3771 4.91262 4.37709 4.64559 4.64411C4.37856 4.91113 4.37855 5.34406 4.64557 5.61109L7.03499 8.00059L4.64685 10.3888C4.37983 10.6558 4.37984 11.0888 4.64687 11.3558C4.9139 11.6228 5.34683 11.6228 5.61385 11.3558L8.00195 8.96759L10.3902 11.3559C10.6572 11.623 11.0902 11.623 11.3572 11.356C11.6242 11.0889 11.6242 10.656 11.3572 10.389L8.96892 8.00059L11.3585 5.61092C11.6255 5.34389 11.6255 4.91096 11.3585 4.64394Z" fill="#E53232"/>
</svg>
