<svg width="16" height="16" viewBox="0 0 16 16" fill="none" xmlns="http://www.w3.org/2000/svg">
<path fill-rule="evenodd" clip-rule="evenodd" d="M7.99916 0.000488281C3.58162 0.000488281 0 3.58249 0 8.00049C0 12.4185 3.58162 16.0005 7.99916 16.0005C12.4167 16.0005 15.9983 12.4185 15.9983 8.00049C15.9983 3.58249 12.4167 0.000488281 7.99916 0.000488281ZM7.10939 4.44561C7.10939 3.95438 7.50734 3.55615 7.99824 3.55615C8.48914 3.55615 8.88709 3.95438 8.88709 4.44561C8.88709 4.93684 8.48914 5.33507 7.99824 5.33507C7.50734 5.33507 7.10939 4.93684 7.10939 4.44561ZM7.99824 6.22282C7.50734 6.22281 7.10938 6.62103 7.10938 7.11226V11.5562C7.10937 12.0474 7.50731 12.4456 7.99821 12.4456C8.48911 12.4456 8.88707 12.0474 8.88708 11.5562V7.11229C8.88708 6.62106 8.48914 6.22283 7.99824 6.22282Z" fill="#9EA3A8"/>
</svg>
