<svg width="16" height="16" viewBox="0 0 16 16" fill="none" xmlns="http://www.w3.org/2000/svg">
<path fill-rule="evenodd" clip-rule="evenodd" d="M8 0.000488281C3.582 0.000488281 0 3.58249 0 8.00049C0 12.4185 3.582 16.0005 8 16.0005C12.418 16.0005 16 12.4185 16 8.00049C16 3.58249 12.418 0.000488281 8 0.000488281ZM11.4527 5.96256C11.6484 5.65665 11.559 5.25005 11.2531 5.05438C10.9472 4.85871 10.5406 4.94808 10.3449 5.25399L7.21217 10.1518L5.55545 8.57945C5.29205 8.32947 4.87589 8.34034 4.62591 8.60373C4.37593 8.86713 4.3868 9.2833 4.6502 9.53327L6.88443 11.6537C7.02671 11.7887 7.22185 11.8532 7.41657 11.8295C7.61129 11.8058 7.78525 11.6963 7.89095 11.5311L11.4527 5.96256Z" fill="#2F9952"/>
</svg>
