<svg width="16" height="16" viewBox="0 0 16 16" fill="none" xmlns="http://www.w3.org/2000/svg">
<path fill-rule="evenodd" clip-rule="evenodd" d="M7.99916 0.00146484C3.58162 0.00146484 0 3.58346 0 8.00146C0 12.4195 3.58162 16.0015 7.99916 16.0015C12.4167 16.0015 15.9983 12.4195 15.9983 8.00146C15.9983 3.58346 12.4167 0.00146484 7.99916 0.00146484ZM7.99824 9.78011C7.50734 9.78012 7.10938 9.3819 7.10938 8.89067V4.44678C7.10937 3.95554 7.50731 3.55731 7.99821 3.55731C8.48911 3.5573 8.88707 3.95552 8.88708 4.44675V8.89064C8.88708 9.38187 8.48914 9.7801 7.99824 9.78011ZM7.10939 11.5573C7.10939 12.0486 7.50734 12.4468 7.99824 12.4468C8.48914 12.4468 8.88709 12.0486 8.88709 11.5573C8.88709 11.0661 8.48914 10.6679 7.99824 10.6679C7.50734 10.6679 7.10939 11.0661 7.10939 11.5573Z" fill="#F27B13"/>
</svg>
