<svg width="66" height="40" viewBox="0 0 66 40" fill="none" xmlns="http://www.w3.org/2000/svg"><path d="M22.923 10h5.76V8h-5.76v2ZM30.603 10h1.92V8h-1.92v2ZM44.043 10h-1.92V8h1.92v2ZM34.443 10h5.76V8h-5.76v2ZM50.003 16.109c.019-.6 0-1.199-.056-1.796l1.991-.187a16.4 16.4 0 0 1 .064 2.045l-1.999-.062ZM45.843 10.067a5 5 0 0 1 3.7 2.758l1.8-.87a7 7 0 0 0-5.18-3.862l-.32 1.974ZM49.092 26.869a5.24 5.24 0 0 0 .706-1.445l1.91.592a7.24 7.24 0 0 1-.975 1.996l-1.641-1.143ZM50.003 18.06v5.76h2v-5.76h-2ZM39.243 29h1.92v2h-1.92v-2ZM47.981 28.011a4.88 4.88 0 0 1-2.142.916c-.905.08-1.814.105-2.722.074l-.069 1.998a24.07 24.07 0 0 0 3.07-.091 6.88 6.88 0 0 0 3.066-1.299l-1.203-1.598ZM27.723 29h1.92v2h-1.92v-2ZM37.323 29h-5.76v2h5.76v-2ZM17.424 27.477a5 5 0 0 0 1.274.958l-.93 1.77a7.002 7.002 0 0 1-1.786-1.342l1.442-1.386ZM22.888 29c-.92.033-1.84.007-2.755-.076l-.18 1.992c.992.09 1.99.118 2.987.084h2.863v-2H22.888ZM16.003 17.1v1.92h-2V17.1h2ZM16.003 23.82v-2.88h-2v2.869a7.128 7.128 0 0 0 .698 3.233l1.804-.864a5.13 5.13 0 0 1-.502-2.335v-.023ZM21.015 10a5.391 5.391 0 0 0-1.594.261l-.616-1.902A7.39 7.39 0 0 1 20.99 8l.024 2ZM16.5 12.819a5 5 0 0 1 1.519-1.836l-1.192-1.606a7 7 0 0 0-2.824 5.833l2-.06a5 5 0 0 1 .496-2.331Z" fill="#27292A"/></svg>