<svg width="66" height="40" viewBox="0 0 66 40" fill="none" xmlns="http://www.w3.org/2000/svg"><path fill-rule="evenodd" clip-rule="evenodd" d="M21 11c-.68 0-1.326.135-1.914.379l-.923.383-.767-1.847.924-.383A6.982 6.982 0 0 1 21 9h3v2h-3Zm5-2h6v2h-6V9Zm8 0h6v2h-6V9Zm8 0h3c.947 0 1.853.189 2.68.532l.923.383-.766 1.847-.923-.383A4.982 4.982 0 0 0 45 11h-3V9Zm-25.238 4.163-.383.923A4.982 4.982 0 0 0 16 16v3.25h-2V16c0-.947.189-1.853.532-2.68l.383-.924 1.847.767Zm34.323-.767.383.924c.343.827.532 1.733.532 2.68v3.25h-2V16c0-.68-.135-1.325-.379-1.914l-.383-.923 1.847-.767ZM16 21.75V25c0 .68.135 1.326.379 1.914l.383.923-1.847.767-.383-.924A6.981 6.981 0 0 1 14 25v-3.25h2Zm36 0V25c0 .947-.189 1.853-.532 2.68l-.383.924-1.847-.767.383-.923A4.982 4.982 0 0 0 50 25v-3.25h2Zm-33.837 7.488.923.383A4.982 4.982 0 0 0 21 30h3v2h-3a6.981 6.981 0 0 1-2.68-.532l-.924-.383.767-1.847Zm30.44 1.847-.923.383A6.981 6.981 0 0 1 45 32h-3v-2h3c.68 0 1.325-.135 1.914-.379l.923-.383.766 1.847ZM26 30h6v2h-6v-2Zm8 0h6v2h-6v-2Z" fill="#27292A"/></svg>