<svg width="66" height="40" viewBox="0 0 66 40" fill="none" xmlns="http://www.w3.org/2000/svg"><path fill-rule="evenodd" clip-rule="evenodd" d="M33.975 10.025h-2.16v-2h2.16v2ZM38.295 10.025h-2.16v-2h2.16v2ZM29.655 10.025h-6.48v-2h6.48v2ZM49.32 12.498a4.909 4.909 0 0 0-1.163-1.354l1.256-1.557a6.91 6.91 0 0 1 1.637 1.905l-1.73 1.006ZM50.016 16.123c.028-.662 0-1.325-.083-1.983l1.984-.25c.097.768.13 1.543.097 2.317l-1.998-.084ZM46.643 10.3a8.61 8.61 0 0 0-2.876-.277 1.022 1.022 0 0 1-.072.002h-3.24v-2h3.205a10.61 10.61 0 0 1 3.507.345l-.524 1.93ZM48.303 27.786c.454-.401.834-.878 1.124-1.41l1.756.958a7.21 7.21 0 0 1-1.556 1.95l-1.324-1.498ZM45.01 29.025a5.07 5.07 0 0 0 1.762-.326l.706 1.872a7.07 7.07 0 0 1-2.458.454l-.01-2ZM50.023 19.977c-.004-.546-.008-1.096-.008-1.652h2c0 .524.004 1.055.007 1.589.012 1.63.023 3.3-.069 4.947l-1.997-.112c.089-1.578.078-3.158.067-4.772ZM32.055 29.025h2.16v2h-2.16v-2ZM27.735 29.025h2.16v2h-2.16v-2ZM36.375 29.025h6.48v2h-6.48v-2ZM16.71 26.552a4.91 4.91 0 0 0 1.162 1.355l-1.255 1.557a6.909 6.909 0 0 1-1.636-1.906l1.728-1.006ZM16.014 22.927c-.028.662 0 1.325.083 1.983l-1.984.25a13.859 13.859 0 0 1-.097-2.317l1.998.084ZM19.387 28.75a8.612 8.612 0 0 0 2.876.278.97.97 0 0 1 .072-.003h3.24v2H22.37a10.61 10.61 0 0 1-3.507-.345l.524-1.93ZM17.727 11.265c-.454.4-.834.877-1.124 1.409l-1.756-.958a7.209 7.209 0 0 1 1.556-1.95l1.324 1.499ZM21.02 10.025a5.07 5.07 0 0 0-1.762.326l-.706-1.872a7.07 7.07 0 0 1 2.458-.454l.01 2ZM16.007 19.073c.004.547.008 1.097.008 1.652h-2c0-.524-.004-1.054-.007-1.589-.012-1.63-.023-3.3.069-4.947l1.996.112c-.088 1.579-.077 3.158-.066 4.772Z" fill="#27292A"/></svg>