<svg width="66" height="40" viewBox="0 0 66 40" fill="none" xmlns="http://www.w3.org/2000/svg"><path d="M22.997 11h2V9h-2v2ZM26.987 11h2V9h-2v2ZM32.967 11h-1.99V9h1.99v2ZM34.967 11h1.99V9h-1.99v2ZM40.947 11h-1.99V9h1.99v2ZM42.937 11h2V9h-2v2ZM48.036 12.032a4.901 4.901 0 0 0-1.454-.773l.629-1.898a6.9 6.9 0 0 1 2.047 1.087l-1.222 1.584ZM49.175 13.245c.305.457.529.963.66 1.496l1.942-.482a6.76 6.76 0 0 0-.939-2.124l-1.663 1.11ZM50.007 18.47v-1.99h2v1.99h-2ZM50.007 20.46v2h2v-2h-2ZM49.85 26.281c.129-.57.181-1.155.157-1.74l1.999-.082a8.689 8.689 0 0 1-.204 2.26l-1.951-.438ZM49.21 27.702a5.26 5.26 0 0 1-1.126 1.235l1.245 1.566a7.257 7.257 0 0 0 1.554-1.705l-1.673-1.096ZM44.96 30a5.5 5.5 0 0 0 1.692-.28l.63 1.9a7.502 7.502 0 0 1-2.309.38l-.014-2ZM43.017 30h-2v2h2v-2ZM37.027 30h2v2h-2v-2ZM35.037 30h-1.99v2h1.99v-2ZM29.057 30h1.99v2h-1.99v-2ZM27.056 30h-1.99v2h1.99v-2ZM21.076 30h2v2h-2v-2ZM19.43 29.74a4.9 4.9 0 0 1-1.453-.772l-1.221 1.584a6.898 6.898 0 0 0 2.046 1.087l.629-1.898ZM16.177 26.259c.133.533.356 1.039.661 1.496l-1.663 1.11a6.76 6.76 0 0 1-.939-2.124l1.941-.482ZM16.007 24.52v-1.99h-2v1.99h2ZM16.007 18.54v2h-2v-2h2ZM16.006 16.509a6.685 6.685 0 0 1 .156-1.74l-1.951-.438a8.689 8.689 0 0 0-.204 2.26l1.999-.082ZM17.93 12.063a5.26 5.26 0 0 0-1.127 1.235l-1.673-1.096a7.257 7.257 0 0 1 1.554-1.704l1.245 1.565ZM19.361 11.28a5.5 5.5 0 0 1 1.692-.28l-.013-2a7.5 7.5 0 0 0-2.308.38l.63 1.9Z" fill="#27292A"/></svg>