<svg width="66" height="40" viewBox="0 0 66 40" fill="none" xmlns="http://www.w3.org/2000/svg"><path fill-rule="evenodd" clip-rule="evenodd" d="m17.238 8.697.271.003h.007l29.955.357c.269-.135.563-.167.848-.116.354.064.66.25.897.433.48.371.94.94 1.319 1.474.39.548.737 1.124.985 1.557a22.72 22.72 0 0 1 .378.687l.022.042.006.011.002.004-.382.198.383-.197.082.16.005.18c.036 1.138-.015 2.471-.112 3.84.065 1.365.096 2.796.108 4.099a168.397 168.397 0 0 1-.03 4.92v.045c.108.946-.07 1.744-.434 2.397-.366.657-.894 1.121-1.403 1.444-.443.281-.89.467-1.25.587l-.142.19-.358.03c-4.915.41-12.477.725-18.796.936a1100.17 1100.17 0 0 1-10.53.301l-.664.016-.18.004a1.487 1.487 0 0 1-.853-.166 2.711 2.711 0 0 1-.675-.502 4.683 4.683 0 0 1-.471-.552 16.8 16.8 0 0 1-.94-.862 11.96 11.96 0 0 1-1.258-1.44c-.354-.49-.668-1.036-.805-1.584l.449-.242a599.05 599.05 0 0 1-.338-8.223 748.517 748.517 0 0 1-.1-3.035l-.025-.863-.008-.286c-.057-.735.224-1.463.566-2.074.355-.635.835-1.247 1.299-1.77a18.595 18.595 0 0 1 1.842-1.797l.034-.028.01-.008.003-.003.025.028-.024-.028.03.023.017-.014.01-.007.003-.003.002-.002h.001l.104.137-.103-.138.218-.163Zm-2.046 5.484-.383.554.24 6.211a443.67 443.67 0 0 1 .14-6.08l.01-.362a8.44 8.44 0 0 1-.007-.323Zm2.583-2.877-.976 3.315-.12 11.415 1.36 3.166 29.538.238.49-.575 1.149-2.588.358-3.817-.383-1.921.727-6.817-2.562-2.791-.685.012a4760.346 4760.346 0 0 1-11.805.19c-6.326.092-13.385.18-17.091.173Z" fill="#27292A"/><path fill-rule="evenodd" clip-rule="evenodd" d="m22.205 8.94.243 2.99-3.82.31-1.99 2.25v6.297h-3v-7.434l3.544-4.005 5.023-.408Z" fill="#27292A"/></svg>