<svg width="66" height="40" viewBox="0 0 66 40" fill="none" xmlns="http://www.w3.org/2000/svg"><path fill-rule="evenodd" clip-rule="evenodd" d="m15.997 9.276 3.237-.192v.02h.002l-.005.468v.422h-.003v.02l-.1-.002v.596h-.007l.309.697c-.793-.002-1.512.068-2.108.064l-.299.493-.458-.291a1.907 1.907 0 0 0-.056.052l-.195-.212-.376-.283-.165-.002.065-.141-.333-.88c.04-.04.08-.076.12-.111l-.025-.029c.165-.156.326-.293.472-.408l-.075-.28Zm6.183.299-.68 2.18c1.562 0 4.056.23 5.861.229v-.537c.07 0 .138.141.207.142v-.178h.003l.015-2.642-5.256.336v.03h-.003l-.004.418h-.143v.022Zm12.938-.365v-.032l-4.145-.006v.036l-.002.345h-.255v.025l-.299 2.402c2.085.196 3.18-.058 4.856-.062l-.001-.33h.318l-.472-2.378Zm15.594 1.886.284-.8c-.147-.26-.295-.307-.59-.464-.159-.084-.253-.44-.457-.415-.131.016-.313-.186-.423-.124l-2.427-.017-.002.248h-.469l-.166 1.923h.008v.005l1.451.191.77.528.05-.169.067.116 2.024-.813-.12-.209Zm-11.751.817h-.005l-1.014-2.83h.362l.002-.314 5.697.486v.016h.008l.189 2.374c.493.142-.28-.001-.424-.002l.001.27c-1.511.004-2.964.013-4.816.018v-.018Zm-23.975 0-.232-.158c-.22.436-.556.88-.508 1.433l-.002.114-.005.407c-.004.353-.008 1.423-.012 2.046h.048v.013l-.004.732c-.012.563-.074.516-.087 1.22h.055v.007l1.74-.015.35.007v-.004h.055l.045-3.924.495-.908-.196-.124.004-.005-.223-.16.024-.097-.257-.072-.018-.01-1.238-.553-.034.051Zm34.656.456-.491.156c.015.051.03.102.043.152l-.252.108.405.867.293 4.225.227-.008h.026l-.001.035.095.002v.002l1.293.083.615.012v-.004l.094.001c.018-1.418.016-3.652-.022-4.745l-.001-.036-.006-.036-.432.077.432-.077v-.003l-.002-.005-.003-.022a19.863 19.863 0 0 0-.07-.358c-.048-.232-.12-.552-.215-.895l-.376.108a5.514 5.514 0 0 0-.02-.067l-1.547.4-.014-.021-.071.049Zm-33.328 7.157.058 2.775-1.541-.038-.56.012c-.03-1.424-.32-1.504-.325-2.75l.53-.001 1.838.002Zm33.763 2.11-.005-.14.167-.007v-.017l1.221.03.34-.013v.011h.168c.003 1.096-.006 4.331-.016 5.027l-.014.82-.005.22v.034c.073.553-.194 1.055-.3 1.465l-1.166-.293.02-.086-.36-.443-.189-.082.013-.028-.223-.13.088-.159-.014-.012.071-.09.186-.583.018-5.524Zm-32.69 3.828.474 1.428-.54.227.01.09-2.112 1.626-.186.105-.214.168-.026-.034-.28.157a6.29 6.29 0 0 1-.513-1.28l-.063-.605c-.025-.491.019-.819 0-1.332l.063-.002V26h.008c-.01-.7.181-.662.185-1.5h.078v-.003L16.724 24l.662 1.464Zm29.571 6.4.006.132c.92-.044 1.907-.354 2.69-.412l.18-.014.132-.126-.116-.129.116.129.003-.002.004-.004.014-.014a4.223 4.223 0 0 0 .172-.178c.176-.048.364-.564.553-.664l-.136-.307c.044-.055.09-.114.136-.175l-.17-.133.023-.04-.233-.135-.093-.184c-.031.017-.712-.864-.744-.85l-.249-.195-.002.002-.877.364-1.897.696.146 2.04h.012l.001.036.303-.01.001.174h.025Zm-31.095-1.786-.016-.03.094-.051.056-.059.019.019.14-.075.052-.054.017.017 1.636-1.953.18-.142.025.032.128-.095 1.236.376 1.557.539V28.688l-1.6 3.129h-.008l.001.094h-.014v.017l-1.854.022-.658.008h-.01l-.12.002-.108-.054a3.311 3.311 0 0 1-.137-.071c-.454-.064-.806-.907-1.128-1.233l.512-.524Zm23.422 1.272h-.002l-.132-1.8 4.535.016v.059h.003l.002.11.288-.003v1.329l.023.791c-1.626.049-2.711-.123-4.486-.101l-.003-.29h-.005v-.041l-.221.004-.002-.074Zm-8.628-1.91-.132 2.332.133-.002v.222c1.673.004 3.205.141 4.932.131l-.228-2.39h-.003l-.002-.294-.2.001v-.006l-.002-.075-4.499.015.001.066Zm-4.188.223-.002-.223-4.234-.038v.061l-.053.001v.034l.235 2.39h.037v.04c1.513.018 3.253.037 5.124.05l.002-.224h.009l-.894-.563-.221-1.527h-.003Z" fill="#27292A"/></svg>