<svg width="128" height="128" viewBox="0 0 128 128" fill="none" xmlns="http://www.w3.org/2000/svg">
<g clip-path="url(#clip0_2087_117)">
<g filter="url(#filter0_ddddd_2087_117)">
<path d="M23 26.0553C23 21.0542 27.0542 17 32.0553 17H82.2427C83.4466 17 84.6009 17.4795 85.4505 18.3324L103.42 36.3728C104.266 37.2214 104.74 38.3703 104.74 39.5681V101.362C104.74 106.363 100.686 110.418 95.685 110.418H32.0553C27.0542 110.418 23 106.363 23 101.362V26.0553Z" fill="url(#paint0_linear_2087_117)"/>
</g>
<mask id="mask0_2087_117" style="mask-type:alpha" maskUnits="userSpaceOnUse" x="23" y="17" width="82" height="94">
<path d="M23 26.0553C23 21.0542 27.0542 17 32.0553 17H83.3825C84.574 17 85.7174 17.4696 86.5649 18.3071L103.395 34.9381C104.256 35.7887 104.74 36.9484 104.74 38.1586V101.362C104.74 106.363 100.686 110.418 95.685 110.418H32.0553C27.0542 110.418 23 106.363 23 101.362V26.0553Z" fill="url(#paint1_linear_2087_117)"/>
</mask>
<g mask="url(#mask0_2087_117)">
<path fill-rule="evenodd" clip-rule="evenodd" d="M37.54 42C37.54 41.1939 38.1935 40.5403 38.9997 40.5403H69.9997C70.8058 40.5403 71.4593 41.1939 71.4593 42C71.4593 42.8061 70.8058 43.4596 69.9997 43.4596H38.9997C38.1935 43.4596 37.54 42.8061 37.54 42ZM74.17 42C74.17 41.1939 74.8235 40.5403 75.6297 40.5403H88.6297C89.4358 40.5403 90.0893 41.1939 90.0893 42C90.0893 42.8061 89.4358 43.4596 88.6297 43.4596H75.6297C74.8235 43.4596 74.17 42.8061 74.17 42ZM37.54 49C37.54 48.1939 38.1935 47.5403 38.9997 47.5403H69.9997C70.8058 47.5403 71.4593 48.1939 71.4593 49C71.4593 49.8061 70.8058 50.4596 69.9997 50.4596H38.9997C38.1935 50.4596 37.54 49.8061 37.54 49ZM74.17 49C74.17 48.1939 74.8235 47.5403 75.6297 47.5403H88.6297C89.4358 47.5403 90.0893 48.1939 90.0893 49C90.0893 49.8061 89.4358 50.4596 88.6297 50.4596H75.6297C74.8235 50.4596 74.17 49.8061 74.17 49ZM37.54 56C37.54 55.1939 38.1935 54.5403 38.9997 54.5403H69.9997C70.8058 54.5403 71.4593 55.1939 71.4593 56C71.4593 56.8061 70.8058 57.4596 69.9997 57.4596H38.9997C38.1935 57.4596 37.54 56.8061 37.54 56ZM74.17 56C74.17 55.1939 74.8235 54.5403 75.6297 54.5403H88.6297C89.4358 54.5403 90.0893 55.1939 90.0893 56C90.0893 56.8061 89.4358 57.4596 88.6297 57.4596H75.6297C74.8235 57.4596 74.17 56.8061 74.17 56ZM37.54 63C37.54 62.1938 38.1935 61.5403 38.9997 61.5403H88.6278C89.4339 61.5403 90.0874 62.1938 90.0874 63C90.0874 63.8061 89.4339 64.4596 88.6278 64.4596H38.9997C38.1935 64.4596 37.54 63.8061 37.54 63ZM37.54 70C37.54 69.1938 38.1935 68.5403 38.9997 68.5403H88.6277C89.4339 68.5403 90.0874 69.1938 90.0874 70C90.0874 70.8061 89.4339 71.4596 88.6277 71.4596H38.9997C38.1935 71.4596 37.54 70.8061 37.54 70ZM37.54 77C37.54 76.1939 38.1935 75.5403 38.9997 75.5403H88.6277C89.4339 75.5403 90.0874 76.1939 90.0874 77C90.0874 77.8061 89.4339 78.4596 88.6277 78.4596H38.9997C38.1935 78.4596 37.54 77.8061 37.54 77ZM37.54 84C37.54 83.1939 38.1935 82.5403 38.9997 82.5403H88.6277C89.4339 82.5403 90.0874 83.1939 90.0874 84C90.0874 84.8061 89.4339 85.4596 88.6277 85.4596H38.9997C38.1935 85.4596 37.54 84.8061 37.54 84ZM37.54 91C37.54 90.1939 38.1935 89.5403 38.9997 89.5403H88.6277C89.4339 89.5403 90.0874 90.1939 90.0874 91C90.0874 91.8061 89.4339 92.4596 88.6277 92.4596H38.9997C38.1935 92.4596 37.54 91.8061 37.54 91ZM37.54 98C37.54 97.1939 38.1935 96.5403 38.9997 96.5403H88.6277C89.4339 96.5403 90.0874 97.1939 90.0874 98C90.0874 98.8061 89.4339 99.4596 88.6277 99.4596H38.9997C38.1935 99.4596 37.54 98.8061 37.54 98Z" fill="#E6E6E6"/>
<path fill-rule="evenodd" clip-rule="evenodd" d="M36.8096 33C36.8096 31.7905 37.7901 30.81 38.9996 30.81H88.6276C89.8371 30.81 90.8176 31.7905 90.8176 33C90.8176 34.2095 89.8371 35.19 88.6276 35.19H38.9996C37.7901 35.19 36.8096 34.2095 36.8096 33Z" fill="#E6E6E6"/>
<g filter="url(#filter1_ddi_2087_117)">
<path d="M84.3664 29.3572V19.3539C84.3664 18.1036 83.3528 17.09 82.1025 17.09L88.894 14.8262L97.9493 23.8815L107.005 32.9368L104.741 39.7283C104.741 38.6567 103.872 37.788 102.8 37.788H92.7972C88.141 37.788 84.3664 34.0134 84.3664 29.3572Z" fill="url(#paint2_linear_2087_117)"/>
</g>
</g>
<path d="M53.9981 75.0971C53.9981 75.0971 61.8273 69.9551 79.2157 68.173C96.6041 66.3909 91.6603 74.7808 91.6603 74.7808C91.6603 74.7808 91.5241 73.9438 90.3087 73.293C89.0933 72.6423 86.4141 72.2118 78.4087 72.9426C70.4033 73.6735 70.0249 73.8076 66.2925 74.5105C62.5601 75.2133 57.6924 76.5388 51.9316 79.19C52.7426 77.6882 53.9981 75.0971 53.9981 75.0971Z" fill="#B12525"/>
<path d="M60.1055 37.145C60.1055 37.145 55.8125 37.7798 56.1008 42.9518C56.3892 48.1239 56.9959 56.9683 63.5576 66.6397C70.1193 76.311 84.7244 78.854 88.7311 78.009C92.2653 77.2681 91.8909 75.1777 91.8909 75.1777C91.8909 75.1777 91.2781 75.8845 89.9606 76.0086C88.9048 76.1151 87.8386 76.0385 86.8089 75.7824C82.0453 74.4628 73.2209 72.1922 68.4133 65.4803C65.622 61.5837 63.7578 57.557 62.4062 54.145C61.0206 50.6529 60.4619 46.9365 60.2497 42.1749C60.1756 40.4048 60.3458 37.948 61.5532 37.8498C62.5664 37.8498 63.3153 38.7869 63.7378 39.7921C64.2924 41.1117 64.1963 42.2991 64.2424 43.6867C65.3837 42.5113 65.586 41.3119 65.3597 40.0825C65.2663 39.4616 65.0417 38.8677 64.7009 38.3404C63.3453 36.3861 60.1055 37.145 60.1055 37.145Z" fill="#D52A2A"/>
<path d="M63.9055 46.3694C63.9055 46.3694 64.34 45.7907 64.5062 46.5155C64.7665 49.5851 64.4762 58.0851 61.2143 65.3116C56.5469 75.6558 50.0933 86.4444 45.9224 90.9858C43.4815 93.5207 40.504 93.1203 38.742 92.6557C36.9799 92.1912 34.521 89.6422 37.1521 86.2602C40.1957 82.3456 44.6068 80.8939 46.5631 80.4314C45.4939 81.6067 42.6065 84.3299 40.6842 86.929C39.2826 88.8352 38.4176 90.6634 38.8281 91.0939C39.5769 91.8768 44.5828 85.7556 48.3953 79.9708C50.7461 76.4046 53.4913 71.3046 56.7631 64.3525C59.7847 57.945 61.8451 52.1702 62.1575 51.137C62.7942 48.9644 63.9055 46.3694 63.9055 46.3694Z" fill="#F84040"/>
<path d="M39.0305 91.1921C39.0305 91.1921 37.9272 91.2722 37.2724 90.8697C36.1571 90.1849 35.9349 89.2899 36.019 88.8033C36.0558 88.4228 36.1504 88.0501 36.2993 87.698C36.5516 87.1654 38.9384 82.3337 46.5513 80.4315C44.2306 82.634 43.2274 83.8975 40.9688 86.5366C40.2379 87.5378 39.8314 88.0624 39.413 88.8694C39.1066 89.4561 38.2436 91.0639 39.0305 91.1921Z" fill="#B12525"/>
</g>
<defs>
<filter id="filter0_ddddd_2087_117" x="17.1614" y="11.1614" width="105.095" height="126.989" filterUnits="userSpaceOnUse" color-interpolation-filters="sRGB">
<feFlood flood-opacity="0" result="BackgroundImageFix"/>
<feColorMatrix in="SourceAlpha" type="matrix" values="0 0 0 0 0 0 0 0 0 0 0 0 0 0 0 0 0 0 127 0" result="hardAlpha"/>
<feOffset dy="1.45965"/>
<feGaussianBlur stdDeviation="1.45965"/>
<feColorMatrix type="matrix" values="0 0 0 0 0 0 0 0 0 0 0 0 0 0 0 0 0 0 0.08 0"/>
<feBlend mode="normal" in2="BackgroundImageFix" result="effect1_dropShadow_2087_117"/>
<feColorMatrix in="SourceAlpha" type="matrix" values="0 0 0 0 0 0 0 0 0 0 0 0 0 0 0 0 0 0 127 0" result="hardAlpha"/>
<feOffset dx="2.9193" dy="4.37895"/>
<feGaussianBlur stdDeviation="2.9193"/>
<feColorMatrix type="matrix" values="0 0 0 0 0 0 0 0 0 0 0 0 0 0 0 0 0 0 0.07 0"/>
<feBlend mode="normal" in2="effect1_dropShadow_2087_117" result="effect2_dropShadow_2087_117"/>
<feColorMatrix in="SourceAlpha" type="matrix" values="0 0 0 0 0 0 0 0 0 0 0 0 0 0 0 0 0 0 127 0" result="hardAlpha"/>
<feOffset dx="4.37895" dy="11.6772"/>
<feGaussianBlur stdDeviation="3.64912"/>
<feColorMatrix type="matrix" values="0 0 0 0 0 0 0 0 0 0 0 0 0 0 0 0 0 0 0.04 0"/>
<feBlend mode="normal" in2="effect2_dropShadow_2087_117" result="effect3_dropShadow_2087_117"/>
<feColorMatrix in="SourceAlpha" type="matrix" values="0 0 0 0 0 0 0 0 0 0 0 0 0 0 0 0 0 0 127 0" result="hardAlpha"/>
<feOffset dx="8.75789" dy="18.9754"/>
<feGaussianBlur stdDeviation="4.37895"/>
<feColorMatrix type="matrix" values="0 0 0 0 0 0 0 0 0 0 0 0 0 0 0 0 0 0 0.01 0"/>
<feBlend mode="normal" in2="effect3_dropShadow_2087_117" result="effect4_dropShadow_2087_117"/>
<feColorMatrix in="SourceAlpha" type="matrix" values="0 0 0 0 0 0 0 0 0 0 0 0 0 0 0 0 0 0 127 0" result="hardAlpha"/>
<feOffset/>
<feGaussianBlur stdDeviation="2.9193"/>
<feComposite in2="hardAlpha" operator="out"/>
<feColorMatrix type="matrix" values="0 0 0 0 0 0 0 0 0 0 0 0 0 0 0 0 0 0 0.07 0"/>
<feBlend mode="normal" in2="effect4_dropShadow_2087_117" result="effect5_dropShadow_2087_117"/>
<feBlend mode="normal" in="SourceGraphic" in2="effect5_dropShadow_2087_117" result="shape"/>
</filter>
<filter id="filter1_ddi_2087_117" x="27.7707" y="-39.5057" width="133.566" height="133.566" filterUnits="userSpaceOnUse" color-interpolation-filters="sRGB">
<feFlood flood-opacity="0" result="BackgroundImageFix"/>
<feColorMatrix in="SourceAlpha" type="matrix" values="0 0 0 0 0 0 0 0 0 0 0 0 0 0 0 0 0 0 127 0" result="hardAlpha"/>
<feOffset dx="-0.905531" dy="0.905531"/>
<feGaussianBlur stdDeviation="1.3583"/>
<feComposite in2="hardAlpha" operator="out"/>
<feColorMatrix type="matrix" values="0 0 0 0 0 0 0 0 0 0 0 0 0 0 0 0 0 0 0.12 0"/>
<feBlend mode="normal" in2="BackgroundImageFix" result="effect1_dropShadow_2087_117"/>
<feColorMatrix in="SourceAlpha" type="matrix" values="0 0 0 0 0 0 0 0 0 0 0 0 0 0 0 0 0 0 127 0" result="hardAlpha"/>
<feOffset/>
<feGaussianBlur stdDeviation="27.1659"/>
<feComposite in2="hardAlpha" operator="out"/>
<feColorMatrix type="matrix" values="0 0 0 0 0 0 0 0 0 0 0 0 0 0 0 0 0 0 0.2 0"/>
<feBlend mode="normal" in2="effect1_dropShadow_2087_117" result="effect2_dropShadow_2087_117"/>
<feBlend mode="normal" in="SourceGraphic" in2="effect2_dropShadow_2087_117" result="shape"/>
<feColorMatrix in="SourceAlpha" type="matrix" values="0 0 0 0 0 0 0 0 0 0 0 0 0 0 0 0 0 0 127 0" result="hardAlpha"/>
<feOffset dy="-0.452766"/>
<feGaussianBlur stdDeviation="1.58762"/>
<feComposite in2="hardAlpha" operator="arithmetic" k2="-1" k3="1"/>
<feColorMatrix type="matrix" values="0 0 0 0 1 0 0 0 0 1 0 0 0 0 1 0 0 0 1 0"/>
<feBlend mode="normal" in2="shape" result="effect3_innerShadow_2087_117"/>
</filter>
<linearGradient id="paint0_linear_2087_117" x1="16.2085" y1="12.4723" x2="104.498" y2="91.7063" gradientUnits="userSpaceOnUse">
<stop stop-color="#F9F9F9"/>
<stop stop-color="white"/>
<stop offset="1" stop-color="#F8F8F8"/>
</linearGradient>
<linearGradient id="paint1_linear_2087_117" x1="27.5411" y1="17" x2="63.6627" y2="89.502" gradientUnits="userSpaceOnUse">
<stop stop-color="#EBEBEB"/>
<stop offset="1" stop-color="#FAFAFB"/>
</linearGradient>
<linearGradient id="paint2_linear_2087_117" x1="96.8174" y1="27.8432" x2="88.3281" y2="36.3326" gradientUnits="userSpaceOnUse">
<stop stop-color="#EEEEEE"/>
<stop offset="1" stop-color="white"/>
</linearGradient>
<clipPath id="clip0_2087_117">
<rect width="128" height="128" fill="white"/>
</clipPath>
</defs>
</svg>
