<svg width="72" height="12" viewBox="0 0 72 12" fill="none" xmlns="http://www.w3.org/2000/svg"><path d="M4.542 5.25h-4.5v1.5h4.5v-1.5ZM8.502 5.25h-2v1.5h2v-1.5ZM15.002 5.25h-4.5v1.5h4.5v-1.5ZM18.962 5.25h-2v1.5h2v-1.5ZM20.961 5.25h4.5v1.5h-4.5v-1.5ZM27.421 5.25h2v1.5h-2v-1.5ZM35.921 5.25h-4.5v1.5h4.5v-1.5ZM39.881 5.25h-2v1.5h2v-1.5ZM41.882 5.25h4.5v1.5h-4.5v-1.5ZM48.342 5.25h2v1.5h-2v-1.5ZM56.842 5.25h-4.5v1.5h4.5v-1.5ZM60.802 5.25h-2v1.5h2v-1.5ZM62.801 5.25h4.5v1.5h-4.5v-1.5ZM69.261 5.25h2v1.5h-2v-1.5Z" fill="#27292A"/></svg>