<svg width="72" height="12" viewBox="0 0 72 12" fill="none" xmlns="http://www.w3.org/2000/svg"><path d="M4.542 5.25h-4.5v1.5h4.5v-1.5ZM6.502 5.25h2v1.5h-2v-1.5ZM10.502 5.25h2v1.5h-2v-1.5ZM19.002 5.25h-4.5v1.5h4.5v-1.5ZM20.962 5.25h2v1.5h-2v-1.5ZM24.961 5.25h2v1.5h-2v-1.5ZM28.961 5.25h4.5v1.5h-4.5v-1.5ZM37.421 5.25h-2v1.5h2v-1.5ZM41.421 5.25h-2v1.5h2v-1.5ZM47.921 5.25h-4.5v1.5h4.5v-1.5ZM49.881 5.25h2v1.5h-2v-1.5ZM53.881 5.25h2v1.5h-2v-1.5ZM57.881 5.25h4.5v1.5h-4.5v-1.5ZM66.341 5.25h-2v1.5h2v-1.5ZM70.341 5.25h-2v1.5h2v-1.5Z" fill="#27292A"/></svg>