<svg width="72" height="12" viewBox="0 0 72 12" fill="none" xmlns="http://www.w3.org/2000/svg"><path d="M0 5.25h2v1.5H0v-1.5ZM3.5 5.25h2v1.5h-2v-1.5ZM9 5.25H7v1.5h2v-1.5ZM10.5 5.25h2v1.5h-2v-1.5ZM16 5.25h-2v1.5h2v-1.5ZM17.5 5.25h2v1.5h-2v-1.5ZM23 5.25h-2v1.5h2v-1.5ZM24.5 5.25h2v1.5h-2v-1.5ZM30 5.25h-2v1.5h2v-1.5ZM31.5 5.25h2v1.5h-2v-1.5ZM37 5.25h-2v1.5h2v-1.5ZM38.5 5.25h2v1.5h-2v-1.5ZM44 5.25h-2v1.5h2v-1.5ZM45.5 5.25h2v1.5h-2v-1.5ZM51 5.25h-2v1.5h2v-1.5ZM52.5 5.25h2v1.5h-2v-1.5ZM58 5.25h-2v1.5h2v-1.5ZM59.5 5.25h2v1.5h-2v-1.5ZM65 5.25h-2v1.5h2v-1.5ZM66.5 5.25h2v1.5h-2v-1.5ZM72 5.25h-2v1.5h2v-1.5Z" fill="#27292A"/></svg>