<svg width="73" height="12" viewBox="0 0 73 12" fill="none" xmlns="http://www.w3.org/2000/svg"><path d="M.486 6.727H.478l-.395.022L.042 6 0 5.251l.398-.021A503.267 503.267 0 0 1 5.134 5c2.876-.125 6.39-.251 8.907-.251 1.903 0 3.511-.032 4.893-.06l1.22-.023c1.619-.027 2.915-.029 3.97.087.877.097 6.938.496 12.418.496 5.476 0 10.934-.297 13.95-.498 3.895-.26 7.087-.154 9.653-.07 1.073.036 2.037.068 2.896.068 1.537 0 3.315.128 4.936.252l.484.038c1.444.112 2.713.21 3.58.21v1.5c-.611 0-1.385-.017-2.247-.037-2.053-.046-4.611-.104-6.703.036-.431.028-2.096.013-3.856-.003l-.56-.005c-2.005-.018-3.993-.031-4.584.008-2.187.146-7.954.084-12.32.037a467.36 467.36 0 0 0-4.23-.036c-1.014 0-2.312.047-3.782.1-1.054.037-2.196.078-3.387.107-2.817.07-5.86.07-8.413-.211-4.95-.547-7.886-.493-11.312-.004-1.82.26-4.377.258-6.44.195A94.163 94.163 0 0 1 .56 6.753L.504 6.75l-.02-.001.002-.02Z" fill="#27292A"/></svg>