<svg width="73" height="12" viewBox="0 0 73 12" fill="none" xmlns="http://www.w3.org/2000/svg"><path fill-rule="evenodd" clip-rule="evenodd" d="M56.58 5.75c-.374 0-.889.04-1.546.108l-.746.078-.155-1.492.745-.078c.663-.069 1.244-.116 1.703-.116.479 0 .949.009 1.408.025l.75.027-.054 1.499-.75-.027a38.289 38.289 0 0 0-1.354-.024Zm3.823-1.306.747.072c1 .096 1.93.214 2.773.328l.743.101-.201 1.487-.744-.101a69.694 69.694 0 0 0-2.715-.322l-.746-.072.143-1.493Zm-7.859 1.703-.745.083c-.995.112-2.093.225-3.272.317l-.748.058-.116-1.495.747-.059a95.303 95.303 0 0 0 3.222-.311l.745-.084.167 1.49ZM2.581 6.25c-.546 0-1.13.017-1.72.045l-.748.036-.071-1.499.749-.035a38.18 38.18 0 0 1 1.79-.047c.38 0 .823.022 1.31.06l.748.057-.115 1.496-.747-.058A16.12 16.12 0 0 0 2.58 6.25Zm26.5 0c-.316 0-.764.045-1.336.128l-.742.107-.215-1.484.742-.108c.587-.085 1.122-.143 1.55-.143.53 0 1.155.016 1.84.041l.75.028-.056 1.5-.75-.029c-.676-.025-1.28-.04-1.783-.04Zm4.729-1.322.749.04.633.035c.999.055 2.01.11 2.986.157l.75.037-.073 1.498-.75-.036a481.566 481.566 0 0 1-3.628-.193l-.749-.04.082-1.498Zm-28.13.055.745.09c.792.096 1.637.206 2.502.319l.743.097-.194 1.487-.744-.097c-.865-.113-1.703-.222-2.487-.317l-.745-.09.18-1.49Zm60.221.142.745.085c.52.06 3.725.513 4.07.513l-.162 1.504c-.43 0-3.54-.465-4.078-.527l-.745-.085.17-1.49Zm-19.918 1.58-.75.02c-.533.016-1.076.025-1.627.025-.512.033-1.142.042-1.846.034l-.75-.008.017-1.5.75.008a23.75 23.75 0 0 0 1.754-.032l.025-.002h.025c.545 0 1.082-.008 1.609-.024l.75-.021.043 1.5Zm-20.336.026-.738.133c-.91.163-1.892.337-2.884.486l-.741.111-.224-1.483.742-.112c.97-.145 1.932-.315 2.842-.479l.738-.132.265 1.476ZM10.672 5.62l.745.093c.847.106 1.683.206 2.482.29l.746.079-.157 1.491-.746-.078a127.96 127.96 0 0 1-2.512-.294l-.744-.094.186-1.488Zm9.16 2.017-.748.054c-.512.037-1.016.058-1.503.058-.402 0-.837-.014-1.297-.04l-.75-.042.084-1.497.749.041c.44.025.847.038 1.214.038.444 0 .911-.02 1.395-.054l.748-.054.108 1.496Z" fill="#27292A"/></svg>