<svg width="62" height="18" viewBox="0 0 62 18" fill="none" xmlns="http://www.w3.org/2000/svg">
<path fill-rule="evenodd" clip-rule="evenodd" d="M58.7926 4.49353H51.9177V5.85456H49.4629V4.49353V4.0321V3.57038H54.068V2.30176H56.6376V3.57038H60.6115C60.9632 3.57656 61.2472 3.86996 61.2472 4.23221L61.2472 4.23431L61.2476 4.23808L61.248 4.24222V4.49353V5.85456H58.7926V4.49353ZM60.759 12.5268L61.5303 15.1326H61.5202L61.5303 15.1641H49.4629V14.2413H54.1828V10.3648H49.4629V9.44163H54.1828V7.61712H49.4629V6.69427H54.1828H56.5226H61.2424V7.61712H56.5226V9.44163H61.2424V10.3648H56.5226V14.2413H58.9259L58.3338 12.2396H60.3782C60.5565 12.2399 60.7075 12.3606 60.759 12.5268ZM37.0429 2.41853L34.5253 8.37204H36.457V15.457H38.569V6.05991H37.8039L39.3941 2.41853H37.0429ZM42.444 7.29986C42.3639 7.13595 42.2 7.02354 42.0093 7.02206H40.1816L41.605 11.5068H43.7685L42.444 7.29986ZM44.8758 2.52747H47.0702V4.82048H47.9613V5.74333H47.0702V14.3335V14.4333C47.0602 14.8968 46.7006 15.2699 46.2507 15.2891H43.4062V14.3335H44.5218C44.7078 14.3232 44.857 14.1761 44.8758 13.9878V5.74333H39.4667V4.82048H44.8758V2.52747ZM29.1613 6.70474H33.3776C32.7432 9.13399 31.1606 10.95 29.3546 12.2878C30.6011 13.0617 32.1888 13.8636 34.1931 14.5934V15.6602C34.1931 15.6602 31.0617 15.0378 27.9441 13.2183C24.8316 15.0522 21.6113 15.6602 21.6113 15.6602V14.5331C23.6983 13.9089 25.313 13.1291 26.5578 12.3201C25.2029 11.3452 23.9437 10.1157 23.0588 8.58075H25.2477C25.2477 8.58075 25.9177 9.78993 27.9232 11.3081C30.1615 9.41061 30.6135 7.64495 30.6135 7.64495H22.4535V6.70474H26.5501V5.19422H21.6963V4.25312H26.5501V2.78586C26.5501 2.53867 26.7435 2.33915 26.9821 2.33915L26.9827 2.33856H29.1613V4.25312H34.0501V5.19422H29.1613V6.70474Z" fill="#BDC2C7"/>
<path d="M15.6175 0H3.38347C1.79023 0 0.5 1.2906 0.5 2.88367V15.1168C0.5 16.7089 1.79023 18 3.38347 18H15.6175C17.2104 18 18.5 16.7089 18.5 15.1168V2.88367C18.5 1.2906 17.2104 0 15.6175 0Z" fill="#1677FF"/>
<path d="M5.36385 13.8418C2.56353 13.8418 1.73563 11.6361 3.11955 10.4293C3.58137 10.0214 4.42525 9.82232 4.87517 9.77764C6.53863 9.61326 8.07847 10.2479 9.89565 11.1348C8.61834 12.8011 6.99143 13.8418 5.36385 13.8418ZM15.3201 11.3021C14.5999 11.0608 13.6334 10.6919 12.5569 10.3025C13.2034 9.17862 13.7198 7.89881 14.0591 6.50789H10.511V5.22993H14.8575V4.5166H10.511V2.38622H8.73719C8.42603 2.38622 8.42603 2.6934 8.42603 2.6934V4.5166H4.03009V5.22993H8.42603V6.50789H4.79661V7.22105H11.8358C11.5782 8.10854 11.2323 8.94174 10.8218 9.69874C8.53774 8.94511 6.10045 8.33429 4.56927 8.71026C3.59004 8.95152 2.95937 9.38211 2.58887 9.83328C0.888337 11.9023 2.108 15.0449 5.69933 15.0449C7.82274 15.0449 9.86827 13.861 11.4537 11.91C13.8184 13.0467 18.5001 14.9984 18.5001 14.9984V12.2169C18.5001 12.2169 17.9122 12.17 15.3201 11.3021Z" fill="white"/>
</svg>
