<svg width="40" height="40" viewBox="0 0 40 40" fill="none" xmlns="http://www.w3.org/2000/svg"><path fill-rule="evenodd" clip-rule="evenodd" d="m3.513 9.959 33.942.091a1 1 0 0 1 .249.032 1 1 0 0 1 1.25.924c.075 1.705.037 4.77.01 7.532l-.008.947c-.019 2.09-.148 4.741-.272 6.86-.04.687-.08 1.32-.116 1.862a.998.998 0 0 1-.113 1.658l-.01.135-.005.073v.001L37.442 30l.998.074a1 1 0 0 1-1.998-.076H2.5a1 1 0 0 1-.996-1.088.997.997 0 0 1-.105-.382C1.246 26.354 1 21.354 1 18.474c0-2.099.13-3.494.26-5.354.035-.51.07-.98.102-1.395a.998.998 0 0 1 .14-1.637l.01-.12.006-.063.524.05-.524-.05a1 1 0 0 1 1.995.054Zm-.163 2c-.03.39-.063.828-.096 1.299C3.127 15.102 3 16.444 3 18.474c0 2.655.216 7.211.367 9.524h33.21c.034-.52.072-1.121.11-1.77.124-2.112.25-4.723.269-6.76l.009-.947c.022-2.335.052-4.534.018-6.472l-33.633-.09Z" fill="#000"/></svg>