<svg width="40" height="40" viewBox="0 0 40 40" fill="none" xmlns="http://www.w3.org/2000/svg"><path fill-rule="evenodd" clip-rule="evenodd" d="M7.066 13.087C3.78 14.99 2 17.47 2 20c0 2.53 1.78 5.01 5.066 6.913C10.326 28.8 14.897 30 20 30c5.103 0 9.673-1.2 12.934-3.087C36.221 25.01 38 22.53 38 20c0-1.564-.527-3.605-1.593-5.507-1.062-1.895-2.613-3.57-4.592-4.498a1 1 0 0 1 .85-1.81c2.448 1.149 4.276 3.17 5.487 5.33C39.36 15.67 40 18.046 40 20c0 3.545-2.474 6.565-6.064 8.644C30.32 30.737 25.391 32 20 32c-5.39 0-10.32-1.263-13.936-3.356C2.474 26.565 0 23.544 0 20c0-3.545 2.474-6.565 6.064-8.644C9.68 9.263 14.609 8 20 8c2.325 0 6.199.042 8.688.518a1 1 0 1 1-.376 1.964C26.044 10.048 22.37 10 20 10c-5.103 0-9.673 1.2-12.934 3.087Z" fill="#000"/></svg>