<svg width="44" height="44" viewBox="0 0 44 44" fill="none" xmlns="http://www.w3.org/2000/svg"><path d="M30.347 29.392c1.273 0 2.402-.257 3.388-.77 1.006-.534 1.786-1.263 2.34-2.187.576-.944.863-2.012.863-3.203 0-1.601-.492-2.905-1.478-3.912-.986-1.026-2.28-1.58-3.881-1.663-.308 0-.554-.092-.74-.277-.163-.185-.246-.431-.246-.74-.02-1.272-.359-2.258-1.016-2.956-.637-.719-1.53-1.078-2.68-1.078-.37 0-.831.051-1.386.154-.082.02-.195.03-.338.03-.226 0-.442-.06-.647-.184a1.416 1.416 0 0 1-.493-.493c-.534-.842-1.283-1.509-2.248-2.002a6.403 6.403 0 0 0-3.05-.77c-1.991 0-3.572.627-4.743 1.88-1.15 1.252-1.725 2.915-1.725 4.989 0 .308.01.534.031.677l.031.74c0 .266-.072.492-.216.677-.143.164-.349.267-.616.308-1.334.288-2.412.914-3.234 1.879-.8.965-1.2 2.105-1.2 3.419 0 1.047.246 1.991.738 2.833a5.28 5.28 0 0 0 2.033 1.94c.883.473 1.879.71 2.988.71h5.575v2.74h-5.575c-1.643 0-3.11-.349-4.405-1.047A7.53 7.53 0 0 1 5.4 28.16c-.719-1.252-1.078-2.67-1.078-4.25 0-1.191.216-2.32.647-3.388.452-1.089 1.078-2.002 1.879-2.741.8-.76 1.704-1.284 2.71-1.571-.082-1.848.257-3.501 1.016-4.96a8.315 8.315 0 0 1 3.265-3.418c1.438-.821 3.09-1.232 4.959-1.232 1.437 0 2.823.329 4.158.986 1.335.636 2.32 1.468 2.957 2.495.37-.062.739-.093 1.109-.093 1.58 0 2.926.472 4.034 1.417 1.13.924 1.807 2.166 2.033 3.727a7.079 7.079 0 0 1 3.419 1.386 7.441 7.441 0 0 1 2.34 2.864c.555 1.17.832 2.454.832 3.85 0 1.725-.4 3.265-1.2 4.62-.802 1.335-1.91 2.382-3.327 3.142-1.396.76-2.998 1.14-4.805 1.14h-4.466v-2.742h4.466Zm-1.17-6.067c.287.287.43.616.43.985 0 .35-.122.647-.369.893-.267.308-.585.462-.955.462s-.698-.164-.985-.492l-4.035-4.405.216 4.866v10.38c0 .41-.124.74-.37.986-.246.267-.575.4-.986.4-.39 0-.708-.133-.954-.4-.226-.247-.34-.575-.34-.986V25.665l.216-4.928-4.004 4.436c-.308.328-.646.492-1.016.492s-.698-.143-.986-.43c-.266-.268-.4-.566-.4-.894 0-.39.154-.719.462-.986l4.928-5.082c.637-.595 1.335-.893 2.094-.893.78 0 1.469.298 2.064.893l4.99 5.052Z" fill="#9EA3A8"/></svg>