<svg width="44" height="44" viewBox="0 0 44 44" fill="none" xmlns="http://www.w3.org/2000/svg"><path d="M6.969 32.469c-1.115 0-1.995-.318-2.64-.953-.636-.646-.954-1.532-.954-2.657V10.125c0-1.125.318-2.005.953-2.64.646-.636 1.526-.954 2.64-.954h30.048c1.125 0 2.005.318 2.64.953.646.636.969 1.516.969 2.641v18.734c0 1.125-.323 2.01-.969 2.657-.635.635-1.515.953-2.64.953H6.969Zm-.407-6.89h30.86c.458 0 .687-.225.687-.673V10.172c0-.354-.104-.63-.312-.828-.198-.198-.469-.297-.813-.297H7.016c-.344 0-.62.099-.829.297-.197.198-.296.474-.296.828v14.734c0 .448.224.672.671.672Zm10.5 10.608v-3.921h9.875v3.922h-9.875Zm-.093 1.829c-.344 0-.64-.125-.89-.375a1.184 1.184 0 0 1-.376-.891c0-.354.125-.656.375-.906.25-.24.547-.36.89-.36h10.063c.344 0 .636.12.875.36.25.25.375.552.375.906s-.125.651-.375.89c-.24.25-.531.376-.875.376H16.97Z" fill="#9EA3A8"/></svg>