<svg width="66" height="40" viewBox="0 0 66 40" fill="none" xmlns="http://www.w3.org/2000/svg"><g clip-path="url(#diagonal-hand-drawn_a)" fill="#27292A"><path d="m36.013 10.074-.931 2.518-2.477-.94-.108.255-2.4-1.265-4.384 8.987 3.187-8.433-3.249-1.155-7.034 19.252 3.248 1.155.65-1.644 2.024 1.066 4.454-9.064-3.423 9.276 3.221 1.222.455-1.078 3.042 1.011 1.71-4.906 3.718-9.597-1.496 5.323-2.774 7.584 3.25 1.155.239-.654.565.138.399-1.42 3.134 1.114.65-1.644 2.023 1.066 4.716-8.59-3.685 8.802 3.163.878.513-.734 3.042 1.011 6.832-19.6-3.274-1.089-.931 2.518-2.477-.94-.108.255-2.4-1.265-3.955 8.987 2.758-8.433-3.248-1.155-6.321 17.282 1.212-4.314 4.02-10.99-3.249-1.156-.364.995-.808-.197-.306 1.09-.09-.036.54-1.553-3.273-1.088ZM21.314 10.863 14.28 30.115l3.249 1.155 7.035-19.252-3.249-1.155ZM14.036 28.858l6.167-15.962L17 11.63l-6.167 15.963 3.203 1.265ZM58.142 11.661l-4.836 17.326 3.361.819 4.835-17.326-3.36-.819Z"/></g><defs><clipPath id="diagonal-hand-drawn_a"><path fill="#fff" transform="translate(15 9)" d="M0 0h36v23H0z"/></clipPath></defs></svg>