<svg width="66" height="40" viewBox="0 0 66 40" fill="none" xmlns="http://www.w3.org/2000/svg"><g clip-path="url(#diagonal-thin-hand-drawn_a)" fill="#27292A"><path d="m56.922 10.018-.69 1.804-.407-.144.16-.323-1.53-.67-4.87 9.785c1.48-3.892 3.03-7.897 3.886-9.905l-1.573-.577c-.998 2.342-2.906 7.31-4.558 11.672a1524.98 1524.98 0 0 0-2.817 7.5l-.245.66.802.25.802.25.341-.918.64.28 5.146-10.337-4.34 10.444 1.58.562.21-.504 1.49.482 7.57-19.794-1.597-.517ZM58.305 11.378 52.68 29.116l1.63.422L59.937 11.8l-1.63-.422ZM41.927 30.084l-.181.47 1.596.52 7.606-19.795-1.597-.519-3.466 9.021 1.842-6.051.681-1.695-.15-.051.06-.193-1.637-.403-.569 1.867-2.627 6.536 3.416-9.266-1.605-.497-.663 1.8-.432-.147.162-.325-1.53-.67-4.87 9.784c1.481-3.892 3.03-7.897 3.887-9.905l-1.574-.577c-.998 2.343-2.906 7.31-4.558 11.672a1527.905 1527.905 0 0 0-2.816 7.5l-.246.66.802.25.802.25.342-.918.64.28 5.788-11.63-4.986 12.492 1.588.54.195-.487 1.503.465.983-2.664 1.078.37-.336 1.1.872.216ZM30.124 30.554l.197-.51-.708-.177.32-1.044-1.078-.369-.968 2.61-1.502-.468-.197.49-1.587-.544 4.992-12.415-5.795 11.558-.637-.281-.345.919-.801-.253c-.801-.252-.8-.253-.8-.253l.245-.654c.158-.42.385-1.025.665-1.765.558-1.481 1.323-3.504 2.15-5.672 1.653-4.329 3.56-9.26 4.558-11.601l1.574.577c-.851 1.995-2.387 5.936-3.858 9.774l4.842-9.656 1.528.674-.162.323.428.146.669-1.8 1.603.5-.904 2.438.647-1.61.224.078 1.45.36-1.61 5.247 2.466-6.415 1.596.519-7.605 19.793-1.597-.519ZM19.014 29.695l-.332.857 1.595.523 7.605-19.657-1.595-.523-3.177 8.211 2.104-6.418-.072-.02.2-.494-1.585-.548-1.457 3.596 1.497-3.8-1.592-.532-.712 1.808-.396-.146.156-.293-1.505-.717-4.58 8.54a860.465 860.465 0 0 1 3.584-8.637l-1.573-.577c-.993 2.33-2.897 6.954-4.55 10.99a3684.118 3684.118 0 0 0-2.815 6.894l-.246.604.792.275c.792.275.793.274.793.274l.377-.925.602.287 5.857-10.921-5.035 11.738 1.572.58.222-.518 1.478.494.9-2.286 1.063.368-.226.69 1.05.283ZM14.64 11.621 7.034 30.096l1.582.557 7.605-18.474-1.582-.558ZM6.919 28.44l6.76-15.502-1.568-.59-6.76 15.501 1.568.59Z"/></g><defs><clipPath id="diagonal-thin-hand-drawn_a"><path fill="#fff" transform="translate(15 8)" d="M0 0h36v25H0z"/></clipPath></defs></svg>