<svg width="66" height="40" viewBox="0 0 66 40" fill="none" xmlns="http://www.w3.org/2000/svg"><g clip-path="url(#horizontal-thin-hand-drawn_a)" fill="#27292A"><path d="M49.87 11.922H10.14l.166-1.11h39.733l-.167 1.11ZM12.255 22.374l9.554.3 24.505-.532H18.08l.085-.564-4.89.186.142-1.108 36.176-1.383-.141 1.108-17.04.652h16.837l-.158 1.048.477-.01.021 1-8.97.195 6.446.203-.187 1.1 3.694-.213-.12 1.032.484.01-.182 1.11-3.473-.079-.091.605H3.373l.167-1.109h21.051l.001-.008-9.543-.216.182-1.109 22.429.507 9.121-.525-27.123-.853-5.06.11-.005-.27-2.526-.079.188-1.108ZM16.896 18.52h-3.358l-.167 1.109h21.977l.057-.377h15.018l.167-1.11H16.952l-.056.378ZM40.962 13.624l9.471-.293.146-1.11-35.576 1.105-.146 1.109.518-.016.011.65 36.393-.632-.018-1-10.8.188ZM17.565 27.556l6.33.346 27.025-.596-.152 1.11-17.134.377-.138.754-9.779-.535-7.39.163.152-1.11.997-.021.09-.488ZM50.74 16.728h.188l-.167 1.11h-37.5l.167-1.11h23.437l-19.712-.446.022-1 33.58.76-.015.686Z"/></g><defs><clipPath id="horizontal-thin-hand-drawn_a"><path fill="#fff" transform="translate(15 9)" d="M0 0h36v23H0z"/></clipPath></defs></svg>