<svg width="66" height="40" viewBox="0 0 66 40" fill="none" xmlns="http://www.w3.org/2000/svg"><g clip-path="url(#horizontal-hand-drawn_a)"><path fill-rule="evenodd" clip-rule="evenodd" d="M64.957 18.049H63.65l.023-.002V12.97l-18.465 2.072-.023-.961-12.35.657-.01-.393 10.157-.593v.327l18.74-1.11V9l-18.558 1.1v-.328l-17.72 1.035-13.172-.721v3.969l12.318.086v.378l-10.416.554.095 3.967 1.285-.069v3.047h18.645v-.232l.519.233H30.06l-.713.803-15.079-.802-.095 3.966.362-.03v3.42H33.15v-.09l1.61-.051.018.38 16.427-.755-.117-2.546 12.49.664.094-3.966-18.645-.993-.004.18-.125-.18 20.059-.001v-3.97Zm-19.967 5.53-13.48 1.759 13.448-.434.032-1.325ZM27.512 24.89l-.43.484h-5.468l5.898-.484Z" fill="#27292A"/></g><defs><clipPath id="horizontal-hand-drawn_a"><path fill="#fff" transform="translate(15 9)" d="M0 0h36v23H0z"/></clipPath></defs></svg>