<svg width="40" height="40" viewBox="0 0 40 40" fill="none" xmlns="http://www.w3.org/2000/svg"><path d="M33.735 28.936c-.056-.579-.243-1.41-.56-2.492a24.64 24.64 0 0 1-.504-2.044 9.116 9.116 0 0 1-.168-1.736c0-.616.056-1.185.168-1.708.13-.523.308-1.11.532-1.764.224-.747.382-1.335.476-1.764.112-.43.168-.924.168-1.484 0-.448-.038-.84-.112-1.176a9.817 9.817 0 0 0-.308-1.232c-.15-.56-.27-1.064-.364-1.512a9.3 9.3 0 0 1-.168-1.596c-.355.093-.85.27-1.484.532-.747.299-1.39.523-1.932.672a6.08 6.08 0 0 1-1.624.224c-.56 0-1.083-.075-1.568-.224a20.113 20.113 0 0 1-1.764-.728 11.44 11.44 0 0 0-1.316-.532 3.09 3.09 0 0 0-.98-.168 3.09 3.09 0 0 0-.98.168c-.318.112-.747.29-1.288.532-.654.299-1.232.532-1.736.7a4.762 4.762 0 0 1-1.568.252 5.128 5.128 0 0 1-1.568-.224 9.426 9.426 0 0 1-1.54-.672 8.72 8.72 0 0 0-1.344-.56 3.622 3.622 0 0 0-1.204-.196c-.355 0-.682.047-.98.14a9.374 9.374 0 0 0-1.148.392 13.32 13.32 0 0 1-1.344.476 7.523 7.523 0 0 1-1.344.252c.056.336.14.681.252 1.036.13.355.27.7.42 1.036.317.765.55 1.428.7 1.988.168.56.252 1.25.252 2.072 0 .84-.075 1.559-.224 2.156-.13.597-.327 1.297-.588 2.1-.187.504-.327.943-.42 1.316-.094.373-.14.756-.14 1.148 0 .597.093 1.475.28 2.632.15.859.252 1.661.308 2.408.261-.056.522-.121.784-.196.28-.075.57-.159.868-.252.784-.243 1.465-.43 2.044-.56a7.623 7.623 0 0 1 1.68-.196c.578 0 1.13.084 1.652.252.522.168 1.101.41 1.736.728.504.243.914.42 1.232.532.336.112.662.168.98.168.336 0 .672-.056 1.008-.168.354-.13.784-.317 1.288-.56.672-.317 1.25-.55 1.736-.7a5.014 5.014 0 0 1 1.596-.252c.578 0 1.082.075 1.512.224.448.15.98.373 1.596.672.448.261.858.457 1.232.588.392.13.802.196 1.232.196.448 0 .83-.028 1.148-.084.317-.075.69-.187 1.12-.336.448-.15.821-.261 1.12-.336.317-.075.7-.121 1.148-.14Zm1.764.7c0 .28-.075.504-.224.672-.13.168-.318.252-.56.252-.504 0-.924.037-1.26.112-.318.075-.71.187-1.176.336a7.87 7.87 0 0 1-1.372.364c-.43.093-.999.14-1.708.14-.747 0-1.382-.093-1.904-.28a13.7 13.7 0 0 1-1.764-.728A9.536 9.536 0 0 0 24.439 30a2.247 2.247 0 0 0-.812-.14 3.09 3.09 0 0 0-.98.168c-.318.112-.728.29-1.232.532-.672.317-1.26.55-1.764.7a5.196 5.196 0 0 1-1.652.252c-.56 0-1.092-.084-1.596-.252a13.456 13.456 0 0 1-1.736-.7c-.542-.243-.98-.42-1.316-.532a2.845 2.845 0 0 0-.952-.168c-.392 0-.794.047-1.204.14-.392.112-.924.27-1.596.476-.803.243-1.456.42-1.96.532-.504.13-.999.177-1.484.14a.952.952 0 0 1-.588-.308.93.93 0 0 1-.196-.588c0-.69-.094-1.596-.28-2.716a30.803 30.803 0 0 1-.252-1.652 13.25 13.25 0 0 1-.084-1.568c0-.597.056-1.13.168-1.596.112-.485.29-1.101.532-1.848.224-.69.392-1.26.504-1.708a6.73 6.73 0 0 0 .168-1.568c0-.467-.056-.877-.168-1.232a8.26 8.26 0 0 0-.532-1.288c-.318-.69-.57-1.353-.756-1.988-.168-.635-.262-1.475-.28-2.52.018-.261.102-.457.252-.588.15-.13.345-.187.588-.168.485.019.905-.019 1.26-.112a8.945 8.945 0 0 0 1.288-.448A8.69 8.69 0 0 1 9.29 8.72c.485-.13 1.054-.196 1.708-.196.765 0 1.418.093 1.96.28.541.168 1.13.41 1.764.728.448.224.802.392 1.064.504.28.093.57.14.868.14.317 0 .625-.056.924-.168.317-.112.737-.29 1.26-.532.672-.317 1.26-.55 1.764-.7a5.104 5.104 0 0 1 1.624-.252c.597 0 1.148.084 1.652.252.504.15 1.092.383 1.764.7.504.243.914.42 1.232.532.336.112.662.168.98.168a3.35 3.35 0 0 0 1.008-.168c.354-.112.83-.29 1.428-.532.746-.317 1.372-.55 1.876-.7a5.13 5.13 0 0 1 1.596-.196c.261.037.457.13.588.28.15.15.214.345.196.588-.019.541.01.999.084 1.372.074.355.186.803.336 1.344.186.56.326 1.12.42 1.68.093.541.14 1.241.14 2.1 0 .821-.066 1.54-.196 2.156-.13.616-.327 1.307-.588 2.072-.187.504-.327.943-.42 1.316a4.83 4.83 0 0 0-.14 1.176c0 .43.046.868.14 1.316.112.448.261.999.448 1.652.242.877.42 1.605.532 2.184.13.56.196 1.167.196 1.82Z" fill="#000"/></svg>