<svg width="40" height="40" viewBox="0 0 40 40" fill="none" xmlns="http://www.w3.org/2000/svg"><path d="M7.527 31.596c-.542 0-.99-.168-1.344-.504-.336-.336-.504-.775-.504-1.316V10.092c0-.541.168-.98.504-1.316.354-.336.793-.504 1.316-.504H32.53c.541 0 .98.168 1.316.504.336.336.504.775.504 1.316v19.656c0 .541-.168.98-.504 1.316-.336.355-.775.532-1.316.532H7.527Zm-.112-2.492c0 .243.065.43.196.56.13.13.317.196.56.196h23.688c.242 0 .43-.065.56-.196.13-.13.196-.317.196-.56v-18.34c0-.243-.066-.43-.196-.56-.13-.13-.318-.196-.56-.196H8.17c-.243 0-.43.065-.56.196-.13.13-.196.317-.196.56v18.34Z" fill="#000"/></svg>