<svg width="40" height="40" viewBox="0 0 40 40" fill="none" xmlns="http://www.w3.org/2000/svg"><path d="M6.295 10.848c-.224.896-.336 1.895-.336 2.996 0 .299.018.69.056 1.176.074.71.252 1.437.532 2.184.298.747.653 1.381 1.064 1.904a.995.995 0 0 1 .308.728c0 .28-.075.504-.224.672-.392.616-.738 1.353-1.036 2.212a12.915 12.915 0 0 0-.616 2.576 18.19 18.19 0 0 0-.056 1.204c0 .616.037 1.185.112 1.708.093.504.205.877.336 1.12.205.224.71.42 1.512.588.802.15 1.736.224 2.8.224.616 0 1.27-.13 1.96-.392a6.46 6.46 0 0 0 1.848-1.064c.205-.205.41-.308.616-.308.224 0 .438.103.644.308a5.923 5.923 0 0 0 1.876 1.064 6.35 6.35 0 0 0 2.156.392c.653 0 1.316-.13 1.988-.392a6.018 6.018 0 0 0 1.792-1.036c.205-.205.42-.308.644-.308.205 0 .42.093.644.28a6.457 6.457 0 0 0 1.848 1.064c.71.261 1.4.392 2.072.392 1.045 0 2.006-.084 2.884-.252.896-.187 1.53-.41 1.904-.672.242-.616.364-1.568.364-2.856 0-.485-.01-.85-.028-1.092a10.165 10.165 0 0 0-.56-2.464c-.28-.84-.616-1.568-1.008-2.184a1.16 1.16 0 0 1-.224-.7c0-.317.093-.579.28-.784a9.437 9.437 0 0 0 1.008-1.988c.28-.747.457-1.475.532-2.184.037-.485.056-.887.056-1.204 0-1.083-.103-2.063-.308-2.94-.41-.261-1.055-.476-1.932-.644a14.878 14.878 0 0 0-2.8-.252c-.672 0-1.372.14-2.1.42a6.366 6.366 0 0 0-1.876 1.064c-.168.205-.364.308-.588.308-.224 0-.439-.112-.644-.336-.486-.43-1.074-.775-1.764-1.036-.69-.28-1.363-.42-2.016-.42a6.34 6.34 0 0 0-2.24.42c-.728.261-1.344.625-1.848 1.092-.168.224-.364.336-.588.336-.206 0-.41-.112-.616-.336a6.143 6.143 0 0 0-1.792-1.092c-.69-.28-1.363-.42-2.016-.42-.952 0-1.858.084-2.716.252-.859.168-1.494.392-1.904.672Zm-1.596-.84c.448-.541 1.25-.98 2.408-1.316 1.176-.355 2.445-.532 3.808-.532.653 0 1.381.14 2.184.42a8.44 8.44 0 0 1 2.184 1.036c.653-.43 1.418-.775 2.296-1.036.877-.28 1.69-.42 2.436-.42.672 0 1.418.14 2.24.42.84.261 1.577.607 2.212 1.036a8.83 8.83 0 0 1 2.24-1.036c.84-.28 1.605-.42 2.296-.42 1.437 0 2.744.177 3.92.532 1.194.336 1.997.765 2.408 1.288.317 1.232.476 2.473.476 3.724 0 .392-.038.887-.112 1.484-.075.765-.27 1.587-.588 2.464-.318.877-.69 1.633-1.12 2.268.43.747.793 1.596 1.092 2.548.317.933.513 1.773.588 2.52.037.597.056 1.045.056 1.344 0 .896-.066 1.699-.196 2.408-.13.69-.299 1.185-.504 1.484-.43.485-1.223.877-2.38 1.176-1.158.317-2.427.476-3.808.476-.672 0-1.438-.13-2.296-.392a9.478 9.478 0 0 1-2.24-1.008 9.48 9.48 0 0 1-2.24 1.008c-.84.261-1.578.392-2.212.392-.728 0-1.53-.13-2.408-.392a9.922 9.922 0 0 1-2.296-1.008c-.654.41-1.39.747-2.212 1.008-.822.261-1.55.392-2.184.392-1.363 0-2.586-.159-3.668-.476-1.083-.317-1.802-.728-2.156-1.232-.206-.336-.364-.83-.476-1.484a12.613 12.613 0 0 1-.168-2.128c0-.523.028-1.045.084-1.568.056-.653.242-1.447.56-2.38.317-.933.69-1.82 1.12-2.66a11.966 11.966 0 0 1-1.148-2.296c-.318-.896-.514-1.708-.588-2.436-.075-.71-.112-1.27-.112-1.68 0-1.4.168-2.576.504-3.528Z" fill="#000"/></svg>