<svg width="40" height="40" viewBox="0 0 40 40" fill="none" xmlns="http://www.w3.org/2000/svg"><path d="M5.679 16.84V9.504c0-.355.112-.644.336-.868.224-.224.522-.336.896-.336h8.092v1.708H7.695a.269.269 0 0 0-.196.084.188.188 0 0 0-.084.168v6.58H5.679Zm9.324 14.756H6.91c-.355 0-.654-.112-.896-.336-.224-.224-.336-.513-.336-.868v-7.364h1.736v6.58c0 .168.093.252.28.252h7.308v1.736ZM32.587 16.84v-6.58c0-.168-.084-.252-.252-.252h-7.336V8.272h8.092c.354 0 .644.112.868.336.242.224.364.513.364.868v7.364h-1.736Zm-7.588 13.02h7.336c.168 0 .252-.084.252-.252v-6.58h1.736v7.336c0 .373-.112.672-.336.896-.224.224-.514.336-.868.336h-8.12V29.86Z" fill="#000"/></svg>