<svg width="40" height="40" viewBox="0 0 40 40" fill="none" xmlns="http://www.w3.org/2000/svg"><path d="M33.595 31.344c-.467-.43-1.092-.784-1.876-1.064-.766-.28-1.503-.42-2.212-.42-.728 0-1.438.14-2.128.42-.69.28-1.26.653-1.708 1.12-.187.261-.42.392-.7.392-.243 0-.458-.103-.644-.308-.542-.485-1.204-.877-1.988-1.176a6.209 6.209 0 0 0-2.268-.448c-.84 0-1.643.14-2.408.42-.747.28-1.344.663-1.792 1.148-.187.28-.41.42-.672.42-.224 0-.43-.093-.616-.28a7.19 7.19 0 0 0-1.96-1.26c-.71-.299-1.382-.448-2.016-.448-.747 0-1.484.112-2.212.336-.728.243-1.279.55-1.652.924l-1.484-1.26c.354-.523.644-1.195.868-2.016a9.54 9.54 0 0 0 .336-2.464 8.27 8.27 0 0 0-.392-2.464 8.832 8.832 0 0 0-1.036-2.24c-.168-.224-.252-.448-.252-.672 0-.299.13-.56.392-.784.392-.523.7-1.176.924-1.96a8.563 8.563 0 0 0 .364-2.492c0-.803-.13-1.643-.392-2.52s-.598-1.615-1.008-2.212l1.512-1.232c.392.392.961.719 1.708.98.765.243 1.54.364 2.324.364.616 0 1.27-.14 1.96-.42a7.365 7.365 0 0 0 1.932-1.12c.205-.205.43-.308.672-.308.28 0 .513.121.7.364.485.448 1.101.812 1.848 1.092.746.28 1.53.43 2.352.448a6.556 6.556 0 0 0 2.296-.476c.765-.299 1.418-.681 1.96-1.148.224-.243.457-.364.7-.364.28 0 .513.121.7.364.41.299.924.532 1.54.7a7.849 7.849 0 0 0 2.016.252c.877 0 1.708-.084 2.492-.252.802-.187 1.381-.42 1.736-.7l1.372 1.372c-.299.373-.532.961-.7 1.764-.168.803-.252 1.68-.252 2.632a13.39 13.39 0 0 0 .364 3.136c.168.672.373 1.223.616 1.652.224.243.336.532.336.868 0 .28-.084.532-.252.756a9.89 9.89 0 0 0-1.036 2.296c-.243.84-.364 1.615-.364 2.324 0 .803.13 1.643.392 2.52.261.859.606 1.587 1.036 2.184l-1.428 1.26Zm-1.064-2.576c-.206-.392-.374-.905-.504-1.54a9.153 9.153 0 0 1-.196-1.848c0-.784.15-1.68.448-2.688.298-1.008.681-1.904 1.148-2.688-.318-.579-.588-1.288-.812-2.128a13.325 13.325 0 0 1-.364-2.464 7.841 7.841 0 0 1-.028-.784c0-1.475.15-2.735.448-3.78-.374.112-.887.205-1.54.28-.635.075-1.242.112-1.82.112-.803 0-1.606-.084-2.408-.252-.803-.187-1.447-.42-1.932-.7-.635.467-1.41.859-2.324 1.176-.915.299-1.774.457-2.576.476-.84-.019-1.727-.177-2.66-.476-.915-.299-1.68-.681-2.296-1.148-.635.467-1.382.85-2.24 1.148-.84.28-1.596.42-2.268.42a9.87 9.87 0 0 1-1.624-.14c-.56-.112-1.018-.243-1.372-.392.168.467.308 1.027.42 1.68.112.635.168 1.213.168 1.736 0 .84-.15 1.755-.448 2.744-.28.97-.635 1.82-1.064 2.548.43.765.784 1.652 1.064 2.66.298.99.448 1.876.448 2.66 0 .616-.047 1.232-.14 1.848-.094.597-.215 1.064-.364 1.4.354-.15.802-.27 1.344-.364a9.574 9.574 0 0 1 1.568-.14c.672 0 1.428.159 2.268.476.84.299 1.586.7 2.24 1.204.597-.504 1.353-.905 2.268-1.204.933-.317 1.83-.476 2.688-.476.765 0 1.605.159 2.52.476.914.299 1.69.681 2.324 1.148.578-.485 1.288-.877 2.128-1.176.858-.299 1.68-.448 2.464-.448.43 0 .924.065 1.484.196a7.932 7.932 0 0 1 1.54.448Z" fill="#000"/></svg>