<svg width="40" height="40" viewBox="0 0 40 40" fill="none" xmlns="http://www.w3.org/2000/svg"><path d="M16.767 10.008a2.66 2.66 0 0 0-.728.112 2.283 2.283 0 0 0-.644.308l-8.26 5.46a1.366 1.366 0 0 0-.644 1.176v5.824a1.368 1.368 0 0 0 .644 1.176l8.176 5.376c.43.28.896.42 1.4.42h14.588c.392 0 .7-.112.924-.336.224-.224.336-.532.336-.924V11.268c0-.373-.112-.672-.336-.896-.224-.243-.532-.364-.924-.364H16.767ZM14.47 8.944a3.477 3.477 0 0 1 1.064-.476 3.8 3.8 0 0 1 1.148-.196H31.83c.728 0 1.316.233 1.764.7.466.448.7 1.027.7 1.736V29.16c0 .728-.224 1.316-.672 1.764-.448.467-1.036.69-1.764.672H16.627c-.355 0-.738-.065-1.148-.196a3.87 3.87 0 0 1-1.092-.476L5.79 25.268a2.198 2.198 0 0 1-.756-.84 2.267 2.267 0 0 1-.28-1.064v-6.748c0-.355.093-.71.28-1.064a2.29 2.29 0 0 1 .728-.84l8.708-5.768Z" fill="#000"/></svg>