<svg width="40" height="40" viewBox="0 0 40 40" fill="none" xmlns="http://www.w3.org/2000/svg"><path d="M11.839 31.568c-1.214 0-2.287-.252-3.22-.756a5.446 5.446 0 0 1-2.184-2.128c-.504-.915-.756-1.97-.756-3.164V14.432c0-1.213.252-2.287.756-3.22a5.262 5.262 0 0 1 2.128-2.156c.933-.504 1.997-.756 3.192-.756h16.408c1.213 0 2.286.252 3.22.756a5.263 5.263 0 0 1 2.156 2.128c.522.915.784 1.97.784 3.164v11.088c0 1.213-.252 2.287-.756 3.22a5.217 5.217 0 0 1-2.156 2.156c-.915.504-1.97.756-3.164.756H11.839Zm-4.424-6.244c0 1.381.401 2.483 1.204 3.304.821.803 1.922 1.213 3.304 1.232h16.156c1.381 0 2.473-.41 3.276-1.232.821-.821 1.232-1.913 1.232-3.276V14.544c0-1.381-.41-2.473-1.232-3.276-.803-.821-1.895-1.241-3.276-1.26H11.923c-1.363 0-2.455.41-3.276 1.232-.822.803-1.232 1.895-1.232 3.276v10.808Z" fill="#000"/></svg>