<svg width="14" height="14" viewBox="0 0 14 14" fill="none" xmlns="http://www.w3.org/2000/svg">
<rect width="14" height="14" rx="4" fill="#FFDDD4"/>
<rect x="0.25" y="0.25" width="13.5" height="13.5" rx="3.75" stroke="white" stroke-opacity="0.8" stroke-width="0.5"/>
<path fill-rule="evenodd" clip-rule="evenodd" d="M5.77435 4.95753C5.77436 4.28103 6.32278 3.73262 6.99931 3.73262C7.67585 3.73262 8.22428 4.28105 8.22428 4.95755V4.95757L8.22432 6H5.7744L5.77435 4.95755V4.95753ZM4.7244 6.01291L4.72435 4.95757V4.95755C4.72435 3.70113 5.74289 2.68262 6.99931 2.68262C8.25572 2.68262 9.27426 3.70112 9.27428 4.95753V4.95755L9.27433 6.01269C9.68644 6.08355 10 6.44266 10 6.875V10.125C10 10.6082 9.60825 11 9.125 11H4.875C4.39175 11 4 10.6082 4 10.125V6.875C4 6.44311 4.31291 6.0843 4.7244 6.01291Z" fill="#FA4A1E"/>
<rect x="6.5" y="7.5" width="1" height="2" rx="0.5" fill="#FFDDD4"/>
</svg>
