<svg width="14" height="14" viewBox="0 0 14 14" fill="none" xmlns="http://www.w3.org/2000/svg">
<rect width="14" height="14" rx="4" fill="#290C05"/>
<rect x="0.25" y="0.25" width="13.5" height="13.5" rx="3.75" stroke="white" stroke-opacity="0.3" stroke-width="0.5"/>
<path fill-rule="evenodd" clip-rule="evenodd" d="M6.99931 3.73236C6.32278 3.73236 5.77436 4.28078 5.77435 4.95727V4.95729L5.7744 5.99974H8.22432L8.22428 4.95731V4.95729C8.22428 4.28079 7.67585 3.73236 6.99931 3.73236ZM4.72435 4.95731L4.7244 6.01265C4.31291 6.08404 4 6.44285 4 6.87474V10.1247C4 10.608 4.39175 10.9997 4.875 10.9997H9.125C9.60825 10.9997 10 10.608 10 10.1247V6.87474C10 6.4424 9.68644 6.08329 9.27433 6.01243L9.27428 4.95729V4.95727C9.27426 3.70086 8.25572 2.68236 6.99931 2.68236C5.74289 2.68236 4.72435 3.70087 4.72435 4.95729V4.95731ZM7 7.5C6.72386 7.5 6.5 7.72386 6.5 8V9C6.5 9.27614 6.72386 9.5 7 9.5C7.27614 9.5 7.5 9.27614 7.5 9V8C7.5 7.72386 7.27614 7.5 7 7.5Z" fill="#FA4A1E"/>
</svg>
