<svg width="60" height="60" viewBox="0 0 60 60" fill="none" xmlns="http://www.w3.org/2000/svg">
<rect width="60" height="60" fill="none"/>
<mask id="path-1-outside-1_3724_50570" maskUnits="userSpaceOnUse" x="8.6748" y="11.049" width="45" height="39" fill="black">
<rect fill="white" x="8.6748" y="11.049" width="45" height="39"/>
<path fill-rule="evenodd" clip-rule="evenodd" d="M27.6 13.8228C27.4749 13.2848 26.9374 12.9501 26.3995 13.0752L19.9458 14.5757C19.4928 14.681 19.1722 15.0846 19.1722 15.5497V29.8528C18.2226 29.0685 17.0049 28.5974 15.6771 28.5974C12.6439 28.5974 10.185 31.0563 10.185 34.0895C10.185 37.1228 12.6439 39.5817 15.6771 39.5817C18.6821 39.5817 21.1234 37.1684 21.1687 34.1743C21.171 34.1463 21.1722 34.1181 21.1722 34.0895V16.3439L26.8524 15.0233C27.3903 14.8982 27.725 14.3607 27.6 13.8228ZM19.4991 34.8291C19.1537 36.625 17.5738 37.9817 15.6771 37.9817C13.5276 37.9817 11.785 36.2391 11.785 34.0895C11.785 31.9399 13.5276 30.1974 15.6771 30.1974C17.2114 30.1974 18.5382 31.085 19.1722 32.3748V34.0895C19.1722 34.3826 19.2983 34.6462 19.4991 34.8291ZM51.6748 20.1572C51.6748 18.9777 50.6593 18.0544 49.4851 18.1662L32.466 19.7878C31.4395 19.8856 30.6556 20.7477 30.6556 21.7788V25.8025C30.6556 25.9208 30.6659 26.0365 30.6854 26.1488C30.662 26.2337 30.6495 26.3231 30.6495 26.4155V39.2507C29.8027 38.6186 28.7521 38.2443 27.6141 38.2443C24.8089 38.2443 22.5349 40.5183 22.5349 43.3235C22.5349 46.1286 24.8089 48.4026 27.6141 48.4026C30.4192 48.4026 32.6932 46.1286 32.6932 43.3235C32.6932 43.0964 32.6783 42.8729 32.6495 42.6537V27.8026C32.7142 27.8027 32.7795 27.7997 32.8453 27.7934L49.6679 26.1906L49.6679 37.2608C48.811 36.6013 47.7377 36.2092 46.5728 36.2092C43.7677 36.2092 41.4936 38.4832 41.4936 41.2883C41.4936 44.0935 43.7677 46.3675 46.5728 46.3675C49.3114 46.3675 51.5438 44.2001 51.6482 41.487C51.6611 41.4228 51.6679 41.3564 51.6679 41.2883L51.6679 24.3803C51.6679 24.371 51.6678 24.3617 51.6675 24.3524C51.6723 24.2958 51.6748 24.2386 51.6748 24.1809V20.1572ZM31.0083 44.0909C30.6588 45.6432 29.2719 46.8026 27.6141 46.8026C25.6926 46.8026 24.1349 45.245 24.1349 43.3235C24.1349 41.402 25.6926 39.8443 27.6141 39.8443C28.9175 39.8443 30.0535 40.5611 30.6495 41.6219V43.3235C30.6495 43.6318 30.789 43.9075 31.0083 44.0909ZM49.6679 41.2883C49.6679 41.5725 49.7865 41.829 49.9768 42.0111C49.6441 43.5857 48.2465 44.7675 46.5728 44.7675C44.6513 44.7675 43.0936 43.2098 43.0936 41.2883C43.0936 39.3668 44.6513 37.8092 46.5728 37.8092C47.9212 37.8092 49.0904 38.5762 49.6679 39.6977V41.2883ZM32.6556 21.7788L49.6748 20.1572V24.1809L32.6556 25.8025L32.6556 21.7788Z"/>
</mask>
<path fill-rule="evenodd" clip-rule="evenodd" d="M27.6 13.8228C27.4749 13.2848 26.9374 12.9501 26.3995 13.0752L19.9458 14.5757C19.4928 14.681 19.1722 15.0846 19.1722 15.5497V29.8528C18.2226 29.0685 17.0049 28.5974 15.6771 28.5974C12.6439 28.5974 10.185 31.0563 10.185 34.0895C10.185 37.1228 12.6439 39.5817 15.6771 39.5817C18.6821 39.5817 21.1234 37.1684 21.1687 34.1743C21.171 34.1463 21.1722 34.1181 21.1722 34.0895V16.3439L26.8524 15.0233C27.3903 14.8982 27.725 14.3607 27.6 13.8228ZM19.4991 34.8291C19.1537 36.625 17.5738 37.9817 15.6771 37.9817C13.5276 37.9817 11.785 36.2391 11.785 34.0895C11.785 31.9399 13.5276 30.1974 15.6771 30.1974C17.2114 30.1974 18.5382 31.085 19.1722 32.3748V34.0895C19.1722 34.3826 19.2983 34.6462 19.4991 34.8291ZM51.6748 20.1572C51.6748 18.9777 50.6593 18.0544 49.4851 18.1662L32.466 19.7878C31.4395 19.8856 30.6556 20.7477 30.6556 21.7788V25.8025C30.6556 25.9208 30.6659 26.0365 30.6854 26.1488C30.662 26.2337 30.6495 26.3231 30.6495 26.4155V39.2507C29.8027 38.6186 28.7521 38.2443 27.6141 38.2443C24.8089 38.2443 22.5349 40.5183 22.5349 43.3235C22.5349 46.1286 24.8089 48.4026 27.6141 48.4026C30.4192 48.4026 32.6932 46.1286 32.6932 43.3235C32.6932 43.0964 32.6783 42.8729 32.6495 42.6537V27.8026C32.7142 27.8027 32.7795 27.7997 32.8453 27.7934L49.6679 26.1906L49.6679 37.2608C48.811 36.6013 47.7377 36.2092 46.5728 36.2092C43.7677 36.2092 41.4936 38.4832 41.4936 41.2883C41.4936 44.0935 43.7677 46.3675 46.5728 46.3675C49.3114 46.3675 51.5438 44.2001 51.6482 41.487C51.6611 41.4228 51.6679 41.3564 51.6679 41.2883L51.6679 24.3803C51.6679 24.371 51.6678 24.3617 51.6675 24.3524C51.6723 24.2958 51.6748 24.2386 51.6748 24.1809V20.1572ZM31.0083 44.0909C30.6588 45.6432 29.2719 46.8026 27.6141 46.8026C25.6926 46.8026 24.1349 45.245 24.1349 43.3235C24.1349 41.402 25.6926 39.8443 27.6141 39.8443C28.9175 39.8443 30.0535 40.5611 30.6495 41.6219V43.3235C30.6495 43.6318 30.789 43.9075 31.0083 44.0909ZM49.6679 41.2883C49.6679 41.5725 49.7865 41.829 49.9768 42.0111C49.6441 43.5857 48.2465 44.7675 46.5728 44.7675C44.6513 44.7675 43.0936 43.2098 43.0936 41.2883C43.0936 39.3668 44.6513 37.8092 46.5728 37.8092C47.9212 37.8092 49.0904 38.5762 49.6679 39.6977V41.2883ZM32.6556 21.7788L49.6748 20.1572V24.1809L32.6556 25.8025L32.6556 21.7788Z" fill="#F8F9FA"/>
<path d="M26.3995 13.0752L26.7392 14.5362H26.7392L26.3995 13.0752ZM27.6 13.8228L26.1389 14.1625V14.1625L27.6 13.8228ZM19.9458 14.5757L20.2854 16.0367H20.2854L19.9458 14.5757ZM19.1722 29.8528H20.6722C20.6722 30.4336 20.3369 30.9622 19.8114 31.2097C19.286 31.4573 18.6649 31.3792 18.217 31.0093L19.1722 29.8528ZM21.1687 34.1743L19.6688 34.1516C19.6694 34.1173 19.6711 34.083 19.6739 34.0488L21.1687 34.1743ZM21.1722 16.3439H19.6722C19.6722 15.6463 20.1531 15.0408 20.8325 14.8828L21.1722 16.3439ZM26.8524 15.0233L27.1921 16.4843L27.1921 16.4843L26.8524 15.0233ZM19.4991 34.8291L20.5091 33.72C20.8954 34.0718 21.0708 34.5993 20.9721 35.1124L19.4991 34.8291ZM19.1722 32.3748L20.5184 31.7131C20.6196 31.919 20.6722 32.1454 20.6722 32.3748H19.1722ZM49.4851 18.1662L49.6274 19.6595H49.6274L49.4851 18.1662ZM32.466 19.7878L32.3237 18.2946L32.466 19.7878ZM30.6854 26.1488L32.1632 25.8915C32.2012 26.11 32.1904 26.3342 32.1314 26.5479L30.6854 26.1488ZM30.6495 39.2507H32.1495C32.1495 39.8183 31.8291 40.3372 31.3218 40.5916C30.8144 40.846 30.207 40.7922 29.7522 40.4527L30.6495 39.2507ZM32.6495 42.6537L31.1623 42.8496C31.1538 42.7847 31.1495 42.7192 31.1495 42.6537H32.6495ZM32.6495 27.8026H31.1495C31.1495 27.4044 31.3078 27.0225 31.5896 26.7412C31.8714 26.4598 32.2536 26.302 32.6518 26.3026L32.6495 27.8026ZM32.8453 27.7934L32.7031 26.3002H32.7031L32.8453 27.7934ZM49.6679 26.1906L49.5256 24.6974C49.9463 24.6573 50.3644 24.7965 50.677 25.0808C50.9897 25.3651 51.1679 25.768 51.1679 26.1906H49.6679ZM49.6679 37.2608H51.1679C51.1679 37.8323 50.8431 38.3542 50.3304 38.6066C49.8176 38.859 49.206 38.7981 48.753 38.4495L49.6679 37.2608ZM51.6482 41.487L50.1493 41.4294C50.1524 41.3491 50.1619 41.2693 50.1778 41.1906L51.6482 41.487ZM51.6679 41.2883H50.1679H51.6679ZM51.6679 24.3803H53.1679H51.6679ZM51.6675 24.3524L50.1681 24.3935C50.1665 24.3373 50.1682 24.2811 50.1729 24.2251L51.6675 24.3524ZM31.0083 44.0909L31.9706 42.9403C32.4017 43.3008 32.5951 43.8721 32.4717 44.4204L31.0083 44.0909ZM30.6495 41.6219L31.9572 40.8873C32.0833 41.1116 32.1495 41.3646 32.1495 41.6219H30.6495ZM49.9768 42.0111L51.0136 40.9271C51.3888 41.2859 51.5517 41.8132 51.4444 42.3212L49.9768 42.0111ZM49.6679 39.6977L51.0015 39.011C51.1108 39.2234 51.1679 39.4588 51.1679 39.6977H49.6679ZM49.6748 20.1572L49.5325 18.664C49.9532 18.6239 50.3713 18.7631 50.6839 19.0474C50.9966 19.3317 51.1748 19.7346 51.1748 20.1572H49.6748ZM32.6556 21.7788L31.1556 21.7788C31.1556 21.0055 31.7435 20.3589 32.5134 20.2856L32.6556 21.7788ZM49.6748 24.1809H51.1748C51.1748 24.9542 50.5869 25.6008 49.8171 25.6741L49.6748 24.1809ZM32.6556 25.8025L32.7979 27.2957C32.3773 27.3358 31.9592 27.1966 31.6465 26.9123C31.3339 26.628 31.1556 26.225 31.1556 25.8025L32.6556 25.8025ZM26.0598 11.6142C27.4046 11.3015 28.7483 12.1383 29.061 13.4831L26.1389 14.1625C26.2015 14.4314 26.4702 14.5988 26.7392 14.5362L26.0598 11.6142ZM19.6061 13.1146L26.0598 11.6142L26.7392 14.5362L20.2854 16.0367L19.6061 13.1146ZM17.6722 15.5497C17.6722 14.3871 18.4737 13.3779 19.6061 13.1146L20.2854 16.0367C20.5119 15.984 20.6722 15.7822 20.6722 15.5497H17.6722ZM17.6722 29.8528V15.5497H20.6722V29.8528H17.6722ZM18.217 31.0093C17.5263 30.4389 16.6436 30.0974 15.6771 30.0974V27.0974C17.3662 27.0974 18.9189 27.6982 20.1274 28.6962L18.217 31.0093ZM15.6771 30.0974C13.4723 30.0974 11.685 31.8847 11.685 34.0895H8.68497C8.68497 30.2279 11.8155 27.0974 15.6771 27.0974V30.0974ZM11.685 34.0895C11.685 36.2943 13.4723 38.0817 15.6771 38.0817V41.0817C11.8155 41.0817 8.68497 37.9512 8.68497 34.0895H11.685ZM15.6771 38.0817C17.8613 38.0817 19.6359 36.3275 19.6688 34.1516L22.6685 34.1969C22.6108 38.0093 19.5029 41.0817 15.6771 41.0817V38.0817ZM22.6722 34.0895C22.6722 34.16 22.6693 34.2301 22.6634 34.2997L19.6739 34.0488C19.6728 34.0625 19.6722 34.0761 19.6722 34.0895H22.6722ZM22.6722 16.3439V34.0895H19.6722V16.3439H22.6722ZM27.1921 16.4843L21.5119 17.8049L20.8325 14.8828L26.5127 13.5622L27.1921 16.4843ZM29.061 13.4831C29.3737 14.8279 28.5369 16.1716 27.1921 16.4843L26.5127 13.5622C26.2437 13.6248 26.0764 13.8935 26.1389 14.1625L29.061 13.4831ZM20.9721 35.1124C20.4934 37.6013 18.3065 39.4817 15.6771 39.4817V36.4817C16.8412 36.4817 17.814 35.6487 18.0261 34.5458L20.9721 35.1124ZM15.6771 39.4817C12.6991 39.4817 10.285 37.0675 10.285 34.0895H13.285C13.285 35.4107 14.356 36.4817 15.6771 36.4817V39.4817ZM10.285 34.0895C10.285 31.1115 12.6991 28.6974 15.6771 28.6974V31.6974C14.356 31.6974 13.285 32.7684 13.285 34.0895H10.285ZM15.6771 28.6974C17.8048 28.6974 19.6418 29.9299 20.5184 31.7131L17.826 33.0365C17.4346 32.2402 16.6179 31.6974 15.6771 31.6974V28.6974ZM17.6722 34.0895V32.3748H20.6722V34.0895H17.6722ZM18.4892 35.9382C17.9893 35.483 17.6722 34.8222 17.6722 34.0895H20.6722C20.6722 33.9429 20.6072 33.8094 20.5091 33.72L18.4892 35.9382ZM49.3428 16.673C51.3977 16.4772 53.1748 18.0931 53.1748 20.1572H50.1748C50.1748 19.8623 49.9209 19.6315 49.6274 19.6595L49.3428 16.673ZM32.3237 18.2946L49.3428 16.673L49.6274 19.6595L32.6082 21.281L32.3237 18.2946ZM29.1556 21.7788C29.1556 19.9744 30.5274 18.4657 32.3237 18.2946L32.6082 21.281C32.3516 21.3055 32.1556 21.521 32.1556 21.7788H29.1556ZM29.1556 25.8025V21.7788H32.1556V25.8025H29.1556ZM29.2077 26.4061C29.1734 26.2091 29.1556 26.0073 29.1556 25.8025H32.1556C32.1556 25.8342 32.1584 25.8639 32.1632 25.8915L29.2077 26.4061ZM29.1495 26.4155C29.1495 26.187 29.1805 25.9634 29.2395 25.7498L32.1314 26.5479C32.1435 26.5041 32.1495 26.4593 32.1495 26.4155H29.1495ZM29.1495 39.2507V26.4155H32.1495V39.2507H29.1495ZM27.6141 36.7443C29.0864 36.7443 30.4497 37.2297 31.5468 38.0487L29.7522 40.4527C29.1556 40.0074 28.4177 39.7443 27.6141 39.7443V36.7443ZM21.0349 43.3235C21.0349 39.6899 23.9805 36.7443 27.6141 36.7443V39.7443C25.6373 39.7443 24.0349 41.3467 24.0349 43.3235H21.0349ZM27.6141 49.9026C23.9805 49.9026 21.0349 46.957 21.0349 43.3235H24.0349C24.0349 45.3002 25.6373 46.9026 27.6141 46.9026V49.9026ZM34.1932 43.3235C34.1932 46.957 31.2476 49.9026 27.6141 49.9026V46.9026C29.5908 46.9026 31.1932 45.3002 31.1932 43.3235H34.1932ZM34.1366 42.4578C34.174 42.7418 34.1932 43.0308 34.1932 43.3235H31.1932C31.1932 43.1621 31.1827 43.004 31.1623 42.8496L34.1366 42.4578ZM34.1495 27.8026V42.6537H31.1495V27.8026H34.1495ZM32.9876 29.2867C32.8737 29.2975 32.7601 29.3028 32.6472 29.3026L32.6518 26.3026C32.6682 26.3027 32.6853 26.3019 32.7031 26.3002L32.9876 29.2867ZM49.8102 27.6838L32.9876 29.2867L32.7031 26.3002L49.5256 24.6974L49.8102 27.6838ZM48.1679 37.2608L48.1679 26.1906H51.1679L51.1679 37.2608H48.1679ZM46.5728 34.7092C48.0801 34.7092 49.4728 35.2179 50.5828 36.0721L48.753 38.4495C48.1492 37.9848 47.3953 37.7092 46.5728 37.7092V34.7092ZM39.9936 41.2883C39.9936 37.6548 42.9392 34.7092 46.5728 34.7092V37.7092C44.5961 37.7092 42.9936 39.3116 42.9936 41.2883H39.9936ZM46.5728 47.8675C42.9392 47.8675 39.9936 44.9219 39.9936 41.2883H42.9936C42.9936 43.2651 44.5961 44.8675 46.5728 44.8675V47.8675ZM53.1471 41.5447C53.0118 45.06 50.1205 47.8675 46.5728 47.8675V44.8675C48.5023 44.8675 50.0758 43.3402 50.1493 41.4294L53.1471 41.5447ZM53.1679 41.2883C53.1679 41.4565 53.1511 41.6222 53.1186 41.7835L50.1778 41.1906C50.1711 41.2234 50.1679 41.2563 50.1679 41.2883H53.1679ZM53.1679 24.3803L53.1679 41.2883H50.1679L50.1679 24.3803H53.1679ZM53.167 24.3113C53.1676 24.3343 53.1679 24.3573 53.1679 24.3803H50.1679C50.1679 24.3847 50.168 24.3891 50.1681 24.3935L53.167 24.3113ZM53.1748 24.1809C53.1748 24.2812 53.1705 24.3809 53.1621 24.4798L50.1729 24.2251C50.1742 24.2108 50.1748 24.196 50.1748 24.1809H53.1748ZM53.1748 20.1572V24.1809H50.1748V20.1572H53.1748ZM27.6141 45.3026C28.5552 45.3026 29.3462 44.6442 29.5449 43.7615L32.4717 44.4204C31.9715 46.6421 29.9885 48.3026 27.6141 48.3026V45.3026ZM25.6349 43.3235C25.6349 44.4165 26.521 45.3026 27.6141 45.3026V48.3026C24.8641 48.3026 22.6349 46.0734 22.6349 43.3235H25.6349ZM27.6141 41.3443C26.521 41.3443 25.6349 42.2304 25.6349 43.3235H22.6349C22.6349 40.5735 24.8641 38.3443 27.6141 38.3443V41.3443ZM29.3417 42.3566C29.0005 41.7492 28.3536 41.3443 27.6141 41.3443V38.3443C29.4814 38.3443 31.1065 39.3729 31.9572 40.8873L29.3417 42.3566ZM29.1495 43.3235V41.6219H32.1495V43.3235H29.1495ZM30.046 45.2415C29.5005 44.7853 29.1495 44.0947 29.1495 43.3235H32.1495C32.1495 43.1689 32.0775 43.0297 31.9706 42.9403L30.046 45.2415ZM48.94 43.0951C48.4661 42.6418 48.1679 41.9986 48.1679 41.2883H51.1679C51.1679 41.1464 51.1068 41.0163 51.0136 40.9271L48.94 43.0951ZM46.5728 43.2675C47.5231 43.2675 48.3201 42.5963 48.5092 41.701L51.4444 42.3212C50.9682 44.5752 48.9699 46.2675 46.5728 46.2675V43.2675ZM44.5936 41.2883C44.5936 42.3814 45.4797 43.2675 46.5728 43.2675V46.2675C43.8229 46.2675 41.5936 44.0383 41.5936 41.2883H44.5936ZM46.5728 39.3092C45.4797 39.3092 44.5936 40.1953 44.5936 41.2883H41.5936C41.5936 38.5384 43.8229 36.3092 46.5728 36.3092V39.3092ZM48.3343 40.3844C48.0039 39.7427 47.3377 39.3092 46.5728 39.3092V36.3092C48.5046 36.3092 50.1769 37.4097 51.0015 39.011L48.3343 40.3844ZM48.1679 41.2883V39.6977H51.1679V41.2883H48.1679ZM49.8171 21.6505L32.7979 23.272L32.5134 20.2856L49.5325 18.664L49.8171 21.6505ZM48.1748 24.1809V20.1572H51.1748V24.1809H48.1748ZM32.5134 24.3092L49.5325 22.6877L49.8171 25.6741L32.7979 27.2957L32.5134 24.3092ZM34.1556 21.7788L34.1556 25.8025L31.1556 25.8025L31.1556 21.7788L34.1556 21.7788Z" fill="#F8F9FA" mask="url(#path-1-outside-1_3724_50570)"/>
<path d="M32.5274 20.7774L49.5465 19.1558C50.1336 19.0999 50.6414 19.5616 50.6414 20.1513V24.175C50.6414 24.6905 50.2494 25.1216 49.7362 25.1705L32.7171 26.7921C32.13 26.848 31.6222 26.3863 31.6222 25.7966V21.7729C31.6222 21.2573 32.0141 20.8263 32.5274 20.7774Z" fill="#FA5252" stroke="#212529" stroke-width="2" stroke-linecap="round" stroke-linejoin="round"/>
<path d="M50.6345 24.3745L50.6345 41.2824" stroke="#212529" stroke-width="2" stroke-linecap="round" stroke-linejoin="round"/>
<path d="M31.6162 26.4096L31.6162 43.3176" stroke="#212529" stroke-width="2" stroke-linecap="round" stroke-linejoin="round"/>
<circle cx="4.27917" cy="4.27917" r="4.27917" transform="matrix(-1 0 0 1 50.8186 37.0033)" fill="#FA5252" stroke="#212529" stroke-width="1.6" stroke-linecap="round" stroke-linejoin="round"/>
<circle cx="4.27917" cy="4.27917" r="4.27917" transform="matrix(-1 0 0 1 31.8599 39.0384)" fill="#FA5252" stroke="#212529" stroke-width="1.6" stroke-linecap="round" stroke-linejoin="round"/>
<g style="mix-blend-mode:multiply">
<path fill-rule="evenodd" clip-rule="evenodd" d="M27.3911 46.7461C25.4975 46.7461 23.9625 45.2111 23.9625 43.3176C23.9625 41.424 25.4975 39.889 27.3911 39.889C27.5258 39.889 27.6587 39.8968 27.7893 39.9119C26.0834 40.1092 24.759 41.5587 24.759 43.3176C24.759 45.0764 26.0833 46.5259 27.7893 46.7232C27.6586 46.7383 27.5257 46.7461 27.3911 46.7461Z" fill="#DEE2E6"/>
</g>
<g style="mix-blend-mode:multiply">
<path fill-rule="evenodd" clip-rule="evenodd" d="M46.1413 44.7109C44.2478 44.7109 42.7128 43.1759 42.7128 41.2824C42.7128 39.3889 44.2478 37.8539 46.1413 37.8539C46.276 37.8539 46.4089 37.8617 46.5396 37.8768C44.8336 38.0741 43.5092 39.5236 43.5092 41.2824C43.5092 43.0412 44.8336 44.4907 46.5395 44.6881C46.4089 44.7032 46.276 44.7109 46.1413 44.7109Z" fill="#DEE2E6"/>
</g>
<path d="M20.1388 34.0836L20.1388 15.5438L26.5925 14.0433" stroke="#212529" stroke-width="2" stroke-linecap="round" stroke-linejoin="round"/>
<circle cx="4.69217" cy="4.69217" r="4.69217" transform="matrix(-1 0 0 1 20.3359 29.3915)" fill="#E599F7" stroke="#212529" stroke-width="1.6" stroke-linecap="round" stroke-linejoin="round"/>
<g style="mix-blend-mode:multiply">
<path fill-rule="evenodd" clip-rule="evenodd" d="M15.8616 37.975C13.9123 37.7496 12.3991 36.0933 12.3991 34.0837C12.3991 32.074 13.9123 30.4177 15.8616 30.1923C15.7123 30.175 15.5605 30.1661 15.4066 30.1661C13.243 30.1661 11.489 31.9201 11.489 34.0837C11.489 36.2472 13.243 38.0012 15.4066 38.0012C15.5605 38.0012 15.7123 37.9923 15.8616 37.975Z" fill="#DEE2E6"/>
</g>
<g style="mix-blend-mode:soft-light" opacity="0.7">
<path d="M48.4068 39.0902C48.8167 39.2294 49.2928 40.1948 49.3786 40.8823C49.4664 41.5853 49.3011 42.6141 48.8563 42.5584C48.4115 42.5027 48.7872 41.5502 48.6994 40.8728C48.6116 40.1953 47.9968 38.9509 48.4068 39.0902Z" fill="#F8F9FA"/>
</g>
<g style="mix-blend-mode:soft-light" opacity="0.7">
<path d="M29.2527 41.1363C29.6626 41.2755 30.1387 42.2409 30.2245 42.9283C30.3123 43.6313 30.147 44.6602 29.7022 44.6045C29.2574 44.5488 29.6332 43.5963 29.5454 42.9189C29.4576 42.2414 28.8428 40.997 29.2527 41.1363Z" fill="#F8F9FA"/>
</g>
<g style="mix-blend-mode:soft-light" opacity="0.7">
<path d="M17.7449 31.7216C18.1548 31.8609 18.6309 32.8263 18.7167 33.5137C18.8045 34.2167 18.6392 35.2456 18.1944 35.1899C17.7496 35.1341 18.1254 34.1817 18.0376 33.5043C17.9498 32.8268 17.335 31.5824 17.7449 31.7216Z" fill="#F8F9FA"/>
</g>
</svg>
