<svg width="18" height="18" viewBox="0 0 18 18" fill="none" xmlns="http://www.w3.org/2000/svg"><path fill-rule="evenodd" clip-rule="evenodd" d="M3.25 9.001a.75.75 0 0 1 .75-.75h4a.75.75 0 1 1 0 1.5H4a.75.75 0 0 1-.75-.75Z" fill="#27292A"/><path fill-rule="evenodd" clip-rule="evenodd" d="M14.75 3a.75.75 0 0 1-.75.75h-.748l-.748.001h-.007c-.008 0-.023 0-.043.002a3.068 3.068 0 0 0-.778.147c-.455.152-.82.407-.963.838-.091.273-.144.62-.213 1.083l-.02.128c-.073.489-.168 1.074-.369 1.623-.205.559-.535 1.124-1.11 1.543-.576.42-1.32.636-2.25.636a.75.75 0 1 1 0-1.5c.695 0 1.107-.159 1.367-.348.261-.191.446-.47.585-.848.143-.389.22-.835.295-1.33l.021-.146c.064-.426.135-.91.27-1.315.357-1.07 1.242-1.564 1.912-1.787a4.566 4.566 0 0 1 1.259-.225h.026l.01-.001h.754L14 2.25a.75.75 0 0 1 .75.75Z" fill="#27292A"/><path d="M14 15.751a.75.75 0 0 0 0-1.5h-1.503c-.008 0-.023 0-.043-.002a3.074 3.074 0 0 1-.778-.147c-.455-.152-.82-.407-.963-.838-.091-.273-.144-.621-.213-1.083l-.02-.128c-.073-.489-.168-1.074-.369-1.623-.205-.559-.535-1.124-1.11-1.543-.576-.42-1.32-.636-2.25-.636a.75.75 0 1 0 0 1.5c.695 0 1.107.159 1.367.348.261.191.446.47.585.848.143.389.22.835.295 1.33l.021.146c.064.426.135.91.27 1.315.357 1.07 1.242 1.564 1.912 1.787a4.561 4.561 0 0 0 1.259.225h.026l.01.001H14Z" fill="#27292A"/></svg>