<svg width="40" height="40" viewBox="0 0 40 40" fill="none" xmlns="http://www.w3.org/2000/svg"><g clip-path="url(#relationship-angle_a)"><path d="M33.146 16.528c.187-.187.392-.28.616-.28.243 0 .448.084.616.252.205.168.308.364.308.588 0 .187-.093.392-.28.616L26.51 26.3c-.336.373-.728.56-1.176.56-.43 0-.812-.168-1.148-.504l-11.004-11.2c-.15-.112-.27-.112-.364 0l-5.992 5.74a.885.885 0 0 1-.644.28c-.243 0-.457-.103-.644-.308-.15-.187-.224-.373-.224-.56 0-.224.084-.43.252-.616l6.188-6.02c.355-.355.747-.532 1.176-.532.448 0 .84.177 1.176.532l11.032 11.172c.112.112.224.112.336 0l7.672-8.316Z" fill="#27292A"/></g><defs><clipPath id="relationship-angle_a"><path fill="#fff" d="M0 0h40v40H0z"/></clipPath></defs></svg>