<svg width="40" height="40" viewBox="0 0 40 40" fill="none" xmlns="http://www.w3.org/2000/svg"><g clip-path="url(#relationship-curve_a)"><path d="M32.852 19.846a.84.84 0 0 1 .28-.588.832.832 0 0 1 .644-.224.723.723 0 0 1 .644.28c.168.187.233.43.196.728-.13 1.419-.523 2.688-1.176 3.808-.653 1.12-1.503 1.997-2.548 2.632a6.66 6.66 0 0 1-3.444.924c-1.325 0-2.65-.448-3.976-1.344a9.562 9.562 0 0 1-3.108-3.416l-2.38-4.424a7.253 7.253 0 0 0-2.464-2.744c-1.064-.728-2.119-1.092-3.164-1.092-.896 0-1.727.243-2.492.728-.747.485-1.363 1.167-1.848 2.044-.485.877-.775 1.876-.868 2.996a.92.92 0 0 1-.28.588.894.894 0 0 1-.616.224c-.28 0-.504-.093-.672-.28-.168-.187-.233-.42-.196-.7.112-1.419.485-2.688 1.12-3.808.653-1.139 1.484-2.016 2.492-2.632a6.27 6.27 0 0 1 3.36-.952c1.381 0 2.744.439 4.088 1.316 1.344.877 2.37 1.997 3.08 3.36l2.38 4.452a7.744 7.744 0 0 0 2.464 2.8c1.045.728 2.072 1.092 3.08 1.092a4.8 4.8 0 0 0 2.576-.728c.803-.485 1.447-1.167 1.932-2.044.504-.877.803-1.876.896-2.996Z" fill="#000"/></g><defs><clipPath id="relationship-curve_a"><path fill="#fff" d="M0 0h40v40H0z"/></clipPath></defs></svg>