<svg width="16" height="16" viewBox="0 0 16 16" fill="none" xmlns="http://www.w3.org/2000/svg"><g clip-path="url(#appIcon_a)"><g clip-path="url(#appIcon_b)"><path fill="url(#appIcon_c)" d="M0 0h16v16H0z"/><path d="M4.05 6.2a5.35 5.35 0 0 1 4.295 7.356 5.316 5.316 0 0 1-2.989-1.39 5.507 5.507 0 0 0 .346-1.35A5.35 5.35 0 0 0 4.03 6.245a.616.616 0 0 1 .02-.047V6.2Z" fill="url(#appIcon_d)"/><path d="M11.945 9.842a5.35 5.35 0 0 1-4.296-7.355 5.317 5.317 0 0 1 2.989 1.39 5.525 5.525 0 0 0-.347 1.35 5.349 5.349 0 0 0 1.673 4.571.632.632 0 0 1-.018.046l-.001-.002Z" fill="url(#appIcon_e)"/><path d="M11.943 9.842a5.351 5.351 0 0 1-4.665-5.93 5.353 5.353 0 0 0 5.552 2.62 5.32 5.32 0 0 1 .634 3.282 5.357 5.357 0 0 1-1.52.03v-.002Z" fill="#fff"/><path d="M4.05 6.198a5.351 5.351 0 0 1 4.664 5.932 5.353 5.353 0 0 0-5.551-2.621 5.319 5.319 0 0 1-.634-3.282c.466-.076.95-.092 1.442-.039l.079.009v.001Z" fill="#fff"/></g></g><defs><linearGradient id="appIcon_c" x1="15.501" y1="0" x2="2.202" y2="14.466" gradientUnits="userSpaceOnUse"><stop stop-color="#DE964F"/><stop offset="1" stop-color="#DE1606"/></linearGradient><linearGradient id="appIcon_d" x1="4.018" y1="13.967" x2="7.461" y2="7.508" gradientUnits="userSpaceOnUse"><stop offset=".19" stop-color="#FFFCFB"/><stop offset=".4" stop-color="#EDDDDD"/><stop offset=".51" stop-color="#ECD3D1"/><stop offset=".6" stop-color="#EDDADD" stop-opacity=".93"/><stop offset=".67" stop-color="#E9D4D7" stop-opacity=".88"/><stop offset=".74" stop-color="#DDBBC0" stop-opacity=".81"/><stop offset=".81" stop-color="#CE9CA4" stop-opacity=".73"/><stop offset=".87" stop-color="#BC7883" stop-opacity=".63"/><stop offset=".92" stop-color="#A84E5C" stop-opacity=".51"/><stop offset=".97" stop-color="#911F31" stop-opacity=".38"/><stop offset="1" stop-color="#830317" stop-opacity=".3"/></linearGradient><linearGradient id="appIcon_e" x1="13.136" y1="-2.635" x2="7.947" y2="11.031" gradientUnits="userSpaceOnUse"><stop offset=".19" stop-color="#fff"/><stop offset=".4" stop-color="#FDFCFC" stop-opacity=".99"/><stop offset=".51" stop-color="#F9F4F5" stop-opacity=".97"/><stop offset=".6" stop-color="#EED9DD" stop-opacity=".93"/><stop offset=".67" stop-color="#E9CDD1" stop-opacity=".88"/><stop offset=".74" stop-color="#DDBBC0" stop-opacity=".81"/><stop offset=".81" stop-color="#CE9CA4" stop-opacity=".73"/><stop offset=".87" stop-color="#BC7883" stop-opacity=".63"/><stop offset=".92" stop-color="#A84E5C" stop-opacity=".51"/><stop offset=".97" stop-color="#911F31" stop-opacity=".38"/><stop offset="1" stop-color="#830317" stop-opacity=".3"/></linearGradient><clipPath id="appIcon_a"><rect width="16" height="16" rx="1.031" fill="#fff"/></clipPath><clipPath id="appIcon_b"><path fill="#fff" d="M0 0h16v16H0z"/></clipPath></defs></svg>