<svg width="32" height="32" viewBox="0 0 32 32" fill="none" xmlns="http://www.w3.org/2000/svg">
<rect x="0.5" y="0.5" width="31" height="31" rx="15.5" fill="#1C2834" fill-opacity="0.05"/>
<rect x="0.5" y="0.5" width="31" height="31" rx="15.5" stroke="#E4E7EB"/>
<path d="M16.0686 14.714C15.378 14.714 14.7573 14.56 14.2066 14.252C13.6653 13.9347 13.2406 13.5007 12.9326 12.95C12.634 12.39 12.4846 11.76 12.4846 11.06C12.4846 10.3507 12.634 9.716 12.9326 9.156C13.2406 8.596 13.6653 8.15733 14.2066 7.84C14.7573 7.52267 15.378 7.364 16.0686 7.364C16.7686 7.364 17.3893 7.52267 17.9306 7.84C18.4813 8.15733 18.9106 8.596 19.2186 9.156C19.5266 9.716 19.6806 10.3507 19.6806 11.06C19.6806 11.76 19.5266 12.39 19.2186 12.95C18.9106 13.5007 18.4813 13.9347 17.9306 14.252C17.3893 14.56 16.7686 14.714 16.0686 14.714ZM9.92263 24.122C9.2693 24.122 8.7513 23.968 8.36863 23.66C7.9953 23.3613 7.80863 22.9553 7.80863 22.442C7.80863 22.19 7.8553 21.9287 7.94863 21.658C8.2753 20.6313 8.83997 19.7167 9.64263 18.914C10.4453 18.102 11.402 17.472 12.5126 17.024C13.6233 16.5667 14.7946 16.338 16.0266 16.338C17.268 16.338 18.4486 16.5667 19.5686 17.024C20.6886 17.472 21.6546 18.102 22.4666 18.914C23.2786 19.726 23.8526 20.6453 24.1886 21.672C24.2726 21.9427 24.3146 22.1947 24.3146 22.428C24.3146 22.9413 24.128 23.352 23.7546 23.66C23.3906 23.968 22.8866 24.122 22.2426 24.122H9.92263Z" fill="#9EA3A8"/>
</svg>
