<svg width="16" height="16" viewBox="0 0 16 16" fill="none" xmlns="http://www.w3.org/2000/svg"><g clip-path="url(#beta-appIcon_a)"><rect width="16" height="16" rx="1" fill="url(#beta-appIcon_b)"/><path fill-rule="evenodd" clip-rule="evenodd" d="M3.89 15.117V.922h.032v14.195H3.89Z" fill="url(#beta-appIcon_c)" fill-opacity=".4"/><path fill-rule="evenodd" clip-rule="evenodd" d="M13.5 14.86V1.171h.031v13.687H13.5Z" fill="url(#beta-appIcon_d)" fill-opacity=".4"/><path fill-rule="evenodd" clip-rule="evenodd" d="M2.469 14.852V1.117H2.5v13.735h-.031Z" fill="url(#beta-appIcon_e)" fill-opacity=".4"/><path fill-rule="evenodd" clip-rule="evenodd" d="M12.078 15.125V.922h.031v14.203h-.03Z" fill="url(#beta-appIcon_f)" fill-opacity=".4"/><path fill-rule="evenodd" clip-rule="evenodd" d="M14.828 2.5H1.156v-.031h13.672V2.5Z" fill="url(#beta-appIcon_g)" fill-opacity=".4"/><path fill-rule="evenodd" clip-rule="evenodd" d="M15.125 12.14H.875v-.03h14.25v.03Z" fill="url(#beta-appIcon_h)" fill-opacity=".4"/><path fill-rule="evenodd" clip-rule="evenodd" d="M15.11 3.922H.874V3.89h14.234v.03Z" fill="url(#beta-appIcon_i)" fill-opacity=".4"/><path fill-rule="evenodd" clip-rule="evenodd" d="M14.844 13.563H1.14v-.032h13.703v.031Z" fill="url(#beta-appIcon_j)" fill-opacity=".4"/><path fill-rule="evenodd" clip-rule="evenodd" d="m10.373 7.092.028.121-.06.015-.03-.122.062-.014Zm-.086-.488c.01.082.022.164.037.245l-.062.011a5.37 5.37 0 0 1-.037-.248l.062-.008Zm-.04-.494a5.4 5.4 0 0 0 .014.247l-.062.005a5.527 5.527 0 0 1-.015-.25l.063-.002Zm.006-.496a5.537 5.537 0 0 0-.009.248l-.063-.001c.002-.084.005-.167.01-.251l.062.004Zm.052-.493a5.358 5.358 0 0 0-.032.246l-.062-.007c.01-.083.02-.166.033-.249l.061.01Zm.098-.487c-.02.08-.038.161-.054.242l-.062-.012c.017-.082.035-.164.056-.245l.06.015Zm.143-.474a5.362 5.362 0 0 0-.077.235l-.06-.018c.025-.08.05-.16.079-.238l.058.02Zm.136-.347a6.006 6.006 0 0 0-.048.115l-.058-.024a5.039 5.039 0 0 1 .1-.23l.057.026a5.555 5.555 0 0 0-.05.113Zm.28-.553a5.273 5.273 0 0 0-.12.218l-.055-.03c.038-.074.079-.147.12-.219l.055.031Zm.268-.416a5.326 5.326 0 0 0-.139.205l-.053-.034c.046-.07.093-.14.141-.207l.051.036Zm.306-.39a5.36 5.36 0 0 0-.157.191l-.05-.038a5.35 5.35 0 0 1 .16-.194l.047.041Zm.341-.36c-.06.058-.117.117-.174.177l-.046-.044c.058-.06.117-.12.177-.177l.043.045Zm.374-.325a5.37 5.37 0 0 0-.19.158l-.042-.047a5.29 5.29 0 0 1 .193-.16l.039.049Zm.402-.29a5.28 5.28 0 0 0-.205.14l-.036-.05c.067-.05.136-.097.207-.142l.034.052Zm.318-.192c-.036.02-.072.04-.107.062l-.032-.054.109-.063.03.055Z" fill="url(#beta-appIcon_k)"/><path fill-rule="evenodd" clip-rule="evenodd" d="M11.073 8.782c.047.075.096.148.147.22l-.05.036a5.376 5.376 0 0 1-.15-.222l.053-.034Zm.305.432c.054.07.11.137.168.204l-.047.04a5.364 5.364 0 0 1-.17-.206l.05-.038Zm-.505-.774.064.116-.054.03a6.017 6.017 0 0 1-.065-.116l.055-.03Zm.851 1.173c.061.064.124.126.188.186l-.043.046a5.342 5.342 0 0 1-.19-.189l.045-.043Zm.384.363c.067.057.136.113.205.167l-.038.05c-.07-.055-.14-.112-.207-.17l.04-.047Zm.418.323a5.517 5.517 0 0 0 .22.146l-.032.053a5.11 5.11 0 0 1-.223-.148l.035-.05Zm.448.28c.077.043.155.084.234.123l-.028.056a5.33 5.33 0 0 1-.236-.124l.03-.055Zm.474.234c.08.035.162.068.245.1l-.023.058a5.345 5.345 0 0 1-.247-.1l.025-.058Zm.494.186c.084.027.168.052.253.075l-.016.06a5.19 5.19 0 0 1-.256-.075l.019-.06Zm.51.136c.086.019.173.035.26.05l-.01.061a5.28 5.28 0 0 1-.263-.05l.013-.06Zm.521.085c.044.005.088.01.132.013l-.006.063a5.392 5.392 0 0 1-.133-.013l.007-.063Z" fill="url(#beta-appIcon_l)"/><path fill-rule="evenodd" clip-rule="evenodd" d="M5.595 11.499a5.34 5.34 0 0 0 .06-.251l.06.013c-.018.085-.038.17-.06.254l-.06-.016Zm-.112.37.04-.122.06.018a5.296 5.296 0 0 1-.085.247l-.058-.021c.015-.04.03-.08.043-.122Zm.219-.875c.013-.085.025-.17.034-.255l.063.007c-.01.086-.022.172-.036.258l-.061-.01Zm-.464 1.472c.037-.078.073-.156.107-.235l.057.024c-.034.08-.07.16-.108.238l-.056-.027Zm.52-1.984a5.32 5.32 0 0 0 .011-.258h.062a5.38 5.38 0 0 1-.01.261l-.062-.003Zm-.767 2.436a5.36 5.36 0 0 0 .13-.223l.054.03a5.376 5.376 0 0 1-.13.226l-.054-.033Zm.776-2.952a5.337 5.337 0 0 0-.015-.258l.062-.005a5.4 5.4 0 0 1 .015.26l-.063.003Zm-1.065 3.38.15-.21.051.034c-.048.072-.099.143-.151.213l-.05-.038Zm1.022-3.894a5.327 5.327 0 0 0-.04-.255l.062-.011c.015.085.029.171.04.258l-.062.008Zm-1.352 4.29c.059-.063.115-.128.17-.194l.048.04a5.361 5.361 0 0 1-.171.196l-.047-.042Zm1.26-4.798a5.318 5.318 0 0 0-.064-.25l.06-.017c.024.084.045.168.065.253l-.06.014Zm-1.626 5.161a5.29 5.29 0 0 0 .188-.177l.044.045a5.388 5.388 0 0 1-.19.179l-.042-.047Zm1.486-5.657a5.32 5.32 0 0 0-.089-.243l.059-.022c.031.08.061.163.089.245l-.06.02ZM3.607 14.43c.069-.05.137-.103.203-.158l.04.049a5.296 5.296 0 0 1-.206.16l-.037-.05Zm1.697-6.463a5.328 5.328 0 0 0-.055-.117l.057-.027.055.118-.057.026Zm-2.127 6.75c.074-.045.147-.091.218-.139l.035.053a5.393 5.393 0 0 1-.22.139l-.033-.054Zm-.339.185.115-.059.03.055-.117.06-.028-.056Z" fill="url(#beta-appIcon_m)"/><path d="M4.109 6.255A5.396 5.396 0 0 1 5.77 9.69l-1.66-3.435Zm0 0a5.304 5.304 0 0 1 4.559 5.87v.005l-.003.023v.007c0 .003 0 .007-.002.01h-.001l-.001.01a5.21 5.21 0 0 1-.346 1.325" fill="url(#beta-appIcon_n)" stroke="#fff" stroke-width=".094"/><path d="M11.885 9.787a5.304 5.304 0 0 1-4.559-5.87v-.005l.003-.023v-.007c0-.003.001-.007.003-.01l.002-.01c.058-.466.176-.91.345-1.325a5.269 5.269 0 0 1 2.903 1.352 5.553 5.553 0 0 0-.338 1.332h.001a5.382 5.382 0 0 0-.019 1.13m0 0 .047-.003-.047.004Z" fill="url(#beta-appIcon_o)" stroke="#fff" stroke-width=".094"/><path d="m11.99 9.802.037.004a5.31 5.31 0 0 0 1.396-.033 5.272 5.272 0 0 0-.618-3.19 5.457 5.457 0 0 1-1.533.03v.001a5.427 5.427 0 0 1-1.015-.225l.014-.044a5.352 5.352 0 0 1-2.953-2.366l4.672 5.823Zm0 0v-.001l-.041-.005A5.305 5.305 0 0 1 7.31 4.057l4.68 5.745Z" fill="url(#beta-appIcon_p)" stroke="#fff" stroke-width=".094"/><path d="M4.003 6.24a.81.81 0 0 0-.037-.005 5.311 5.311 0 0 0-1.396.033c-.139 1.146.1 2.25.618 3.19.192-.032.389-.054.587-.065a5.428 5.428 0 0 1 1.96.258l-.013.045a5.352 5.352 0 0 1 2.953 2.366L4.003 6.24Zm0 0 .041.005a5.305 5.305 0 0 1 4.639 5.738L4.003 6.24Z" fill="url(#beta-appIcon_q)" stroke="#fff" stroke-width=".094"/><path fill-rule="evenodd" clip-rule="evenodd" d="M12.281.938H3.72a2.781 2.781 0 0 0-2.781 2.78v8.563a2.781 2.781 0 0 0 2.78 2.781h8.563a2.781 2.781 0 0 0 2.781-2.78V3.718a2.781 2.781 0 0 0-2.78-2.781ZM3.72.78A2.937 2.937 0 0 0 .78 3.72v8.562A2.938 2.938 0 0 0 3.72 15.22h8.562a2.938 2.938 0 0 0 2.938-2.938V3.72A2.938 2.938 0 0 0 12.28.78H3.72Z" fill="#fff"/><path fill-rule="evenodd" clip-rule="evenodd" d="M4.045 9.422a5.303 5.303 0 0 0-.269.01l-.003-.062a5.441 5.441 0 0 1 .272-.01v.062Zm.538.022a5.337 5.337 0 0 0-.269-.018l.003-.062c.09.003.181.01.272.018l-.006.062Zm-1.075.011c-.089.01-.178.022-.266.037l-.01-.062c.09-.014.179-.027.27-.037l.006.062Zm1.608.064a5.326 5.326 0 0 0-.266-.044l.009-.062c.09.013.18.028.268.045l-.011.061Zm-2.139.023c-.087.019-.175.04-.261.063l-.016-.06a5.4 5.4 0 0 1 .264-.064l.013.061Zm2.66.106a5.327 5.327 0 0 0-.259-.07l.015-.061c.088.021.176.045.263.072l-.018.06Zm-3.18.034a5.33 5.33 0 0 0-.253.09l-.022-.059a5.38 5.38 0 0 1 .257-.09l.019.059Zm3.688.147a5.324 5.324 0 0 0-.251-.097l.02-.058c.086.03.17.063.255.098l-.024.057Zm-4.19.045a5.334 5.334 0 0 0-.243.114l-.028-.056c.08-.04.163-.08.246-.116l.025.058Zm4.675.186a5.372 5.372 0 0 0-.24-.121l.027-.057c.082.04.163.08.243.123l-.03.055Zm-5.156.055c-.078.044-.154.09-.23.139L1.21 10.2c.077-.049.155-.096.234-.14l.03.054Zm5.504.15a5.35 5.35 0 0 0-.114-.07l.032-.054c.04.023.078.047.116.072l-.034.053Zm-5.958.139a5.6 5.6 0 0 0-.108.079l-.038-.05.11-.08.036.05Z" fill="url(#beta-appIcon_r)"/><path fill-rule="evenodd" clip-rule="evenodd" d="M7.552 10.69a5.037 5.037 0 0 0-.097-.08l.04-.048.098.081-.04.048Zm.367.344a5.342 5.342 0 0 0-.18-.176l.043-.046c.062.058.123.118.182.178l-.045.044Zm.332.376a5.332 5.332 0 0 0-.161-.192l.046-.041c.057.063.111.128.164.194l-.049.04Zm.296.406a5.38 5.38 0 0 0-.143-.206l.05-.037c.05.068.099.138.145.209l-.052.034Zm.256.432a5.281 5.281 0 0 0-.123-.219l.054-.032c.043.073.085.147.124.222l-.055.03Zm.165.339a5.166 5.166 0 0 0-.052-.114l.056-.027a5.34 5.34 0 0 1 .103.232l-.058.024a5.4 5.4 0 0 0-.05-.115Zm.22.588a5.327 5.327 0 0 0-.08-.239l.059-.02c.028.079.055.16.08.24l-.06.018Zm.124.486a5.328 5.328 0 0 0-.057-.245l.061-.015c.021.082.04.164.057.247l-.06.013Zm.078.496a5.302 5.302 0 0 0-.033-.25l.062-.009c.013.084.024.168.033.252l-.062.007Zm.031.5a5.305 5.305 0 0 0-.01-.25l.063-.004c.005.084.009.169.01.254H9.42Zm-.008.377a5.31 5.31 0 0 0 .006-.125l.062.002a5.384 5.384 0 0 1-.005.127l-.063-.004Z" fill="url(#beta-appIcon_s)"/><path fill-rule="evenodd" clip-rule="evenodd" d="M3.275 6.235a5.314 5.314 0 0 0-.234.01l-.004-.063c.08-.005.158-.008.237-.01l.001.063Zm.351.006a5.386 5.386 0 0 0-.117-.005l.002-.062a5.326 5.326 0 0 1 .237.012l-.005.062a5.343 5.343 0 0 0-.117-.007Zm-.818.023a5.299 5.299 0 0 0-.232.03l-.01-.062c.078-.012.157-.022.235-.03l.007.062Zm1.4.038a5.323 5.323 0 0 0-.232-.032l.007-.063c.079.01.157.02.235.033l-.01.062Zm-1.863.032a5.315 5.315 0 0 0-.229.05l-.014-.06a5.37 5.37 0 0 1 .23-.052l.013.062Zm2.322.062a5.321 5.321 0 0 0-.229-.052l.013-.062c.077.016.154.034.23.053l-.014.06Zm-2.777.048c-.075.022-.15.045-.223.07l-.02-.06c.074-.024.15-.048.226-.07l.017.06Zm3.225.086a5.3 5.3 0 0 0-.223-.072l.018-.06c.076.023.151.047.226.073l-.021.06Zm-3.669.064a5.31 5.31 0 0 0-.216.09l-.025-.058c.072-.032.145-.062.219-.09l.022.058Zm4.104.11a5.302 5.302 0 0 0-.216-.092l.023-.058c.074.03.146.06.218.093l-.025.057Zm-4.532.078a5.31 5.31 0 0 0-.104.053l-.03-.055.106-.054.028.056Zm4.95.133a5.317 5.317 0 0 0-.207-.11l.028-.056c.07.035.14.072.21.111l-.031.055Zm.3.182a5.271 5.271 0 0 0-.099-.063l.033-.053c.034.02.067.042.1.063l-.034.053Z" fill="url(#beta-appIcon_t)"/><path fill-rule="evenodd" clip-rule="evenodd" d="M8.476 9.887 8.51 10l-.06.018a5.221 5.221 0 0 0-.035-.112l.06-.019Zm.097.341c.02.077.037.154.053.231l-.061.013a5.286 5.286 0 0 0-.052-.229l.06-.015Zm.095.464c.013.078.023.156.032.234l-.062.007a5.28 5.28 0 0 0-.032-.232l.062-.01Zm.054.47c.005.078.009.157.01.236l-.062.002a5.299 5.299 0 0 0-.01-.234l.062-.004Zm.011.473a5.357 5.357 0 0 1-.01.236l-.062-.004c.005-.078.008-.156.01-.234l.062.002Zm-.03.472a5.328 5.328 0 0 1-.03.234l-.062-.01c.012-.076.022-.154.03-.231l.062.007Zm-.071.467a5.287 5.287 0 0 1-.051.231l-.061-.015a5.332 5.332 0 0 0 .05-.228l.062.012Zm-.113.46a5.355 5.355 0 0 1-.071.225l-.06-.02c.026-.074.05-.148.071-.223l.06.018Zm-.153.448a5.36 5.36 0 0 1-.09.218l-.058-.025c.032-.072.062-.144.09-.216l.058.023Zm-.191.432c-.035.07-.072.14-.11.21l-.055-.03c.038-.069.074-.138.109-.208l.056.028Zm-.23.414a5.295 5.295 0 0 1-.128.2l-.051-.036c.043-.065.086-.13.126-.197l.054.033Zm-.264.392a5.367 5.367 0 0 1-.145.187l-.049-.04c.05-.06.097-.121.144-.184l.05.037Zm-.299.367c-.026.03-.052.06-.08.088l-.045-.042.079-.087.046.042Z" fill="url(#beta-appIcon_u)"/><path fill-rule="evenodd" clip-rule="evenodd" d="m8.24 7.457.071.104-.05.036a5.352 5.352 0 0 1-.073-.105l.052-.035Zm-.26-.43c.04.074.081.147.125.219l-.054.032a5.394 5.394 0 0 1-.127-.22l.055-.03Zm-.22-.452c.033.077.068.153.105.229l-.057.027a5.4 5.4 0 0 1-.105-.232l.057-.024Zm-.175-.471c.026.08.053.159.082.237l-.058.022c-.03-.08-.058-.16-.083-.24l.06-.02Zm-.13-.486c.018.082.038.163.06.244l-.061.016a5.403 5.403 0 0 1-.06-.247l.06-.013Zm-.084-.496c.01.083.022.166.036.249l-.062.01a5.394 5.394 0 0 1-.036-.251l.062-.008Zm-.037-.501c.002.084.007.167.013.25l-.063.005a5.387 5.387 0 0 1-.012-.254l.062-.001Zm.004-.378a5.336 5.336 0 0 0-.004.126l-.063-.001a5.408 5.408 0 0 1 .012-.254l.062.004a5.337 5.337 0 0 0-.007.125Zm.065-.624a5.326 5.326 0 0 0-.035.249l-.062-.007c.01-.085.022-.169.035-.252l.062.01Zm.105-.491c-.021.08-.04.162-.058.244l-.062-.013c.018-.083.038-.165.06-.247l.06.016Zm.15-.48a5.329 5.329 0 0 0-.08.238l-.06-.019c.025-.08.053-.16.082-.24l.059.021Zm.196-.463c-.036.076-.07.152-.103.23l-.058-.025c.033-.078.068-.155.104-.232l.057.027Zm.238-.442a5.315 5.315 0 0 0-.124.218l-.055-.03c.04-.074.082-.148.125-.22l.054.032Zm.279-.418c-.05.067-.098.136-.145.206l-.052-.035c.047-.07.096-.14.146-.208l.05.037Zm.234-.295a5.298 5.298 0 0 0-.08.096l-.049-.04.081-.097.048.04Z" fill="url(#beta-appIcon_v)"/><path fill-rule="evenodd" clip-rule="evenodd" d="M10.948 9.53c.04.014.082.027.124.04l-.019.06a5.332 5.332 0 0 1-.125-.041l.02-.06Zm.375.112c.084.022.17.042.254.06l-.012.06a5.416 5.416 0 0 1-.258-.06l.016-.06Zm.511.106c.086.014.173.025.26.035l-.008.062a5.404 5.404 0 0 1-.261-.035l.01-.062Zm.52.056c.086.005.173.008.26.009v.062a5.38 5.38 0 0 1-.264-.008l.004-.063Zm.522.005a5.279 5.279 0 0 0 .26-.017l.006.062a5.325 5.325 0 0 1-.264.017l-.002-.062Zm.52-.047c.086-.012.172-.026.257-.043l.012.062c-.087.016-.173.03-.26.043l-.01-.062Zm.512-.098c.085-.02.169-.043.253-.067l.017.06c-.084.025-.17.047-.255.068l-.015-.06Zm.501-.147c.082-.029.164-.06.244-.092l.024.058a5.382 5.382 0 0 1-.247.093l-.021-.059Zm.484-.196.118-.056.027.056-.119.057-.026-.057Z" fill="url(#beta-appIcon_w)"/><path fill-rule="evenodd" clip-rule="evenodd" d="m8.622 5.49.103.079-.037.05a5.41 5.41 0 0 1-.105-.08l.039-.049Zm-.395-.34c.063.06.127.118.193.175l-.04.047a5.383 5.383 0 0 1-.196-.177l.043-.045Zm-.359-.378c.057.066.115.13.175.193l-.045.043a5.377 5.377 0 0 1-.177-.195l.047-.04Zm-.32-.41c.05.07.102.14.155.209l-.049.038a5.372 5.372 0 0 1-.157-.212l.051-.036ZM7.27 3.92c.043.076.087.15.134.224l-.053.033a5.37 5.37 0 0 1-.135-.226l.054-.031Zm-.18-.347.057.117-.056.028a5.332 5.332 0 0 1-.112-.238l.057-.025.054.118Zm-.24-.605c.026.083.055.165.087.246l-.059.022a5.364 5.364 0 0 1-.088-.248l.06-.02Zm-.14-.502c.02.085.04.17.064.253l-.06.017a5.376 5.376 0 0 1-.064-.256l.06-.014Zm-.088-.513c.01.086.023.172.038.258l-.062.01a5.369 5.369 0 0 1-.038-.26l.062-.008Zm-.038-.52c.002.088.006.174.013.26l-.063.005a5.37 5.37 0 0 1-.012-.263l.062-.001Zm.005-.39a5.295 5.295 0 0 0-.005.13l-.062-.001a5.42 5.42 0 0 1 .005-.132l.062.003Z" fill="url(#beta-appIcon_x)"/><path fill-rule="evenodd" clip-rule="evenodd" d="M14.046 6.165a5.28 5.28 0 0 0 .236-.112l.028.056c-.078.04-.158.077-.239.113l-.025-.057Zm-.487.187c.082-.028.164-.057.246-.088l.022.058a5.383 5.383 0 0 1-.249.089l-.02-.06Zm.954-.421c.076-.043.15-.088.224-.134l.034.053c-.075.047-.15.092-.227.135l-.031-.054Zm-1.458.559c.085-.019.17-.04.254-.063l.016.06c-.085.024-.17.045-.256.064l-.014-.061Zm1.9-.838a5.18 5.18 0 0 0 .105-.076l.038.05a5.476 5.476 0 0 1-.108.077l-.036-.05Zm-2.414.926c.086-.01.172-.023.258-.037l.01.061a5.404 5.404 0 0 1-.26.039l-.008-.063Zm-.52.038c.086-.002.173-.006.26-.012l.005.062c-.088.006-.176.01-.264.013l-.002-.063Zm-.523-.013c.087.006.174.01.261.013l-.002.062a5.385 5.385 0 0 1-.263-.013l.004-.062Zm-.389-.044c.043.007.086.012.13.018l-.008.062a5.438 5.438 0 0 1-.131-.018l.01-.062Z" fill="url(#beta-appIcon_y)"/></g><defs><linearGradient id="beta-appIcon_b" x1="8" y1="0" x2="8" y2="16" gradientUnits="userSpaceOnUse"><stop stop-color="#FF8080"/><stop offset="1" stop-color="#E32020"/></linearGradient><linearGradient id="beta-appIcon_c" x1="4.406" y1=".922" x2="4.406" y2="15.117" gradientUnits="userSpaceOnUse"><stop stop-color="#fff" stop-opacity="0"/><stop offset=".49" stop-color="#fff" stop-opacity=".5"/><stop offset="1" stop-color="#fff" stop-opacity="0"/></linearGradient><linearGradient id="beta-appIcon_d" x1="14.016" y1="1.172" x2="14.016" y2="14.859" gradientUnits="userSpaceOnUse"><stop stop-color="#fff" stop-opacity="0"/><stop offset=".49" stop-color="#fff" stop-opacity=".5"/><stop offset="1" stop-color="#fff" stop-opacity="0"/></linearGradient><linearGradient id="beta-appIcon_e" x1="2.484" y1="1.117" x2="4.712" y2="14.48" gradientUnits="userSpaceOnUse"><stop stop-color="#fff" stop-opacity="0"/><stop offset=".49" stop-color="#fff" stop-opacity=".5"/><stop offset="1" stop-color="#fff" stop-opacity="0"/></linearGradient><linearGradient id="beta-appIcon_f" x1="12.594" y1=".922" x2="12.594" y2="15.125" gradientUnits="userSpaceOnUse"><stop stop-color="#fff" stop-opacity="0"/><stop offset=".49" stop-color="#fff" stop-opacity=".5"/><stop offset="1" stop-color="#fff" stop-opacity="0"/></linearGradient><linearGradient id="beta-appIcon_g" x1="1.156" y1="1.984" x2="14.828" y2="1.984" gradientUnits="userSpaceOnUse"><stop stop-color="#fff" stop-opacity="0"/><stop offset=".49" stop-color="#fff" stop-opacity=".5"/><stop offset="1" stop-color="#fff" stop-opacity="0"/></linearGradient><linearGradient id="beta-appIcon_h" x1=".875" y1="11.625" x2="15.125" y2="11.625" gradientUnits="userSpaceOnUse"><stop stop-color="#fff" stop-opacity="0"/><stop offset=".49" stop-color="#fff" stop-opacity=".5"/><stop offset="1" stop-color="#fff" stop-opacity="0"/></linearGradient><linearGradient id="beta-appIcon_i" x1=".875" y1="3.406" x2="15.109" y2="3.406" gradientUnits="userSpaceOnUse"><stop stop-color="#fff" stop-opacity="0"/><stop offset=".49" stop-color="#fff" stop-opacity=".5"/><stop offset="1" stop-color="#fff" stop-opacity="0"/></linearGradient><linearGradient id="beta-appIcon_j" x1="1.141" y1="13.047" x2="14.844" y2="13.047" gradientUnits="userSpaceOnUse"><stop stop-color="#fff" stop-opacity="0"/><stop offset=".49" stop-color="#fff" stop-opacity=".5"/><stop offset="1" stop-color="#fff" stop-opacity="0"/></linearGradient><linearGradient id="beta-appIcon_k" x1="14.639" y1=".283" x2="9.633" y2="3.469" gradientUnits="userSpaceOnUse"><stop offset=".271" stop-color="#fff" stop-opacity=".26"/><stop offset=".682" stop-color="#fff"/></linearGradient><linearGradient id="beta-appIcon_l" x1="15.563" y1="11.516" x2="10.773" y2="9.086" gradientUnits="userSpaceOnUse"><stop offset=".271" stop-color="#fff" stop-opacity=".26"/><stop offset=".682" stop-color="#fff"/></linearGradient><linearGradient id="beta-appIcon_m" x1="6.43" y1="10.789" x2="3.211" y2="14.735" gradientUnits="userSpaceOnUse"><stop offset=".359" stop-color="#fff"/><stop offset="1" stop-color="#fff" stop-opacity=".26"/></linearGradient><linearGradient id="beta-appIcon_n" x1="6.39" y1="6.198" x2="6.39" y2="13.556" gradientUnits="userSpaceOnUse"><stop stop-color="#EAEAEA" stop-opacity="0"/><stop offset="1" stop-color="#fff"/></linearGradient><linearGradient id="beta-appIcon_o" x1="9.604" y1="2.486" x2="9.604" y2="9.844" gradientUnits="userSpaceOnUse"><stop stop-color="#fff"/><stop offset="1" stop-color="#EAEAEA" stop-opacity="0"/></linearGradient><linearGradient id="beta-appIcon_p" x1="5.82" y1="3.91" x2="12.773" y2="9.582" gradientUnits="userSpaceOnUse"><stop stop-color="#fff"/><stop offset="1" stop-color="#F8FBFF" stop-opacity=".9"/></linearGradient><linearGradient id="beta-appIcon_q" x1="1.063" y1="6.156" x2="8.016" y2="11.828" gradientUnits="userSpaceOnUse"><stop stop-color="#fff"/><stop offset="1" stop-color="#F8FBFF" stop-opacity=".9"/></linearGradient><linearGradient id="beta-appIcon_r" x1="1.563" y1="9.924" x2="7.181" y2="10.033" gradientUnits="userSpaceOnUse"><stop stop-color="#fff" stop-opacity=".26"/><stop offset=".299" stop-color="#fff"/></linearGradient><linearGradient id="beta-appIcon_s" x1="9.852" y1="15.297" x2="8.656" y2="11.617" gradientUnits="userSpaceOnUse"><stop stop-color="#fff" stop-opacity=".26"/><stop offset=".883" stop-color="#fff"/></linearGradient><linearGradient id="beta-appIcon_t" x1=".836" y1="6.735" x2="6.438" y2="6.844" gradientUnits="userSpaceOnUse"><stop stop-color="#fff" stop-opacity=".26"/><stop offset=".299" stop-color="#fff"/></linearGradient><linearGradient id="beta-appIcon_u" x1="6.664" y1="15.313" x2="8.516" y2="13.563" gradientUnits="userSpaceOnUse"><stop stop-color="#fff" stop-opacity=".26"/><stop offset=".839" stop-color="#fff"/></linearGradient><linearGradient id="beta-appIcon_v" x1="11.732" y1="-1.169" x2="6.891" y2="4.484" gradientUnits="userSpaceOnUse"><stop offset=".452" stop-color="#fff" stop-opacity=".26"/><stop offset=".76" stop-color="#fff"/></linearGradient><linearGradient id="beta-appIcon_w" x1="15.844" y1="9.297" x2="10.195" y2="10.039" gradientUnits="userSpaceOnUse"><stop stop-color="#fff" stop-opacity=".26"/><stop offset=".4" stop-color="#fff"/></linearGradient><linearGradient id="beta-appIcon_x" x1="6.18" y1="1.062" x2="8.289" y2="6.609" gradientUnits="userSpaceOnUse"><stop stop-color="#fff" stop-opacity=".26"/><stop offset=".378" stop-color="#fff"/></linearGradient><linearGradient id="beta-appIcon_y" x1="15.211" y1="5.578" x2="10.961" y2="7.063" gradientUnits="userSpaceOnUse"><stop stop-color="#fff" stop-opacity=".26"/><stop offset=".334" stop-color="#fff"/></linearGradient><clipPath id="beta-appIcon_a"><rect width="16" height="16" rx="1" fill="#fff"/></clipPath></defs></svg>