<svg width="16" height="16" viewBox="0 0 16 16" fill="none" xmlns="http://www.w3.org/2000/svg">
<g clip-path="url(#clip0_1699_11582)">
<path d="M4.206 12.5382C4.094 12.6502 3.954 12.7062 3.786 12.7062C3.62733 12.7062 3.48733 12.6502 3.366 12.5382C3.254 12.4169 3.198 12.2769 3.198 12.1182C3.198 11.9316 3.254 11.7916 3.366 11.6982L7.146 7.96024L3.366 4.23624C3.254 4.13358 3.198 3.99358 3.198 3.81624C3.198 3.65758 3.254 3.51758 3.366 3.39624C3.48733 3.27491 3.62733 3.21424 3.786 3.21424C3.94467 3.21424 4.08467 3.27491 4.206 3.39624L7.986 7.13424L11.766 3.39624C11.8873 3.27491 12.0273 3.21424 12.186 3.21424C12.3447 3.21424 12.4847 3.27491 12.606 3.39624C12.7273 3.51758 12.788 3.65758 12.788 3.81624C12.788 3.99358 12.7273 4.13358 12.606 4.23624L8.826 7.96024L12.606 11.6982C12.7273 11.8009 12.788 11.9409 12.788 12.1182C12.788 12.2769 12.7273 12.4169 12.606 12.5382C12.4847 12.6502 12.3447 12.7062 12.186 12.7062C12.018 12.7062 11.878 12.6502 11.766 12.5382L7.986 8.80024L4.206 12.5382Z" fill="#1F2326"/>
</g>
<defs>
<clipPath id="clip0_1699_11582">
<rect width="16" height="16" fill="white" transform="translate(0 0.000244141)"/>
</clipPath>
</defs>
</svg>
