<svg width="16" height="16" viewBox="0 0 16 16" fill="none" xmlns="http://www.w3.org/2000/svg">
<path d="M10.716 11.9088C11.2387 11.9088 11.7016 11.808 12.1048 11.6064C12.5155 11.3973 12.8365 11.1099 13.068 10.744C13.2995 10.3707 13.4152 9.9488 13.4152 9.4784C13.4152 8.79893 13.2435 8.24267 12.9 7.8096C12.5565 7.37653 12.0973 7.1376 11.5224 7.0928C11.4104 7.10027 11.3208 7.0704 11.2536 7.0032C11.1939 6.936 11.164 6.8464 11.164 6.7344C11.1565 6.27147 11.0259 5.90933 10.772 5.648C10.5181 5.3792 10.1747 5.2448 9.74158 5.2448C9.60718 5.2448 9.44665 5.26347 9.25998 5.3008C9.23012 5.30827 9.18905 5.312 9.13678 5.312C9.05465 5.312 8.97625 5.2896 8.90158 5.2448C8.82692 5.2 8.77092 5.14026 8.73358 5.0656C8.53198 4.76693 8.25572 4.53173 7.90478 4.36C7.56132 4.1808 7.19172 4.0912 6.79598 4.0912C6.07918 4.0912 5.51172 4.33013 5.09358 4.808C4.68292 5.2784 4.47758 5.9056 4.47758 6.6896C4.47758 6.85387 4.48878 7.03307 4.51118 7.2272C4.52612 7.3392 4.50372 7.43627 4.44398 7.5184C4.39172 7.59307 4.30958 7.63787 4.19758 7.6528C3.71225 7.77227 3.32025 8.02613 3.02158 8.4144C2.73038 8.7952 2.58478 9.24693 2.58478 9.7696C2.58478 10.1803 2.68558 10.5499 2.88718 10.8784C3.08878 11.1995 3.36878 11.4533 3.72718 11.64C4.09305 11.8192 4.50372 11.9088 4.95918 11.9088H10.716ZM4.95918 12.9056C4.30958 12.9056 3.72718 12.7712 3.21198 12.5024C2.70425 12.2411 2.30478 11.8715 2.01358 11.3936C1.72985 10.9157 1.58798 10.3744 1.58798 9.7696C1.58798 9.31413 1.67012 8.8848 1.83438 8.4816C1.99865 8.07093 2.22265 7.72373 2.50638 7.44C2.79758 7.15627 3.12612 6.96213 3.49198 6.8576C3.46212 6.13333 3.58158 5.48747 3.85038 4.92C4.12665 4.34506 4.52238 3.89706 5.03758 3.576C5.56025 3.25493 6.16132 3.0944 6.84078 3.0944C7.34105 3.0944 7.83385 3.21387 8.31918 3.4528C8.80452 3.68426 9.17412 3.98666 9.42798 4.36C9.56238 4.3376 9.69678 4.3264 9.83118 4.3264C10.4061 4.3264 10.8952 4.49813 11.2984 4.8416C11.7091 5.1776 11.9517 5.6256 12.0264 6.1856C12.4893 6.24533 12.9 6.42453 13.2584 6.7232C13.6243 7.02187 13.908 7.41013 14.1096 7.888C14.3112 8.3584 14.412 8.88107 14.412 9.456C14.412 10.1205 14.2552 10.7141 13.9416 11.2368C13.628 11.7595 13.1912 12.1664 12.6312 12.4576C12.0712 12.7563 11.4328 12.9056 10.716 12.9056H4.95918Z" fill="#1F2326"/>
</svg>
