<svg width="16" height="17" viewBox="0 0 16 17" fill="none" xmlns="http://www.w3.org/2000/svg">
<path d="M12.8441 7.82259C12.9934 7.82259 13.1166 7.87113 13.2137 7.96819C13.3107 8.06526 13.3593 8.18846 13.3593 8.33779C13.3593 8.47966 13.3107 8.59913 13.2137 8.69619C13.1166 8.79326 12.9934 8.84179 12.8441 8.84179H8.52087V13.3778C8.52087 13.5271 8.47234 13.6503 8.37527 13.7474C8.2782 13.8519 8.155 13.9042 8.00567 13.9042C7.8638 13.9042 7.74434 13.8519 7.64727 13.7474C7.5502 13.6503 7.50167 13.5271 7.50167 13.3778V8.84179H3.15607C3.00674 8.84179 2.88354 8.79326 2.78647 8.69619C2.6894 8.59913 2.64087 8.47966 2.64087 8.33779C2.64087 8.18846 2.6894 8.06526 2.78647 7.96819C2.891 7.87113 3.0142 7.82259 3.15607 7.82259H7.50167V3.62259C7.50167 3.47326 7.5502 3.35006 7.64727 3.25299C7.74434 3.14846 7.8638 3.09619 8.00567 3.09619C8.155 3.09619 8.2782 3.14846 8.37527 3.25299C8.47234 3.35006 8.52087 3.47326 8.52087 3.62259V7.82259H12.8441Z" fill="#1F2326"/>
</svg>
