<svg width="71" height="58" viewBox="0 0 71 58" fill="none" xmlns="http://www.w3.org/2000/svg">
<path d="M0 48.1562V22.5312H70.9688V48.1562C70.9688 51.3854 70.1875 53.8021 68.625 55.4062C67.0625 57.0312 64.8854 57.8438 62.0938 57.8438H9.8125C6.54167 57.8438 4.08333 57.0312 2.4375 55.4062C0.8125 53.8021 0 51.3854 0 48.1562ZM0 18.4375V10.0625C0 6.91667 0.75 4.5625 2.25 3C3.75 1.4375 5.875 0.65625 8.625 0.65625H17.5312C18.5521 0.65625 19.4375 0.729167 20.1875 0.875C20.9583 1.02083 21.6562 1.26042 22.2812 1.59375C22.9271 1.92708 23.5938 2.38542 24.2812 2.96875L26.1875 4.53125C26.9792 5.19792 27.7396 5.67708 28.4688 5.96875C29.1979 6.23958 30.0938 6.375 31.1562 6.375H61.1562C64.4062 6.375 66.8542 7.1875 68.5 8.8125C70.1458 10.4375 70.9688 12.8542 70.9688 16.0625V18.4375H0Z" fill="#C4C4C4"/>
</svg>
