<svg width="24" height="24" viewBox="0 0 24 24" fill="none" xmlns="http://www.w3.org/2000/svg"><path d="M4.859 5.8c-.187 0-.341.06-.462.182a.626.626 0 0 0-.182.462v11.074c0 .187.06.34.182.462a.626.626 0 0 0 .462.182h1.666c.186 0 .34-.06.462-.182a.626.626 0 0 0 .182-.462V6.444c0-.187-.061-.34-.182-.462a.626.626 0 0 0-.462-.182H4.859Zm-2.184.546A2.088 2.088 0 0 1 3.683 4.54c.317-.187.662-.28 1.036-.28h1.904c.373 0 .718.093 1.036.28.326.177.583.425.77.742.186.308.28.649.28 1.022v11.312c0 .373-.094.719-.28 1.036a1.962 1.962 0 0 1-.742.77c-.308.187-.649.28-1.022.28H4.76c-.374 0-.724-.093-1.05-.28a1.99 1.99 0 0 1-.756-.742 1.934 1.934 0 0 1-.28-1.022V6.346Zm6.678 3.962c-.187 0-.341.06-.462.182a.626.626 0 0 0-.182.462v6.566c0 .187.06.34.182.462a.626.626 0 0 0 .462.182h2.772c.186 0 .34-.06.462-.182a.626.626 0 0 0 .182-.462v-6.566c0-.187-.061-.34-.182-.462a.626.626 0 0 0-.462-.182H9.353Zm-2.184.546a2.088 2.088 0 0 1 1.008-1.806c.317-.187.662-.28 1.036-.28h3.01c.373 0 .718.093 1.036.28.326.177.583.425.77.742.186.308.28.649.28 1.022v6.804c0 .373-.094.719-.28 1.036a1.962 1.962 0 0 1-.742.77c-.308.187-.649.28-1.022.28h-3.01c-.374 0-.724-.093-1.05-.28a1.99 1.99 0 0 1-.756-.742 1.934 1.934 0 0 1-.28-1.022v-6.804Zm6.846-3.668a.713.713 0 0 0-.35.224.557.557 0 0 0-.126.364c0 .037.009.103.028.196l2.8 9.66c.046.15.121.266.224.35a.614.614 0 0 0 .378.126c.037 0 .102-.01.196-.028l1.554-.448a.674.674 0 0 0 .35-.238.557.557 0 0 0 .126-.364c0-.037-.01-.103-.028-.196L16.38 7.256a.674.674 0 0 0-.238-.35.594.594 0 0 0-.392-.14l-.182.028-1.554.392Zm-1.96 1.092a2.132 2.132 0 0 1-.084-.588c0-.448.135-.85.406-1.204.27-.364.63-.607 1.078-.728l1.806-.462a2.107 2.107 0 0 1 1.806.35 2 2 0 0 1 .784 1.092l2.856 9.828c.056.196.084.392.084.588 0 .448-.136.85-.406 1.204-.271.364-.63.607-1.078.728l-1.806.462a2.169 2.169 0 0 1-1.82-.35 2.023 2.023 0 0 1-.77-1.092l-2.856-9.828Z" fill="#000"/></svg>