<svg width="21" height="20" viewBox="0 0 21 20" fill="none" xmlns="http://www.w3.org/2000/svg">
<path d="M3.65159 10.786C3.81959 10.8327 4.05759 10.856 4.36559 10.856C4.60825 10.856 4.79492 10.8467 4.92559 10.828V13.712C4.92559 14.0387 5.02359 14.3 5.21959 14.496C5.41559 14.692 5.67692 14.7947 6.00359 14.804H15.9296C16.2563 14.804 16.5176 14.706 16.7136 14.51C16.9096 14.3047 17.0076 14.0387 17.0076 13.712L17.0216 8.658C17.0216 8.33133 16.9236 8.07 16.7276 7.874C16.5316 7.678 16.2703 7.58 15.9436 7.58H12.3036L10.5116 5.214C10.4276 5.11133 10.3203 5.032 10.1896 4.976C10.0683 4.91067 9.94225 4.878 9.81159 4.878H8.63559C8.57959 4.64467 8.49092 4.42067 8.36959 4.206C8.24825 3.982 8.12225 3.79067 7.99159 3.632H10.0776C10.3109 3.632 10.5396 3.68333 10.7636 3.786C10.9969 3.87933 11.1976 4.01 11.3656 4.178H15.7336C16.1349 4.178 16.4569 4.304 16.6996 4.556C16.9516 4.79867 17.0776 5.12067 17.0776 5.522V6.572C17.4603 6.74 17.7589 7.00133 17.9736 7.356C18.1883 7.70133 18.2956 8.112 18.2956 8.588V13.838C18.2956 14.51 18.0856 15.0467 17.6656 15.448C17.2549 15.8587 16.7136 16.064 16.0416 16.064H5.90559C5.23359 16.064 4.68759 15.8587 4.26759 15.448C3.85692 15.0467 3.65159 14.51 3.65159 13.838V10.786ZM4.35159 9.778C3.72625 9.778 3.14759 9.624 2.61559 9.316C2.09292 9.008 1.68225 8.59267 1.38359 8.07C1.07559 7.538 0.921586 6.95933 0.921586 6.334C0.921586 5.70867 1.07559 5.13467 1.38359 4.612C1.68225 4.08933 2.09292 3.67867 2.61559 3.38C3.14759 3.072 3.72625 2.918 4.35159 2.918C4.98625 2.918 5.56492 3.072 6.08759 3.38C6.61025 3.67867 7.02092 4.08933 7.31959 4.612C7.62759 5.13467 7.78159 5.70867 7.78159 6.334C7.78159 6.96867 7.62759 7.54733 7.31959 8.07C7.02092 8.59267 6.61025 9.008 6.08759 9.316C5.56492 9.624 4.98625 9.778 4.35159 9.778ZM4.74359 5.942V4.542C4.74359 4.42067 4.70625 4.32267 4.63159 4.248C4.55692 4.17333 4.46359 4.136 4.35159 4.136C4.23959 4.136 4.14625 4.17333 4.07159 4.248C3.99692 4.32267 3.95959 4.42067 3.95959 4.542V5.942H2.55959C2.45692 5.942 2.36825 5.984 2.29359 6.068C2.20959 6.14267 2.16759 6.23133 2.16759 6.334C2.16759 6.446 2.20959 6.544 2.29359 6.628C2.36825 6.70267 2.45692 6.74 2.55959 6.74H3.95959V8.154C3.95959 8.266 3.99692 8.35933 4.07159 8.434C4.14625 8.50867 4.23959 8.546 4.35159 8.546C4.46359 8.546 4.55692 8.50867 4.63159 8.434C4.70625 8.35933 4.74359 8.266 4.74359 8.154V6.74H6.14359C6.24625 6.74 6.33492 6.70267 6.40959 6.628C6.49359 6.544 6.53559 6.446 6.53559 6.334C6.53559 6.23133 6.49359 6.14267 6.40959 6.068C6.33492 5.984 6.24625 5.942 6.14359 5.942H4.74359ZM13.0456 6.362H15.9296V5.718C15.9296 5.59667 15.8923 5.50333 15.8176 5.438C15.7523 5.36333 15.6589 5.326 15.5376 5.326H12.2616L13.0456 6.362Z" fill="#1F2326"/>
</svg>
