<svg width="149" height="112" viewBox="0 0 149 112" fill="none" xmlns="http://www.w3.org/2000/svg">
<g clip-path="url(#clip0_6172_5568)">
<path d="M25.1825 62.6293L24.6747 51.7125C24.5807 49.7097 26.2544 48.0642 28.2572 48.2146C40.5374 49.0985 87.0536 51.7031 100.96 50.067C100.96 50.067 105.267 64.5381 103.114 79.7802C103.114 79.7802 47.1665 84.8107 27.458 80.4008C26.0382 80.0811 24.985 78.9057 24.844 77.4577C24.4115 73.1605 23.5464 64.0491 23.5464 60.4008" fill="#1F2326"/>
<path d="M24.4218 62.6661C23.6413 59.4597 23.4627 56.1969 23.3122 52.9341L23.2746 52.2382C22.8515 49.2481 25.4749 46.4272 28.5214 46.794C37.7457 47.3769 47.1392 47.9223 56.3634 48.383C71.0884 48.9472 86.1612 49.9721 100.783 48.6369C101.488 48.5523 102.146 48.9942 102.334 49.6618C103.077 52.1724 103.679 54.6078 104.262 57.1089C106.03 64.6313 106.697 72.4545 105.522 80.1366C105.381 81.2932 104.431 82.1583 103.321 82.2335C95.2068 82.8917 87.1203 83.4559 78.9962 83.7662C66.81 84.2645 54.5863 84.4714 42.3813 83.7944C38.3004 83.5499 34.2196 83.2114 30.1199 82.4968C26.7819 82.0266 23.5661 81.2368 23.3686 77.2029C22.9737 71.627 22.4754 66.0135 22.7104 60.4188C22.7763 59.4032 24.2807 59.3844 24.3653 60.3906C24.7885 65.3083 25.4843 70.4517 26.0391 75.4164L26.2177 76.9209C26.2271 77.8423 26.8007 78.7638 27.7504 78.9331C28.6625 79.0929 29.6498 79.2998 30.6183 79.4126C46.5562 81.2462 62.7574 79.9862 78.7611 79.1587C86.81 78.604 94.8777 78.0962 102.889 77.3628L100.689 79.4596C101.61 71.044 101.648 62.4404 100.331 54.053C100.134 52.8494 99.8706 51.627 99.5697 50.4987L101.121 51.5236C93.5519 52.1348 86.1424 51.9467 78.6013 51.8433C61.8359 51.5142 45.0423 50.8748 28.3146 49.6901C26.8947 49.502 25.8698 50.7338 26.1049 52.1442L26.1331 52.84C26.2929 56.1122 26.4058 59.3656 25.9262 62.6378C25.8228 63.4653 24.5816 63.5123 24.403 62.7037L24.4218 62.6661Z" fill="white"/>
<path d="M52.0839 46.4479C60.2926 46.6829 68.5202 46.8052 76.7383 46.7582C84.8436 46.5795 93.1558 46.777 101.12 45.2255C102.183 45.0186 102.662 46.4385 103.113 47.0496C104.872 50.1526 105.652 53.7069 106.122 57.1954L106.301 58.9255C106.32 59.0948 106.198 59.2358 106.028 59.2546C105.868 59.2734 105.727 59.1606 105.699 59.0007L105.361 57.3176C104.477 53.6411 103.311 49.626 100.697 46.8146L101.571 47.0402C97.4059 47.9241 93.3062 48.0275 89.1125 48.2156C76.7477 48.5823 64.3923 48.2626 52.0369 47.8019C51.1906 47.7643 51.1624 46.4291 52.0839 46.4479Z" fill="white"/>
<path d="M3.50934 33.207C3.50934 33.207 -3.15732 68.6372 23.2084 65.1017Z" fill="#1F2326"/>
<path d="M5.93513 33.6677C4.33664 42.798 3.5562 57.1844 12.8651 62.356C15.968 64.0203 19.5599 64.1707 23.039 63.8699C23.7536 63.7758 24.4024 64.3024 24.4588 65.017C24.5059 65.6752 24.0263 66.2582 23.3775 66.3428C21.4405 66.5967 19.4659 66.813 17.4443 66.6249C1.07384 65.5436 -0.769134 45.506 1.08324 32.7557C1.67562 29.427 6.58393 30.3391 5.93513 33.6677Z" fill="white"/>
<path d="M1.5634 49.2114C2.68235 55.7746 5.67247 64.4911 13.3076 65.3844C13.6085 65.4032 13.5709 65.8828 13.27 65.8451C5.28695 65.0929 1.93952 56.1884 0.632517 49.3431C0.538488 48.7225 1.48818 48.5814 1.5634 49.2114Z" fill="white"/>
<path opacity="0.2" d="M38.9104 74.2974C43.1428 74.2974 46.5738 70.8664 46.5738 66.6341C46.5738 62.4017 43.1428 58.9707 38.9104 58.9707C34.6781 58.9707 31.2471 62.4017 31.2471 66.6341C31.2471 70.8664 34.6781 74.2974 38.9104 74.2974Z" fill="white"/>
<path d="M37.2462 56.8939C41.7878 55.963 46.226 58.624 47.392 63.1374C48.0031 65.2531 48.3228 67.5568 47.392 69.6818C45.2857 73.9131 39.2208 73.9226 35.2716 72.5497C28.3323 69.9075 29.6111 57.7778 37.5659 57.806C38.0737 57.7872 38.1395 58.5488 37.6317 58.6146C35.7512 58.8403 33.927 59.8088 33.0995 61.5295C31.7737 64.5573 32.4413 69.5878 35.9486 70.923C38.9388 72.0326 44.2984 72.2676 45.9909 69.0236C47.2697 65.8737 45.9439 60.8525 42.9538 58.9343C41.3835 57.9094 39.3243 57.5521 37.4249 57.759C36.8607 57.8718 36.6915 57.0161 37.2556 56.9033L37.2462 56.8939Z" fill="white"/>
<path d="M52.15 62.5436L58.8449 37.7952L67.8152 28.2324L100.951 38.8577L75.347 62.5436L52.15 69.3231L50.2036 66.1073L52.15 62.5436Z" fill="#1F2326"/>
<g opacity="0.2">
<path d="M55.7229 64.518C63.3863 63.8692 70.9838 62.9571 78.7224 63.8316C79.484 63.9726 80.1704 64.0855 80.9039 64.4522C81.7971 64.8565 82.2297 66.1447 81.3834 67.0192C79.9636 68.3356 78.2146 68.7211 76.6067 69.3699C73.0901 70.7051 69.2819 71.4856 66.0473 73.2251C66.2353 73.037 66.414 72.7079 66.3012 72.1532C66.1413 71.6454 66.0003 71.6078 65.8216 71.4573C68.7553 72.0403 71.8301 71.4479 74.9048 71.1094C77.3778 70.7709 79.8507 70.3666 82.3143 69.9059C92.1968 68.0723 102.004 65.7122 111.717 63.0794C121.402 60.3995 131.059 57.4564 140.274 53.7893C141.863 53.1405 143.678 53.9209 144.317 55.51C144.966 57.1367 144.12 58.9985 142.465 59.5721C123.019 66.2011 103.151 70.4888 82.9161 73.573C79.6909 73.8645 64.2043 76.6948 63.4051 72.8772C63.1606 71.683 63.9222 71.0154 64.6933 70.5641C69.4417 68.2415 75.0177 67.8278 79.6251 65.4207C79.5216 65.5523 79.437 65.8438 79.531 66.1165C79.7003 66.5396 79.8131 66.4738 79.7661 66.4738C77.0111 65.4959 73.9551 65.5993 70.9556 65.4677C65.9439 65.3925 60.8851 65.5993 55.8545 65.919C54.9519 65.9849 54.8014 64.612 55.7323 64.5086L55.7229 64.518Z" fill="white"/>
</g>
<path d="M56.4479 64.4909C61.2245 62.1025 66.6594 60.8049 71.5677 58.7833C79.7389 51.2516 89.7529 41.6136 98.5635 33.3767C104.657 27.5939 110.947 21.8299 116.89 15.8873L117.633 15.135C117.736 15.0222 117.802 14.8906 117.849 14.7589C117.915 14.3734 117.924 14.2136 117.708 13.7998C116.899 12.0697 115.921 9.52151 114.661 8.29913C113.608 7.00153 112.057 5.94841 110.524 5.10215C109.913 4.79185 109.076 4.03962 108.418 4.68842C104.563 8.40256 93.326 19.0937 89.2828 22.9677C80.3406 31.4115 71.3891 39.8459 62.3153 48.158C62.3059 48.1674 62.635 47.6503 62.635 47.6503L57.1531 64.6037C56.9556 65.2243 56.288 65.5628 55.6768 65.3559C55.0656 65.1585 54.7271 64.5003 54.9152 63.8797L60.3031 46.8886C73.7492 32.7561 89.4144 18.1346 103.444 4.40633L105.108 2.80784C105.794 2.14963 106.659 1.27516 107.628 1.03069C109.245 0.428904 110.975 1.03069 112.329 1.96158C114.022 2.83605 116.316 4.61319 117.238 5.80736C119.118 7.80078 119.889 10.0481 120.924 12.333C121.826 14.0443 121.469 16.4044 120.011 17.7302C113.796 23.8703 107.242 29.8976 100.801 35.765C91.6335 44.0772 82.3999 52.3235 73.2885 60.6733C72.9876 60.8237 72.4046 61.1152 72.0849 61.2281C67.186 63.071 61.9956 64.2182 56.9744 65.6004C56.3256 65.8167 55.7709 64.9046 56.4761 64.4909H56.4479Z" fill="white"/>
<g style="mix-blend-mode:lighten">
<path d="M58.5065 58.2559C59.6537 58.679 62.0796 61.8572 62.3523 62.7316L55.7891 65.2234L58.5065 58.2559Z" fill="#F94F1E"/>
</g>
<path d="M71.8489 61.2658C70.5419 55.8028 65.8781 50.7064 60.4338 49.2583C58.9294 48.9198 59.3901 46.6631 60.9134 46.9546C64.2326 47.8667 66.809 49.9824 69.0093 52.4553C71.0873 54.8813 72.7046 57.7962 73.2406 61.012C73.3064 61.3975 73.0431 61.7642 72.6576 61.8206C72.2815 61.8864 71.9242 61.6326 71.8489 61.2658Z" fill="white"/>
<path d="M62.7194 63.3636C62.5972 62.4139 61.8074 58.2578 56.9272 57.3457" stroke="white" stroke-width="1.41043" stroke-linecap="round"/>
<path d="M72.0282 59.9681C71.182 53.7528 66.4617 48.7222 60.82 46.3057C60.3968 46.127 60.6695 45.4782 61.102 45.6757C66.913 48.2145 71.7555 53.4613 72.583 59.8929C72.63 60.2502 72.0752 60.3254 72.0282 59.9681Z" fill="white"/>
<g style="mix-blend-mode:lighten" opacity="0.6">
<path d="M69.2732 55.7361L61.3936 48.0445L106.396 2.81655C106.574 2.44984 109.527 4.16117 111.37 4.82877C113.213 5.49638 116.034 9.64306 116.156 10.4893L69.2732 55.7361Z" fill="#F94F1E"/>
</g>
<g style="mix-blend-mode:lighten" opacity="0.1">
<path d="M68.2666 53.5179L72.291 59.9307L119.212 15.6336L116.156 10.4902L68.2666 53.5179Z" fill="#F94F1E"/>
</g>
<g style="mix-blend-mode:lighten">
<path d="M65.8699 52.3233L60.2188 47.5372L107.149 3.31539C108.503 2.88286 112.837 6.2585 113.119 7.33043L65.8699 52.3139V52.3233Z" fill="#F94F1E"/>
</g>
<path d="M86.9786 19.0007C89.7713 16.161 92.6204 13.3872 95.5353 10.6791C98.4596 7.98051 101.44 5.32889 104.647 2.95936C104.76 2.87474 104.91 2.90294 104.995 3.01578C105.079 3.12861 105.051 3.27906 104.938 3.36369C98.704 8.24379 93.1281 13.9608 87.6462 19.6589C87.2231 20.1103 86.5273 19.4615 86.9692 19.0101L86.9786 19.0007Z" fill="white"/>
<path d="M104.591 5.46867C109.725 9.23923 115.46 13.8372 116.532 20.4945C116.561 20.7484 116.372 20.9835 116.119 21.0117C115.865 21.0399 115.63 20.8518 115.601 20.5979C114.332 14.4202 108.643 10.2171 103.716 6.8603C102.776 6.27732 103.66 4.86688 104.591 5.46867Z" fill="white"/>
<path d="M85.305 91.9292C85.305 91.9292 127.317 89.0801 130.185 90.2649C133.053 91.4591 133.363 105.676 131.633 107.077C129.903 108.478 85.1546 109.776 84.675 107.077C84.1955 104.379 84.675 94.9288 84.675 94.9288" fill="#1F2326"/>
<path d="M85.2301 90.8661C95.3759 89.907 105.512 89.0984 115.696 88.4872C120.218 88.2803 124.722 87.9512 129.283 88.1675C129.715 88.2051 130.232 88.2521 130.656 88.3931C134.689 89.7754 134.736 98.4166 134.793 101.99C134.708 103.87 134.718 106.165 133.693 107.998C133.401 108.487 132.959 108.91 132.433 109.155C130.251 109.926 128.013 109.907 125.794 110.161C118.112 110.753 110.458 111.026 102.767 111.064C97.5197 111.045 92.4986 111.092 87.1953 110.481C85.39 110.227 82.7102 109.86 82.2494 107.519C81.7699 103.203 82.287 99.0372 83.3684 94.8906C83.7539 93.5271 85.7661 93.6588 86.0012 95.0222C86.744 98.8398 86.7346 102.761 87.0919 106.513L87.1107 106.682C87.0731 106.513 86.9885 106.136 86.8474 105.948L86.6782 105.713C86.6406 105.657 86.5936 105.61 86.5465 105.563C86.1704 105.224 86.1704 105.3 86.1704 105.281C86.1798 105.281 86.2551 105.318 86.3491 105.337C91.6053 106.362 97.3505 106.174 102.767 106.296C111.934 106.202 121.789 106.315 130.618 105.187C130.402 105.281 130.073 105.525 130.007 105.694C130.721 103.504 130.637 100.664 130.552 98.2756C130.43 96.2446 130.195 93.6776 129.302 92.0227C129.32 92.0697 129.49 92.1073 129.452 92.1073C129.452 92.1073 129.461 92.1073 129.471 92.1073C124.976 91.656 120.378 91.9568 115.846 92.0039C105.71 92.2201 95.5451 92.6621 85.39 93.0288C84.0454 93.0758 83.8761 91.0542 85.2489 90.8943L85.2301 90.8661Z" fill="white"/>
<path opacity="0.2" d="M87.7118 95.8203L92.7329 103.38L127.072 105.336L86.6492 107.884L84.4678 103.813L87.7118 95.8203Z" fill="white"/>
<path d="M146.349 80.2217C146.349 80.2217 150.044 99.8737 135.422 97.9085Z" fill="#1F2326"/>
<path d="M148.774 79.762C149.432 86.344 149.065 95.2674 142.22 98.549C140.001 99.5551 137.547 99.5269 135.253 99.1414C134.576 99.0379 134.105 98.4079 134.199 97.7215C134.303 97.0539 134.923 96.5932 135.582 96.6684C137.5 96.8 139.418 96.612 140.847 95.7563C145.596 92.7474 144.815 85.4883 143.913 80.6364C143.236 77.289 148.219 76.3675 148.774 79.7526V79.762Z" fill="white"/>
<path d="M148.154 89.2017C147.392 93.0663 145.436 98.0123 140.942 98.426C140.81 98.4354 140.706 98.3414 140.688 98.2191C140.678 98.0875 140.772 97.9746 140.904 97.9652C145.069 97.4011 146.64 92.6526 147.223 89.0513C147.307 88.4307 148.257 88.5811 148.154 89.2017Z" fill="white"/>
</g>
<defs>
<clipPath id="clip0_6172_5568">
<rect width="148.5" height="110.258" fill="white" transform="translate(0.5 0.785156)"/>
</clipPath>
</defs>
</svg>
