<svg width="149" height="112" viewBox="0 0 149 112" fill="none" xmlns="http://www.w3.org/2000/svg"><g clip-path="url(#new-map_a)"><path d="m25.183 62.63-.508-10.918c-.094-2.002 1.58-3.648 3.582-3.497 12.28.883 58.797 3.488 72.703 1.852 0 0 4.307 14.471 2.154 29.713 0 0-55.948 5.03-75.656.62a3.348 3.348 0 0 1-2.614-2.942c-.433-4.297-1.298-13.409-1.298-17.057" fill="#fff"/><path d="M24.422 62.666c-.78-3.206-.96-6.47-1.11-9.732l-.037-.696c-.423-2.99 2.2-5.81 5.246-5.444 9.225.583 18.618 1.128 27.842 1.589 14.725.564 29.798 1.59 44.42.254a1.433 1.433 0 0 1 1.551 1.025c.743 2.51 1.345 4.946 1.928 7.447 1.768 7.522 2.435 15.345 1.26 23.028a2.394 2.394 0 0 1-2.201 2.097c-8.114.658-16.2 1.222-24.325 1.532-12.186.498-24.41.705-36.615.028-4.08-.244-8.161-.583-12.261-1.297-3.338-.47-6.554-1.26-6.751-5.294-.395-5.576-.894-11.19-.659-16.784.066-1.016 1.57-1.035 1.655-.028.424 4.917 1.12 10.06 1.674 15.025l.179 1.505c.01.921.583 1.843 1.532 2.012.913.16 1.9.367 2.868.48 15.938 1.833 32.14.573 48.143-.254 8.049-.555 16.117-1.063 24.128-1.796l-2.2 2.097c.921-8.416.959-17.02-.358-25.407a37.543 37.543 0 0 0-.761-3.554l1.551 1.025c-7.57.61-14.979.423-22.52.32-16.765-.33-33.559-.97-50.286-2.154-1.42-.188-2.445 1.044-2.21 2.454l.028.696c.16 3.272.273 6.526-.207 9.798-.103.827-1.344.874-1.523.066l.019-.038Z" fill="#111"/><path d="M52.084 46.448c8.209.235 16.436.357 24.654.31 8.106-.178 16.418.019 24.382-1.533 1.063-.206 1.542 1.213 1.993 1.825 1.759 3.103 2.539 6.657 3.009 10.145l.179 1.73a.298.298 0 0 1-.273.33.3.3 0 0 1-.329-.254l-.338-1.683c-.884-3.677-2.05-7.692-4.664-10.503l.874.225c-4.165.884-8.265.988-12.459 1.176-12.364.366-24.72.047-37.075-.414-.846-.038-.875-1.373.047-1.354Z" fill="#111"/><path d="M3.51 33.207s-6.667 35.43 19.698 31.895Z" fill="#fff"/><path d="M5.935 33.668c-1.598 9.13-2.379 23.516 6.93 28.688 3.103 1.664 6.695 1.815 10.174 1.514a1.26 1.26 0 0 1 1.42 1.147 1.251 1.251 0 0 1-1.081 1.326c-1.938.254-3.912.47-5.934.282-16.37-1.081-18.213-21.119-16.36-33.87.592-3.328 5.5-2.416 4.851.913Z" fill="#111"/><path d="M1.563 49.211c1.12 6.564 4.11 15.28 11.745 16.173.3.02.263.499-.038.461C5.287 65.093 1.94 56.188.633 49.343c-.095-.62.855-.762.93-.132Z" fill="#111"/><path opacity=".2" d="M38.91 74.297a7.663 7.663 0 1 0 0-15.326 7.663 7.663 0 0 0 0 15.326Z" fill="#111"/><path d="M37.246 56.894c4.542-.931 8.98 1.73 10.146 6.243.611 2.116.93 4.42 0 6.545-2.106 4.231-8.171 4.24-12.12 2.868-6.94-2.642-5.66-14.772 2.294-14.744.508-.019.573.743.066.809-1.88.225-3.705 1.194-4.532 2.914-1.326 3.028-.659 8.059 2.849 9.394 2.99 1.11 8.35 1.345 10.042-1.9 1.279-3.15-.047-8.17-3.037-10.089-1.57-1.025-3.63-1.382-5.53-1.175-.563.113-.733-.743-.168-.856l-.01-.01Z" fill="#111"/><path d="m52.15 62.544 6.695-24.749 8.97-9.563 33.136 10.626-25.604 23.686-23.197 6.78-1.946-3.217 1.946-3.563Z" fill="#fff"/><path d="M55.723 64.518c7.663-.649 15.26-1.56 23-.686.761.14 1.447.253 2.18.62.894.404 1.327 1.693.48 2.567-1.42 1.317-3.168 1.702-4.776 2.35-3.517 1.336-7.325 2.117-10.56 3.856.188-.188.367-.517.254-1.072-.16-.508-.3-.545-.48-.696 2.934.583 6.01-.01 9.084-.348 2.473-.338 4.946-.742 7.41-1.203 9.882-1.834 19.689-4.194 29.402-6.827 9.685-2.68 19.342-5.623 28.557-9.29a3.103 3.103 0 0 1 4.043 1.721 3.098 3.098 0 0 1-1.852 4.062c-19.446 6.63-39.314 10.917-59.549 14.001-3.225.292-18.712 3.122-19.51-.696-.245-1.194.516-1.862 1.287-2.313 4.749-2.322 10.325-2.736 14.932-5.143a.796.796 0 0 0-.094.695c.17.424.282.358.235.358-2.755-.978-5.81-.875-8.81-1.006-5.012-.076-10.07.131-15.102.451-.902.066-1.053-1.307-.122-1.41l-.01.009Z" fill="#111" opacity=".2"/><path d="M56.448 64.49c4.776-2.387 10.211-3.685 15.12-5.707 8.17-7.531 18.185-17.17 26.996-25.406 6.093-5.783 12.383-11.547 18.326-17.49l.743-.752c.103-.113.169-.244.216-.376.066-.386.075-.545-.141-.96-.809-1.73-1.787-4.277-3.047-5.5-1.053-1.297-2.604-2.35-4.137-3.197-.611-.31-1.448-1.062-2.106-.414-3.855 3.715-15.092 14.406-19.135 18.28-8.942 8.444-17.894 16.878-26.968 25.19-.01.01.32-.508.32-.508l-5.482 16.954c-.197.62-.865.959-1.476.752a1.187 1.187 0 0 1-.762-1.476l5.388-16.991C73.75 32.756 89.414 18.135 103.444 4.406l1.664-1.598c.686-.658 1.551-1.533 2.52-1.777 1.617-.602 3.347 0 4.701.93 1.693.875 3.987 2.652 4.909 3.846 1.88 1.994 2.651 4.241 3.686 6.526.902 1.711.545 4.071-.913 5.397-6.215 6.14-12.769 12.168-19.21 18.035-9.168 8.312-18.401 16.559-27.513 24.908-.3.15-.883.442-1.203.555-4.899 1.843-10.09 2.99-15.11 4.372-.65.217-1.204-.695-.499-1.11h-.028Z" fill="#111"/><path d="M58.507 58.256c1.147.423 3.573 3.601 3.845 4.476l-6.563 2.491 2.718-6.967Z" fill="#F94F1E" style="mix-blend-mode:multiply"/><path d="M71.849 61.266c-1.307-5.463-5.97-10.56-11.415-12.008-1.505-.338-1.044-2.595.48-2.303 3.319.912 5.895 3.027 8.095 5.5 2.078 2.426 3.696 5.341 4.232 8.557a.698.698 0 0 1-.583.809.707.707 0 0 1-.81-.555Z" fill="#111"/><path d="M62.72 63.364c-.123-.95-.913-5.106-5.793-6.018" stroke="#111" stroke-width="1.41" stroke-linecap="round"/><path d="M72.028 59.968c-.846-6.215-5.566-11.246-11.208-13.662-.423-.179-.15-.828.282-.63 5.811 2.538 10.654 7.785 11.481 14.217.047.357-.508.432-.555.075Z" fill="#111"/><path d="m69.273 55.736-7.88-7.691 45.003-45.228c.178-.367 3.131 1.344 4.974 2.012 1.843.667 4.664 4.814 4.786 5.66L69.273 55.736Z" fill="#F94F1E" style="mix-blend-mode:multiply" opacity=".6"/><path d="m68.267 53.518 4.024 6.413 46.921-44.297-3.056-5.144-47.89 43.028Z" fill="#F94F1E" style="mix-blend-mode:multiply" opacity=".1"/><path d="m65.87 52.323-5.651-4.786 46.93-44.222c1.354-.432 5.688 2.943 5.97 4.015l-47.25 44.984v.01Z" fill="#F94F1E" style="mix-blend-mode:multiply"/><path d="M86.979 19a264.537 264.537 0 0 1 8.556-8.32c2.925-2.7 5.905-5.351 9.112-7.72.113-.085.263-.057.348.056a.246.246 0 0 1-.057.348c-6.234 4.88-11.81 10.597-17.292 16.295-.423.451-1.119-.197-.677-.649l.01-.01ZM104.591 5.469c5.134 3.77 10.869 8.368 11.941 15.025a.472.472 0 0 1-.413.518.474.474 0 0 1-.518-.414c-1.269-6.178-6.958-10.38-11.885-13.738-.94-.583-.056-1.993.875-1.391Z" fill="#111"/><path d="M85.305 91.93s42.012-2.85 44.88-1.665c2.868 1.194 3.178 15.411 1.448 16.812-1.73 1.401-46.478 2.699-46.958 0-.48-2.698 0-12.148 0-12.148" fill="#fff"/><path d="M85.23 90.866a889.89 889.89 0 0 1 30.466-2.379c4.522-.207 9.026-.536 13.587-.32.432.038.949.085 1.373.226 4.033 1.382 4.08 10.024 4.137 13.597-.085 1.88-.075 4.175-1.1 6.008a2.95 2.95 0 0 1-1.26 1.157c-2.182.771-4.42.752-6.639 1.006-7.682.592-15.336.865-23.027.903-5.247-.019-10.268.028-15.572-.583-1.805-.254-4.485-.621-4.946-2.962-.48-4.316.038-8.482 1.12-12.628.385-1.364 2.397-1.232 2.632.131.743 3.818.734 7.739 1.09 11.491l.02.169c-.038-.169-.123-.546-.264-.734l-.169-.235a1.018 1.018 0 0 0-.132-.15c-.376-.339-.376-.263-.376-.282.01 0 .085.037.18.056 5.255 1.025 11 .837 16.417.959 9.167-.094 19.022.019 27.851-1.109-.216.094-.545.338-.611.507.714-2.19.63-5.03.545-7.418-.122-2.031-.357-4.598-1.25-6.253.018.047.188.084.15.084h.019c-4.495-.451-9.093-.15-13.625-.103-10.136.216-20.3.658-30.456 1.025-1.345.047-1.514-1.975-.141-2.135l-.019-.028Z" fill="#111"/><path opacity=".2" d="m87.712 95.82 5.02 7.56 34.34 1.956-40.423 2.548-2.181-4.071 3.244-7.993Z" fill="#111"/><path d="M146.349 80.222s3.695 19.652-10.927 17.687Z" fill="#fff"/><path d="M148.774 79.762c.658 6.582.291 15.505-6.554 18.787-2.219 1.006-4.673.978-6.967.592a1.26 1.26 0 0 1-1.054-1.42 1.26 1.26 0 0 1 1.383-1.053c1.918.132 3.836-.056 5.265-.912 4.749-3.009 3.968-10.268 3.066-15.12-.677-3.347 4.306-4.268 4.861-.883v.009Z" fill="#111"/><path d="M148.154 89.202c-.762 3.864-2.718 8.81-7.212 9.224a.238.238 0 0 1-.254-.207.233.233 0 0 1 .216-.254c4.165-.564 5.736-5.312 6.319-8.914.084-.62 1.034-.47.931.15Z" fill="#111"/></g><defs><clipPath id="new-map_a"><path fill="#fff" transform="translate(.5 .785)" d="M0 0h148.5v110.258H0z"/></clipPath></defs></svg>