<svg width="24" height="24" viewBox="0 0 24 24" fill="none" xmlns="http://www.w3.org/2000/svg"><path d="M16.507 11.19c.242 0 .443.075.602.224a.71.71 0 0 1 .238.56c0 .224-.08.406-.238.546a.876.876 0 0 1-.602.21l-4.06.014a1.17 1.17 0 0 1-.84-.336 1.146 1.146 0 0 1-.35-.84V7.074c0-.243.07-.439.21-.588a.737.737 0 0 1 .56-.238c.224 0 .406.08.546.238.149.15.224.345.224.588l-.014 3.962c0 .047.014.089.042.126.037.028.079.042.126.042l3.556-.014Zm-4.508 9.59c-1.624 0-3.113-.392-4.466-1.176a8.619 8.619 0 0 1-3.192-3.178c-.775-1.353-1.162-2.837-1.162-4.452 0-1.624.387-3.108 1.162-4.452a8.693 8.693 0 0 1 3.192-3.206c1.353-.784 2.842-1.176 4.466-1.176s3.108.392 4.452 1.176a8.556 8.556 0 0 1 3.192 3.206c.784 1.344 1.176 2.828 1.176 4.452 0 1.615-.392 3.099-1.176 4.452a8.483 8.483 0 0 1-3.192 3.178c-1.344.784-2.828 1.176-4.452 1.176Zm0-1.526c1.344 0 2.571-.322 3.682-.966a7.09 7.09 0 0 0 2.646-2.632 7.257 7.257 0 0 0 .966-3.682c0-1.344-.322-2.571-.966-3.682a7.06 7.06 0 0 0-2.646-2.646c-1.111-.644-2.338-.966-3.682-.966-1.344 0-2.576.322-3.696.966A7.09 7.09 0 0 0 5.67 8.292c-.644 1.11-.966 2.338-.966 3.682 0 1.335.322 2.562.966 3.682a7.121 7.121 0 0 0 2.632 2.632c1.12.644 2.352.966 3.696.966Z" fill="#000"/></svg>