<svg width="24" height="24" viewBox="0 0 24 24" fill="none" xmlns="http://www.w3.org/2000/svg"><path d="M5.237 12.688c-.411 0-.766-.145-1.064-.434a1.414 1.414 0 0 1-.434-1.036V5.282c0-.41.144-.76.434-1.05.289-.29.634-.434 1.036-.434h4.55c.41 0 .76.145 1.05.434.289.28.434.62.434 1.022v5.936c0 .41-.145.765-.434 1.064-.28.29-.621.434-1.022.434h-4.55Zm-.084-1.918c0 .14.042.257.126.35.093.093.214.14.364.14h3.71c.14 0 .256-.042.35-.126a.492.492 0 0 0 .14-.364V5.688a.475.475 0 0 0-.14-.35.447.447 0 0 0-.35-.14h-3.71a.475.475 0 0 0-.35.14.447.447 0 0 0-.14.35v5.082Zm.084 9.338c-.411 0-.766-.145-1.064-.434a1.414 1.414 0 0 1-.434-1.036v-3.22c0-.41.144-.76.434-1.05.289-.29.634-.434 1.036-.434h4.55c.41 0 .76.145 1.05.434.289.28.434.62.434 1.022v3.22c0 .41-.145.76-.434 1.05-.28.299-.621.448-1.022.448h-4.55Zm-.084-1.876c0 .14.042.257.126.35.093.093.214.14.364.14h3.71c.14 0 .256-.047.35-.14.093-.084.14-.2.14-.35V15.81a.475.475 0 0 0-.14-.35.447.447 0 0 0-.35-.14h-3.71a.475.475 0 0 0-.35.14.447.447 0 0 0-.14.35v2.422Zm7.56-5.488c0-.401.144-.742.434-1.022.298-.29.653-.434 1.064-.434h4.55c.401 0 .742.145 1.022.434.289.29.434.64.434 1.05v5.866c0 .401-.145.747-.434 1.036-.29.29-.64.434-1.05.434h-4.55c-.402 0-.747-.15-1.036-.448a1.43 1.43 0 0 1-.434-1.05v-5.866Zm1.918-.084c-.15 0-.271.047-.364.14a.504.504 0 0 0-.126.35v5.082c0 .15.046.266.14.35.093.093.21.14.35.14h3.696c.149 0 .266-.047.35-.14a.475.475 0 0 0 .14-.35V13.15a.447.447 0 0 0-.14-.35.475.475 0 0 0-.35-.14H14.63Zm-1.918-7.406c0-.401.144-.742.434-1.022.298-.29.653-.434 1.064-.434h4.55c.401 0 .742.145 1.022.434.289.29.434.64.434 1.05v3.29c0 .401-.145.747-.434 1.036-.29.29-.64.434-1.05.434h-4.55c-.402 0-.747-.145-1.036-.434a1.477 1.477 0 0 1-.434-1.064v-3.29Zm1.918-.084c-.15 0-.271.047-.364.14a.504.504 0 0 0-.126.35v2.492c0 .15.046.27.14.364.093.084.21.126.35.126h3.696c.149 0 .266-.047.35-.14a.475.475 0 0 0 .14-.35V5.66a.447.447 0 0 0-.14-.35.475.475 0 0 0-.35-.14H14.63Z" fill="#000"/></svg>