<svg width="200" height="121" viewBox="0 0 200 121" fill="none" xmlns="http://www.w3.org/2000/svg"><path fill="#fff" d="M0 0h200v121H0z"/><path fill-rule="evenodd" clip-rule="evenodd" d="M100.318 58.81h-36.87v2h36.87v-2Z" fill="#CACACA"/><path fill-rule="evenodd" clip-rule="evenodd" d="M137.189 58.81h-36.871v2h36.871v-2Z" fill="#CACACA"/><path fill-rule="evenodd" clip-rule="evenodd" d="M114.655 59.81c0-12.445 10.089-22.534 22.535-22.534v-2c-13.551 0-24.535 10.984-24.535 24.535h2Z" fill="#D8D8D8"/><path fill-rule="evenodd" clip-rule="evenodd" d="M137.19 82.345c-12.446 0-22.535-10.089-22.535-22.534h-2c0 13.55 10.984 24.534 24.535 24.534v-2Z" fill="#B9B9B9"/><path fill-rule="evenodd" clip-rule="evenodd" d="M85.982 59.81c0-12.445-10.09-22.534-22.535-22.534v-2c13.55 0 24.535 10.984 24.535 24.535h-2Z" fill="#D8D8D8"/><path fill-rule="evenodd" clip-rule="evenodd" d="M63.447 82.345c12.446 0 22.535-10.089 22.535-22.534h2c0 13.55-10.985 24.534-24.535 24.534v-2Z" fill="#B9B9B9"/><rect width="45.501" height="18.828" rx="4.14" transform="matrix(1 0 0 -1 77.568 69.225)" fill="#B5B5B5"/><rect width="29.811" height="12.552" rx="2.14" transform="matrix(1 0 0 -1 137.189 89.621)" fill="#B9B9B9"/><rect width="29.811" height="12.552" rx="2.14" transform="matrix(1 0 0 -1 33.636 89.621)" fill="#B9B9B9"/><rect width="29.811" height="12.552" rx="2.14" transform="matrix(1 0 0 -1 137.189 66.087)" fill="#CACACA"/><rect width="29.811" height="12.552" rx="2.14" transform="matrix(1 0 0 -1 33.637 66.087)" fill="#CACACA"/><rect width="29.811" height="12.552" rx="2.14" transform="matrix(1 0 0 -1 137.189 42.552)" fill="#D8D8D8"/><rect width="29.811" height="12.552" rx="2.14" transform="matrix(1 0 0 -1 33.637 42.552)" fill="#D8D8D8"/><path fill-rule="evenodd" clip-rule="evenodd" d="m133.649 94.21.882-1.212c.413.3.918.476 1.469.476h2.133v1.5H136a3.98 3.98 0 0 1-2.351-.763Zm32.218.764v-1.5H168c.551 0 1.056-.176 1.469-.476l.882 1.213a3.98 3.98 0 0 1-2.351.763h-2.133ZM172 53.924h-1.5v-1.95c0-.55-.177-1.056-.476-1.468l1.212-.883c.481.66.764 1.473.764 2.351v1.95Zm-33.867-5.95H136a3.98 3.98 0 0 0-2.351.764l.882 1.213c.413-.3.918-.477 1.469-.477h2.133v-1.5Zm-5.369 45.352 1.212-.883a2.488 2.488 0 0 1-.476-1.469v-1.95H132v1.95c0 .879.283 1.691.764 2.352ZM132 88.049h1.5v-3.9H132v3.9Zm0-4.875h1.5v-3.9H132v3.9Zm0-4.875h1.5v-3.9H132v3.9Zm0-4.875h1.5v-3.9H132v3.9Zm0-4.875h1.5v-3.9H132v3.9Zm0-4.875h1.5v-3.9H132v3.9Zm0-4.875h1.5v-3.9H132v3.9Zm0-4.875h1.5v-1.95c0-.55.177-1.056.476-1.468l-1.212-.883a3.977 3.977 0 0 0-.764 2.351v1.95Zm7.2-5.95v1.5h4.267v-1.5H139.2Zm5.333 0v1.5h4.267v-1.5h-4.267Zm5.334 0v1.5h4.266v-1.5h-4.266Zm5.333 0v1.5h4.267v-1.5H155.2Zm5.333 0v1.5h4.267v-1.5h-4.267Zm5.334 0v1.5H168c.551 0 1.056.177 1.469.477l.882-1.213a3.98 3.98 0 0 0-2.351-.764h-2.133ZM172 54.9h-1.5v3.9h1.5v-3.9Zm0 4.875h-1.5v3.9h1.5v-3.9Zm0 4.875h-1.5v3.9h1.5v-3.9Zm0 4.875h-1.5v3.9h1.5v-3.9Zm0 4.875h-1.5v3.9h1.5v-3.9Zm0 4.875h-1.5v3.9h1.5v-3.9Zm0 4.875h-1.5v3.9h1.5v-3.9Zm0 4.875h-1.5v1.95c0 .551-.177 1.057-.476 1.469l1.212.883c.481-.66.764-1.473.764-2.352v-1.95Zm-7.2 5.95v-1.5h-4.267v1.5h4.267Zm-5.333 0v-1.5H155.2v1.5h4.267Zm-5.334 0v-1.5h-4.266v1.5h4.266Zm-5.333 0v-1.5h-4.267v1.5h4.267Zm-5.333 0v-1.5H139.2v1.5h4.267ZM32.102 31.444a.75.75 0 0 1-.153 1.05c-.954.712-1.898 1.917-2.776 3.593-.873 1.667-1.658 3.756-2.316 6.183-1.316 4.855-2.107 11.003-2.107 17.704 0 6.701.79 12.85 2.107 17.704.658 2.428 1.443 4.517 2.316 6.184.878 1.675 1.822 2.88 2.776 3.593a.75.75 0 0 1-.897 1.202c-1.203-.898-2.275-2.318-3.208-4.099-.937-1.789-1.757-3.986-2.435-6.487-1.356-5.004-2.159-11.287-2.159-18.097 0-6.81.803-13.092 2.159-18.096.678-2.502 1.498-4.699 2.435-6.487.933-1.781 2.005-3.202 3.208-4.1a.75.75 0 0 1 1.05.153Z" fill="#B5B5B5"/><rect x="10" y="56.974" width="12" height="6" rx="1" fill="#B5B5B5"/><rect x="94" y="88.974" width="12" height="6" rx="1" fill="#D8D8D8"/><path d="M89.865 88.93 64 66.974" stroke="#fff" stroke-width="3" stroke-linecap="round"/><path fill-rule="evenodd" clip-rule="evenodd" d="M65.953 68.632a.75.75 0 0 1 1.057-.087l23.34 19.813a.75.75 0 1 1-.97 1.144L66.038 69.689a.75.75 0 0 1-.087-1.057Z" fill="#CCCDCE"/><circle cx="93" cy="59.974" r="4" fill="#DADADA"/><path d="M92 59.974a4 4 0 1 1-8 0 4 4 0 0 1 8 0Z" fill="#DADADA"/><path fill-rule="evenodd" clip-rule="evenodd" d="M93 59.974a5 5 0 1 1-10 0 5 5 0 0 1 10 0Zm-5 4a4 4 0 1 0 0-8 4 4 0 0 0 0 8Z" fill="#B5B5B5"/><path d="m91.954 90.995-.025-4.154L87.8 91.02l4.154-.025Z" fill="#B5B5B5"/></svg>