<svg width="24" height="24" viewBox="0 0 24 24" fill="none" xmlns="http://www.w3.org/2000/svg"><path d="M12.013 20.808c-1.634 0-3.132-.397-4.494-1.19a8.768 8.768 0 0 1-3.22-3.206c-.784-1.353-1.176-2.847-1.176-4.48 0-1.624.392-3.108 1.176-4.452a8.661 8.661 0 0 1 3.22-3.192c1.362-.784 2.86-1.176 4.494-1.176 1.633 0 3.126.392 4.48 1.176a8.556 8.556 0 0 1 3.206 3.192c.793 1.344 1.19 2.828 1.19 4.452 0 1.633-.397 3.127-1.19 4.48a8.661 8.661 0 0 1-3.206 3.206c-1.354.793-2.847 1.19-4.48 1.19ZM8.75 16.566c.028.019.074.028.14.028a.444.444 0 0 0 .224-.056l2.898-2.1 2.856 2.086a.41.41 0 0 0 .252.098.436.436 0 0 0 .182-.056.308.308 0 0 0 .168-.28c0-.028-.01-.07-.028-.126l-1.092-3.402 2.884-2.086a.296.296 0 0 0 .112-.126.3.3 0 0 0 .056-.168c0-.028-.01-.07-.028-.126a.247.247 0 0 0-.126-.182.43.43 0 0 0-.266-.084h-3.514l-1.106-3.402a.564.564 0 0 0-.182-.182c-.066-.056-.122-.084-.168-.084a.373.373 0 0 0-.224.084.386.386 0 0 0-.14.182L10.57 9.986H7a.4.4 0 0 0-.21.07.407.407 0 0 0-.154.154.461.461 0 0 0-.028.14c0 .065.014.13.042.196.037.056.079.098.126.126l2.884 2.086-1.092 3.402c-.019.028-.028.075-.028.14 0 .065.018.126.056.182a.23.23 0 0 0 .154.084Z" fill="#000"/></svg>