<svg width="17" height="13" viewBox="0 0 17 13" fill="none" xmlns="http://www.w3.org/2000/svg">
<path d="M12.3896 11.706C13.0429 11.706 13.6216 11.58 14.1256 11.328C14.6389 11.0667 15.0403 10.7073 15.3296 10.25C15.6189 9.78333 15.7636 9.256 15.7636 8.668C15.7636 7.81867 15.5489 7.12333 15.1196 6.582C14.6903 6.04067 14.1163 5.742 13.3976 5.686C13.2576 5.69533 13.1456 5.658 13.0616 5.574C12.9869 5.49 12.9496 5.378 12.9496 5.238C12.9403 4.65933 12.7769 4.20667 12.4596 3.88C12.1423 3.544 11.7129 3.376 11.1716 3.376C11.0036 3.376 10.8029 3.39933 10.5696 3.446C10.5323 3.45533 10.4809 3.46 10.4156 3.46C10.3129 3.46 10.2149 3.432 10.1216 3.376C10.0283 3.32 9.95825 3.24533 9.91159 3.152C9.65959 2.77867 9.31425 2.48467 8.87559 2.27C8.44625 2.046 7.98425 1.934 7.48959 1.934C6.59359 1.934 5.88425 2.23267 5.36159 2.83C4.84825 3.418 4.59159 4.202 4.59159 5.182C4.59159 5.38733 4.60559 5.61133 4.63359 5.854C4.65225 5.994 4.62425 6.11533 4.54959 6.218C4.48425 6.31133 4.38159 6.36733 4.24159 6.386C3.63492 6.53533 3.14492 6.85267 2.77159 7.338C2.40759 7.814 2.22559 8.37867 2.22559 9.032C2.22559 9.54533 2.35159 10.0073 2.60359 10.418C2.85559 10.8193 3.20559 11.1367 3.65359 11.37C4.11092 11.594 4.62425 11.706 5.19359 11.706H12.3896ZM5.19359 12.952C4.38159 12.952 3.65359 12.784 3.00959 12.448C2.37492 12.1213 1.87559 11.6593 1.51159 11.062C1.15692 10.4647 0.979586 9.788 0.979586 9.032C0.979586 8.46267 1.08225 7.926 1.28759 7.422C1.49292 6.90867 1.77292 6.47467 2.12759 6.12C2.49159 5.76533 2.90225 5.52267 3.35959 5.392C3.32225 4.48667 3.47159 3.67933 3.80759 2.97C4.15292 2.25133 4.64759 1.69133 5.29159 1.29C5.94492 0.888666 6.69625 0.688 7.54559 0.688C8.17092 0.688 8.78692 0.837333 9.39359 1.136C10.0003 1.42533 10.4623 1.80333 10.7796 2.27C10.9476 2.242 11.1156 2.228 11.2836 2.228C12.0023 2.228 12.6136 2.44267 13.1176 2.872C13.6309 3.292 13.9343 3.852 14.0276 4.552C14.6063 4.62667 15.1196 4.85067 15.5676 5.224C16.0249 5.59733 16.3796 6.08267 16.6316 6.68C16.8836 7.268 17.0096 7.92133 17.0096 8.64C17.0096 9.47067 16.8136 10.2127 16.4216 10.866C16.0296 11.5193 15.4836 12.028 14.7836 12.392C14.0836 12.7653 13.2856 12.952 12.3896 12.952H5.19359ZM9.01559 9.004C9.24892 9.004 9.43559 9.07867 9.57559 9.228C9.72492 9.37733 9.80425 9.56867 9.81359 9.802C9.80425 10.0353 9.72492 10.2267 9.57559 10.376C9.43559 10.516 9.24892 10.586 9.01559 10.586C8.78225 10.586 8.59092 10.516 8.44159 10.376C8.30159 10.2267 8.23159 10.0353 8.23159 9.802C8.23159 9.56867 8.30159 9.37733 8.44159 9.228C8.59092 9.07867 8.78225 9.004 9.01559 9.004ZM9.57559 7.716C9.57559 7.87467 9.51959 8.01467 9.40759 8.136C9.29559 8.248 9.16025 8.304 9.00159 8.304C8.84292 8.304 8.70292 8.248 8.58159 8.136C8.46959 8.01467 8.41359 7.87467 8.41359 7.716V4.832C8.41359 4.664 8.46959 4.524 8.58159 4.412C8.70292 4.3 8.84292 4.244 9.00159 4.244C9.16025 4.244 9.29559 4.3 9.40759 4.412C9.51959 4.524 9.57559 4.664 9.57559 4.832V7.716Z" fill="#E53232"/>
</svg>
