<svg width="18" height="15" viewBox="0 0 18 15" fill="none" xmlns="http://www.w3.org/2000/svg">
<path d="M12.7956 10.824C13.3743 10.824 13.8876 10.7073 14.3356 10.474C14.7929 10.2313 15.1476 9.9 15.3996 9.48C15.6609 9.05067 15.7916 8.56533 15.7916 8.024C15.7916 7.296 15.5676 6.70333 15.1196 6.246C14.6716 5.77933 14.0836 5.52733 13.3556 5.49C13.2156 5.49 13.1036 5.448 13.0196 5.364C12.9449 5.28 12.9076 5.168 12.9076 5.028C12.8983 4.44933 12.7443 4.00133 12.4456 3.684C12.1563 3.35733 11.7503 3.194 11.2276 3.194C11.0596 3.194 10.8496 3.21733 10.5976 3.264C10.5603 3.27333 10.5089 3.278 10.4436 3.278C10.3409 3.278 10.2429 3.25 10.1496 3.194C10.0563 3.138 9.98159 3.06333 9.92559 2.97C9.68292 2.58733 9.34225 2.284 8.90359 2.06C8.46492 1.82667 8.00292 1.71 7.51759 1.71C6.61225 1.71 5.89359 1.99467 5.36159 2.564C4.83892 3.13333 4.57759 3.88933 4.57759 4.832C4.57759 4.972 4.58225 5.07467 4.59159 5.14L4.60559 5.476C4.60559 5.59733 4.57292 5.7 4.50759 5.784C4.44225 5.85867 4.34892 5.90533 4.22759 5.924C3.62092 6.05467 3.13092 6.33933 2.75759 6.778C2.39359 7.21667 2.21159 7.73467 2.21159 8.332C2.21159 8.808 2.32359 9.23733 2.54759 9.62C2.77159 9.99333 3.07959 10.2873 3.47159 10.502C3.87292 10.7167 4.32559 10.824 4.82959 10.824H7.36359V12.07H4.82959C4.08292 12.07 3.41559 11.9113 2.82759 11.594C2.23959 11.2767 1.78225 10.8333 1.45559 10.264C1.12892 9.69467 0.965586 9.05067 0.965586 8.332C0.965586 7.79067 1.06359 7.27733 1.25959 6.792C1.46492 6.29733 1.74959 5.882 2.11359 5.546C2.47759 5.20067 2.88825 4.96267 3.34559 4.832C3.30825 3.992 3.46225 3.24067 3.80759 2.578C4.15292 1.91533 4.64759 1.39733 5.29159 1.024C5.94492 0.650666 6.69625 0.463999 7.54559 0.463999C8.19892 0.463999 8.82892 0.613333 9.43559 0.911999C10.0423 1.20133 10.4903 1.57933 10.7796 2.046C10.9476 2.018 11.1156 2.004 11.2836 2.004C12.0023 2.004 12.6136 2.21867 13.1176 2.648C13.6309 3.068 13.9389 3.63267 14.0416 4.342C14.6203 4.41667 15.1383 4.62667 15.5956 4.972C16.0529 5.308 16.4076 5.742 16.6596 6.274C16.9116 6.806 17.0376 7.38933 17.0376 8.024C17.0376 8.808 16.8556 9.508 16.4916 10.124C16.1276 10.7307 15.6236 11.2067 14.9796 11.552C14.3449 11.8973 13.6169 12.07 12.7956 12.07H10.7656V10.824H12.7956ZM12.2636 8.066C12.3943 8.19667 12.4596 8.346 12.4596 8.514C12.4596 8.67267 12.4036 8.808 12.2916 8.92C12.1703 9.06 12.0256 9.13 11.8576 9.13C11.6896 9.13 11.5403 9.05533 11.4096 8.906L9.57559 6.904L9.67359 9.116V13.834C9.67359 14.0207 9.61759 14.17 9.50559 14.282C9.39359 14.4033 9.24425 14.464 9.05759 14.464C8.88025 14.464 8.73559 14.4033 8.62359 14.282C8.52092 14.17 8.46959 14.0207 8.46959 13.834V9.13L8.56759 6.89L6.74759 8.906C6.60759 9.05533 6.45359 9.13 6.28559 9.13C6.11759 9.13 5.96825 9.06467 5.83759 8.934C5.71625 8.81267 5.65559 8.67733 5.65559 8.528C5.65559 8.35067 5.72559 8.20133 5.86559 8.08L8.10559 5.77C8.39492 5.49933 8.71225 5.364 9.05759 5.364C9.41225 5.364 9.72492 5.49933 9.99559 5.77L12.2636 8.066Z" fill="#1F2326"/>
</svg>
