<svg width="21" height="15" viewBox="0 0 21 15" fill="none" xmlns="http://www.w3.org/2000/svg">
<path d="M15.8359 14.5156H5.07812C2.40625 14.5156 0.398438 12.5859 0.398438 10.2891C0.398438 8.38281 1.5 6.80469 3.26562 6.52344C3.30469 4.33594 5.39844 2.875 7.32031 3.4375C8.25781 2.07031 9.76562 0.9375 11.8828 0.9375C15.0781 0.9375 17.5859 3.45312 17.5703 6.9375C19.0938 7.57812 20.0391 9 20.0391 10.6406C20.0391 12.7891 18.1953 14.5156 15.8359 14.5156ZM15.8359 13.2578C17.5 13.2578 18.7812 12.0938 18.7812 10.6406C18.7812 9.22656 17.8672 8.1875 16.4453 7.875C16.3516 7.85156 16.3125 7.79688 16.3203 7.69531C16.3516 7.32812 16.375 6.90625 16.3516 6.54688C16.2188 4.22656 14.4453 2.19531 11.8828 2.19531C9.85938 2.19531 8.69531 3.30469 7.9375 4.65625C7.89062 4.74219 7.83594 4.76562 7.74219 4.73438C6.14062 4.21094 4.40625 4.92188 4.40625 7.32812C4.40625 7.42969 4.36719 7.48438 4.25781 7.48438C2.60156 7.48438 1.65625 8.72656 1.65625 10.2891C1.65625 11.8828 3.10938 13.2578 5.07812 13.2578H15.8359ZM8.36719 6.64844C8.14844 6.41406 8.22656 6.09375 8.51562 5.85938C9.04688 5.41406 9.82031 5.14062 10.5859 5.14062C12.3359 5.14062 13.7188 6.32031 14.0234 8.02344H14.6328C14.9141 8.02344 14.9844 8.29688 14.8281 8.52344L13.8438 9.90625C13.6719 10.1484 13.375 10.1328 13.2109 9.90625L12.2188 8.52344C12.0469 8.29688 12.125 8.02344 12.4141 8.02344H13.0859C12.8125 6.9375 11.8047 6.11719 10.5859 6.11719C9.99219 6.11719 9.54688 6.29688 9.10156 6.65625C8.85938 6.83594 8.57812 6.86719 8.36719 6.64844ZM6.32031 8.65625L7.30469 7.26562C7.47656 7.02344 7.77344 7.03906 7.9375 7.26562L8.92969 8.65625C9.10156 8.875 9.02344 9.15625 8.73438 9.15625H8.09375C8.36719 10.2422 9.38281 11.0547 10.5938 11.0547C11.1953 11.0547 11.6328 10.8672 12.0703 10.5156C12.3281 10.3359 12.6016 10.3047 12.8203 10.5234C13.0391 10.7656 12.9609 11.0859 12.6719 11.3203C12.1328 11.7656 11.3672 12.0312 10.5938 12.0312C8.85156 12.0312 7.46875 10.8516 7.16406 9.15625H6.51562C6.23438 9.15625 6.16406 8.88281 6.32031 8.65625Z" fill="black"/>
</svg>
