<svg width="40" height="40" viewBox="0 0 40 40" fill="none" xmlns="http://www.w3.org/2000/svg"><g clip-path="url(#shape-round-rectangle_a)"><path d="M11.838 31.634c-1.213 0-2.287-.252-3.22-.756a5.446 5.446 0 0 1-2.184-2.128c-.504-.915-.756-1.97-.756-3.164V14.498c0-1.213.252-2.287.756-3.22a5.262 5.262 0 0 1 2.128-2.156c.933-.504 1.997-.756 3.192-.756h16.408c1.213 0 2.287.252 3.22.756a5.263 5.263 0 0 1 2.156 2.128c.523.915.784 1.97.784 3.164v11.088c0 1.213-.252 2.287-.756 3.22a5.217 5.217 0 0 1-2.156 2.156c-.915.504-1.97.756-3.164.756H11.838ZM7.414 25.39c0 1.381.401 2.483 1.204 3.304.821.803 1.923 1.213 3.304 1.232h16.156c1.381 0 2.473-.41 3.276-1.232.821-.821 1.232-1.913 1.232-3.276V14.61c0-1.381-.41-2.473-1.232-3.276-.803-.821-1.895-1.241-3.276-1.26H11.922c-1.363 0-2.455.41-3.276 1.232-.821.803-1.232 1.895-1.232 3.276V25.39Z" fill="#000"/></g><defs><clipPath id="shape-round-rectangle_a"><path fill="#fff" d="M0 0h40v40H0z"/></clipPath></defs></svg>