<svg width="40" height="40" viewBox="0 0 40 40" fill="none" xmlns="http://www.w3.org/2000/svg"><g clip-path="url(#shape-hexagon_a)"><path d="M13.182 10.046c-.355 0-.71.093-1.064.28a2.214 2.214 0 0 0-.812.672l-5.684 7.756a2.02 2.02 0 0 0-.392 1.176c0 .43.13.83.392 1.204l5.684 7.812c.205.299.476.532.812.7.355.168.71.252 1.064.252H26.79c.355 0 .7-.084 1.036-.252.355-.168.635-.401.84-.7l5.712-7.812a2.02 2.02 0 0 0 .392-1.176c0-.43-.13-.821-.392-1.176l-5.712-7.784a2.165 2.165 0 0 0-.84-.672 2.291 2.291 0 0 0-1.036-.252l-13.608-.028Zm-3.304.028c.355-.523.85-.943 1.484-1.26.635-.317 1.27-.476 1.904-.476h13.412c.635 0 1.27.159 1.904.476.635.317 1.139.728 1.512 1.232l5.768 7.896c.467.616.7 1.288.7 2.016s-.224 1.39-.672 1.988l-5.768 7.98c-.373.504-.877.915-1.512 1.232-.635.336-1.26.504-1.876.504l-13.468-.028c-.635 0-1.27-.159-1.904-.476-.635-.299-1.13-.7-1.484-1.204l-5.796-7.98c-.43-.635-.644-1.307-.644-2.016 0-.728.215-1.39.644-1.988l5.796-7.896Z" fill="#000"/></g><defs><clipPath id="shape-hexagon_a"><path fill="#fff" d="M0 0h40v40H0z"/></clipPath></defs></svg>