<svg width="40" height="40" viewBox="0 0 40 40" fill="none" xmlns="http://www.w3.org/2000/svg"><g clip-path="url(#shape-cut-diamond_a)"><path d="M11.012 8.394c.299-.392.7-.71 1.204-.952.504-.261.999-.392 1.484-.392h12.74c.504 0 .999.13 1.484.392.504.243.905.56 1.204.952l5.18 6.972c.28.392.42.803.42 1.232 0 .504-.177.961-.532 1.372L21.428 32.222c-.43.485-.915.728-1.456.728-.523 0-.98-.233-1.372-.7L5.804 17.97a1.883 1.883 0 0 1-.532-1.344c0-.467.14-.877.42-1.232l5.32-7Zm2.492.392c-.41 0-.737.168-.98.504l-5.236 6.888a.707.707 0 0 0-.168.476c0 .187.065.345.196.476l12.376 13.692c.093.093.196.14.308.14a.428.428 0 0 0 .308-.14L32.712 17.13c.13-.13.196-.29.196-.476a.707.707 0 0 0-.168-.476L27.588 9.29a1.242 1.242 0 0 0-.448-.364 1.08 1.08 0 0 0-.532-.14H13.504Z" fill="#000"/></g><defs><clipPath id="shape-cut-diamond_a"><path fill="#fff" d="M0 0h40v40H0z"/></clipPath></defs></svg>