<svg width="40" height="40" viewBox="0 0 40 40" fill="none" xmlns="http://www.w3.org/2000/svg"><g clip-path="url(#shape-bookmark_a)"><path d="M7.932 10.088c-.317 0-.476.093-.476.28 0 .075.047.187.14.336l5.768 7.924c.28.41.42.868.42 1.372 0 .504-.14.952-.42 1.344l-5.768 7.952c-.093.15-.14.261-.14.336 0 .187.159.28.476.28h24.444c.15 0 .261-.037.336-.112a.493.493 0 0 0 .14-.364V10.564c0-.15-.047-.261-.14-.336-.075-.093-.187-.14-.336-.14H7.932ZM5.916 11.32a1.895 1.895 0 0 1-.476-1.26c0-.317.093-.616.28-.896.15-.243.364-.439.644-.588.299-.15.597-.224.896-.224h25.62c.504 0 .905.159 1.204.476.317.299.476.7.476 1.204V29.94c0 .523-.15.933-.448 1.232-.299.317-.7.476-1.204.476H7.344c-.336 0-.653-.084-.952-.252-.299-.15-.513-.345-.644-.588a1.487 1.487 0 0 1-.252-.868c0-.43.13-.83.392-1.204l6.076-8.372a.565.565 0 0 0 .112-.364c0-.168-.037-.29-.112-.364L5.916 11.32Z" fill="#000"/></g><defs><clipPath id="shape-bookmark_a"><path fill="#fff" d="M0 0h40v40H0z"/></clipPath></defs></svg>