<svg width="40" height="40" viewBox="0 0 40 40" fill="none" xmlns="http://www.w3.org/2000/svg"><g clip-path="url(#shape-double-quote_a)"><path d="M7.092 23.22c-.635 0-1.167-.215-1.596-.644-.43-.448-.644-.999-.644-1.652 0-1.195.308-2.175.924-2.94.616-.784 1.4-1.176 2.352-1.176.448 0 .672.224.672.672 0 .15-.056.29-.168.42a.851.851 0 0 1-.448.224 1.88 1.88 0 0 0-1.176.504c-.317.299-.495.69-.532 1.176l.14.056c.075-.13.215-.243.42-.336.224-.093.457-.14.7-.14.467 0 .84.168 1.12.504.299.317.448.737.448 1.26 0 .597-.215 1.092-.644 1.484-.41.392-.933.588-1.568.588Zm5.656 0c-.635 0-1.167-.215-1.596-.644-.43-.448-.644-.999-.644-1.652 0-1.195.308-2.175.924-2.94.616-.784 1.4-1.176 2.352-1.176.448 0 .672.224.672.672 0 .15-.056.29-.168.42a.875.875 0 0 1-.476.224 1.88 1.88 0 0 0-1.176.504c-.299.299-.467.69-.504 1.176l.14.056c.075-.13.215-.243.42-.336.224-.093.457-.14.7-.14.467 0 .84.168 1.12.504.299.317.448.737.448 1.26 0 .597-.215 1.092-.644 1.484-.41.392-.933.588-1.568.588Zm20.188-6.44c.635 0 1.157.224 1.568.672.43.448.644.999.644 1.652 0 1.176-.299 2.147-.896 2.912-.597.765-1.363 1.167-2.296 1.204-.243 0-.43-.056-.56-.168a.56.56 0 0 1-.196-.448c0-.168.056-.317.168-.448a.789.789 0 0 1 .476-.252 1.88 1.88 0 0 0 1.176-.504c.317-.299.495-.69.532-1.176l-.168-.084c-.075.15-.215.27-.42.364-.205.093-.439.14-.7.14-.448 0-.821-.168-1.12-.504-.28-.336-.42-.756-.42-1.26 0-.616.205-1.12.616-1.512.41-.392.943-.588 1.596-.588Zm-5.684 0c.635 0 1.167.224 1.596.672.43.448.644.999.644 1.652 0 1.176-.308 2.147-.924 2.912-.597.765-1.353 1.167-2.268 1.204-.243 0-.439-.056-.588-.168a.56.56 0 0 1-.196-.448c0-.168.056-.317.168-.448a.789.789 0 0 1 .476-.252 1.88 1.88 0 0 0 1.176-.504c.317-.299.495-.69.532-1.176l-.168-.084c-.075.15-.215.27-.42.364-.205.093-.439.14-.7.14-.448 0-.821-.168-1.12-.504-.28-.336-.42-.756-.42-1.26 0-.597.205-1.092.616-1.484.43-.41.961-.616 1.596-.616Z" fill="#000"/></g><defs><clipPath id="shape-double-quote_a"><path fill="#fff" d="M0 0h40v40H0z"/></clipPath></defs></svg>