<svg width="40" height="40" viewBox="0 0 40 40" fill="none" xmlns="http://www.w3.org/2000/svg"><g clip-path="url(#shape-love_a)"><path d="M20.014 30.766a22.272 22.272 0 0 0 6.216-3.752c1.848-1.587 3.304-3.332 4.368-5.236 1.083-1.923 1.652-3.845 1.708-5.768.056-1.325-.13-2.51-.56-3.556-.43-1.045-1.064-1.857-1.904-2.436-.84-.597-1.81-.896-2.912-.896-1.139 0-2.268.364-3.388 1.092a7.326 7.326 0 0 0-2.548 2.744 1.273 1.273 0 0 1-.42.476 1.08 1.08 0 0 1-.56.168c-.205 0-.401-.056-.588-.168a1.273 1.273 0 0 1-.42-.476 7.326 7.326 0 0 0-2.548-2.744c-1.101-.728-2.221-1.092-3.36-1.092-1.064 0-2.007.28-2.828.84-.803.56-1.437 1.335-1.904 2.324-.448.99-.672 2.11-.672 3.36 0 1.941.523 3.901 1.568 5.88 1.064 1.96 2.53 3.752 4.396 5.376a22.736 22.736 0 0 0 6.356 3.864Zm0 1.792a24.189 24.189 0 0 1-7.252-4.116c-2.128-1.792-3.799-3.808-5.012-6.048-1.213-2.259-1.82-4.527-1.82-6.804 0-1.568.299-2.968.896-4.2.616-1.25 1.465-2.221 2.548-2.912 1.083-.69 2.324-1.036 3.724-1.036 1.27 0 2.548.383 3.836 1.148 1.288.747 2.315 1.717 3.08 2.912.747-1.195 1.764-2.165 3.052-2.912 1.288-.765 2.567-1.148 3.836-1.148 1.4 0 2.641.355 3.724 1.064 1.083.69 1.923 1.652 2.52 2.884.616 1.232.924 2.632.924 4.2 0 2.277-.607 4.536-1.82 6.776-1.195 2.221-2.865 4.228-5.012 6.02-2.128 1.792-4.536 3.183-7.224 4.172Z" fill="#000"/></g><defs><clipPath id="shape-love_a"><path fill="#fff" d="M0 0h40v40H0z"/></clipPath></defs></svg>