<svg width="40" height="40" viewBox="0 0 40 40" fill="none" xmlns="http://www.w3.org/2000/svg"><g clip-path="url(#shape-french-quote_a)"><path d="M9.962 25.992c.187.224.28.448.28.672a.696.696 0 0 1-.224.504c-.224.261-.476.392-.756.392-.243 0-.467-.14-.672-.42l-3.64-5.768c-.28-.43-.42-.905-.42-1.428 0-.504.14-.961.42-1.372l3.668-5.768c.187-.243.41-.364.672-.364.261 0 .504.112.728.336.112.112.168.27.168.476 0 .205-.075.43-.224.672l-3.5 5.516c-.093.187-.14.364-.14.532 0 .15.047.317.14.504l3.5 5.516Zm4.424 0a.97.97 0 0 1 .252.672.682.682 0 0 1-.196.504c-.224.261-.467.392-.728.392-.261 0-.495-.15-.7-.448l-3.612-5.74c-.28-.43-.42-.905-.42-1.428 0-.485.13-.943.392-1.372l3.668-5.768c.187-.243.41-.364.672-.364.261 0 .504.112.728.336.112.112.168.27.168.476 0 .205-.075.43-.224.672l-3.5 5.516c-.093.187-.14.364-.14.532 0 .15.047.317.14.504l3.5 5.516Zm19.18-5.516a.931.931 0 0 0 .14-.504c0-.224-.047-.392-.14-.504l-3.5-5.544c-.15-.243-.224-.467-.224-.672 0-.224.075-.392.224-.504.205-.205.43-.308.672-.308.261 0 .485.121.672.364l3.668 5.768c.261.43.392.887.392 1.372 0 .523-.14.999-.42 1.428l-3.612 5.74c-.187.299-.43.448-.728.448-.243 0-.485-.121-.728-.364a.682.682 0 0 1-.196-.504.98.98 0 0 1 .28-.672l3.5-5.544Zm-4.424 0a.931.931 0 0 0 .14-.504c0-.224-.047-.392-.14-.504l-3.5-5.544c-.15-.243-.224-.467-.224-.672 0-.224.075-.392.224-.504.205-.205.43-.308.672-.308.261 0 .485.121.672.364l3.668 5.768c.28.41.42.868.42 1.372 0 .504-.15.98-.448 1.428l-3.64 5.768c-.187.28-.41.42-.672.42-.261 0-.513-.121-.756-.364a.682.682 0 0 1-.196-.504.97.97 0 0 1 .252-.672l3.528-5.544Z" fill="#000"/></g><defs><clipPath id="shape-french-quote_a"><path fill="#fff" d="M0 0h40v40H0z"/></clipPath></defs></svg>