<svg width="40" height="40" viewBox="0 0 40 40" fill="none" xmlns="http://www.w3.org/2000/svg"><g clip-path="url(#shape-ellipse_a)"><path d="M20.07 31.396c2.837 0 5.376-.485 7.616-1.456 2.24-.97 3.976-2.315 5.208-4.032 1.25-1.736 1.876-3.705 1.876-5.908 0-2.203-.625-4.163-1.876-5.88-1.232-1.736-2.968-3.09-5.208-4.06-2.24-.97-4.779-1.456-7.616-1.456-2.856 0-5.413.485-7.672 1.456-2.259.97-4.023 2.324-5.292 4.06C5.856 15.837 5.23 17.797 5.23 20s.625 4.172 1.876 5.908c1.27 1.717 3.033 3.061 5.292 4.032 2.259.97 4.816 1.456 7.672 1.456Zm0 1.736c-3.192 0-6.048-.56-8.568-1.68-2.52-1.12-4.49-2.67-5.908-4.648-1.4-1.997-2.1-4.265-2.1-6.804 0-2.539.7-4.797 2.1-6.776 1.419-1.997 3.388-3.556 5.908-4.676 2.52-1.12 5.376-1.68 8.568-1.68 3.173 0 6.001.56 8.484 1.68 2.501 1.12 4.452 2.679 5.852 4.676 1.4 1.979 2.1 4.237 2.1 6.776 0 2.539-.7 4.807-2.1 6.804-1.4 1.979-3.35 3.528-5.852 4.648-2.483 1.12-5.31 1.68-8.484 1.68Z" fill="#000"/></g><defs><clipPath id="shape-ellipse_a"><path fill="#fff" d="M0 0h40v40H0z"/></clipPath></defs></svg>