<svg width="40" height="40" viewBox="0 0 40 40" fill="none" xmlns="http://www.w3.org/2000/svg"><g clip-path="url(#shape-parenthese_a)"><path d="M10.872 30.234c.187.224.28.448.28.672a.638.638 0 0 1-.252.532c-.187.187-.392.28-.616.28-.261 0-.504-.121-.728-.364-1.195-1.344-2.184-3.08-2.968-5.208-.765-2.147-1.157-4.21-1.176-6.188.019-1.96.41-4.004 1.176-6.132.784-2.128 1.773-3.864 2.968-5.208.205-.224.43-.336.672-.336.243 0 .448.084.616.252a.77.77 0 0 1 .28.588c0 .205-.084.41-.252.616-1.083 1.232-1.979 2.81-2.688 4.732-.69 1.923-1.036 3.752-1.036 5.488 0 1.736.345 3.575 1.036 5.516.71 1.923 1.605 3.51 2.688 4.76Zm19.6 1.12c-.243.243-.495.364-.756.364a.782.782 0 0 1-.532-.196.796.796 0 0 1-.308-.644c0-.224.084-.42.252-.588 1.101-1.25 1.997-2.847 2.688-4.788.71-1.941 1.064-3.79 1.064-5.544 0-1.736-.355-3.565-1.064-5.488-.69-1.923-1.577-3.5-2.66-4.732-.168-.205-.252-.41-.252-.616 0-.261.112-.476.336-.644a.943.943 0 0 1 .532-.168c.299 0 .532.103.7.308 1.195 1.363 2.175 3.099 2.94 5.208.784 2.11 1.176 4.125 1.176 6.048 0 1.96-.383 4.023-1.148 6.188-.765 2.147-1.755 3.91-2.968 5.292Z" fill="#000"/></g><defs><clipPath id="shape-parenthese_a"><path fill="#fff" d="M0 0h40v40H0z"/></clipPath></defs></svg>