<svg width="40" height="40" viewBox="0 0 40 40" fill="none" xmlns="http://www.w3.org/2000/svg"><g clip-path="url(#shape-shield_a)"><path d="M19.986 33.608c-2.352-.355-4.424-1.344-6.216-2.968-1.792-1.605-3.173-3.705-4.144-6.3-.97-2.595-1.456-5.479-1.456-8.652 0-.97.037-1.867.112-2.688a30.676 30.676 0 0 0 6.3-2.66c2.016-1.139 3.49-2.259 4.424-3.36.28-.392.607-.588.98-.588.392 0 .737.205 1.036.616.896 1.045 2.343 2.128 4.34 3.248a35.206 35.206 0 0 0 6.356 2.772c.075.803.112 1.699.112 2.688 0 3.173-.495 6.057-1.484 8.652-.97 2.576-2.352 4.667-4.144 6.272-1.792 1.624-3.864 2.613-6.216 2.968Zm0-1.736c1.979-.355 3.733-1.27 5.264-2.744 1.53-1.493 2.716-3.416 3.556-5.768.859-2.352 1.288-4.937 1.288-7.756 0-.597-.01-1.045-.028-1.344a33.874 33.874 0 0 1-5.852-2.716c-1.867-1.12-3.267-2.184-4.2-3.192-.99 1.064-2.427 2.156-4.312 3.276a31.667 31.667 0 0 1-5.796 2.66c-.019.28-.028.7-.028 1.26 0 2.837.42 5.432 1.26 7.784.84 2.352 2.025 4.275 3.556 5.768 1.53 1.493 3.295 2.417 5.292 2.772Z" fill="#000"/></g><defs><clipPath id="shape-shield_a"><path fill="#fff" d="M0 0h40v40H0z"/></clipPath></defs></svg>