<svg width="40" height="40" viewBox="0 0 40 40" fill="none" xmlns="http://www.w3.org/2000/svg"><g clip-path="url(#shape-capsule_a)"><path d="M5.202 20c0 2.035.41 3.864 1.232 5.488.84 1.605 2.007 2.865 3.5 3.78 1.493.896 3.183 1.344 5.068 1.344h9.996c1.904 0 3.593-.448 5.068-1.344 1.493-.915 2.65-2.175 3.472-3.78.84-1.624 1.26-3.453 1.26-5.488 0-2.053-.42-3.883-1.26-5.488-.821-1.624-1.979-2.884-3.472-3.78-1.475-.896-3.164-1.344-5.068-1.344h-9.996c-1.885 0-3.575.448-5.068 1.344-1.493.896-2.66 2.156-3.5 3.78-.821 1.605-1.232 3.435-1.232 5.488Zm-1.736 0c0-2.39.495-4.517 1.484-6.384.99-1.885 2.352-3.35 4.088-4.396 1.755-1.045 3.743-1.568 5.964-1.568h9.996c2.24 0 4.237.523 5.992 1.568s3.117 2.51 4.088 4.396c.97 1.867 1.456 3.995 1.456 6.384 0 2.37-.485 4.499-1.456 6.384-.97 1.867-2.333 3.323-4.088 4.368-1.755 1.064-3.752 1.596-5.992 1.596h-9.996c-2.221 0-4.21-.532-5.964-1.596-1.736-1.045-3.099-2.501-4.088-4.368-.99-1.867-1.484-3.995-1.484-6.384Z" fill="#000"/></g><defs><clipPath id="shape-capsule_a"><path fill="#fff" d="M0 0h40v40H0z"/></clipPath></defs></svg>