<svg width="40" height="40" viewBox="0 0 40 40" fill="none" xmlns="http://www.w3.org/2000/svg"><g clip-path="url(#shape-double-underline_a)"><path d="M32.698 17.242c.243 0 .448.084.616.252.187.168.28.373.28.616a.838.838 0 0 1-.252.616.872.872 0 0 1-.644.252H7.302a.872.872 0 0 1-.644-.252.838.838 0 0 1-.252-.616c0-.243.084-.448.252-.616a.934.934 0 0 1 .644-.252h25.396Zm0 3.78c.243 0 .448.084.616.252.187.168.28.373.28.616a.838.838 0 0 1-.252.616.872.872 0 0 1-.644.252H7.302a.872.872 0 0 1-.644-.252.838.838 0 0 1-.252-.616c0-.243.084-.448.252-.616a.934.934 0 0 1 .644-.252h25.396Z" fill="#000"/></g><defs><clipPath id="shape-double-underline_a"><path fill="#fff" d="M0 0h40v40H0z"/></clipPath></defs></svg>