<svg width="40" height="40" viewBox="0 0 40 40" fill="none" xmlns="http://www.w3.org/2000/svg"><g clip-path="url(#shape-parallelogram_a)"><path d="M13.21 10.102c-.523 0-1.008.159-1.456.476-.43.299-.737.7-.924 1.204L4.866 28.414a1.72 1.72 0 0 0-.112.588c0 .616.392.924 1.176.924h20.86a2.656 2.656 0 0 0 1.456-.476 2.64 2.64 0 0 0 .924-1.232l5.992-16.632a1.72 1.72 0 0 0 .112-.588c0-.28-.103-.495-.308-.644-.187-.168-.476-.252-.868-.252H13.21Zm-4.032 1.232a4.16 4.16 0 0 1 1.624-2.128c.803-.56 1.67-.84 2.604-.84h20.636c.952 0 1.69.215 2.212.644.523.43.784 1.027.784 1.792 0 .41-.084.868-.252 1.372L30.85 28.666c-.317.877-.877 1.587-1.68 2.128-.784.56-1.643.84-2.576.84H5.958c-.952 0-1.69-.215-2.212-.644-.523-.43-.784-1.008-.784-1.736 0-.448.093-.915.28-1.4l5.936-16.52Z" fill="#000"/></g><defs><clipPath id="shape-parallelogram_a"><path fill="#fff" d="M0 0h40v40H0z"/></clipPath></defs></svg>