<svg width="40" height="40" viewBox="0 0 40 40" fill="none" xmlns="http://www.w3.org/2000/svg"><g clip-path="url(#shape-vertical-hexagon-rounded_a)"><path d="M20.182 31.186c2.39 0 4.732-.439 7.028-1.316 2.315-.859 4.172-1.997 5.572-3.416.224-.243.401-.541.532-.896.15-.355.224-.69.224-1.008v-9.072c0-.317-.075-.644-.224-.98a2.339 2.339 0 0 0-.616-.84c-1.81-1.437-3.873-2.604-6.188-3.5-2.315-.896-4.452-1.344-6.412-1.344s-4.116.448-6.468 1.344c-2.333.896-4.433 2.063-6.3 3.5a2.346 2.346 0 0 0-.644.812c-.15.336-.224.663-.224.98v9.128c0 .336.075.672.224 1.008.168.317.383.57.644.756a29.05 29.05 0 0 0 6.552 3.5c2.37.896 4.47 1.344 6.3 1.344Zm.112 1.736c-2.072 0-4.396-.476-6.972-1.428a28.763 28.763 0 0 1-7.112-3.752c-.43-.317-.784-.747-1.064-1.288-.28-.56-.42-1.11-.42-1.652V15.31c0-.56.13-1.11.392-1.652.261-.56.607-1.008 1.036-1.344 1.979-1.568 4.237-2.828 6.776-3.78 2.557-.97 4.947-1.456 7.168-1.456 2.203.019 4.555.504 7.056 1.456 2.52.952 4.75 2.203 6.692 3.752.43.373.775.84 1.036 1.4.261.56.392 1.11.392 1.652l-.028 9.128c0 .56-.112 1.139-.336 1.736a5.016 5.016 0 0 1-.868 1.484c-1.53 1.568-3.547 2.828-6.048 3.78a21.112 21.112 0 0 1-7.7 1.456Z" fill="#000"/></g><defs><clipPath id="shape-vertical-hexagon-rounded_a"><path fill="#fff" d="M0 0h40v40H0z"/></clipPath></defs></svg>