<svg width="40" height="40" viewBox="0 0 40 40" fill="none" xmlns="http://www.w3.org/2000/svg"><g clip-path="url(#shape-brace_a)"><path d="M14.022 8.954a.797.797 0 0 1-.28.616c-.187.15-.439.224-.756.224-.859 0-1.568.261-2.128.784-.56.504-.84 1.157-.84 1.96v3.612c0 .915-.252 1.717-.756 2.408-.485.69-1.12 1.13-1.904 1.316v.168c.784.168 1.419.597 1.904 1.288.504.69.756 1.484.756 2.38v3.92c0 .747.28 1.363.84 1.848.56.467 1.27.7 2.128.7.317 0 .57.065.756.196.187.15.28.345.28.588a.796.796 0 0 1-.308.644c-.187.168-.439.252-.756.252-1.363 0-2.483-.383-3.36-1.148-.877-.765-1.316-1.755-1.316-2.968v-3.948c0-.523-.168-1.008-.504-1.456a2.91 2.91 0 0 0-1.288-.98 1.79 1.79 0 0 1-.756-.56 1.419 1.419 0 0 1-.28-.84c0-.299.093-.579.28-.84.187-.261.42-.439.7-.532a2.4 2.4 0 0 0 1.316-.896c.355-.448.532-.933.532-1.456v-3.752c0-1.27.43-2.305 1.288-3.108.877-.821 2.007-1.232 3.388-1.232.317 0 .57.075.756.224.205.15.308.345.308.588Zm11.956.056c0-.243.093-.448.28-.616.205-.168.467-.252.784-.252 1.381 0 2.501.41 3.36 1.232.877.803 1.316 1.839 1.316 3.108v3.752c0 .541.168 1.036.504 1.484a2.6 2.6 0 0 0 1.344.868c.28.093.513.27.7.532.187.261.28.541.28.84 0 .299-.093.579-.28.84a1.79 1.79 0 0 1-.756.56 2.909 2.909 0 0 0-1.288.98 2.377 2.377 0 0 0-.504 1.456v3.948c0 1.213-.439 2.203-1.316 2.968-.877.765-1.997 1.148-3.36 1.148-.317 0-.579-.093-.784-.28-.187-.168-.28-.392-.28-.672 0-.243.093-.448.28-.616.187-.15.43-.224.728-.224.84 0 1.521-.224 2.044-.672a2.23 2.23 0 0 0 .812-1.764v-3.92c0-.877.261-1.661.784-2.352.523-.69 1.195-1.13 2.016-1.316v-.168c-.821-.187-1.493-.625-2.016-1.316a3.957 3.957 0 0 1-.784-2.408v-3.612c0-.765-.27-1.4-.812-1.904-.523-.504-1.204-.756-2.044-.756-.299 0-.541-.075-.728-.224a.828.828 0 0 1-.28-.644Z" fill="#000"/></g><defs><clipPath id="shape-brace_a"><path fill="#fff" d="M0 0h40v40H0z"/></clipPath></defs></svg>