<svg width="40" height="40" viewBox="0 0 40 40" fill="none" xmlns="http://www.w3.org/2000/svg"><g clip-path="url(#shape-single-breaksingle_a)"><path d="M9.948 10.088c-.765 0-1.381.233-1.848.7-.448.448-.672 1.055-.672 1.82v14.784c0 .765.224 1.381.672 1.848.467.448 1.083.672 1.848.672h20.104c.765 0 1.372-.224 1.82-.672.467-.467.7-1.083.7-1.848V19.16h-6.048c-.84 0-1.521-.261-2.044-.784-.523-.523-.784-1.213-.784-2.072v-6.216H9.948Zm-4.256 2.324c0-1.213.373-2.193 1.12-2.94.765-.747 1.755-1.12 2.968-1.12h14.588c.373 0 .765.084 1.176.252.41.168.737.383.98.644l6.888 7.056c.261.261.476.597.644 1.008.168.41.252.803.252 1.176v9.128c0 1.195-.383 2.165-1.148 2.912-.747.747-1.727 1.12-2.94 1.12H9.78c-1.213 0-2.203-.373-2.968-1.12-.747-.747-1.12-1.717-1.12-2.912V12.412Zm19.74 3.724c0 .41.112.728.336.952.224.224.541.336.952.336h5.348l-6.636-6.804v5.516Z" fill="#000"/></g><defs><clipPath id="shape-single-breaksingle_a"><path fill="#fff" d="M0 0h40v40H0z"/></clipPath></defs></svg>