<svg width="40" height="40" viewBox="0 0 40 40" fill="none" xmlns="http://www.w3.org/2000/svg"><g clip-path="url(#shape-cloud_a)"><path d="M27.476 30.08c1.213 0 2.296-.233 3.248-.7.97-.485 1.717-1.157 2.24-2.016.541-.859.812-1.839.812-2.94 0-1.419-.476-2.65-1.428-3.696-.933-1.064-2.175-1.745-3.724-2.044a1.103 1.103 0 0 1-.644-.308.97.97 0 0 1-.252-.672c0-1.512-.252-2.856-.756-4.032-.504-1.195-1.213-2.119-2.128-2.772-.896-.653-1.941-.98-3.136-.98-1.68 0-3.145.513-4.396 1.54-1.232 1.027-2.053 2.39-2.464 4.088a.905.905 0 0 1-.364.644c-.187.15-.43.215-.728.196-1.475-.056-2.781.187-3.92.728a5.88 5.88 0 0 0-2.66 2.38c-.635 1.045-.952 2.277-.952 3.696 0 1.344.317 2.539.952 3.584.653 1.045 1.55 1.857 2.688 2.436 1.157.579 2.464.868 3.92.868h13.692Zm-13.692 1.736c-1.792 0-3.397-.364-4.816-1.092-1.4-.728-2.501-1.745-3.304-3.052-.784-1.325-1.176-2.819-1.176-4.48 0-1.661.373-3.136 1.12-4.424a8.077 8.077 0 0 1 3.136-3.052c1.344-.728 2.865-1.092 4.564-1.092a8.633 8.633 0 0 1 4.704-5.6 8.316 8.316 0 0 1 3.668-.84c1.475 0 2.79.373 3.948 1.12 1.157.747 2.063 1.792 2.716 3.136.672 1.325 1.017 2.837 1.036 4.536a8.209 8.209 0 0 1 3.164 1.54 7.522 7.522 0 0 1 2.184 2.604 6.896 6.896 0 0 1 .784 3.22c0 1.437-.345 2.725-1.036 3.864-.672 1.139-1.615 2.025-2.828 2.66-1.213.635-2.604.952-4.172.952H13.784Z" fill="#000"/></g><defs><clipPath id="shape-cloud_a"><path fill="#fff" d="M0 0h40v40H0z"/></clipPath></defs></svg>