<svg width="40" height="40" viewBox="0 0 40 40" fill="none" xmlns="http://www.w3.org/2000/svg"><g clip-path="url(#shape-circle_a)"><path d="M19.972 33.496c-2.483 0-4.75-.597-6.804-1.792a13.258 13.258 0 0 1-4.872-4.872c-1.195-2.053-1.792-4.321-1.792-6.804 0-2.483.597-4.75 1.792-6.804a13.196 13.196 0 0 1 4.872-4.9c2.072-1.213 4.34-1.82 6.804-1.82 2.483 0 4.75.607 6.804 1.82a13.134 13.134 0 0 1 4.9 4.9c1.213 2.053 1.82 4.321 1.82 6.804 0 2.483-.607 4.75-1.82 6.804a13.195 13.195 0 0 1-4.9 4.872c-2.053 1.195-4.321 1.792-6.804 1.792Zm0-1.708c2.165 0 4.144-.523 5.936-1.568a11.57 11.57 0 0 0 4.284-4.256c1.045-1.792 1.568-3.77 1.568-5.936 0-2.165-.523-4.144-1.568-5.936a11.507 11.507 0 0 0-4.284-4.284c-1.792-1.045-3.77-1.568-5.936-1.568-2.165 0-4.144.523-5.936 1.568a11.57 11.57 0 0 0-4.256 4.284c-1.027 1.792-1.54 3.77-1.54 5.936 0 2.165.513 4.144 1.54 5.936a11.633 11.633 0 0 0 4.256 4.256c1.792 1.045 3.77 1.568 5.936 1.568Z" fill="#000"/></g><defs><clipPath id="shape-circle_a"><path fill="#fff" d="M0 0h40v40H0z"/></clipPath></defs></svg>