<svg width="40" height="40" viewBox="0 0 40 40" fill="none" xmlns="http://www.w3.org/2000/svg"><g clip-path="url(#shape-rectangle_a)"><path d="M9.822 31.662c-1.232 0-2.23-.373-2.996-1.12-.747-.747-1.12-1.727-1.12-2.94V12.454c0-1.232.373-2.221 1.12-2.968.747-.765 1.727-1.148 2.94-1.148h20.44c1.213 0 2.193.373 2.94 1.12.765.747 1.148 1.727 1.148 2.94v15.176c0 1.213-.373 2.193-1.12 2.94-.747.765-1.717 1.148-2.912 1.148H9.822Zm-2.38-4.256c0 .765.224 1.381.672 1.848.467.448 1.083.672 1.848.672h20.076c.765 0 1.372-.224 1.82-.672.467-.467.7-1.083.7-1.848V12.594c0-.765-.224-1.372-.672-1.82-.448-.467-1.064-.7-1.848-.7H9.962c-.765 0-1.381.233-1.848.7-.448.448-.672 1.055-.672 1.82v14.812Z" fill="#000"/></g><defs><clipPath id="shape-rectangle_a"><path fill="#fff" d="M0 0h40v40H0z"/></clipPath></defs></svg>