<svg width="40" height="40" viewBox="0 0 40 40" fill="none" xmlns="http://www.w3.org/2000/svg"><g clip-path="url(#shape-label_a)"><path d="M7.526 10.088a.458.458 0 0 0-.336.14c-.093.075-.14.187-.14.336l-.028 18.9c0 .13.047.243.14.336a.565.565 0 0 0 .364.112H24.41c.224 0 .448-.047.672-.14.224-.093.401-.233.532-.42l7.14-8.764c.13-.15.196-.345.196-.588a.795.795 0 0 0-.224-.588l-7.14-8.736a1.516 1.516 0 0 0-.56-.392 1.38 1.38 0 0 0-.672-.168l-16.828-.028Zm-2.24-.056c0-.485.159-.887.476-1.204.317-.317.719-.476 1.204-.476h17.808c.355 0 .719.093 1.092.28.373.168.672.392.896.672l7.364 9.044a2.45 2.45 0 0 1 .588 1.624c0 .597-.196 1.139-.588 1.624l-7.308 9.1a2.247 2.247 0 0 1-.896.7 2.525 2.525 0 0 1-1.092.252H6.994c-.504 0-.915-.159-1.232-.476-.299-.299-.448-.69-.448-1.176l-.028-19.964Z" fill="#000"/></g><defs><clipPath id="shape-label_a"><path fill="#fff" d="M0 0h40v40H0z"/></clipPath></defs></svg>