<svg width="40" height="40" viewBox="0 0 40 40" fill="none" xmlns="http://www.w3.org/2000/svg"><g clip-path="url(#shape-drop_a)"><path d="M19.818 31.032c2.203 0 4.153-.457 5.852-1.372 1.699-.915 3.024-2.193 3.976-3.836.952-1.661 1.428-3.556 1.428-5.684V9.612a.56.56 0 0 0-.196-.448c-.112-.13-.27-.196-.476-.196H19.818c-2.128 0-4.023.467-5.684 1.4-1.643.933-2.921 2.25-3.836 3.948-.915 1.68-1.372 3.621-1.372 5.824 0 2.128.457 4.023 1.372 5.684a9.722 9.722 0 0 0 3.836 3.836c1.661.915 3.556 1.372 5.684 1.372Zm0 1.736c-2.427 0-4.601-.541-6.524-1.624a11.435 11.435 0 0 1-4.508-4.48C7.722 24.741 7.19 22.567 7.19 20.14c0-2.501.532-4.732 1.596-6.692 1.083-1.96 2.576-3.481 4.48-4.564 1.923-1.101 4.107-1.652 6.552-1.652h10.92c.616 0 1.11.187 1.484.56.392.373.579.859.56 1.456l.028 10.892c0 2.427-.56 4.601-1.68 6.524-1.101 1.923-2.641 3.416-4.62 4.48-1.96 1.083-4.19 1.624-6.692 1.624Z" fill="#000"/></g><defs><clipPath id="shape-drop_a"><path fill="#fff" d="M0 0h40v40H0z"/></clipPath></defs></svg>