<svg width="40" height="40" viewBox="0 0 40 40" fill="none" xmlns="http://www.w3.org/2000/svg"><g clip-path="url(#shape-arrow-left_a)"><path d="M32.964 13.882c.504 0 .905.159 1.204.476.317.299.476.7.476 1.204v8.652c0 .504-.159.915-.476 1.232-.299.317-.69.476-1.176.476H22.268c-.15 0-.27.047-.364.14a.493.493 0 0 0-.14.364v2.716c0 1.045-.159 1.848-.476 2.408-.317.56-.765.84-1.344.84-.672 0-1.493-.41-2.464-1.232L6.056 21.302c-.467-.41-.7-.859-.7-1.344 0-.467.224-.896.672-1.288l11.396-9.828c.952-.821 1.792-1.232 2.52-1.232.579 0 1.027.27 1.344.812.317.541.476 1.325.476 2.352v2.604c0 .336.168.504.504.504h10.696Zm-.028 2.548c0-.261-.075-.457-.224-.588-.15-.15-.355-.224-.616-.224H21.26c-.373 0-.672-.112-.896-.336-.224-.224-.336-.513-.336-.868v-4.256c0-.485-.121-.728-.364-.728-.15 0-.345.103-.588.308L7.904 19.342c-.224.187-.336.401-.336.644 0 .205.112.41.336.616l11.172 9.66c.205.187.392.28.56.28.261 0 .392-.233.392-.7v-4.424c0-.355.112-.644.336-.868.224-.243.513-.364.868-.364h10.864c.261 0 .467-.065.616-.196.15-.15.224-.355.224-.616V16.43Z" fill="#000"/></g><defs><clipPath id="shape-arrow-left_a"><path fill="#fff" d="M0 0h40v40H0z"/></clipPath></defs></svg>