<svg width="40" height="40" viewBox="0 0 40 40" fill="none" xmlns="http://www.w3.org/2000/svg"><g clip-path="url(#shape-stack_a)"><path d="M8.478 9.108c-.765 0-1.381.233-1.848.7-.448.448-.672 1.054-.672 1.82v12.04c0 .765.224 1.381.672 1.848.467.448 1.083.672 1.848.672h18.536c.765 0 1.372-.224 1.82-.672.467-.467.7-1.083.7-1.848v-12.04c0-.766-.233-1.372-.7-1.82-.448-.467-1.055-.7-1.82-.7H8.478Zm-4.256 2.296c0-1.214.373-2.184 1.12-2.912.765-.747 1.764-1.12 2.996-1.12h18.844c1.213 0 2.193.373 2.94 1.12.765.746 1.148 1.717 1.148 2.912v.84h.448c1.213 0 2.193.382 2.94 1.148.747.746 1.12 1.726 1.12 2.94V28.54c0 1.232-.373 2.221-1.12 2.968-.747.765-1.727 1.138-2.94 1.12H13.07c-1.195.018-2.165-.355-2.912-1.12-.747-.747-1.12-1.736-1.12-2.968v-.644h-.7c-1.232 0-2.23-.364-2.996-1.092-.747-.747-1.12-1.727-1.12-2.94v-12.46Zm6.608 16.968c0 .765.224 1.372.672 1.82.467.466 1.083.7 1.848.7h18.172c.765 0 1.372-.224 1.82-.672.467-.448.7-1.064.7-1.848V16.5c0-.766-.233-1.372-.7-1.82-.448-.467-1.055-.7-1.82-.7h-.252v9.884c0 1.213-.383 2.193-1.148 2.94-.747.728-1.727 1.092-2.94 1.092H10.83v.476Z" fill="#000"/></g><defs><clipPath id="shape-stack_a"><path fill="#fff" d="M0 0h40v40H0z"/></clipPath></defs></svg>