<svg width="40" height="40" viewBox="0 0 40 40" fill="none" xmlns="http://www.w3.org/2000/svg"><g clip-path="url(#shape-square-quote_a)"><path d="M7.526 17.704a.97.97 0 0 1-.252.672.872.872 0 0 1-.644.252.872.872 0 0 1-.644-.252.97.97 0 0 1-.252-.672V10.06c0-.485.15-.887.448-1.204.317-.317.719-.476 1.204-.476h7.364c.261 0 .476.093.644.28.187.168.28.383.28.644a.828.828 0 0 1-.28.644.872.872 0 0 1-.644.252H8.002a.458.458 0 0 0-.336.14.373.373 0 0 0-.14.308v7.056ZM25.222 31.62a.97.97 0 0 1-.672-.252.872.872 0 0 1-.252-.644.97.97 0 0 1 .252-.672.97.97 0 0 1 .672-.252h6.748c.15 0 .261-.037.336-.112a.458.458 0 0 0 .14-.336v-7.784c0-.261.084-.476.252-.644a.885.885 0 0 1 .644-.28c.261 0 .476.093.644.28.187.168.28.383.28.644l-.028 8.344c0 .504-.15.915-.448 1.232-.299.317-.7.476-1.204.476h-7.364Z" fill="#000"/></g><defs><clipPath id="shape-square-quote_a"><path fill="#fff" d="M0 0h40v40H0z"/></clipPath></defs></svg>