<svg width="40" height="40" viewBox="0 0 40 40" fill="none" xmlns="http://www.w3.org/2000/svg"><g clip-path="url(#shape-arrow-right_a)"><path d="M5.342 15.562c0-.504.159-.905.476-1.204.317-.317.728-.476 1.232-.476h10.696c.336 0 .504-.168.504-.504v-2.604c0-1.027.159-1.81.476-2.352.317-.541.765-.812 1.344-.812.728 0 1.568.41 2.52 1.232l11.368 9.828c.467.392.7.83.7 1.316 0 .467-.233.905-.7 1.316l-11.452 9.856c-.97.821-1.783 1.232-2.436 1.232-.579 0-1.027-.28-1.344-.84-.317-.56-.476-1.363-.476-2.408v-2.716c0-.15-.047-.27-.14-.364a.493.493 0 0 0-.364-.14H7.022c-.485 0-.887-.159-1.204-.476-.317-.317-.476-.728-.476-1.232v-8.652Zm2.548.056a.795.795 0 0 0-.588.224.795.795 0 0 0-.224.588v6.944c0 .243.075.439.224.588.15.15.345.224.588.224h10.892c.355 0 .644.121.868.364.224.224.336.513.336.868v4.424c0 .467.13.7.392.7.168 0 .355-.093.56-.28l11.172-9.66c.224-.205.336-.41.336-.616 0-.243-.112-.457-.336-.644L20.938 9.738c-.243-.205-.439-.308-.588-.308-.243 0-.364.243-.364.728v4.256c0 .355-.121.644-.364.868-.224.224-.513.336-.868.336H7.89Z" fill="#000"/></g><defs><clipPath id="shape-arrow-right_a"><path fill="#fff" d="M0 0h40v40H0z"/></clipPath></defs></svg>