<svg width="40" height="40" viewBox="0 0 40 40" fill="none" xmlns="http://www.w3.org/2000/svg"><g clip-path="url(#shape-angle-bracket_a)"><path d="M13.056 26.524c.187.224.28.439.28.644 0 .187-.075.373-.224.56-.168.224-.373.336-.616.336s-.485-.121-.728-.364l-6.104-6.496c-.355-.355-.532-.765-.532-1.232 0-.467.168-.877.504-1.232l6.104-6.468c.205-.224.439-.336.7-.336.224 0 .43.093.616.28a.76.76 0 0 1 .224.56.916.916 0 0 1-.28.672l-5.936 6.328c-.112.112-.121.233-.028.364l6.02 6.384ZM28.288 27.7c-.224.224-.467.336-.728.336a.797.797 0 0 1-.616-.28.929.929 0 0 1-.224-.588c0-.243.084-.457.252-.644l5.964-6.384c.112-.112.112-.233 0-.364l-5.964-6.356a.806.806 0 0 1-.252-.588c0-.243.093-.457.28-.644a.806.806 0 0 1 .588-.252c.28 0 .513.112.7.336l6.048 6.44c.355.355.532.765.532 1.232 0 .448-.168.859-.504 1.232L28.288 27.7Z" fill="#000"/></g><defs><clipPath id="shape-angle-bracket_a"><path fill="#fff" d="M0 0h40v40H0z"/></clipPath></defs></svg>