<svg width="8" height="8" viewBox="0 0 8 8" fill="none" xmlns="http://www.w3.org/2000/svg">
<path d="M6.016 5.1172C6.04213 5.07614 6.07387 5.0444 6.1112 5.022C6.14853 4.9996 6.1896 4.9884 6.2344 4.9884C6.2904 4.9884 6.34267 5.0052 6.3912 5.0388C6.42853 5.0612 6.45653 5.09107 6.4752 5.1284C6.49387 5.162 6.5032 5.19934 6.5032 5.2404C6.5032 5.28147 6.492 5.32254 6.4696 5.36361C6.32027 5.62867 6.11867 5.86387 5.8648 6.0692C5.61093 6.27827 5.32907 6.44067 5.0192 6.5564C4.70933 6.67587 4.40133 6.7356 4.0952 6.7356C3.70693 6.7356 3.33733 6.65907 2.9864 6.506C2.63547 6.35667 2.33493 6.1476 2.0848 5.8788C1.8384 5.60627 1.6648 5.29827 1.564 4.9548C1.5192 4.76814 1.49307 4.5684 1.4856 4.3556L1.0936 4.9884C1.04507 5.07054 0.977866 5.1116 0.891999 5.1116C0.835999 5.1116 0.781866 5.09294 0.729599 5.0556C0.666133 5.0108 0.634399 4.9492 0.634399 4.8708C0.634399 4.82227 0.649333 4.77747 0.679199 4.7364L1.3176 3.8012C1.396 3.68174 1.50053 3.622 1.6312 3.622C1.71333 3.622 1.7936 3.65 1.872 3.706L2.796 4.294C2.8744 4.34254 2.9136 4.4116 2.9136 4.5012C2.9136 4.54974 2.8968 4.60014 2.8632 4.6524C2.81467 4.71587 2.75307 4.7476 2.6784 4.7476C2.62613 4.7476 2.57387 4.7308 2.5216 4.6972L1.9 4.238C1.9448 4.4508 1.98773 4.63374 2.0288 4.7868C2.10347 5.0668 2.23973 5.31694 2.4376 5.5372C2.6392 5.75374 2.88373 5.9236 3.1712 6.0468C3.4624 6.17 3.7704 6.23161 4.0952 6.23161C4.3416 6.23161 4.58987 6.18307 4.84 6.086C5.09013 5.99267 5.31787 5.862 5.5232 5.694C5.72853 5.526 5.8928 5.33374 6.016 5.1172ZM1.9896 2.9276C1.9336 3.02467 1.85893 3.0732 1.7656 3.0732C1.7096 3.0732 1.65547 3.0564 1.6032 3.0228C1.536 2.978 1.5024 2.91267 1.5024 2.8268C1.5024 2.782 1.5136 2.7372 1.536 2.6924C1.68907 2.41614 1.89253 2.16974 2.1464 1.9532C2.404 1.73667 2.68773 1.56867 2.9976 1.4492C3.3112 1.326 3.6248 1.2644 3.9384 1.2644C4.31547 1.2644 4.67387 1.34094 5.0136 1.494C5.35707 1.64707 5.652 1.86174 5.8984 2.138C6.1448 2.41054 6.3184 2.72227 6.4192 3.0732C6.46773 3.2412 6.50133 3.4428 6.52 3.678L6.912 3.034C6.9568 2.95934 7.02213 2.922 7.108 2.922C7.16027 2.922 7.21067 2.93507 7.2592 2.9612C7.33013 3.00974 7.3656 3.07134 7.3656 3.146C7.3656 3.202 7.34693 3.25427 7.3096 3.3028L6.6936 4.2268C6.60773 4.34254 6.49947 4.4004 6.3688 4.4004C6.28667 4.4004 6.21013 4.37614 6.1392 4.3276L5.2208 3.7396C5.13867 3.67987 5.0976 3.60894 5.0976 3.5268C5.0976 3.46707 5.11627 3.41667 5.1536 3.3756C5.1984 3.31587 5.25627 3.286 5.3272 3.286C5.38693 3.286 5.44107 3.30467 5.4896 3.342L6.1112 3.7956C6.08133 3.53427 6.02533 3.34574 5.9432 3.23C5.84987 2.94627 5.70053 2.69427 5.4952 2.474C5.2936 2.25 5.05467 2.0764 4.7784 1.9532C4.50213 1.82627 4.2128 1.7628 3.9104 1.7628C3.66027 1.7628 3.41013 1.8132 3.16 1.914C2.90987 2.01107 2.68213 2.1492 2.4768 2.3284C2.27147 2.50387 2.10907 2.7036 1.9896 2.9276Z" fill="#000"/>
</svg>
