<svg width="110" height="68" viewBox="0 0 110 68" fill="none" xmlns="http://www.w3.org/2000/svg"><rect width="110" height="68" rx="6" fill="#fff"/><path d="M84.093 46.725c-12.158 0-16.533-5.922-16.533-13.227 0-7.305 4.108-13.226 16.533-13.226" stroke="#A2A4A6" stroke-width="1.5"/><rect width="18" height="9" rx="1.5" transform="matrix(-1 0 0 1 98 15.77)" fill="#EEE"/><rect width="18" height="9" rx="1.5" transform="matrix(-1 0 0 1 98 42.22)" fill="#EEE"/><path d="M26.541 46.723c12.159 0 16.534-5.922 16.534-13.227 0-7.305-4.108-13.227-16.534-13.227" stroke="#A2A4A6" stroke-width="1.5"/><rect x="14" y="15.77" width="18" height="9" rx="1.5" fill="#EEE"/><rect x="14" y="42.221" width="18" height="9" rx="1.5" fill="#EEE"/><rect x="35.5" y="27" width="41" height="13" rx="2" fill="#E8E8E8"/><path d="M44.795 31.068h1.033V36h-1.033v-3.442h-.037l-1.576 1.887h-.068l-1.566-1.887h-.037V36h-1.033v-4.932h1.033l1.637 2.006 1.647-2.006Zm1.8-.414h1.011v1.012h-1.012v-1.012Zm.006 1.586h.998V36h-.998v-3.76Zm3.819-.082c.462 0 .814.131 1.056.393.242.262.362.644.362 1.145V36h-.998v-2.095c0-.294-.062-.517-.188-.67-.125-.153-.307-.23-.547-.23a.643.643 0 0 0-.502.213c-.132.143-.21.338-.236.584V36h-.998v-3.76h.998v.523h.038a.956.956 0 0 1 .4-.448 1.2 1.2 0 0 1 .615-.157Zm5.74-1.367V36h-.998v-.455h-.041a1.268 1.268 0 0 1-.445.39 1.396 1.396 0 0 1-.656.144 1.58 1.58 0 0 1-.858-.236 1.627 1.627 0 0 1-.588-.667 2.248 2.248 0 0 1-.208-.99c0-.402.07-.755.212-1.06.14-.308.338-.546.591-.715.255-.169.546-.253.872-.253.225 0 .43.046.615.137.187.091.34.219.461.383h.045V30.79h.998Zm-1.935 4.553c.21 0 .385-.048.526-.144a.875.875 0 0 0 .312-.355c.066-.144.099-.284.099-.42v-.54c0-.18-.04-.341-.12-.483a.86.86 0 0 0-.328-.335.91.91 0 0 0-.462-.12.711.711 0 0 0-.44.158 1.057 1.057 0 0 0-.329.438c-.08.189-.12.403-.12.642 0 .223.04.424.12.602.08.175.185.312.315.41a.703.703 0 0 0 .427.147Zm8.872-4.276h1.032V36h-1.032v-3.442h-.038l-1.576 1.887h-.068l-1.565-1.887h-.038V36H58.78v-4.932h1.032l1.637 2.006 1.648-2.006ZM68.119 36h-.998v-.537h-.038a1.018 1.018 0 0 1-.42.445 1.335 1.335 0 0 1-.694.174c-.262 0-.49-.048-.684-.144a1.04 1.04 0 0 1-.44-.416 1.297 1.297 0 0 1-.155-.646c0-.21.06-.4.182-.571.123-.171.298-.315.526-.431.23-.119.502-.203.817-.253.141-.023.268-.039.38-.048.11-.011.27-.024.478-.037-.05-.2-.14-.349-.267-.445-.125-.095-.294-.143-.506-.143-.162 0-.337.018-.526.054-.19.037-.375.088-.557.154l-.16-.741a3.98 3.98 0 0 1 .67-.185c.243-.046.45-.068.621-.068.408 0 .742.063 1.002.191s.452.325.577.591c.126.265.19.605.192 1.022V36Zm-1.918-.653c.155 0 .296-.028.424-.085a.89.89 0 0 0 .318-.233.823.823 0 0 0 .178-.335v-.485a7.816 7.816 0 0 0-.469.027c-.114.01-.243.028-.39.055a.807.807 0 0 0-.413.195.492.492 0 0 0-.157.376c0 .152.044.272.133.359a.533.533 0 0 0 .376.126Zm4.77-3.185c.325 0 .614.084.867.253.256.168.454.406.595.714.141.305.212.658.212 1.06 0 .373-.07.704-.212.99a1.603 1.603 0 0 1-.584.667 1.58 1.58 0 0 1-.858.236c-.25 0-.466-.047-.646-.14a1.306 1.306 0 0 1-.445-.38h-.05v1.689h-.999v-5.01h.998v.454h.034c.119-.169.273-.3.462-.393.189-.094.397-.14.625-.14Zm-.185 3.185a.69.69 0 0 0 .424-.147c.132-.098.238-.235.317-.41.08-.178.12-.378.12-.602 0-.239-.041-.453-.123-.642a1.032 1.032 0 0 0-.325-.438.711.711 0 0 0-.44-.157.91.91 0 0 0-.462.12.859.859 0 0 0-.328.335.962.962 0 0 0-.12.482v.54a1 1 0 0 0 .1.42c.065.141.169.26.31.356a.917.917 0 0 0 .527.143Z" fill="#000"/><path d="M93.5 20.27h-9M93.5 46.72h-9M27.5 20.27h-9M27.5 46.72h-9" stroke="#A2A4A6" stroke-width="1.5" stroke-linecap="round"/></svg>