<svg width="68" height="88" viewBox="0 0 68 88" fill="none" xmlns="http://www.w3.org/2000/svg"><rect width="68" height="88" rx="6" fill="#2D2F31"/><path d="M15.878 18.127c-.501 0-.945-.109-1.33-.325a2.264 2.264 0 0 1-.892-.913c-.21-.392-.314-.845-.314-1.36 0-.513.105-.964.314-1.354.212-.392.51-.695.892-.909.385-.216.829-.325 1.33-.325.499 0 .939.109 1.32.325.382.214.678.517.888.91.212.389.318.84.318 1.353 0 .515-.105.968-.315 1.36-.21.392-.505.696-.888.913-.383.216-.824.325-1.323.325Zm0-.882c.296 0 .557-.071.783-.212.225-.144.4-.346.523-.605.125-.26.188-.56.188-.9 0-.336-.063-.634-.188-.891a1.398 1.398 0 0 0-.523-.598 1.426 1.426 0 0 0-.783-.216c-.299 0-.562.072-.79.216a1.42 1.42 0 0 0-.526.598 2.015 2.015 0 0 0-.188.892c0 .34.063.639.188.899s.3.461.526.605c.228.141.491.212.79.212Zm4.91.834c-.35 0-.657-.065-.924-.195a1.482 1.482 0 0 1-.615-.554 1.583 1.583 0 0 1-.215-.83v-2.26h.998v2.26c0 .161.033.303.099.423.066.119.156.21.27.274a.777.777 0 0 0 .386.096.732.732 0 0 0 .376-.096.66.66 0 0 0 .256-.274.92.92 0 0 0 .093-.423v-2.26h.998v2.26c0 .314-.07.59-.209.83a1.423 1.423 0 0 1-.598.554c-.26.13-.565.195-.916.195Zm3.897-2.97v1.537a.9.9 0 0 0 .044.318c.03.073.075.125.137.154.064.03.148.045.253.045h.317V18h-.553v-.014l-.004.014c-.387 0-.683-.105-.888-.314-.203-.21-.305-.515-.305-.916v-1.662h-.615v-.868h.615v-.837l.999-.342v1.18h.786v.867h-.786Zm2.882 2.054V18h-.284c-.323 0-.568-.034-.735-.102a.633.633 0 0 1-.352-.366c-.066-.173-.099-.427-.099-.762v-3.986h.998v3.862c0 .158.012.273.034.346.025.07.066.117.123.14.06.02.152.03.277.03h.038Zm.695-4.509h1.011v1.012h-1.011v-1.012Zm.007 1.586h.998V18h-.998v-3.76Zm3.818-.082c.463 0 .815.131 1.057.393.241.262.362.644.362 1.145V18h-.998v-2.095c0-.294-.063-.518-.188-.67-.126-.153-.308-.23-.547-.23a.643.643 0 0 0-.503.213c-.132.143-.21.338-.235.584V18h-.998v-3.76h.998v.523h.037a.956.956 0 0 1 .4-.448 1.2 1.2 0 0 1 .615-.157Zm3.891 3.924c-.408 0-.758-.077-1.05-.232a1.568 1.568 0 0 1-.662-.67c-.153-.292-.23-.64-.233-1.043a2.37 2.37 0 0 1 .209-1.039c.143-.3.346-.532.608-.694.262-.164.566-.245.913-.242.364.006.679.086.943.239.264.15.467.364.608.643.142.275.212.599.212.97 0 .132-.007.275-.02.427H35.02c.01.251.104.445.284.582.18.136.416.204.707.204a2.706 2.706 0 0 0 1.173-.273l.164.759a2.474 2.474 0 0 1-.67.287c-.217.055-.45.082-.701.082Zm.57-2.31a.772.772 0 0 0-.095-.39.637.637 0 0 0-.267-.26.828.828 0 0 0-.4-.092.817.817 0 0 0-.4.096.675.675 0 0 0-.273.263.757.757 0 0 0-.095.383h1.53Zm2.582-.957c.117-.203.266-.362.448-.476.182-.116.4-.175.653-.177v.875c-.33 0-.579.058-.745.174a.795.795 0 0 0-.328.465c-.05.194-.077.449-.079.765V18h-.995v-3.76h.995v.575h.051Z" fill="#fff"/><path d="m16.256 27.752-2.287-1.555a.3.3 0 0 0-.469.248v3.11a.3.3 0 0 0 .469.248l2.287-1.555a.3.3 0 0 0 0-.496ZM16.256 36.752l-2.287-1.555a.3.3 0 0 0-.469.248v3.11a.3.3 0 0 0 .469.248l2.287-1.555a.3.3 0 0 0 0-.496ZM14.748 47.378l1.555-2.288a.3.3 0 0 0-.248-.469h-3.11a.3.3 0 0 0-.248.469l1.555 2.288a.3.3 0 0 0 .496 0ZM20 52h2v2h-2zM20 59h2v2h-2zM20 66h2v2h-2z" fill="#BEBFC0"/><path d="M20 28h19M26 53h17M20 37h29M26 60h13M26 67h23M20 46h12" stroke="#A2A4A6" stroke-width="1.5" stroke-linecap="round"/></svg>