<svg width="110" height="62" viewBox="0 0 110 62" fill="none" xmlns="http://www.w3.org/2000/svg"><rect width="110" height="62" rx="6" fill="#fff"/><path d="M11.276 8.068c.37 0 .695.067.978.202.283.134.501.324.656.57.157.244.236.527.236.848 0 .337-.078.633-.232.889a1.569 1.569 0 0 1-.657.594 2.157 2.157 0 0 1-.977.212h-.77V13H9.48V8.068h1.797Zm-.03 2.434c.17 0 .322-.032.454-.096a.733.733 0 0 0 .304-.27.707.707 0 0 0 .11-.39A.772.772 0 0 0 12 9.33a.73.73 0 0 0-.311-.28 1.04 1.04 0 0 0-.465-.1h-.697v1.553h.718Zm2.53-2.848h1.012v1.012h-1.012V7.654Zm.007 1.586h.998V13h-.998V9.24Zm3.176.868v1.538a.9.9 0 0 0 .044.318c.03.073.076.124.137.154.064.03.148.045.253.045h.318V13h-.554v-.014l-.003.014c-.388 0-.684-.105-.889-.315-.203-.21-.304-.514-.304-.915v-1.662h-.615V9.24h.615v-.837l.998-.342v1.18h.786v.867h-.786Zm3.176 2.154c.187 0 .357-.036.51-.106.152-.07.289-.186.41-.346l.584.459c-.321.542-.822.813-1.504.813-.373 0-.708-.083-1.005-.25a1.83 1.83 0 0 1-.7-.693 2.087 2.087 0 0 1-.264-1.012v-.014c.007-.378.095-.715.264-1.011a1.83 1.83 0 0 1 .7-.694c.297-.167.632-.25 1.005-.25.682 0 1.183.271 1.504.814l-.584.458a1.096 1.096 0 0 0-.41-.345 1.197 1.197 0 0 0-.51-.106.912.912 0 0 0-.509.147c-.15.095-.27.23-.359.403-.087.173-.132.37-.137.591.005.221.05.418.137.591.089.174.209.31.359.407.15.096.32.144.51.144Zm4.079-3.104c.462 0 .815.131 1.056.393.242.262.362.644.362 1.145V13h-.998v-2.095c0-.294-.062-.518-.188-.67-.125-.153-.307-.23-.547-.23a.642.642 0 0 0-.502.213c-.132.143-.21.338-.236.584V13h-.998V7.941h.998v1.832h.034a.954.954 0 0 1 .397-.454c.182-.107.39-.16.622-.16Z" fill="#000"/><path d="M57 26.5h26M57 32.5h33M57 38.5h16" stroke="#BEBFC0" stroke-width="1.5" stroke-linecap="round"/><rect x="29.5" y="24.801" width="22" height="15.172" rx="1.5" stroke="#A2A4A6" stroke-width="1.5" stroke-linecap="round"/><path d="m42.414 35.836-3.591-4.972a1.1 1.1 0 0 0-1.784 0l-3.59 4.972M46.552 35.835 44.388 32.9a1.1 1.1 0 0 0-1.77 0l-.894 1.212" stroke="#A2A4A6" stroke-width="1.5" stroke-linecap="round"/><path d="M46.933 29.198a.398.398 0 1 1-.797 0 .398.398 0 0 1 .797 0Z" fill="#A2A4A6" stroke="#A2A4A6" stroke-width="1.1"/></svg>