<svg width="18" height="18" viewBox="0 0 18 18" fill="none" xmlns="http://www.w3.org/2000/svg"><path d="M5.75 2a.75.75 0 0 0-1.5 0v12.848c0 .122.03.238.081.34.08.174.226.317.42.39 1.405.524 2.444.65 3.297.495.843-.154 1.409-.57 1.842-.888l.026-.019c.447-.329.748-.538 1.192-.61.45-.072 1.154-.013 2.37.495a.75.75 0 1 0 .58-1.383c-1.348-.564-2.352-.727-3.189-.592-.823.132-1.382.543-1.81.858l-.031.023c-.444.326-.766.552-1.249.64-.423.077-1.044.057-2.029-.26v-5.13c.88.235 1.597.283 2.216.185.85-.135 1.42-.534 1.863-.857l.055-.041c.426-.312.703-.514 1.096-.607.394-.094 1-.091 2.055.295a.75.75 0 0 0 .516-1.408c-1.219-.447-2.139-.531-2.916-.347-.701.166-1.209.54-1.595.826l-.096.07c-.412.302-.737.512-1.213.587-.422.067-1.033.037-1.981-.268V2Z" fill="#27292A"/></svg>