<svg width="40" height="40" viewBox="0 0 40 40" fill="none" xmlns="http://www.w3.org/2000/svg"><path d="M20.379 28.432c2.314 0 4.368-.392 6.16-1.176 1.792-.803 3.182-1.923 4.172-3.36.99-1.437 1.484-3.07 1.484-4.9 0-1.923-.514-3.64-1.54-5.152-1.027-1.53-2.464-2.716-4.312-3.556-1.83-.84-3.93-1.26-6.3-1.26-2.39 0-4.508.42-6.356 1.26-1.848.84-3.286 2.016-4.312 3.528-1.027 1.512-1.54 3.239-1.54 5.18 0 1.53.43 2.996 1.288 4.396a9.584 9.584 0 0 0 3.472 3.276c.354.168.644.43.868.784.224.355.336.737.336 1.148v2.968c0 .28.121.345.364.196l3.864-2.576a4.253 4.253 0 0 1 1.176-.532 4.07 4.07 0 0 1 1.288-.224h-.112Zm-.7 1.736-4.76 3.024c-.542.355-1.027.532-1.456.532-.43 0-.766-.177-1.008-.532-.243-.336-.364-.84-.364-1.512l.028-3.304a11.532 11.532 0 0 1-3.136-2.408 11.495 11.495 0 0 1-2.128-3.332c-.504-1.213-.756-2.427-.756-3.64 0-2.259.588-4.275 1.764-6.048 1.194-1.773 2.846-3.155 4.956-4.144 2.128-1.008 4.536-1.512 7.224-1.512 2.67 0 5.058.504 7.168 1.512 2.128.99 3.78 2.38 4.956 4.172 1.194 1.773 1.792 3.78 1.792 6.02 0 2.147-.579 4.07-1.736 5.768-1.158 1.699-2.772 3.024-4.844 3.976-2.054.952-4.387 1.428-7 1.428h-.7Z" fill="#000"/></svg>