<svg width="40" height="40" viewBox="0 0 40 40" fill="none" xmlns="http://www.w3.org/2000/svg"><path d="M8.675 10.036c-.355 0-.654.112-.896.336-.224.224-.336.513-.336.868v14.672c0 .355.112.644.336.868.224.224.522.336.896.336h4.2c.43 0 .784.14 1.064.42.28.28.42.644.42 1.092v2.716c0 .112.018.177.056.196.056.037.13.028.224-.028l4.564-3.584c.317-.243.7-.439 1.148-.588a4.07 4.07 0 0 1 1.288-.224h9.66c.354 0 .644-.112.868-.336.224-.224.336-.513.336-.868V11.24c0-.355-.112-.635-.336-.84-.224-.224-.514-.345-.868-.364H8.675Zm-2.968 1.12c0-.84.261-1.521.784-2.044.522-.523 1.194-.784 2.016-.784h22.932c.821 0 1.493.261 2.016.784.522.523.784 1.204.784 2.044v14.868c0 .821-.262 1.503-.784 2.044-.523.523-1.195.784-2.016.784H20.883l-5.544 4.284c-.542.41-1.036.616-1.484.616-.392 0-.7-.168-.924-.504-.206-.336-.308-.821-.308-1.456v-2.94h-4.06c-.84 0-1.53-.261-2.072-.784-.523-.523-.784-1.195-.784-2.016V11.156Z" fill="#000"/></svg>