<svg width="40" height="40" viewBox="0 0 40 40" fill="none" xmlns="http://www.w3.org/2000/svg"><path d="M9.963 9.98c-.766 0-1.382.233-1.848.7-.448.448-.672 1.055-.672 1.82v12.236c0 .765.224 1.381.672 1.848.466.448 1.082.672 1.848.672h2.912c.448 0 .802.14 1.064.42.28.261.43.616.448 1.064v2.632c0 .093.028.15.084.168.056.037.121.028.196-.028l4.536-3.472c.317-.224.7-.41 1.148-.56.466-.15.896-.224 1.288-.224h8.428c.765 0 1.372-.224 1.82-.672.466-.467.7-1.083.7-1.848V12.5c0-.765-.234-1.372-.7-1.82-.448-.467-1.055-.7-1.82-.7H9.963Zm-4.256 2.352c0-1.213.373-2.193 1.12-2.94.746-.765 1.717-1.148 2.912-1.148h20.524c1.213 0 2.193.383 2.94 1.148.746.747 1.12 1.727 1.12 2.94v12.572c0 1.213-.374 2.203-1.12 2.968-.747.747-1.727 1.12-2.94 1.12H20.91l-5.544 4.144c-.579.41-1.083.616-1.512.616-.374 0-.672-.168-.896-.504-.206-.336-.308-.821-.308-1.456v-2.8H9.795c-1.214 0-2.203-.373-2.968-1.12-.747-.747-1.12-1.717-1.12-2.912V12.332Z" fill="#000"/></svg>