<svg width="56" height="57" viewBox="0 0 56 57" fill="none" xmlns="http://www.w3.org/2000/svg">
<path d="M11.5 28.5C11.5 25.1863 14.1863 22.5 17.5 22.5H39.5C42.8137 22.5 45.5 25.1863 45.5 28.5V38.5C45.5 41.8137 42.8137 44.5 39.5 44.5H17.5C14.1863 44.5 11.5 41.8137 11.5 38.5V28.5Z" stroke="#F1501A" stroke-width="2.5"/>
<path d="M15.5 28.5C15.5 27.3954 16.3954 26.5 17.5 26.5H39.5C40.6046 26.5 41.5 27.3954 41.5 28.5V38.5C41.5 39.6046 40.6046 40.5 39.5 40.5H17.5C16.3954 40.5 15.5 39.6046 15.5 38.5V28.5Z" fill="#FF764D" fill-opacity="0.14"/>
<path d="M13.1693 16.4772L1.56763 11.9194C1.16121 11.7598 0.759762 12.1612 0.919425 12.5676L5.47721 24.1693C5.6502 24.6096 6.28133 24.5857 6.42047 24.1335L7.92215 19.253C7.97085 19.0947 8.09474 18.9708 8.253 18.9222L13.1335 17.4205C13.5857 17.2813 13.6096 16.6502 13.1693 16.4772Z" fill="#F1501A"/>
</svg>
