<svg width="56" height="56" viewBox="0 0 56 56" fill="none" xmlns="http://www.w3.org/2000/svg">
<path opacity="0.18" fill-rule="evenodd" clip-rule="evenodd" d="M9 18.3C9 13.1638 13.1638 9 18.3 9H38.3C43.4362 9 47.6 13.1638 47.6 18.3V38.3C47.6 43.4362 43.4362 47.6 38.3 47.6H18.3C13.1638 47.6 9 43.4362 9 38.3V18.3ZM18.3 11.6C14.5997 11.6 11.6 14.5997 11.6 18.3V38.3C11.6 42.0003 14.5997 45 18.3 45H38.3C42.0003 45 45 42.0003 45 38.3V18.3C45 14.5997 42.0003 11.6 38.3 11.6H18.3Z" fill="#F1501A"/>
<path fill-rule="evenodd" clip-rule="evenodd" d="M16 17C16 16.4477 16.4477 16 17 16H21C21.5523 16 22 16.4477 22 17V21C22 21.5523 21.5523 22 21 22H17C16.4477 22 16 21.5523 16 21V17ZM25 17C25 16.4477 25.4477 16 26 16H30C30.5523 16 31 16.4477 31 17V21C31 21.5523 30.5523 22 30 22H26C25.4477 22 25 21.5523 25 21V17ZM35 16C34.4477 16 34 16.4477 34 17V21C34 21.5523 34.4477 22 35 22H39C39.5523 22 40 21.5523 40 21V17C40 16.4477 39.5523 16 39 16H35ZM16 26C16 25.4477 16.4477 25 17 25H21C21.5523 25 22 25.4477 22 26V30C22 30.5523 21.5523 31 21 31H17C16.4477 31 16 30.5523 16 30V26ZM26 25C25.4477 25 25 25.4477 25 26V30C25 30.5523 25.4477 31 26 31H30C30.5523 31 31 30.5523 31 30V26C31 25.4477 30.5523 25 30 25H26ZM34 26C34 25.4477 34.4477 25 35 25H39C39.5523 25 40 25.4477 40 26V30C40 30.5523 39.5523 31 39 31H35C34.4477 31 34 30.5523 34 30V26ZM17 34C16.4477 34 16 34.4477 16 35V39C16 39.5523 16.4477 40 17 40H21C21.5523 40 22 39.5523 22 39V35C22 34.4477 21.5523 34 21 34H17ZM25 35C25 34.4477 25.4477 34 26 34H30C30.5523 34 31 34.4477 31 35V39C31 39.5523 30.5523 40 30 40H26C25.4477 40 25 39.5523 25 39V35ZM35 34C34.4477 34 34 34.4477 34 35V39C34 39.5523 34.4477 40 35 40H39C39.5523 40 40 39.5523 40 39V35C40 34.4477 39.5523 34 39 34H35Z" fill="#F1501A"/>
</svg>
