<svg width="56" height="56" viewBox="0 0 56 56" fill="none" xmlns="http://www.w3.org/2000/svg"><path d="M41 32c-1.122 4.968-2.032 5.878-7 7 4.968 1.122 5.878 2.032 7 7 1.122-4.968 2.032-5.878 7-7-4.968-1.122-5.878-2.032-7-7Z" fill="#F1501A"/><path fill-rule="evenodd" clip-rule="evenodd" d="M17 17a4 4 0 0 0-4 4v14a4 4 0 0 0 4 4h12.846c1.105 0 1.98-1.063 2.864-1.725.236-.177.512-.307.815-.376 2.522-.57 3.398-.983 3.894-1.48.497-.496.91-1.372 1.48-3.894A2.154 2.154 0 0 1 41 29.846c.543 0 2-.667 2-1.21V21a4 4 0 0 0-4-4H17Z" fill="#FF764D" fill-opacity=".14"/><path fill-rule="evenodd" clip-rule="evenodd" d="M17 11.685A9.315 9.315 0 0 0 7.685 21v14A9.315 9.315 0 0 0 17 44.315h21.328c-.31-.949-.593-1.418-.909-1.734-.311-.312-.772-.59-1.695-.896H17A6.685 6.685 0 0 1 10.315 35V21A6.685 6.685 0 0 1 17 14.315h22A6.685 6.685 0 0 1 45.685 21v14c0 .362-.029.717-.084 1.063.551.236 1.343.48 2.536.758.117-.589.178-1.198.178-1.821V21A9.315 9.315 0 0 0 39 11.685H17Z" fill="#F1501A"/></svg>