<svg width="56" height="56" viewBox="0 0 56 56" fill="none" xmlns="http://www.w3.org/2000/svg"><path d="M14.222 35.83c-1.03 0-1.734-.694-1.734-1.746V22.14h-.07l-2.44 1.7c-.323.23-.566.311-.924.311-.705 0-1.226-.508-1.226-1.248 0-.532.208-.925.752-1.307l3.306-2.289c.81-.555 1.365-.659 2.082-.659 1.237 0 1.976.752 1.976 1.954v13.48c0 1.053-.693 1.747-1.722 1.747ZM21.517 35.725a1.853 1.853 0 0 1-1.861-1.861c0-1.04.82-1.861 1.861-1.861 1.029 0 1.861.82 1.861 1.861a1.86 1.86 0 0 1-1.86 1.861Z" fill="#F1501A"/><path fill-rule="evenodd" clip-rule="evenodd" d="M28.29 21.48c0-.727.588-1.316 1.315-1.316H48.02a1.315 1.315 0 0 1 0 2.63H29.605a1.315 1.315 0 0 1-1.316-1.315Zm0 6.313c0-.726.588-1.315 1.315-1.315H48.02a1.315 1.315 0 1 1 0 2.63H29.605a1.315 1.315 0 0 1-1.316-1.315Zm1.315 4.999a1.315 1.315 0 1 0 0 2.63h11.97a1.315 1.315 0 1 0 0-2.63h-11.97Z" fill="#FF764D" fill-opacity=".3"/></svg>