<svg width="56" height="56" viewBox="0 0 56 56" fill="none" xmlns="http://www.w3.org/2000/svg">
<path d="M19.9166 14.968C19.7566 14.968 19.6766 14.888 19.6766 14.728C19.6766 14.6 19.7566 14.504 19.9166 14.44C21.0046 14.28 21.9006 13.72 22.6046 12.76C23.3406 11.8 23.8046 10.536 23.9966 8.96802C23.9966 8.77602 24.0926 8.68002 24.2846 8.68002C24.4446 8.68002 24.5406 8.77602 24.5726 8.96802C24.7326 10.536 25.1646 11.8 25.8686 12.76C26.6046 13.72 27.5326 14.28 28.6526 14.44C28.8126 14.504 28.8926 14.6 28.8926 14.728C28.8926 14.888 28.8126 14.968 28.6526 14.968C27.5646 15.096 26.6526 15.656 25.9166 16.648C25.2126 17.608 24.7646 18.872 24.5726 20.44C24.5406 20.632 24.4446 20.728 24.2846 20.728C24.1246 20.728 24.0126 20.6 23.9486 20.344C23.7566 18.808 23.3086 17.56 22.6046 16.6C21.9006 15.64 21.0046 15.096 19.9166 14.968ZM40.3966 25.96C40.2366 25.96 40.1566 25.88 40.1566 25.72C40.1566 25.56 40.2366 25.48 40.3966 25.48C41.4846 25.288 42.3806 24.712 43.0846 23.752C43.8206 22.76 44.2846 21.496 44.4766 19.96C44.5406 19.768 44.6366 19.672 44.7646 19.672C44.9246 19.672 45.0206 19.768 45.0526 19.96C45.2126 21.496 45.6446 22.76 46.3486 23.752C47.0846 24.712 48.0126 25.288 49.1326 25.48C49.2926 25.48 49.3726 25.56 49.3726 25.72C49.3726 25.88 49.2926 25.96 49.1326 25.96C48.0126 26.152 47.0846 26.744 46.3486 27.736C45.6446 28.696 45.2126 29.944 45.0526 31.48C44.9886 31.64 44.8926 31.72 44.7646 31.72C44.6366 31.72 44.5406 31.592 44.4766 31.336C44.2846 29.832 43.8206 28.616 43.0846 27.688C42.3806 26.728 41.4846 26.152 40.3966 25.96ZM35.6126 11.368C35.4526 11.304 35.3726 11.24 35.3726 11.176C35.3726 11.112 35.4526 11.048 35.6126 10.984C36.4126 10.856 37.0686 10.456 37.5806 9.78402C38.0926 9.08002 38.4126 8.16802 38.5406 7.04802C38.5406 6.92002 38.6046 6.85602 38.7326 6.85602C38.8606 6.85602 38.9246 6.92002 38.9246 7.04802C39.0526 8.16802 39.3726 9.08002 39.8846 9.78402C40.3966 10.488 41.0526 10.888 41.8526 10.984C42.0126 11.048 42.0926 11.112 42.0926 11.176C42.0926 11.24 42.0126 11.304 41.8526 11.368C41.0526 11.496 40.3966 11.912 39.8846 12.616C39.3726 13.288 39.0526 14.184 38.9246 15.304C38.9246 15.432 38.8606 15.496 38.7326 15.496C38.6366 15.496 38.5566 15.416 38.4926 15.256C38.3646 14.168 38.0446 13.288 37.5326 12.616C37.0206 11.912 36.3806 11.496 35.6126 11.368Z" fill="#F1501A"/>
<rect x="33.1575" y="19.5557" width="6" height="14.3903" transform="rotate(45 33.1575 19.5557)" fill="#FF764D" fill-opacity="0.3"/>
<rect x="33.1575" y="19.5557" width="6" height="34" rx="3" transform="rotate(45 33.1575 19.5557)" stroke="#F1501A" stroke-width="2.5"/>
</svg>
