<svg width="56" height="56" viewBox="0 0 56 56" fill="none" xmlns="http://www.w3.org/2000/svg"><path d="M33.947 39.263c-3.025 0-5.057-1.827-5.057-4.56 0-2.601 2.003-4.238 5.51-4.443l4.37-.248v-1.271c0-1.857-1.228-2.967-3.332-2.967-1.652 0-2.777.599-3.625 2.104-.233.424-.57.614-1.052.614-.658 0-1.125-.453-1.125-1.14 0-.322.102-.687.307-1.052.862-1.666 3.083-2.762 5.553-2.762 3.566 0 5.817 1.929 5.817 4.954v9.485c0 .76-.497 1.286-1.199 1.286-.716 0-1.212-.526-1.212-1.286v-1.593h-.059c-.906 1.74-2.85 2.88-4.896 2.88Zm.57-2.163c2.397 0 4.253-1.68 4.253-3.873v-1.242l-4.078.248c-2.046.132-3.215 1.038-3.215 2.47 0 1.447 1.213 2.397 3.04 2.397ZM9.324 39.278c-1.374 0-2.236-.804-2.236-2.076 0-.365.102-.862.292-1.403l5.759-15.681c.614-1.71 1.651-2.5 3.317-2.5 1.725 0 2.748.76 3.376 2.485L25.62 35.8c.204.57.277.965.277 1.403 0 1.213-.92 2.076-2.206 2.076-1.243 0-1.9-.57-2.295-1.944l-1.11-3.332H12.67l-1.11 3.288c-.41 1.403-1.068 1.988-2.237 1.988Zm4.312-8.696h5.626l-2.791-8.637h-.102l-2.733 8.637Z" fill="#F1501A"/><path fill-rule="evenodd" clip-rule="evenodd" d="M40.517 12.276H48v1.223h-3.053v27.225H48v1.224h-7.483v-1.224h3.207V13.5h-3.207v-1.223Z" fill="#F1501A"/><rect x="26.31" y="13.207" width="18.172" height="27.793" rx="2" fill="#FF764D" fill-opacity=".14"/></svg>