<svg width="56" height="56" viewBox="0 0 56 56" fill="none" xmlns="http://www.w3.org/2000/svg"><path fill-rule="evenodd" clip-rule="evenodd" d="M22.793 43.878v1.033h19.234a2.885 2.885 0 0 0 2.885-2.886v-6.731a2.885 2.885 0 0 0-2.885-2.885h-2.82L22.794 43.878Z" fill="#FF764D" fill-opacity=".14"/><path fill-rule="evenodd" clip-rule="evenodd" d="m21.684 44.996 10.835.015h.61l9.085.012a3.027 3.027 0 0 0 3.03-3.03v-7.272a3.037 3.037 0 0 0-3.03-3.038l-1.474-.002-1.743 1.218 3.217.004c1 .001 1.81.814 1.81 1.816v7.273a1.81 1.81 0 0 1-1.81 1.811l-9.085-.012V37l-1.22.852v5.939l-8.482-.011-1.743 1.217ZM32.652 19.514l-.734 2.012 2.715-1.918a1.815 1.815 0 0 1 2.527.435l4.205 5.934a1.81 1.81 0 0 1-.43 2.525l-7.42 5.242-3.996-5.64-.508 1.393 3.508 4.952-7.16 5.058-.734 2.013.105-.074 8.993-6.354.498-.352 7.42-5.243a3.027 3.027 0 0 0 .72-4.224l-4.204-5.934a3.037 3.037 0 0 0-4.23-.727l-1.275.902ZM18.677 12.405a3.738 3.738 0 0 1 4.788-2.23l6.836 2.483a3.726 3.726 0 0 1 2.231 4.78l-2.873 7.877-.449 1.23-3.773 10.345-.449 1.23-.75 2.055c-1.393 3.82-5.625 5.788-9.449 4.399-3.824-1.39-5.799-5.61-4.405-9.431l1.658-4.548 3.313-9.082.005-.012 3.317-9.096Zm11.393 4.138-2.874 7.877-8.93-3.243L21.14 13.3c.21-.575.847-.874 1.428-.663l6.835 2.482c.58.211.876.85.667 1.424Zm-6.635 18.19-.012.032-8.929-3.244 2.875-7.883 8.93 3.244-2.864 7.851Zm-.91 2.493-.75 2.054a4.753 4.753 0 0 1-6.088 2.832 4.738 4.738 0 0 1-2.84-6.075l.749-2.054 8.93 3.243Zm-5.488 2.388a1.211 1.211 0 1 0 0-2.42 1.211 1.211 0 1 0 0 2.42Z" fill="#F35521"/></svg>