<svg width="56" height="56" viewBox="0 0 56 56" fill="none" xmlns="http://www.w3.org/2000/svg">
<path fill-rule="evenodd" clip-rule="evenodd" d="M19 8C15.6863 8 13 10.6863 13 14V18.8175C13.494 18.7624 13.9968 18.7348 14.5083 18.7348C16.8819 18.7348 19.0577 19.3141 21.0356 20.4727C23.0419 21.6029 24.6243 23.1571 25.7828 25.135C26.9414 27.113 27.5206 29.2888 27.5206 31.6624C27.5206 33.1902 27.2806 34.6361 26.8006 36H43C46.3137 36 49 33.3137 49 30V14C49 10.6863 46.3137 8 43 8H19Z" fill="#FF764D" fill-opacity="0.14"/>
<path fill-rule="evenodd" clip-rule="evenodd" d="M19.8203 13.404C19.4834 13.404 19.2103 13.6771 19.2103 14.014C19.2103 14.3509 19.4834 14.624 19.8203 14.624H21.4175C24.6651 14.624 27.1963 17.0046 27.1963 19.822V21.39H22.448C22.949 21.7637 23.417 22.1704 23.852 22.61H27.1963V24.178C27.1963 25.0492 26.9543 25.8787 26.5238 26.6089C26.7192 27.0706 26.8859 27.5421 27.0238 28.0234C27.8957 26.9584 28.4163 25.6317 28.4163 24.178V22.61H33.5842V24.178C33.5842 27.776 36.7737 30.596 40.583 30.596H42.1802C42.5171 30.596 42.7902 30.3229 42.7902 29.986C42.7902 29.6491 42.5171 29.376 42.1802 29.376H40.583C37.3354 29.376 34.8042 26.9954 34.8042 24.178V22.61H42.1811C42.518 22.61 42.7911 22.3369 42.7911 22C42.7911 21.6631 42.518 21.39 42.1811 21.39H34.8042V19.822C34.8042 17.0046 37.3354 14.624 40.583 14.624H42.1802C42.5171 14.624 42.7902 14.3509 42.7902 14.014C42.7902 13.6771 42.5171 13.404 42.1802 13.404H40.583C36.7737 13.404 33.5842 16.224 33.5842 19.822V21.39H28.4163V19.822C28.4163 16.224 25.2268 13.404 21.4175 13.404H19.8203Z" fill="#F1501A"/>
<path d="M14.5138 40.3238C16.111 40.3238 17.5729 39.9429 18.8998 39.1812C20.2512 38.4195 21.3201 37.3752 22.1063 36.0484C22.8926 34.7215 23.2858 33.2595 23.2858 31.6624C23.2858 30.0652 22.8926 28.6033 22.1063 27.2764C21.3201 25.9496 20.2512 24.893 18.8998 24.1067C17.5729 23.3204 16.111 22.9273 14.5138 22.9273C12.9167 22.9273 11.4547 23.3204 10.1278 24.1067C8.801 24.893 7.74443 25.9496 6.95815 27.2764C6.19644 28.6033 5.81559 30.0652 5.81559 31.6624C5.81559 33.2595 6.19644 34.7215 6.95815 36.0484C7.74443 37.3752 8.801 38.4195 10.1278 39.1812C11.4547 39.9429 12.9167 40.3238 14.5138 40.3238ZM14.5138 42.9037C12.4744 42.9037 10.5947 42.4123 8.87471 41.4295C7.15472 40.422 5.79102 39.0583 4.78359 37.3383C3.77617 35.6184 3.27246 33.7264 3.27246 31.6624C3.27246 29.5984 3.77617 27.7064 4.78359 25.9864C5.79102 24.2664 7.15472 22.915 8.87471 21.9322C10.5947 20.9247 12.4744 20.421 14.5138 20.421C16.5778 20.421 18.4698 20.9247 20.1898 21.9322C21.9343 22.915 23.3103 24.2664 24.3178 25.9864C25.3252 27.7064 25.8289 29.5984 25.8289 31.6624C25.8289 33.7264 25.3252 35.6184 24.3178 37.3383C23.3103 39.0583 21.9343 40.422 20.1898 41.4295C18.4698 42.4123 16.5778 42.9037 14.5138 42.9037ZM21.3692 39.218L27.5243 46.5157C27.7209 46.786 27.8192 47.0563 27.8192 47.3266C27.8192 47.7197 27.6717 48.0391 27.3769 48.2848C27.1312 48.506 26.8486 48.6166 26.5292 48.6166C26.1115 48.6166 25.7797 48.4568 25.534 48.1374L19.3789 40.8398L21.3692 39.218Z" fill="#F1501A"/>
<path d="M13.7445 28.793C13.6284 29.2183 13.4869 29.5677 13.3204 29.8416C13.1467 30.1274 12.9182 30.3564 12.6347 30.5287C12.4314 30.6522 12.1863 30.759 11.8996 30.8489C11.7865 30.8844 11.6669 30.9173 11.541 30.9476C11.0957 31.0544 10.5389 31.15 9.86609 31.235C9.75117 31.2489 9.65645 31.2939 9.58195 31.3702C9.50714 31.4468 9.46973 31.5384 9.46973 31.645C9.46973 31.7643 9.50277 31.8583 9.56924 31.9268C9.63568 31.9953 9.73529 32.038 9.85892 32.0541L10.2656 32.101C10.9197 32.1824 11.4553 32.2799 11.8772 32.3942C12.3837 32.5315 12.7779 32.7406 13.0603 33.0214C13.3427 33.3022 13.5582 33.6965 13.7066 34.2046C13.8054 34.543 13.8985 34.9528 13.9859 35.4348L14.1128 36.212C14.1305 36.3344 14.1739 36.4264 14.2435 36.4879C14.3133 36.5496 14.409 36.5802 14.5305 36.5802C14.647 36.5802 14.7404 36.5504 14.8105 36.4903C14.8809 36.4301 14.9272 36.3398 14.9504 36.2206L15.0208 35.8371L15.1622 35.1466C15.2095 34.9334 15.2569 34.7373 15.3045 34.5581C15.4233 34.1105 15.5694 33.7422 15.7428 33.4532C15.9161 33.1642 16.1445 32.9334 16.428 32.7608C16.7115 32.5881 17.0775 32.4498 17.5261 32.3458C17.9728 32.2422 18.5259 32.1457 19.2002 32.0546C19.3191 32.0407 19.4138 31.9959 19.4846 31.9198C19.5564 31.8424 19.5923 31.7508 19.5923 31.645C19.5923 31.5251 19.5592 31.4307 19.4928 31.3622C19.4265 31.2938 19.3272 31.2515 19.1944 31.2348C18.532 31.1509 17.974 31.0571 17.5205 30.9534C17.0669 30.8496 16.6957 30.7118 16.4067 30.5398C16.1179 30.3678 15.8838 30.1375 15.7044 29.8488C15.525 29.5601 15.3798 29.1918 15.2688 28.7439C15.2023 28.4757 15.1376 28.1692 15.0744 27.8227L14.95 27.0759C14.9321 26.9512 14.8886 26.8575 14.8191 26.7947C14.749 26.7315 14.6527 26.7 14.5305 26.7C14.4144 26.7 14.3213 26.7308 14.2516 26.7926C14.1816 26.8545 14.1355 26.9474 14.1127 27.0703L13.9722 27.8127L13.9015 28.146L13.7595 28.7371C13.7545 28.7559 13.7495 28.7745 13.7445 28.793Z" fill="#F1501A"/>
</svg>
