<svg width="56" height="57" viewBox="0 0 56 57" fill="none" xmlns="http://www.w3.org/2000/svg">
<path d="M41.6836 46.0195C41.474 46.0195 41.2871 45.9557 41.123 45.8281C40.9681 45.7096 40.8724 45.5456 40.8359 45.3359L40.5215 43.9961C40.4303 43.9688 40.3346 43.9368 40.2344 43.9004C40.1432 43.8639 40.0384 43.8138 39.9199 43.75L38.7305 44.4746C38.5482 44.584 38.3613 44.6341 38.1699 44.625C37.9785 44.6159 37.8053 44.5293 37.6504 44.3652L36.8574 43.5449C36.7116 43.3991 36.6296 43.2305 36.6113 43.0391C36.6022 42.8477 36.6523 42.6562 36.7617 42.4648L37.459 41.2754C37.4225 41.1751 37.3815 41.0794 37.3359 40.9883C37.2995 40.9062 37.263 40.8197 37.2266 40.7285L35.873 40.4004C35.6634 40.3457 35.4948 40.2409 35.3672 40.0859C35.2487 39.9401 35.1895 39.7578 35.1895 39.5391V38.377C35.1895 38.1855 35.2487 38.0169 35.3672 37.8711C35.4948 37.7161 35.6634 37.6113 35.873 37.5566L37.2129 37.2285C37.2493 37.1283 37.2858 37.0326 37.3223 36.9414C37.3678 36.8411 37.4089 36.75 37.4453 36.668L36.6934 35.4512C36.584 35.278 36.543 35.0957 36.5703 34.9043C36.6068 34.7038 36.6979 34.5306 36.8438 34.3848L37.6504 33.5781C37.8053 33.4232 37.9785 33.332 38.1699 33.3047C38.3704 33.2773 38.5482 33.3184 38.7031 33.4277L39.8926 34.1797C39.9928 34.1159 40.0931 34.0703 40.1934 34.043C40.2936 34.0065 40.403 33.9655 40.5215 33.9199L40.8359 32.5664C40.8724 32.375 40.9681 32.2155 41.123 32.0879C41.2871 31.9512 41.474 31.8828 41.6836 31.8828H42.8594C43.069 31.8828 43.2513 31.9466 43.4062 32.0742C43.5612 32.2018 43.6615 32.3659 43.707 32.5664L44.0352 33.9336C44.1263 33.9701 44.222 34.0065 44.3223 34.043C44.4225 34.0703 44.5273 34.1159 44.6367 34.1797L45.8398 33.4277C46.0039 33.3184 46.1816 33.2773 46.373 33.3047C46.5645 33.332 46.7376 33.4232 46.8926 33.5781L47.7266 34.3848C47.8724 34.5215 47.9544 34.6901 47.9727 34.8906C47.9909 35.0911 47.9453 35.278 47.8359 35.4512L47.0977 36.668C47.1341 36.75 47.1706 36.8366 47.207 36.9277C47.2526 37.0098 47.2982 37.11 47.3438 37.2285L48.6699 37.5566C48.8796 37.6113 49.0482 37.7116 49.1758 37.8574C49.3034 38.0033 49.3672 38.1764 49.3672 38.377V39.5391C49.3672 39.7578 49.3034 39.9401 49.1758 40.0859C49.0573 40.2409 48.8887 40.3457 48.6699 40.4004L47.3164 40.7285C47.2891 40.8197 47.2572 40.9062 47.2207 40.9883C47.1842 41.0794 47.1387 41.1751 47.084 41.2754L47.7812 42.4512C47.8997 42.6517 47.9499 42.8431 47.9316 43.0254C47.9225 43.2168 47.8451 43.39 47.6992 43.5449L46.8926 44.3652C46.7285 44.5293 46.5508 44.6159 46.3594 44.625C46.1771 44.6341 45.9948 44.584 45.8125 44.4746L44.6367 43.75C44.5456 43.8047 44.4453 43.8503 44.3359 43.8867C44.2266 43.9323 44.1263 43.9688 44.0352 43.9961L43.707 45.3359C43.6615 45.5547 43.5612 45.7233 43.4062 45.8418C43.2513 45.9603 43.069 46.0195 42.8594 46.0195H41.6836ZM42.2852 41.2344C42.8958 41.2344 43.4245 41.0111 43.8711 40.5645C44.3268 40.127 44.5547 39.5938 44.5547 38.9648C44.5547 38.3359 44.3268 37.7936 43.8711 37.3379C43.4245 36.8822 42.8958 36.6589 42.2852 36.668C41.638 36.6771 41.0957 36.9049 40.6582 37.3516C40.2207 37.7982 40.002 38.3359 40.002 38.9648C40.002 39.5938 40.2207 40.127 40.6582 40.5645C41.0957 41.0111 41.638 41.2344 42.2852 41.2344Z" fill="#F1501A"/>
<path d="M30.6504 30.7617C31.8171 30.7617 32.9017 30.8893 33.9043 31.1445C34.916 31.3906 35.8411 31.7279 36.6797 32.1562C35.6953 32.9674 34.9069 33.9609 34.3145 35.1367C33.7311 36.3125 33.4395 37.584 33.4395 38.9512C33.4395 39.6621 33.526 40.3366 33.6992 40.9746H22.0645C20.9798 40.9746 20.2188 40.8197 19.7812 40.5098C19.3529 40.209 19.1387 39.7578 19.1387 39.1562C19.1387 38.2812 19.403 37.3561 19.9316 36.3809C20.4694 35.4056 21.235 34.4941 22.2285 33.6465C23.2311 32.7897 24.4388 32.097 25.8516 31.5684C27.2734 31.0306 28.873 30.7617 30.6504 30.7617ZM30.6367 28.3145C29.6615 28.3145 28.7591 28.0501 27.9297 27.5215C27.1003 26.9837 26.4303 26.2591 25.9199 25.3477C25.4186 24.4362 25.168 23.4108 25.168 22.2715C25.168 21.1504 25.4186 20.1478 25.9199 19.2637C26.4303 18.3704 27.1003 17.6686 27.9297 17.1582C28.7591 16.6478 29.6615 16.3926 30.6367 16.3926C31.612 16.3926 32.5143 16.6523 33.3438 17.1719C34.1732 17.6914 34.8385 18.3978 35.3398 19.291C35.8503 20.1842 36.1055 21.1868 36.1055 22.2988C36.1055 23.429 35.8503 24.4499 35.3398 25.3613C34.8385 26.2637 34.1732 26.9837 33.3438 27.5215C32.5143 28.0501 31.612 28.3145 30.6367 28.3145Z" fill="#F1501A"/>
<path d="M7.27148 40.9746C6.4056 40.9746 5.78581 40.806 5.41211 40.4688C5.04753 40.1406 4.86523 39.6712 4.86523 39.0605C4.86523 38.1126 5.09766 37.151 5.5625 36.1758C6.02734 35.2005 6.69271 34.3027 7.55859 33.4824C8.43359 32.653 9.48633 31.9876 10.7168 31.4863C11.9564 30.9759 13.3464 30.7207 14.8867 30.7207C16.1628 30.7207 17.2975 30.8893 18.291 31.2266C19.2845 31.5547 20.1595 31.974 20.916 32.4844C20.1868 33.0586 19.5397 33.724 18.9746 34.4805C18.4095 35.2279 17.9674 36.0026 17.6484 36.8047C17.3294 37.6068 17.1608 38.3724 17.1426 39.1016C17.1335 39.8307 17.3066 40.4551 17.6621 40.9746H7.27148ZM14.9004 28.6289C14.0436 28.6289 13.2552 28.3965 12.5352 27.9316C11.8151 27.4668 11.2318 26.8379 10.7852 26.0449C10.3477 25.252 10.1289 24.3678 10.1289 23.3926C10.1289 22.4173 10.3477 21.5423 10.7852 20.7676C11.2318 19.9928 11.8151 19.3822 12.5352 18.9355C13.2643 18.4798 14.0527 18.252 14.9004 18.252C15.748 18.252 16.5319 18.4753 17.252 18.9219C17.972 19.3594 18.5508 19.9655 18.9883 20.7402C19.4349 21.5059 19.6582 22.3809 19.6582 23.3652C19.6582 24.3496 19.4349 25.2428 18.9883 26.0449C18.5508 26.8379 17.972 27.4668 17.252 27.9316C16.5319 28.3965 15.748 28.6289 14.9004 28.6289Z" fill="#FF764D" fill-opacity="0.3"/>
</svg>
