<svg width="120" height="68" viewBox="0 0 120 68" version="1.1" xmlns="http://www.w3.org/2000/svg" xmlns:xlink="http://www.w3.org/1999/xlink"><defs><path id="step-02_a" d="M0 .083h9.66V17.64H0z"/><path id="step-02_c" d="M.45.363h5.81V12.76H.45z"/><path id="step-02_e" d="m.03 1.432 2.7 5.186 2.185-.87L1.807.65"/><path id="step-02_g" d="m.03 1.432 2.7 5.186 2.185-.87L1.807.65"/></defs><g stroke="none" stroke-width="1" fill="none" fill-rule="evenodd"><g transform="translate(9.5 6.5)"><rect fill="#50A7FD" x="45.864" y="0" width="52.92" height="24.696" rx="2.117"/><g transform="translate(14.523)"><rect fill="#E4E4E4" opacity=".8" x=".5" y=".5" width="24.696" height="24.696" rx="2.117"/><path d="M11.446 6.857h1.011L11.9 10.46h-1.315l.862-3.603Zm2.636 0h1.011l-.558 3.603H13.22l.862-3.603ZM12.288 16.736H13.3l-.558 3.603h-1.315z" fill="#979797" fill-rule="nonzero"/></g><rect x="0" y="0" width="24.696" height="24.696" rx="2.117" transform="translate(0 31.135)" fill="#E4E4E4" opacity=".8"/><rect x="0" y="0" width="68.443" height="24.696" rx="2.117" transform="translate(31.046 31.135)" fill="#E4E4E4" opacity=".8"/><g stroke="#FFF" stroke-linecap="round" stroke-linejoin="round" stroke-width="1.058"><path d="M89.964 9.173h3.175c.39 0 .706.316.706.705v5.645c0 .39-.316.706-.706.706H81.85"/><path d="m85.378 13.406-4.234 2.823 4.234 2.822"/></g><g stroke="#979797" stroke-linecap="round" stroke-linejoin="round" stroke-width="1.058"><path d="m86.918 38.808-5.363 5.645h3.387v4.516h1.976M86.918 38.808l5.362 5.645h-3.387v4.516h-1.975"/></g></g><path fill="#FAFAFB" d="m101.901 25.225.187 2.46 3.173 6.356-.623-.011-2.71-.934-.953.363.124 1.31 4.552 3.573 2.138.898 1.757 2.193 5.42-1.97-.654-1.315-.254-1.788v-4.497l-1.857-3.579-1.666-.54-1.152.065-.896-.012-.858.647h-.634l-1.017.571-2.456-3.883-1.001-.375z"/><path d="M107.37 31.968s-1.974-4.291-3.533-6.424c-.58-.792-1.26-.878-1.607-.724-.345.153-.71.646-.4 1.602.872 2.674 3.51 7.92 3.51 7.92s-3.797-1.665-4.437-.884c-.64.782.324 1.652 1.425 2.505 1.1.853 3.584 2.841 5.016 3.277 1.199.364 1.554 1.193 2.131 2.192" fill="#FAFAFB"/><g transform="translate(100.258 24.234)"><mask id="step-02_b" fill="#fff"><use xlink:href="#step-02_a"/></mask><path d="M9.218 17.64a.44.44 0 0 1-.383-.22l-.172-.305c-.48-.85-.797-1.412-1.704-1.687-1.404-.427-3.672-2.193-4.89-3.14l-.27-.21C.944 11.415.1 10.7.01 9.898c-.04-.339.063-.669.296-.953.584-.714 2.381-.247 3.866.315-.817-1.677-2.376-4.963-3.018-6.936-.39-1.198.102-1.902.64-2.14.546-.245 1.451-.077 2.142.866 1.567 2.144 3.497 6.323 3.578 6.5a.44.44 0 1 1-.8.369c-.02-.044-1.975-4.276-3.49-6.348C2.746.919 2.278.934 2.152.989c-.204.09-.368.423-.16 1.063.85 2.611 3.457 7.806 3.484 7.858a.44.44 0 0 1-.572.603C3.155 9.745 1.284 9.266.982 9.509c-.101.124-.106.22-.098.29.057.498 1.002 1.23 1.456 1.581l.27.211c1.174.913 3.357 2.614 4.605 2.993 1.246.378 1.717 1.214 2.216 2.098l.17.297a.441.441 0 0 1-.383.661" fill="#000" mask="url(#step-02_b)"/></g><path d="M109.969 27.986s.534-.43 1.228-.264c.824.197 1.593 1.199 2.114 2.248 1.306 2.628.949 5.292.56 6.926-.134.559.705 1.877 1.025 2.303" fill="#FAFAFB"/><g transform="translate(109.078 26.88)"><mask id="step-02_d" fill="#fff"><use xlink:href="#step-02_c"/></mask><path d="M5.819 12.761a.44.44 0 0 1-.353-.176c-.054-.072-1.318-1.769-1.102-2.672.594-2.498.418-4.727-.526-6.626C3.289 2.18 2.592 1.409 2.017 1.27c-.464-.114-.838.17-.853.182a.443.443 0 0 1-.618-.076.439.439 0 0 1 .07-.615C.642.74 1.327.2 2.22.413c1.16.277 2.006 1.673 2.407 2.481 1.038 2.089 1.238 4.52.594 7.224-.06.248.429 1.244.949 1.937a.44.44 0 0 1-.352.706" fill="#000" mask="url(#step-02_d)"/></g><path d="M107.97 28.578s.256-.892 1.342-.77c.907.103 1.992 2.686 1.992 2.686" fill="#FAFAFB"/><path d="M111.304 30.935a.442.442 0 0 1-.406-.27c-.526-1.25-1.29-2.38-1.635-2.418-.666-.075-.842.37-.87.46a.445.445 0 0 1-.55.29.437.437 0 0 1-.296-.54c.123-.433.66-1.214 1.815-1.087 1.08.122 2.07 2.291 2.349 2.953a.442.442 0 0 1-.407.612" fill="#000"/><g transform="translate(105.55 25.998)"><mask id="step-02_f" fill="#fff"><use xlink:href="#step-02_e"/></mask><path d="M.45 3.11s.204-.78 1.29-.658c.907.103 1.955 2.764 1.955 2.764" fill="#FAFAFB" mask="url(#step-02_f)"/></g><g transform="translate(105.55 25.998)"><mask id="step-02_h" fill="#fff"><use xlink:href="#step-02_g"/></mask><path d="M3.695 5.656a.44.44 0 0 1-.41-.28C2.787 4.115 2.026 2.929 1.69 2.89c-.65-.075-.796.272-.818.342a.448.448 0 0 1-.545.294.435.435 0 0 1-.305-.529c.104-.397.602-1.11 1.767-.983 1.086.123 2.047 2.357 2.315 3.04a.44.44 0 0 1-.41.602" fill="#000" mask="url(#step-02_h)"/></g></g></svg>