<svg width="120" height="68" viewBox="0 0 120 68" version="1.1" xmlns="http://www.w3.org/2000/svg" xmlns:xlink="http://www.w3.org/1999/xlink"><defs><path id="step-03_a" d="m61.22 46.332 2.699 5.185 2.184-.87-3.107-5.097"/><path id="step-03_c" d="m61.22 46.332 2.699 5.185 2.184-.87-3.107-5.097"/></defs><g transform="translate(0 7)" stroke="none" stroke-width="1" fill="none" fill-rule="evenodd"><rect fill="#50A7FD" x="0" y="30.341" width="120" height="24.696" rx="2.822"/><g transform="translate(1.5)" fill="#E4E4E4" fill-opacity=".8"><rect x="0" y="0" width="24.696" height="24.696" rx="2.117"/><rect x="61.622" y="0" width="24.696" height="24.696" rx="2.117"/><rect x="30.811" y="0" width="24.696" height="24.696" rx="2.117"/><rect x="92.434" y="0" width="24.696" height="24.696" rx="2.117"/></g><path fill="#FAFAFB" d="m57.54 44.126.187 2.46 3.172 6.357-.622-.012-2.71-.934-.953.364.124 1.31 4.552 3.572 2.138.898 1.757 2.194 5.42-1.97-.654-1.316-.254-1.788v-4.497l-1.857-3.578-1.666-.54-1.152.064-.896-.011-.858.646h-.634l-1.017.572-2.456-3.883-1.001-.375z"/><path d="M63.01 50.87s-1.975-4.292-3.534-6.424c-.58-.792-1.26-.879-1.607-.724-.345.153-.71.646-.4 1.601.872 2.674 3.51 7.92 3.51 7.92s-3.797-1.665-4.437-.883c-.64.781.324 1.652 1.425 2.505 1.1.853 3.584 2.84 5.016 3.276 1.199.365 1.554 1.194 2.131 2.193" fill="#FAFAFB"/><path d="M65.115 60.775a.44.44 0 0 1-.383-.22l-.173-.304c-.48-.85-.796-1.413-1.704-1.688-1.403-.427-3.671-2.192-4.89-3.14l-.269-.21c-.856-.663-1.7-1.378-1.79-2.179-.04-.34.063-.67.295-.953.584-.715 2.382-.247 3.866.314-.816-1.677-2.375-4.963-3.017-6.936-.39-1.197.101-1.901.64-2.14.545-.245 1.451-.077 2.142.866 1.567 2.144 3.497 6.323 3.578 6.5a.44.44 0 1 1-.8.369c-.02-.043-1.976-4.276-3.49-6.348-.477-.652-.945-.637-1.072-.582-.203.09-.367.423-.16 1.063.851 2.611 3.458 7.806 3.485 7.859a.44.44 0 0 1-.572.602c-1.749-.767-3.62-1.246-3.922-1.004-.102.125-.106.22-.098.29.056.499 1.002 1.23 1.456 1.582l.27.21c1.174.913 3.357 2.614 4.605 2.993 1.245.379 1.716 1.214 2.216 2.099l.169.296a.441.441 0 0 1-.382.661" fill="#000"/><path d="M65.608 46.887s.534-.43 1.228-.263c.824.196 1.593 1.198 2.114 2.248 1.306 2.627.949 5.292.56 6.925-.134.56.705 1.878 1.025 2.304" fill="#FAFAFB"/><path d="M70.536 58.542a.44.44 0 0 1-.353-.176c-.054-.071-1.318-1.768-1.103-2.672.595-2.497.419-4.727-.525-6.626-.549-1.106-1.246-1.878-1.822-2.015-.463-.114-.837.169-.852.181a.443.443 0 0 1-.619-.076.439.439 0 0 1 .07-.614c.028-.023.713-.564 1.606-.35 1.16.277 2.006 1.674 2.407 2.481 1.038 2.089 1.237 4.52.594 7.224-.06.248.428 1.245.949 1.938a.44.44 0 0 1-.352.705" fill="#000"/><path d="M63.61 47.48s.255-.892 1.34-.77c.908.103 1.993 2.685 1.993 2.685" fill="#FAFAFB"/><path d="M66.943 49.837a.442.442 0 0 1-.407-.27c-.525-1.25-1.289-2.38-1.634-2.419-.666-.075-.842.37-.87.46a.445.445 0 0 1-.55.29.437.437 0 0 1-.296-.54c.123-.432.66-1.214 1.815-1.087 1.08.123 2.07 2.292 2.349 2.953a.442.442 0 0 1-.407.613" fill="#000"/><mask id="step-03_b" fill="#fff"><use xlink:href="#step-03_a"/></mask><path d="M61.638 48.009s.205-.78 1.291-.657c.907.102 1.955 2.763 1.955 2.763" fill="#FAFAFB" mask="url(#step-03_b)"/><mask id="step-03_d" fill="#fff"><use xlink:href="#step-03_c"/></mask><path d="M64.884 50.556a.44.44 0 0 1-.41-.28c-.499-1.263-1.259-2.448-1.594-2.486-.651-.075-.796.271-.818.341a.448.448 0 0 1-.545.295.435.435 0 0 1-.305-.53c.104-.396.601-1.11 1.767-.983 1.085.124 2.047 2.358 2.315 3.04a.44.44 0 0 1-.41.603" fill="#000" mask="url(#step-03_d)"/></g></svg>