<svg width="120" height="68" viewBox="0 0 120 68" version="1.1" xmlns="http://www.w3.org/2000/svg" xmlns:xlink="http://www.w3.org/1999/xlink"><defs><path id="step-01_a" d="M0 .083h9.66V17.64H0z"/><path id="step-01_c" d="M.45.363h5.81V12.76H.45z"/><path id="step-01_e" d="m.03 1.432 2.7 5.186 2.185-.87L1.807.65"/><path id="step-01_g" d="m.03 1.432 2.7 5.186 2.185-.87L1.807.65"/></defs><g stroke="none" stroke-width="1" fill="none" fill-rule="evenodd"><g transform="translate(5.5 4)"><rect fill="#50A7FD" x="0" y="30.752" width="47.275" height="24.696" rx="2.117"/><g transform="translate(52.92 30.752)"><rect fill="#E4E4E4" opacity=".8" x=".5" y="0" width="24.696" height="24.696" rx="2.117"/><path d="M16.983 17.882h-1.26l-.762-1.048c-.434.186-.918.279-1.451.279-2.115 0-3.411-1.458-3.411-3.796v-1.215c0-2.35 1.296-3.802 3.41-3.802 2.115 0 3.412 1.452 3.412 3.802v1.215c0 1.266-.379 2.295-1.092 2.959l1.154 1.606Zm-5.75-4.558c0 1.736.863 2.784 2.27 2.79.304 0 .59-.05.838-.155l-1.129-1.55h1.253l.7.949c.41-.478.62-1.172.62-2.034v-1.228c0-1.724-.868-2.772-2.275-2.772-1.408 0-2.276 1.048-2.276 2.772v1.228Z" fill="#979797" fill-rule="nonzero"/></g><rect x=".369" y=".194" width="24.696" height="24.696" rx="2.117" transform="translate(84.26 30.752)" fill="#E4E4E4" opacity=".8"/><rect x="0" y=".5" width="24.696" height="24.696" rx="2.117" fill="#E4E4E4" opacity=".8"/><g transform="translate(30.635)" fill="#E4E4E4" opacity=".8"><rect x=".517" y=".5" width="24.696" height="24.696" rx="2.117"/><rect x="31.365" y=".5" width="24.696" height="24.696" rx="2.117"/></g><g stroke="#FFF" stroke-linecap="round" stroke-linejoin="round" stroke-width="1.058"><path d="M18.063 43.453v7.903M4.234 47.404H15.24L11.5 44.5M11.5 50.5l3.741-3.096"/></g></g><path fill="#FAFAFB" d="m35.954 50.682.187 2.46 3.173 6.357-.623-.012-2.71-.934-.953.364.124 1.31 4.552 3.572 2.138.898 1.757 2.194 5.421-1.97-.655-1.316-.254-1.788V57.32l-1.857-3.578-1.666-.54-1.152.064-.896-.011-.858.646h-.633l-1.018.572-2.456-3.883-1-.375z"/><path d="M41.424 57.425s-1.975-4.29-3.534-6.423c-.58-.792-1.26-.879-1.607-.724-.345.153-.71.646-.4 1.601.872 2.674 3.51 7.92 3.51 7.92s-3.797-1.665-4.437-.883c-.64.781.324 1.652 1.425 2.505 1.1.853 3.584 2.84 5.017 3.276 1.198.365 1.554 1.194 2.13 2.193" fill="#FAFAFB"/><g transform="translate(34.311 49.691)"><mask id="step-01_b" fill="#fff"><use xlink:href="#step-01_a"/></mask><path d="M9.218 17.64a.44.44 0 0 1-.383-.22l-.172-.305c-.48-.85-.797-1.412-1.704-1.687-1.404-.427-3.672-2.193-4.89-3.14l-.27-.21C.944 11.415.1 10.7.01 9.898c-.04-.339.063-.669.296-.953.584-.714 2.381-.247 3.866.315-.817-1.677-2.376-4.963-3.018-6.936-.39-1.198.102-1.902.64-2.14.546-.245 1.451-.077 2.142.866 1.567 2.144 3.497 6.323 3.578 6.5a.44.44 0 1 1-.8.369c-.02-.044-1.975-4.276-3.49-6.348C2.746.919 2.278.934 2.152.989c-.204.09-.368.423-.16 1.063.85 2.611 3.457 7.806 3.484 7.858a.44.44 0 0 1-.572.603C3.155 9.745 1.284 9.266.982 9.509c-.101.124-.106.22-.098.29.057.498 1.002 1.23 1.456 1.581l.27.211c1.174.913 3.357 2.614 4.605 2.993 1.246.378 1.717 1.214 2.216 2.098l.17.297a.441.441 0 0 1-.383.661" fill="#000" mask="url(#step-01_b)"/></g><path d="M44.022 53.443s.534-.43 1.229-.263c.823.196 1.592 1.198 2.114 2.248 1.305 2.627.948 5.292.559 6.925-.133.56.705 1.878 1.026 2.304" fill="#FAFAFB"/><g transform="translate(43.131 52.337)"><mask id="step-01_d" fill="#fff"><use xlink:href="#step-01_c"/></mask><path d="M5.819 12.761a.44.44 0 0 1-.353-.176c-.054-.072-1.318-1.769-1.102-2.672.594-2.498.418-4.727-.526-6.626C3.289 2.18 2.592 1.409 2.017 1.27c-.464-.114-.838.17-.853.182a.443.443 0 0 1-.618-.076.439.439 0 0 1 .07-.615C.642.74 1.327.2 2.22.413c1.16.277 2.006 1.673 2.407 2.481 1.038 2.089 1.238 4.52.594 7.224-.06.248.429 1.244.949 1.937a.44.44 0 0 1-.352.706" fill="#000" mask="url(#step-01_d)"/></g><path d="M42.024 54.035s.255-.891 1.341-.77c.907.104 1.993 2.686 1.993 2.686" fill="#FAFAFB"/><path d="M45.357 56.393a.442.442 0 0 1-.406-.27c-.526-1.25-1.29-2.38-1.635-2.419-.666-.075-.842.37-.87.46a.445.445 0 0 1-.55.29.437.437 0 0 1-.296-.54c.124-.432.66-1.214 1.815-1.087 1.08.123 2.071 2.292 2.349 2.953a.442.442 0 0 1-.407.613" fill="#000"/><g transform="translate(39.603 51.455)"><mask id="step-01_f" fill="#fff"><use xlink:href="#step-01_e"/></mask><path d="M.45 3.11s.204-.78 1.29-.658c.907.103 1.955 2.764 1.955 2.764" fill="#FAFAFB" mask="url(#step-01_f)"/></g><g transform="translate(39.603 51.455)"><mask id="step-01_h" fill="#fff"><use xlink:href="#step-01_g"/></mask><path d="M3.695 5.656a.44.44 0 0 1-.41-.28C2.787 4.115 2.026 2.929 1.69 2.89c-.65-.075-.796.272-.818.342a.448.448 0 0 1-.545.294.435.435 0 0 1-.305-.529c.104-.397.602-1.11 1.767-.983 1.086.123 2.047 2.357 2.315 3.04a.44.44 0 0 1-.41.602" fill="#000" mask="url(#step-01_h)"/></g></g></svg>