<svg width="16" height="16" viewBox="0 0 16 16" fill="none" xmlns="http://www.w3.org/2000/svg"><path fill-rule="evenodd" clip-rule="evenodd" d="M3.694 12.381c.14.09.287.176.439.256 2.874 1.522 6.345.497 7.79-2.126 1.417-2.573.444-5.89-2.336-7.43a7.829 7.829 0 0 1-.16 3.86c-.834 2.793-3.082 4.756-5.733 5.44Zm-1.191-1.293c-.83.11-1.409 1.022-.81 1.608.5.49 1.082.92 1.738 1.267 3.55 1.88 7.94.658 9.806-2.729 1.865-3.386.499-7.654-3.051-9.534a7.63 7.63 0 0 0-1.178-.502c-.796-.263-1.351.671-1.086 1.466a6.354 6.354 0 0 1 .067 3.848c-.753 2.524-2.951 4.239-5.486 4.576Z" fill="#27292A"/></svg>