<svg width="16" height="16" viewBox="0 0 16 16" fill="none" xmlns="http://www.w3.org/2000/svg"><path d="M8.75 1a.75.75 0 0 0-1.5 0v.5a.75.75 0 0 0 1.5 0V1ZM8.75 14.5a.75.75 0 0 0-1.5 0v.5a.75.75 0 0 0 1.5 0v-.5ZM13.48 3.58a.75.75 0 1 0-1.06-1.06l-.354.353a.75.75 0 0 0 1.06 1.061l.354-.353ZM3.934 13.127a.75.75 0 1 0-1.06-1.061l-.354.353a.75.75 0 0 0 1.06 1.061l.354-.354ZM15.75 8a.75.75 0 0 1-.75.75h-.5a.75.75 0 0 1 0-1.5h.5a.75.75 0 0 1 .75.75ZM2.25 8a.75.75 0 0 1-.75.75H1a.75.75 0 0 1 0-1.5h.5a.75.75 0 0 1 .75.75ZM12.42 13.48a.75.75 0 0 0 1.06-1.06l-.353-.354a.75.75 0 0 0-1.061 1.06l.353.354ZM2.874 3.934a.75.75 0 0 0 1.06-1.06l-.353-.354A.75.75 0 1 0 2.52 3.58l.354.354Z" fill="#27292A"/><path fill-rule="evenodd" clip-rule="evenodd" d="M8 4.25a3.75 3.75 0 1 0 0 7.5 3.75 3.75 0 0 0 0-7.5ZM5.75 8a2.25 2.25 0 1 1 4.5 0 2.25 2.25 0 0 1-4.5 0Z" fill="#27292A"/></svg>