<svg width="16" height="16" viewBox="0 0 16 16" fill="none" xmlns="http://www.w3.org/2000/svg"><path fill-rule="evenodd" clip-rule="evenodd" d="M4.158 12.061a6.867 6.867 0 0 1-.614-.714c-.248-.334.055-.774.47-.775a5.844 5.844 0 0 0 .78-.053h.004a5.862 5.862 0 0 0 4.85-4.246A6.195 6.195 0 0 0 9.56 2.62l-.003-.008a6.334 6.334 0 0 0-.3-.74c-.179-.373.089-.83.494-.746a6.358 6.358 0 0 1 .92.266l.02.007c.302.113.599.25.89.413 3.124 1.742 4.326 5.7 2.684 8.84-1.641 3.14-5.505 4.273-8.63 2.53a6.614 6.614 0 0 1-1.468-1.111l-.01-.01Zm2-.311c.068.042.138.083.208.122 2.4 1.338 5.326.464 6.57-1.915 1.18-2.257.447-5.1-1.649-6.562a7.663 7.663 0 0 1-.197 3.288A7.368 7.368 0 0 1 6.16 11.75Z" fill="#27292A"/><path d="M5.708 5.024c.113 0 .179-.06.196-.183.03-.278.065-.496.102-.655a.732.732 0 0 1 .176-.36.776.776 0 0 1 .365-.183c.161-.042.386-.083.672-.126.131-.02.196-.085.196-.196 0-.105-.058-.17-.174-.196a9.772 9.772 0 0 1-.682-.153.904.904 0 0 1-.372-.183.664.664 0 0 1-.181-.343 5.499 5.499 0 0 1-.102-.645c-.017-.122-.083-.183-.196-.183-.117 0-.182.06-.196.179-.034.286-.07.51-.109.67a.747.747 0 0 1-.179.362.75.75 0 0 1-.366.18 7.71 7.71 0 0 1-.683.116.22.22 0 0 0-.124.066.18.18 0 0 0-.051.13c0 .105.057.17.17.196.296.06.525.111.688.155a.834.834 0 0 1 .366.183c.081.079.14.194.177.348.037.153.074.369.11.647.006.048.028.09.065.123.037.034.08.051.132.051ZM2.787 8.722c-.025.179-.12.268-.287.268a.275.275 0 0 1-.193-.075.285.285 0 0 1-.094-.18 9.801 9.801 0 0 0-.162-.948c-.054-.225-.14-.394-.259-.508-.118-.115-.297-.204-.536-.268A17.15 17.15 0 0 0 .25 6.783C.083 6.746 0 6.65 0 6.496c0-.075.025-.138.075-.19a.322.322 0 0 1 .18-.097c.429-.058.762-.115 1.001-.171.24-.056.418-.143.536-.262.119-.118.206-.295.262-.53.056-.235.11-.562.16-.982.02-.174.116-.262.286-.262.166 0 .262.09.287.269.046.407.095.722.15.944.053.222.142.39.264.502.123.112.305.201.546.268.241.066.573.141.997.224.17.038.256.133.256.287 0 .162-.096.258-.287.287-.42.062-.748.124-.985.184s-.414.15-.533.268c-.118.118-.205.294-.259.527a8.819 8.819 0 0 0-.15.96Z" fill="#27292A"/></svg>