<svg width="16" height="16" viewBox="0 0 16 16" fill="none" xmlns="http://www.w3.org/2000/svg"><path fill-rule="evenodd" clip-rule="evenodd" d="M7.994.082a.75.75 0 0 1 .75.75v1.8a.75.75 0 1 1-1.5 0v-1.8a.75.75 0 0 1 .75-.75Zm5.6 2.32a.75.75 0 0 1 0 1.06L12.32 4.735a.75.75 0 0 1-1.06-1.06L12.532 2.4a.75.75 0 0 1 1.06 0Zm-11.2 0a.75.75 0 0 1 1.061 0l1.273 1.272a.75.75 0 1 1-1.06 1.06L2.394 3.463a.75.75 0 0 1 0-1.06ZM8 5.75a2.25 2.25 0 1 0 0 4.5 2.25 2.25 0 0 0 0-4.5ZM4.25 8a3.75 3.75 0 1 1 7.5 0 3.75 3.75 0 0 1-7.5 0Zm8.363.001a.75.75 0 0 1 .75-.75h1.8a.75.75 0 1 1 0 1.5h-1.8a.75.75 0 0 1-.75-.75Zm-12.538 0a.75.75 0 0 1 .75-.75h1.8a.75.75 0 0 1 0 1.5h-1.8a.75.75 0 0 1-.75-.75Zm4.653 3.266a.75.75 0 0 1 0 1.06l-1.273 1.274a.75.75 0 0 1-1.06-1.061l1.272-1.273a.75.75 0 0 1 1.061 0Zm6.532 0a.75.75 0 0 1 1.061 0l1.273 1.273a.75.75 0 0 1-1.06 1.06l-1.274-1.272a.75.75 0 0 1 0-1.06ZM7.994 12.62a.75.75 0 0 1 .75.75v1.8a.75.75 0 0 1-1.5 0v-1.8a.75.75 0 0 1 .75-.75Z" fill="#27292A"/></svg>