<svg width="20" height="20" viewBox="0 0 20 20" fill="none" xmlns="http://www.w3.org/2000/svg"><path d="M14.403 15.089c.187 0 .345.06.476.182.13.121.196.27.196.448a.587.587 0 0 1-.196.448.648.648 0 0 1-.476.196l-3.85-.014c-.336 0-.611-.103-.826-.308-.205-.196-.308-.462-.308-.798v-4.62H5.583a.674.674 0 0 1-.476-.182.609.609 0 0 1-.182-.448c0-.177.06-.327.182-.448.13-.13.29-.196.476-.196h3.85V4.757c0-.336.103-.607.308-.812.205-.205.471-.308.798-.308h3.864c.187 0 .34.065.462.196.13.121.196.27.196.448a.587.587 0 0 1-.196.448.626.626 0 0 1-.462.182h-3.388c-.205 0-.308.103-.308.308v9.548c0 .205.103.308.308.308l3.388.014Z" fill="#27292A"/></svg>