<svg width="20" height="20" viewBox="0 0 20 20" fill="none" xmlns="http://www.w3.org/2000/svg"><path d="M8.173 9.363c.513 0 .933-.233 1.26-.7.327-.467.49-1.064.49-1.792-.028-.635.065-1.2.28-1.694.224-.495.546-.877.966-1.148.42-.28.905-.42 1.456-.42h1.036c.196 0 .355.06.476.182a.626.626 0 0 1 .182.462c0 .187-.06.34-.182.462a.674.674 0 0 1-.476.168h-1.036c-.457 0-.821.173-1.092.518-.27.345-.392.789-.364 1.33.019.728-.103 1.377-.364 1.946-.261.57-.635 1.003-1.12 1.302.476.308.84.756 1.092 1.344.252.579.369 1.246.35 2.002-.01.523.121.952.392 1.288.28.327.649.49 1.106.49h1.036c.196 0 .355.06.476.182a.626.626 0 0 1 .182.462c0 .187-.06.34-.182.462a.644.644 0 0 1-.476.182h-1.036c-.55 0-1.04-.135-1.47-.406-.43-.27-.76-.644-.994-1.12-.224-.485-.327-1.031-.308-1.638.019-.756-.121-1.372-.42-1.848-.29-.485-.677-.733-1.162-.742H6.339a.768.768 0 0 1-.476-.182.609.609 0 0 1-.182-.448c0-.187.06-.34.182-.462a.674.674 0 0 1 .476-.182h1.834Z" fill="#27292A"/></svg>