<svg width="20" height="20" viewBox="0 0 20 20" fill="none" xmlns="http://www.w3.org/2000/svg"><g clip-path="url(#summary-straight_a)"><path fill-rule="evenodd" clip-rule="evenodd" d="M14.744 3.636c.12-.13.273-.199.45-.199.18 0 .337.065.46.194.129.109.202.254.202.426 0 .186-.094.342-.232.469l-5.878 5.502 5.898 5.438a.675.675 0 0 1 .198.491c0 .14-.04.274-.132.382l-.004.005a.658.658 0 0 1-.959.024l-6.183-5.741H4.778a.619.619 0 0 1-.45-.185.619.619 0 0 1-.184-.449c0-.173.062-.327.185-.45a.619.619 0 0 1 .449-.184h3.841l6.125-5.723Z" fill="#27292A"/></g><defs><clipPath id="summary-straight_a"><path fill="#fff" d="M0 0h20v20H0z"/></clipPath></defs></svg>