<svg width="20" height="20" viewBox="0 0 20 20" fill="none" xmlns="http://www.w3.org/2000/svg"><path d="M15.425 15.229c.187 0 .336.056.448.168.121.121.182.27.182.448 0 .187-.06.34-.182.462a.693.693 0 0 1-.476.196c-1.25 0-2.375-.252-3.374-.756a6.188 6.188 0 0 1-2.408-2.072c-.607-.887-.957-1.904-1.05-3.052l-3.976.014a.676.676 0 0 1-.462-.196.609.609 0 0 1-.182-.448.58.58 0 0 1 .182-.448.626.626 0 0 1 .462-.182h3.976c.093-1.139.443-2.151 1.05-3.038a6.146 6.146 0 0 1 2.408-2.086c.999-.495 2.123-.742 3.374-.742a.62.62 0 0 1 .476.196.626.626 0 0 1 .182.462.58.58 0 0 1-.182.448.674.674 0 0 1-.476.168c-1.073 0-2.035.224-2.884.672a4.874 4.874 0 0 0-1.988 1.848c-.476.793-.714 1.694-.714 2.702 0 1.017.238 1.923.714 2.716a5.07 5.07 0 0 0 2.002 1.862c.859.439 1.825.658 2.898.658Z" fill="#27292A"/></svg>