<svg width="326" height="310" viewBox="0 0 326 310" fill="none" xmlns="http://www.w3.org/2000/svg"><g clip-path="url(#pitchMode_a)"><path fill="#FFE8AE" d="M-9 0h344v310H-9z"/><path fill-rule="evenodd" clip-rule="evenodd" d="M65 223a1 1 0 0 1 1-1h2a1 1 0 0 1 0 2h-2a1 1 0 0 1-1-1Zm6 0a1 1 0 0 1 1-1h4a1 1 0 0 1 0 2h-4a1 1 0 0 1-1-1Zm8 0a1 1 0 0 1 1-1h4a1 1 0 0 1 0 2h-4a1 1 0 0 1-1-1Zm8 0a1 1 0 0 1 1-1h4a1 1 0 0 1 0 2h-4a1 1 0 0 1-1-1Zm8 0a1 1 0 0 1 1-1h4a1 1 0 0 1 0 2h-4a1 1 0 0 1-1-1Zm8 0a1 1 0 0 1 1-1h4a1 1 0 0 1 0 2h-4a1 1 0 0 1-1-1Zm8 0a1 1 0 0 1 1-1h4a1 1 0 0 1 0 2h-4a1 1 0 0 1-1-1Zm8 0a1 1 0 0 1 1-1h4a1 1 0 0 1 0 2h-4a1 1 0 0 1-1-1Zm8 0a1 1 0 0 1 1-1h4a1 1 0 0 1 0 2h-4a1 1 0 0 1-1-1Zm8 0a1 1 0 0 1 1-1h4a1 1 0 0 1 0 2h-4a1 1 0 0 1-1-1Zm8 0a1 1 0 0 1 1-1h4a1 1 0 0 1 0 2h-4a1 1 0 0 1-1-1Zm8 0a1 1 0 0 1 1-1h4a1 1 0 0 1 0 2h-4a1 1 0 0 1-1-1Zm8 0a1 1 0 0 1 1-1h4a1 1 0 0 1 0 2h-4a1 1 0 0 1-1-1Zm8 0a1 1 0 0 1 1-1h4a1 1 0 0 1 0 2h-4a1 1 0 0 1-1-1Zm8 0a1 1 0 0 1 1-1h4a1 1 0 0 1 0 2h-4a1 1 0 0 1-1-1Zm8 0a1 1 0 0 1 1-1h4a1 1 0 0 1 0 2h-4a1 1 0 0 1-1-1Zm8 0a1 1 0 0 1 1-1h4a1 1 0 0 1 0 2h-4a1 1 0 0 1-1-1Zm8 0a1 1 0 0 1 1-1h4a1 1 0 0 1 0 2h-4a1 1 0 0 1-1-1Zm8 0a1 1 0 0 1 1-1h4a1 1 0 0 1 0 2h-4a1 1 0 0 1-1-1Zm8 0a1 1 0 0 1 1-1h4a1 1 0 0 1 0 2h-4a1 1 0 0 1-1-1Zm8 0a1 1 0 0 1 1-1h4a1 1 0 0 1 0 2h-4a1 1 0 0 1-1-1Zm8 0a1 1 0 0 1 1-1h4a1 1 0 0 1 0 2h-4a1 1 0 0 1-1-1Zm8 0a1 1 0 0 1 1-1h4a1 1 0 0 1 0 2h-4a1 1 0 0 1-1-1Zm8 0a1 1 0 0 1 1-1h4a1 1 0 0 1 0 2h-4a1 1 0 0 1-1-1Zm8 0a1 1 0 0 1 1-1h3v3.036a1 1 0 0 1-2 0V224h-1a1 1 0 0 1-1-1Zm3 5.107a1 1 0 0 1 1 1v4.072a1 1 0 0 1-2 0v-4.072a1 1 0 0 1 1-1Zm0 8.143a1 1 0 0 1 1 1v4.071a1 1 0 1 1-2 0v-4.071a1 1 0 0 1 1-1Zm0 8.143a1 1 0 0 1 1 1v4.071a1 1 0 1 1-2 0v-4.071a1 1 0 0 1 1-1Zm0 8.143a1 1 0 0 1 1 1v4.071a1 1 0 0 1-2 0v-4.071a1 1 0 0 1 1-1Zm0 8.143a1 1 0 0 1 1 1v4.071a1 1 0 0 1-2 0v-4.071a1 1 0 0 1 1-1Zm0 8.142a1 1 0 0 1 1 1V270h4.774L258 280l-5.773-10H257v-.179a1 1 0 0 1 1-1ZM215 129.227 205 135l10 5.774v-4.786a1 1 0 0 0 0-1.976v-4.785ZM269 134h-2.969a1 1 0 0 0 0 2H267v1.083a1 1 0 1 0 2 0V134Zm-5.906 1a1 1 0 0 0-1-1h-3.938a1 1 0 0 0 0 2h3.938a1 1 0 0 0 1-1Zm-7.875 0a1 1 0 0 0-1-1h-3.938a1 1 0 0 0 0 2h3.938a1 1 0 0 0 1-1Zm-7.875 0a1 1 0 0 0-1-1h-3.938a1 1 0 0 0 0 2h3.938a1 1 0 0 0 1-1Zm-7.875 0a1 1 0 0 0-1-1h-3.938a1 1 0 0 0 0 2h3.938a1 1 0 0 0 1-1Zm-7.875 0a1 1 0 0 0-1-1h-3.938a1 1 0 0 0 0 2h3.938a1 1 0 0 0 1-1Zm-7.875 0a1 1 0 0 0-1-1h-3.938a1 1 0 0 0 0 2h3.938a1 1 0 0 0 1-1ZM268 140.25a1 1 0 0 0-1 1v4.167a1 1 0 0 0 2 0v-4.167a1 1 0 0 0-1-1Zm0 8.333a1 1 0 0 0-1 1v4.167a1 1 0 0 0 2 0v-4.167a1 1 0 0 0-1-1Zm0 8.334a1 1 0 0 0-1 1V160a1 1 0 0 0 2 0v-2.083a1 1 0 0 0-1-1Z" fill="#fff" fill-opacity=".5"/><path d="M-75 278.462C-75 272.684-70.481 268-64.906 268h87.813C28.48 268 33 272.684 33 278.462v47.076C33 331.316 28.481 336 22.907 336h-87.813C-70.481 336-75 331.316-75 325.538v-47.076ZM231 290.231c0-5.098 4.854-9.231 10.841-9.231h94.318c5.987 0 10.841 4.133 10.841 9.231v41.538c0 5.098-4.854 9.231-10.841 9.231h-94.318c-5.987 0-10.841-4.133-10.841-9.231v-41.538ZM149 126.385c0-1.87 2.259-3.385 5.047-3.385h43.906c2.788 0 5.047 1.515 5.047 3.385v15.23c0 1.87-2.259 3.385-5.047 3.385h-43.906c-2.788 0-5.047-1.515-5.047-3.385v-15.23Z" fill="#fff" fill-opacity=".5"/><path d="M237 170c0-5.523 4.477-10 10-10h126c5.523 0 10 4.477 10 10v68c0 5.523-4.477 10-10 10H247c-5.523 0-10-4.477-10-10v-68Z" fill="#FFAE4F"/><path d="M237 170c0-5.523 4.477-10 10-10h120c5.523 0 10 4.477 10 10v64c0 5.523-4.477 10-10 10H245a8 8 0 0 1-8-8v-66Z" fill="#fff"/><path d="M-85 170c0-5.523 4.477-10 10-10H51c5.523 0 10 4.477 10 10v68c0 5.523-4.477 10-10 10H-75c-5.523 0-10-4.477-10-10v-68Z" fill="#FFAE4F"/><path d="M-83 170c0-5.523 4.477-10 10-10H47c5.523 0 10 4.477 10 10v66a8 8 0 0 1-8 8H-73c-5.523 0-10-4.477-10-10v-64Z" fill="#fff"/><rect x="250" y="172" width="40" height="10" rx="5" fill="#EAEAEA"/><rect x="250" y="201" width="90" height="8" rx="4" fill="#EAEAEA"/><rect x="-48" y="178" width="90" height="10" rx="5" fill="#EAEAEA"/><rect x="250" y="215" width="90" height="8" rx="4" fill="#EAEAEA"/><rect x="-48" y="198" width="90" height="10" rx="5" fill="#EAEAEA"/><rect x="250" y="227" width="90" height="8" rx="4" fill="#EAEAEA"/><rect x="-48" y="215" width="90" height="10" rx="5" fill="#EAEAEA"/><path fill-rule="evenodd" clip-rule="evenodd" d="M177 246a1 1 0 0 1 1 1v1.9a1 1 0 0 1-2 0V247a1 1 0 0 1 1-1Zm0 5.7a1 1 0 0 1 1 1v3.8a1 1 0 0 1-2 0v-3.8a1 1 0 0 1 1-1Zm0 7.6a1 1 0 0 1 1 1v3.8a1 1 0 0 1-2 0v-3.8a1 1 0 0 1 1-1Zm0 7.6a1 1 0 0 1 1 1v3.8a1 1 0 0 1-2 0v-3.8a1 1 0 0 1 1-1Zm0 7.6a1 1 0 0 1 1 1v3.8a1 1 0 0 1-2 0v-3.8a1 1 0 0 1 1-1ZM43 286v4.774L33 285l10-5.774V284a1 1 0 0 1 0 2Zm134-3.9a1 1 0 0 1 1 1v2.9h-3a1 1 0 0 1 0-2h1v-.9a1 1 0 0 1 1-1ZM46 285a1 1 0 0 1 1-1h4a1 1 0 0 1 0 2h-4a1 1 0 0 1-1-1Zm8 0a1 1 0 0 1 1-1h4a1 1 0 0 1 0 2h-4a1 1 0 0 1-1-1Zm8 0a1 1 0 0 1 1-1h4a1 1 0 0 1 0 2h-4a1 1 0 0 1-1-1Zm8 0a1 1 0 0 1 1-1h4a1 1 0 0 1 0 2h-4a1 1 0 0 1-1-1Zm8 0a1 1 0 0 1 1-1h4a1 1 0 0 1 0 2h-4a1 1 0 0 1-1-1Zm8 0a1 1 0 0 1 1-1h4a1 1 0 0 1 0 2h-4a1 1 0 0 1-1-1Zm8 0a1 1 0 0 1 1-1h4a1 1 0 0 1 0 2h-4a1 1 0 0 1-1-1Zm8 0a1 1 0 0 1 1-1h4a1 1 0 0 1 0 2h-4a1 1 0 0 1-1-1Zm8 0a1 1 0 0 1 1-1h4a1 1 0 0 1 0 2h-4a1 1 0 0 1-1-1Zm8 0a1 1 0 0 1 1-1h4a1 1 0 0 1 0 2h-4a1 1 0 0 1-1-1Zm8 0a1 1 0 0 1 1-1h4a1 1 0 0 1 0 2h-4a1 1 0 0 1-1-1Zm8 0a1 1 0 0 1 1-1h4a1 1 0 0 1 0 2h-4a1 1 0 0 1-1-1Zm8 0a1 1 0 0 1 1-1h4a1 1 0 0 1 0 2h-4a1 1 0 0 1-1-1Zm8 0a1 1 0 0 1 1-1h4a1 1 0 0 1 0 2h-4a1 1 0 0 1-1-1Zm8 0a1 1 0 0 1 1-1h4a1 1 0 0 1 0 2h-4a1 1 0 0 1-1-1Zm8 0a1 1 0 0 1 1-1h4a1 1 0 0 1 0 2h-4a1 1 0 0 1-1-1Z" fill="#fff" fill-opacity=".5"/><path d="M76 170c0-5.523 4.477-10 10-10h126c5.523 0 10 4.477 10 10v68c0 5.523-4.477 10-10 10H86c-5.523 0-10-4.477-10-10v-68Z" fill="#E2924A"/><path d="M76 170c0-5.523 4.477-10 10-10h122c5.523 0 10 4.477 10 10v66a8 8 0 0 1-8 8H84a8 8 0 0 1-8-8v-66Z" fill="#FFAE4F"/><path d="M138.857 220c.857 0 1.612-.308 2.551-.862l24.102-14.018c1.755-1.026 2.49-1.827 2.49-3.12 0-1.293-.735-2.073-2.49-3.12l-24.102-14.018c-.939-.554-1.694-.862-2.551-.862-1.673 0-2.857 1.293-2.857 3.325v29.35c0 2.052 1.184 3.325 2.857 3.325Z" fill="#fff"/></g><defs><clipPath id="pitchMode_a"><path fill="#fff" d="M0 0h326v310H0z"/></clipPath></defs></svg>