<svg width="326" height="310" viewBox="0 0 326 310" fill="none" xmlns="http://www.w3.org/2000/svg"><path fill="#CEF5FB" d="M0 0h326v310H0z"/><mask id="smartColorTheme_a" style="mask-type:alpha" maskUnits="userSpaceOnUse" x="0" y="0" width="326" height="310"><path fill="#CEF5FB" d="M0 0h326v310H0z"/></mask><g mask="url(#smartColorTheme_a)"><path fill-rule="evenodd" clip-rule="evenodd" d="M284 152a1 1 0 0 0-1-1h-2.011a1 1 0 0 0 0 2H283a1 1 0 0 0 1-1Zm-6.032 0a1 1 0 0 0-1-1h-4.021a1 1 0 0 0 0 2h4.021a1 1 0 0 0 1-1Zm-8.042 0a1 1 0 0 0-1-1h-4.021a1 1 0 0 0 0 2h4.021a1 1 0 0 0 1-1Zm-8.042 0a1 1 0 0 0-1-1h-4.021a1 1 0 0 0 0 2h4.021a1 1 0 0 0 1-1Zm-8.042 0a1 1 0 0 0-1-1h-4.021a1 1 0 0 0 0 2h4.021a1 1 0 0 0 1-1Zm-8.042 0a1 1 0 0 0-1-1h-4.021a1 1 0 0 0 0 2h4.021a1 1 0 0 0 1-1Zm-8.042 0a1 1 0 0 0-1-1h-4.021a1 1 0 1 0 0 2h4.021a1 1 0 0 0 1-1Zm-8.042 0a1 1 0 0 0-1-1h-4.021a1 1 0 1 0 0 2h4.021a1 1 0 0 0 1-1Zm-8.042 0a1 1 0 0 0-1-1h-4.021a1 1 0 1 0 0 2h4.021a1 1 0 0 0 1-1Zm-8.043 0a1 1 0 0 0-1-1h-4.021a1 1 0 0 0 0 2h4.021a1 1 0 0 0 1-1Zm-8.042 0a1 1 0 0 0-1-1h-4.021a1 1 0 0 0 0 2h4.021a1 1 0 0 0 1-1Zm-8.042 0a1 1 0 0 0-1-1h-4.021a1 1 0 0 0 0 2h4.021a1 1 0 0 0 1-1Zm-8.042 0a1 1 0 0 0-1-1h-4.021a1 1 0 0 0 0 2h4.021a1 1 0 0 0 1-1Zm-8.042 0a1 1 0 0 0-1-1h-4.021a1 1 0 0 0 0 2h4.021a1 1 0 0 0 1-1Zm-8.042 0a1 1 0 0 0-1-1H168.4a1 1 0 0 0 0 2h4.021a1 1 0 0 0 1-1Zm-8.042 0a1 1 0 0 0-1-1h-4.021a1 1 0 1 0 0 2h4.021a1 1 0 0 0 1-1Zm-8.042 0a1 1 0 0 0-1-1h-4.021a1 1 0 1 0 0 2h4.021a1 1 0 0 0 1-1Zm-8.042 0a1 1 0 0 0-1-1h-4.021a1 1 0 1 0 0 2h4.021a1 1 0 0 0 1-1Zm-8.043 0a1 1 0 0 0-1-1h-4.021a1 1 0 0 0 0 2h4.021a1 1 0 0 0 1-1Zm-8.042 0a1 1 0 0 0-1-1h-4.021a1 1 0 0 0 0 2h4.021a1 1 0 0 0 1-1Zm-8.042 0a1 1 0 0 0-1-1h-4.021a1 1 0 0 0 0 2h4.021a1 1 0 0 0 1-1Zm-8.042 0a1 1 0 0 0-1-1h-4.021a1 1 0 0 0 0 2h4.021a1 1 0 0 0 1-1Zm-8.042 0a1 1 0 0 0-1-1h-4.021a1 1 0 0 0 0 2h4.021a1 1 0 0 0 1-1Zm-8.042 0a1 1 0 0 0-1-1h-3.01v3.023a1 1 0 1 0 2 0V153h1.01a1 1 0 0 0 1-1Zm-3.01 5.07a1 1 0 0 0-1 1v4.047a1 1 0 0 0 2 0v-4.047a1 1 0 0 0-1-1Zm0 8.094a1 1 0 0 0-1 1v4.047a1 1 0 0 0 2 0v-4.047a1 1 0 0 0-1-1Zm0 8.094a1 1 0 0 0-1 1v4.047a1 1 0 0 0 2 0v-4.047a1 1 0 0 0-1-1Zm0 8.094a1 1 0 0 0-1 1v4.046a1 1 0 1 0 2 0v-4.046a1 1 0 0 0-1-1Zm0 8.093a1 1 0 0 0-1 1v4.047a1 1 0 0 0 2 0v-4.047a1 1 0 0 0-1-1Zm0 8.094a1 1 0 0 0-1 1v4.047a1 1 0 0 0 2 0v-4.047a1 1 0 0 0-1-1Zm0 8.094a1 1 0 0 0-1 1v4.047a1 1 0 0 0 2 0v-4.047a1 1 0 0 0-1-1Zm0 8.094a1 1 0 0 0-1 1v4.046a1 1 0 1 0 2 0v-4.046a1 1 0 0 0-1-1Zm0 8.093a1 1 0 0 0-1 1v4.047a1 1 0 0 0 2 0v-4.047a1 1 0 0 0-1-1Zm0 8.094a1 1 0 0 0-1 1v4.047a1 1 0 0 0 2 0v-4.047a1 1 0 0 0-1-1Zm0 8.094a1 1 0 0 0-1 1v4.047a1 1 0 0 0 2 0v-4.047a1 1 0 0 0-1-1Zm0 8.094a1 1 0 0 0-1 1v4.046a1 1 0 1 0 2 0v-4.046a1 1 0 0 0-1-1Zm0 8.093a1 1 0 0 0-1 1v4.047a1 1 0 0 0 2 0v-4.047a1 1 0 0 0-1-1Zm0 8.094a1 1 0 0 0-1 1v4.047a1 1 0 0 0 2 0v-4.047a1 1 0 0 0-1-1Zm0 8.094a1 1 0 0 0-1 1v4.047a1 1 0 0 0 2 0v-4.047a1 1 0 0 0-1-1Zm0 8.094a1 1 0 0 0-1 1v1.023h-.966a1 1 0 0 0 0 2h2.965v-3.023a1 1 0 0 0-1-1Zm-4.897 3.023a1 1 0 0 0-1-1h-3.93a1 1 0 0 0 0 2h3.93a1 1 0 0 0 1-1Zm-7.862 0a1 1 0 0 0-1-1h-3.93a1 1 0 0 0 0 2h3.93a1 1 0 0 0 1-1Zm-7.861 0a1 1 0 0 0-1-1h-3.93a1 1 0 0 0 0 2h3.93a1 1 0 0 0 1-1Zm-7.862 0a1 1 0 0 0-1-1h-3.93a1 1 0 0 0 0 2h3.93a1 1 0 0 0 1-1Zm-7.861 0a1 1 0 0 0-1-1h-3.931a1 1 0 0 0 0 2h3.93a1 1 0 0 0 1-1Zm-7.862 0a1 1 0 0 0-1-1h-3.93a1 1 0 0 0 0 2h3.93a1 1 0 0 0 1-1Zm-7.862 0a1 1 0 0 0-1-1H43a1 1 0 0 0 0 2h1.965a1 1 0 0 0 1-1Z" fill="#fff" fill-opacity=".5"/><rect width="32" height="16.468" rx="4" transform="matrix(-1 0 0 1 315 143)" fill="#fff" fill-opacity=".5"/><rect width="32" height="16" rx="4" transform="matrix(-1 0 0 1 43 273)" fill="#fff" fill-opacity=".5"/><path d="M-53 185a5 5 0 0 1 5-5H54a5 5 0 0 1 5 5v24a5 5 0 0 1-5 5H-48a5 5 0 0 1-5-5v-24Z" fill="#E2F9FD"/><path fill-rule="evenodd" clip-rule="evenodd" d="M54 181H-48a4 4 0 0 0-4 4v24a4 4 0 0 0 4 4H54a4 4 0 0 0 4-4v-24a4 4 0 0 0-4-4Zm-102-1a5 5 0 0 0-5 5v24a5 5 0 0 0 5 5H54a5 5 0 0 0 5-5v-24a5 5 0 0 0-5-5H-48Z" fill="#fff"/><rect x="-13.553" y="185" width="16" height="24" rx="4" fill="#ACE8ED"/><rect x="4.057" y="185" width="16" height="24" rx="4" fill="#84D5D5"/><rect x="21.667" y="185" width="16" height="24" rx="4" fill="#4DACA8"/><rect x="39.277" y="185" width="16" height="24" rx="4" fill="#2A6361"/><path d="M46 132a8 8 0 0 1 8-8h96a8 8 0 0 1 8 8v58a8 8 0 0 1-8 8H54a8 8 0 0 1-8-8v-58Z" fill="#ACE8ED"/><path fill-rule="evenodd" clip-rule="evenodd" d="M150 125H54a7 7 0 0 0-7 7v58a7 7 0 0 0 7 7h96a7 7 0 0 0 7-7v-58a7 7 0 0 0-7-7Zm-96-1a8 8 0 0 0-8 8v58a8 8 0 0 0 8 8h96a8 8 0 0 0 8-8v-58a8 8 0 0 0-8-8H54Z" fill="#fff"/><path fill-rule="evenodd" clip-rule="evenodd" d="M98.292 161.5H75v-1h23.292v1ZM125.292 161.5H102v-1h23.292v1Z" fill="#4DACA8"/><path fill-rule="evenodd" clip-rule="evenodd" d="M111.782 160.836c0 8.473 6.817 15.336 15.218 15.336v1c-8.961 0-16.218-7.317-16.218-16.336h1Z" fill="#D0FDF9"/><path fill-rule="evenodd" clip-rule="evenodd" d="M127 145.5c-8.401 0-15.218 6.863-15.218 15.336h-1c0-9.019 7.257-16.336 16.218-16.336v1ZM92.219 161.164c0 8.473-6.817 15.336-15.219 15.336v1c8.96 0 16.219-7.317 16.219-16.336h-1Z" fill="#fff"/><path fill-rule="evenodd" clip-rule="evenodd" d="M77 145.828c8.401 0 15.219 6.863 15.219 15.336h1c0-9.019-7.258-16.336-16.219-16.336v1Z" fill="#D0FDF9"/><rect x="88" y="155" width="28" height="12" rx="2" fill="#2A6361"/><rect x="125" y="141" width="18" height="8" rx="2" fill="#fff"/><rect x="60" y="141.253" width="18" height="8" rx="2" fill="#D0FDF9"/><rect x="125" y="157" width="18" height="8" rx="2" fill="#4DACA8"/><rect x="60" y="157" width="18" height="8" rx="2" fill="#4DACA8"/><rect x="125" y="173" width="18" height="8" rx="2" fill="#D0FDF9"/><rect x="60" y="173.04" width="18" height="8" rx="2" fill="#fff"/><path d="M170 244a5 5 0 0 1 5-5h150a5 5 0 0 1 5 5v38a5 5 0 0 1-5 5H175a5 5 0 0 1-5-5v-38Z" fill="#E2F9FD"/><path fill-rule="evenodd" clip-rule="evenodd" d="M325 240H175a4 4 0 0 0-4 4v38a4 4 0 0 0 4 4h150a4 4 0 0 0 4-4v-38a4 4 0 0 0-4-4Zm-150-1a5 5 0 0 0-5 5v38a5 5 0 0 0 5 5h150a5 5 0 0 0 5-5v-38a5 5 0 0 0-5-5H175Z" fill="#fff"/><rect x="176" y="246" width="22" height="34" rx="5" fill="#fff"/><rect x="201" y="246" width="22" height="34" rx="5" fill="#F3AEAC"/><rect x="226" y="246" width="22" height="34" rx="5" fill="#EF8145"/><rect x="251" y="246" width="22" height="34" rx="5" fill="#93B5F9"/><rect x="276" y="246" width="22" height="34" rx="5" fill="#4855D1"/><rect x="301" y="246" width="22" height="34" rx="5" fill="#181B55"/><rect x="134.5" y="177.5" width="131" height="87" rx="7.5" fill="#fff" stroke="#fff"/><path fill-rule="evenodd" clip-rule="evenodd" d="M199.646 222.5h-27.451v-1h27.451v1Z" fill="#EF8145"/><path fill-rule="evenodd" clip-rule="evenodd" d="M227.097 222.5h-27.451v-1h27.451v1Z" fill="#F3AEAC"/><path fill-rule="evenodd" clip-rule="evenodd" d="M210.429 221.39c0 9.401 7.621 17.022 17.022 17.022v1c-9.953 0-18.022-8.069-18.022-18.022h1Z" fill="#EF8145"/><path fill-rule="evenodd" clip-rule="evenodd" d="M227.451 204.367c-9.401 0-17.022 7.621-17.022 17.022h-1c0-9.953 8.069-18.022 18.022-18.022v1ZM189.571 221.39c0 9.401-7.621 17.022-17.022 17.022v1c9.953 0 18.022-8.069 18.022-18.022h-1Z" fill="#93B5F9"/><path fill-rule="evenodd" clip-rule="evenodd" d="M172.549 204.367c9.401 0 17.022 7.621 17.022 17.022h1c0-9.953-8.069-18.022-18.022-18.022v1Z" fill="#4855D1"/><rect x="182.708" y="215" width="34" height="14" rx="2" fill="#181B55"/><rect x="227.451" y="199.194" width="24" height="10" rx="2" fill="#93B5F9"/><rect x="150.354" y="199.194" width="24" height="10" rx="2" fill="#4855D1"/><rect x="227.097" y="217" width="24" height="10" rx="2" fill="#F3AEAC"/><rect x="150" y="217" width="24" height="10" rx="2" fill="#EF8145"/><rect x="227.451" y="234.239" width="24" height="10" rx="2" fill="#EF8145"/><rect x="150.354" y="234.239" width="24" height="10" rx="2" fill="#93B5F9"/></g><mask id="smartColorTheme_b" style="mask-type:alpha" maskUnits="userSpaceOnUse" x="192" y="207" width="16" height="16"><path fill-rule="evenodd" clip-rule="evenodd" d="M200 217.909a2.908 2.908 0 1 0 .001-5.817 2.908 2.908 0 0 0-.001 5.817Zm0 5.091a8 8 0 1 0 0-16 8 8 0 0 0 0 16Z" fill="#000"/></mask><g mask="url(#smartColorTheme_b)"><path d="M208.66 220v-10l-8.66 5 8.66 5Z" fill="#F2B050"/><path d="m208.66 210-8.66-5v10l8.66-5Z" fill="#F3AEAC"/><path d="m208.66 220-8.66 5v-10l8.66 5Z" fill="#93B5F9"/><path d="M191.34 220v-10l8.66 5-8.66 5Z" fill="#F3AEAC"/><path d="m191.34 210 8.66-5v10l-8.66-5Z" fill="#EF8145"/><path d="m191.34 220 8.66 5v-10l-8.66 5Z" fill="#4855D1"/></g></svg>