<svg width="20" height="20" viewBox="0 0 20 20" fill="none" xmlns="http://www.w3.org/2000/svg"><path d="M16.013 9.349c.187 0 .34.06.462.182.13.121.196.275.196.462a.588.588 0 0 1-.196.448.626.626 0 0 1-.462.182H9.041v.672c0 .177-.06.266-.182.266a.385.385 0 0 1-.196-.07l-.896-.602v1.792c0 .084-.019.15-.056.196-.028.047-.065.07-.112.07a.408.408 0 0 1-.21-.084l-3.892-2.618c-.112-.075-.168-.154-.168-.238 0-.093.056-.182.168-.266l3.892-2.618a.297.297 0 0 1 .196-.07c.121 0 .182.089.182.266v1.778l.896-.602a.385.385 0 0 1 .196-.07c.121 0 .182.093.182.28v.644h6.972Z" fill="#27292A"/></svg>