<svg width="20" height="20" viewBox="0 0 20 20" fill="none" xmlns="http://www.w3.org/2000/svg"><path d="M12.618 12.863a.408.408 0 0 1-.21.084c-.047 0-.089-.023-.126-.07a.382.382 0 0 1-.042-.196v-1.792l-.896.602a.385.385 0 0 1-.196.07c-.121 0-.182-.089-.182-.266v-.672H3.994a.674.674 0 0 1-.476-.182.609.609 0 0 1-.182-.448c0-.187.06-.34.182-.462a.674.674 0 0 1 .476-.182h6.972v-.644c0-.187.06-.28.182-.28.056 0 .121.023.196.07l.896.602V7.319c0-.177.056-.266.168-.266.075 0 .145.023.21.07l3.878 2.618c.112.084.168.173.168.266 0 .084-.056.163-.168.238l-3.878 2.618Z" fill="#27292A"/></svg>