<svg width="16" height="20" viewBox="0 0 16 20" fill="none" xmlns="http://www.w3.org/2000/svg">
<path d="M2.38463 15.8545C2.38463 16.3212 2.53397 16.7038 2.83263 17.0025C3.14063 17.3105 3.52797 17.4692 3.99463 17.4785H12.7306C13.1973 17.4785 13.58 17.3245 13.8786 17.0165C14.1866 16.7178 14.3453 16.3352 14.3546 15.8685L14.3686 8.46249H10.4206C10.0473 8.46249 9.6973 8.37382 9.37063 8.19649C9.0533 8.00982 8.8013 7.76249 8.61463 7.45449C8.42797 7.13715 8.33463 6.79182 8.33463 6.41849V2.41449H4.00863C3.54197 2.41449 3.15463 2.56849 2.84663 2.87649C2.54797 3.17515 2.39397 3.55782 2.38463 4.02449V15.8545ZM3.77063 19.0185C3.23863 19.0185 2.74863 18.8832 2.30063 18.6125C1.85263 18.3418 1.49797 17.9778 1.23663 17.5205C0.9753 17.0725 0.844633 16.5778 0.844633 16.0365V3.85649C0.844633 3.31515 0.9753 2.82049 1.23663 2.37249C1.49797 1.91515 1.85263 1.55115 2.30063 1.28049C2.74863 1.00982 3.23863 0.874487 3.77063 0.874487H9.23063C9.4733 0.874487 9.74397 0.935154 10.0426 1.05649C10.3413 1.17782 10.5746 1.32249 10.7426 1.49049L15.2786 6.06849C15.456 6.24582 15.6053 6.48382 15.7266 6.78249C15.848 7.07182 15.9086 7.33782 15.9086 7.58049V16.0365C15.9086 16.5778 15.778 17.0725 15.5166 17.5205C15.2553 17.9778 14.9006 18.3418 14.4526 18.6125C14.0046 18.8832 13.5146 19.0185 12.9826 19.0185H3.77063ZM10.8966 10.5485C11.1113 10.5485 11.298 10.6278 11.4566 10.7865C11.6153 10.9358 11.6946 11.1178 11.6946 11.3325C11.6946 11.5472 11.6153 11.7338 11.4566 11.8925C11.298 12.0512 11.1113 12.1305 10.8966 12.1305H5.04463C4.82997 12.1305 4.6433 12.0512 4.48463 11.8925C4.32597 11.7338 4.24663 11.5472 4.24663 11.3325C4.24663 11.1178 4.32597 10.9358 4.48463 10.7865C4.6433 10.6278 4.82997 10.5485 5.04463 10.5485H10.8966ZM8.83863 13.6565C9.0533 13.6565 9.2353 13.7358 9.38463 13.8945C9.5433 14.0532 9.62263 14.2398 9.62263 14.4545C9.62263 14.6692 9.5433 14.8512 9.38463 15.0005C9.2353 15.1592 9.0533 15.2385 8.83863 15.2385H5.08663C4.87197 15.2385 4.6853 15.1592 4.52663 15.0005C4.3773 14.8512 4.30263 14.6692 4.30263 14.4545C4.30263 14.2398 4.3773 14.0532 4.52663 13.8945C4.6853 13.7358 4.87197 13.6565 5.08663 13.6565H8.83863ZM9.87463 6.11049C9.87463 6.34382 9.9493 6.53982 10.0986 6.69849C10.2573 6.84782 10.4533 6.92249 10.6866 6.92249H14.0886L9.87463 2.77849V6.11049Z" fill="#1F2326"/>
</svg>
