<svg width="16" height="16" viewBox="0 0 16 16" fill="none" xmlns="http://www.w3.org/2000/svg">
<path d="M12.8441 7.32333C12.9934 7.32333 13.1166 7.37186 13.2137 7.46892C13.3107 7.56599 13.3593 7.68919 13.3593 7.83853C13.3593 7.98039 13.3107 8.09986 13.2137 8.19693C13.1166 8.29399 12.9934 8.34253 12.8441 8.34253H8.52087V12.8785C8.52087 13.0279 8.47234 13.1511 8.37527 13.2481C8.2782 13.3527 8.155 13.4049 8.00567 13.4049C7.8638 13.4049 7.74434 13.3527 7.64727 13.2481C7.5502 13.1511 7.50167 13.0279 7.50167 12.8785V8.34253H3.15607C3.00674 8.34253 2.88354 8.29399 2.78647 8.19693C2.6894 8.09986 2.64087 7.98039 2.64087 7.83853C2.64087 7.68919 2.6894 7.56599 2.78647 7.46892C2.891 7.37186 3.0142 7.32333 3.15607 7.32333H7.50167V3.12332C7.50167 2.97399 7.5502 2.85079 7.64727 2.75372C7.74434 2.64919 7.8638 2.59692 8.00567 2.59692C8.155 2.59692 8.2782 2.64919 8.37527 2.75372C8.47234 2.85079 8.52087 2.97399 8.52087 3.12332V7.32333H12.8441Z" fill="#747A80"/>
</svg>
