<svg width="20" height="20" viewBox="0 0 20 20" fill="none" xmlns="http://www.w3.org/2000/svg">
  <path d="M5.20863 19.76C4.39663 19.76 3.65463 19.564 2.98263 19.172C2.31063 18.78 1.7833 18.2433 1.40063 17.562C1.00863 16.89 0.812633 16.148 0.812633 15.336C0.812633 14.5333 1.00863 13.8007 1.40063 13.138C1.7833 12.466 2.31063 11.9387 2.98263 11.556C3.65463 11.164 4.39663 10.968 5.20863 10.968C6.02063 10.968 6.76263 11.164 7.43463 11.556C8.10663 11.9387 8.63397 12.466 9.01663 13.138C9.40863 13.8007 9.60463 14.5333 9.60463 15.336C9.60463 16.148 9.40863 16.89 9.01663 17.562C8.63397 18.2433 8.10663 18.78 7.43463 19.172C6.76263 19.564 6.02063 19.76 5.20863 19.76ZM5.68463 14.874V13.026C5.68463 12.886 5.63797 12.7693 5.54463 12.676C5.4513 12.5733 5.3393 12.522 5.20863 12.522C5.07797 12.522 4.96597 12.5733 4.87263 12.676C4.7793 12.7693 4.73263 12.886 4.73263 13.026V14.874H2.88463C2.7633 14.874 2.65597 14.9207 2.56263 15.014C2.4693 15.1073 2.42263 15.2147 2.42263 15.336C2.42263 15.476 2.46463 15.5927 2.54863 15.686C2.64197 15.7887 2.75397 15.84 2.88463 15.84H4.73263V17.702C4.73263 17.8327 4.7793 17.9447 4.87263 18.038C4.96597 18.1313 5.07797 18.178 5.20863 18.178C5.3393 18.178 5.4513 18.1313 5.54463 18.038C5.63797 17.9447 5.68463 17.8327 5.68463 17.702V15.84H7.53263C7.6633 15.84 7.77063 15.7887 7.85463 15.686C7.94797 15.5927 7.99463 15.476 7.99463 15.336C7.99463 15.2147 7.94797 15.1073 7.85463 15.014C7.77063 14.9207 7.6633 14.874 7.53263 14.874H5.68463ZM9.78663 19.032C10.0573 18.7613 10.2813 18.4813 10.4586 18.192C10.6453 17.9027 10.762 17.6693 10.8086 17.492H16.3666C16.8333 17.492 17.216 17.338 17.5146 17.03C17.8226 16.7313 17.9813 16.3487 17.9906 15.882L18.0046 8.532H13.9866C13.6133 8.532 13.2633 8.44333 12.9366 8.266C12.6193 8.07933 12.3673 7.832 12.1806 7.524C11.994 7.20667 11.9006 6.86133 11.9006 6.488V2.414H7.64463C7.17797 2.414 6.79063 2.568 6.48263 2.876C6.18397 3.17467 6.02997 3.55733 6.02063 4.024V9.736C5.71263 9.68 5.3953 9.652 5.06863 9.652C4.84463 9.652 4.64863 9.666 4.48063 9.694V3.856C4.48063 3.31467 4.6113 2.82 4.87263 2.372C5.13397 1.91467 5.48863 1.55067 5.93663 1.28C6.38463 1.00933 6.87463 0.873999 7.40663 0.873999H12.8666C13.1093 0.873999 13.38 0.934666 13.6786 1.056C13.9773 1.17733 14.2106 1.322 14.3786 1.49L18.9146 6.068C19.092 6.24533 19.2413 6.48333 19.3626 6.782C19.484 7.07133 19.5446 7.33733 19.5446 7.58V16.05C19.5446 16.5913 19.414 17.086 19.1526 17.534C18.8913 17.9913 18.5366 18.3553 18.0886 18.626C17.6406 18.8967 17.1506 19.032 16.6186 19.032H9.78663ZM13.4546 6.18C13.4546 6.41333 13.5293 6.60933 13.6786 6.768C13.8373 6.91733 14.0333 6.992 14.2666 6.992H17.6686L13.4546 2.848V6.18Z" fill="#1F2326"/>
  </svg>
