<svg width="18" height="19" viewBox="0 0 18 19" fill="none" xmlns="http://www.w3.org/2000/svg">
<path d="M10.9726 9.988C10.9726 9.624 10.884 9.288 10.7066 8.98C10.5386 8.672 10.3006 8.42933 9.99263 8.252C9.69397 8.07467 9.36263 7.986 8.99863 7.986C8.6253 7.986 8.27997 8.07467 7.96263 8.252C7.6453 8.42933 7.3933 8.672 7.20663 8.98C7.0293 9.288 6.94063 9.624 6.94063 9.988C6.94063 10.3613 7.0293 10.702 7.20663 11.01C7.3933 11.318 7.6453 11.5607 7.96263 11.738C8.27997 11.9153 8.6253 12.004 8.99863 12.004C9.36263 12.004 9.69397 11.9153 9.99263 11.738C10.3006 11.5607 10.5386 11.318 10.7066 11.01C10.884 10.702 10.9726 10.3613 10.9726 9.988ZM12.4986 9.988C12.4986 10.632 12.34 11.2247 12.0226 11.766C11.7146 12.298 11.29 12.7227 10.7486 13.04C10.2166 13.348 9.62863 13.502 8.98463 13.502C8.3313 13.502 7.7293 13.348 7.17863 13.04C6.6373 12.7227 6.20797 12.298 5.89063 11.766C5.5733 11.2247 5.41463 10.632 5.41463 9.988C5.41463 9.344 5.5733 8.756 5.89063 8.224C6.20797 7.68267 6.6373 7.258 7.17863 6.95C7.7293 6.642 8.3313 6.488 8.98463 6.488C9.62863 6.488 10.2166 6.642 10.7486 6.95C11.29 7.258 11.7146 7.68267 12.0226 8.224C12.34 8.756 12.4986 9.344 12.4986 9.988ZM0.878633 12.27C0.635966 12.2233 0.425966 12.102 0.248633 11.906C0.0806328 11.71 0.00129952 11.4907 0.0106329 11.248L0.0246329 8.644C0.0339662 8.392 0.122633 8.16333 0.290633 7.958C0.458633 7.75267 0.663966 7.63133 0.906633 7.594L2.50263 7.3L2.55863 7.146L1.60663 5.83C1.4853 5.65267 1.42463 5.44733 1.42463 5.214C1.42463 5.074 1.44797 4.94333 1.49463 4.822C1.5413 4.69133 1.6113 4.57933 1.70463 4.486L3.55263 2.624C3.75797 2.41867 4.00997 2.316 4.30863 2.316C4.54197 2.316 4.73797 2.37667 4.89663 2.498L6.25463 3.464L6.36663 3.408L6.66063 1.798C6.7073 1.55533 6.8333 1.35 7.03863 1.182C7.24397 1.00467 7.46797 0.915999 7.71063 0.915999H10.2866C10.5293 0.915999 10.7533 1.00467 10.9586 1.182C11.164 1.35 11.2853 1.55067 11.3226 1.784L11.5886 3.366L11.8266 3.464L13.1286 2.512C13.306 2.38133 13.5066 2.316 13.7306 2.316C14.0386 2.316 14.2813 2.414 14.4586 2.61L16.2786 4.472C16.4746 4.668 16.5726 4.91533 16.5726 5.214C16.5726 5.44733 16.512 5.65267 16.3906 5.83L15.4806 7.062L15.5786 7.342L17.0906 7.58C17.3333 7.62667 17.5386 7.748 17.7066 7.944C17.884 8.14 17.9726 8.35933 17.9726 8.602V11.192C17.9726 11.4347 17.8886 11.6633 17.7206 11.878C17.5526 12.0833 17.3473 12.2047 17.1046 12.242L15.5926 12.508L15.4946 12.732L16.3766 13.95C16.5073 14.1367 16.5726 14.3467 16.5726 14.58C16.5726 14.86 16.4793 15.1027 16.2926 15.308L14.4586 17.17C14.2533 17.3753 13.9966 17.478 13.6886 17.478C13.474 17.478 13.2826 17.422 13.1146 17.31L11.8406 16.414L11.5886 16.512L11.3366 18.038C11.2993 18.2807 11.178 18.486 10.9726 18.654C10.7673 18.8313 10.5433 18.92 10.3006 18.92H7.73863C7.49597 18.92 7.2673 18.836 7.05263 18.668C6.8473 18.5 6.72597 18.2947 6.68863 18.052L6.39463 16.47L6.21263 16.386L4.88263 17.324C4.72397 17.4453 4.5233 17.506 4.28063 17.506C3.98197 17.506 3.73463 17.408 3.53863 17.212L1.73263 15.35C1.53663 15.154 1.43863 14.8973 1.43863 14.58C1.43863 14.3467 1.4993 14.1507 1.62063 13.992L2.54463 12.662L2.48863 12.508L0.878633 12.27ZM1.46663 10.758C1.46663 10.8047 1.48063 10.8467 1.50863 10.884C1.53663 10.912 1.57397 10.9307 1.62063 10.94L3.48263 11.122L4.01463 12.97L3.06263 14.51C3.0533 14.538 3.04397 14.5707 3.03463 14.608C3.03463 14.6547 3.0533 14.706 3.09063 14.762L4.18263 15.798C4.21063 15.8353 4.25263 15.854 4.30863 15.854C4.33663 15.854 4.37863 15.8447 4.43463 15.826L6.01663 14.846L7.62663 15.49L7.97663 17.324C7.98597 17.3707 8.0093 17.408 8.04663 17.436C8.08397 17.464 8.12597 17.478 8.17263 17.478H9.85263C9.8993 17.478 9.9413 17.464 9.97863 17.436C10.016 17.408 10.0393 17.3707 10.0486 17.324L10.3146 15.532L11.9666 14.79L13.5486 15.84C13.586 15.8493 13.6186 15.8587 13.6466 15.868C13.6933 15.868 13.7446 15.8493 13.8006 15.812L14.8926 14.65C14.93 14.622 14.9486 14.58 14.9486 14.524C14.9486 14.4773 14.9346 14.44 14.9066 14.412L13.9266 12.998L14.6126 11.15L16.3626 10.954C16.4093 10.954 16.4466 10.9353 16.4746 10.898C16.512 10.8607 16.5306 10.8187 16.5306 10.772V9.106C16.5306 9.05933 16.5166 9.01733 16.4886 8.98C16.4606 8.94267 16.4233 8.91933 16.3766 8.91L14.5566 8.644L13.9266 6.712L14.9206 5.368C14.9486 5.34 14.9626 5.30267 14.9626 5.256C14.9626 5.20933 14.944 5.16733 14.9066 5.13L13.7726 4.038C13.7446 4.00067 13.7026 3.982 13.6466 3.982C13.6 3.982 13.5626 3.996 13.5346 4.024L12.0786 5.046L10.2166 4.388L9.95063 2.512C9.9413 2.46533 9.91797 2.428 9.88063 2.4C9.8433 2.372 9.8013 2.358 9.75463 2.358H8.22863C8.18197 2.358 8.13997 2.372 8.10263 2.4C8.0653 2.428 8.04197 2.46533 8.03263 2.512L7.69663 4.402L5.89063 5.004L4.47663 3.982C4.44863 3.954 4.4113 3.94 4.36463 3.94C4.31797 3.94 4.27597 3.95867 4.23863 3.996L3.07663 5.13C3.0393 5.16733 3.02063 5.20933 3.02063 5.256C3.02063 5.30267 3.03463 5.34 3.06263 5.368L4.11263 6.908L3.48263 8.7L1.63463 8.91C1.58797 8.91 1.54597 8.92867 1.50863 8.966C1.48063 9.00333 1.46663 9.04533 1.46663 9.092V10.758Z" fill="#1F2326"/>
</svg>
