<svg width="18" height="18" viewBox="0 0 18 18" fill="none" xmlns="http://www.w3.org/2000/svg">
  <path d="M13.5066 8.19C13.7493 8.19 13.95 8.26467 14.1086 8.414C14.2673 8.554 14.3466 8.74067 14.3466 8.974C14.3466 9.198 14.2673 9.38 14.1086 9.52C13.95 9.66 13.7493 9.73 13.5066 9.73L9.44663 9.744C9.11997 9.744 8.83997 9.632 8.60663 9.408C8.3733 9.17467 8.25663 8.89467 8.25663 8.568V4.074C8.25663 3.83133 8.32663 3.63533 8.46663 3.486C8.61597 3.32733 8.80263 3.248 9.02663 3.248C9.25063 3.248 9.43263 3.32733 9.57263 3.486C9.72197 3.63533 9.79663 3.83133 9.79663 4.074L9.78263 8.036C9.78263 8.08267 9.79663 8.12467 9.82463 8.162C9.86197 8.19 9.90397 8.204 9.95063 8.204L13.5066 8.19ZM8.99863 17.78C7.37463 17.78 5.88597 17.388 4.53263 16.604C3.18863 15.8293 2.12463 14.77 1.34063 13.426C0.565966 12.0727 0.178633 10.5887 0.178633 8.974C0.178633 7.35 0.565966 5.866 1.34063 4.522C2.12463 3.16867 3.18863 2.1 4.53263 1.316C5.88597 0.531999 7.37463 0.139999 8.99863 0.139999C10.6226 0.139999 12.1066 0.531999 13.4506 1.316C14.804 2.1 15.868 3.16867 16.6426 4.522C17.4266 5.866 17.8186 7.35 17.8186 8.974C17.8186 10.5887 17.4266 12.0727 16.6426 13.426C15.868 14.77 14.804 15.8293 13.4506 16.604C12.1066 17.388 10.6226 17.78 8.99863 17.78ZM8.99863 16.254C10.3426 16.254 11.57 15.932 12.6806 15.288C13.8006 14.644 14.6826 13.7667 15.3266 12.656C15.9706 11.536 16.2926 10.3087 16.2926 8.974C16.2926 7.63 15.9706 6.40267 15.3266 5.292C14.6826 4.172 13.8006 3.29 12.6806 2.646C11.57 2.002 10.3426 1.68 8.99863 1.68C7.65463 1.68 6.42263 2.002 5.30263 2.646C4.19197 3.29 3.31463 4.172 2.67063 5.292C2.02663 6.40267 1.70463 7.63 1.70463 8.974C1.70463 10.3087 2.02663 11.536 2.67063 12.656C3.31463 13.7667 4.19197 14.644 5.30263 15.288C6.42263 15.932 7.65463 16.254 8.99863 16.254Z" fill="#1F2326"/>
  </svg>
