<svg width="18" height="20" viewBox="0 0 18 20" fill="none" xmlns="http://www.w3.org/2000/svg">
<path d="M7.87063 13.1802C7.40397 13.1802 6.9933 13.0402 6.63863 12.7602L5.36463 13.6562C5.4953 13.9736 5.56063 14.3002 5.56063 14.6362C5.56063 15.0282 5.47663 15.3922 5.30863 15.7282L6.49863 16.5262C6.67597 16.3489 6.8813 16.2089 7.11463 16.1062C7.3573 16.0129 7.6093 15.9662 7.87063 15.9662C8.2533 15.9662 8.59863 16.0549 8.90663 16.2322C9.22397 16.4189 9.4713 16.6662 9.64863 16.9742C9.82597 17.2822 9.90997 17.6229 9.90063 17.9962C9.90997 18.3602 9.82597 18.6962 9.64863 19.0042C9.4713 19.3122 9.22397 19.5549 8.90663 19.7322C8.59863 19.9096 8.2533 19.9982 7.87063 19.9982C7.50663 19.9982 7.17063 19.9096 6.86263 19.7322C6.56397 19.5549 6.3213 19.3122 6.13463 19.0042C5.9573 18.6962 5.86863 18.3602 5.86863 17.9962C5.86863 17.8376 5.89197 17.6649 5.93863 17.4782L4.60863 16.5962C4.16997 16.9322 3.6613 17.1002 3.08263 17.1002C2.6253 17.1002 2.20997 16.9882 1.83663 16.7642C1.4633 16.5496 1.16463 16.2556 0.940633 15.8822C0.725966 15.5089 0.618633 15.0936 0.618633 14.6362C0.618633 14.1789 0.725966 13.7636 0.940633 13.3902C1.16463 13.0076 1.4633 12.7089 1.83663 12.4942C2.20997 12.2702 2.6253 12.1582 3.08263 12.1582C3.7173 12.1582 4.2633 12.3636 4.72063 12.7742L5.99463 11.8642C5.91997 11.6216 5.88263 11.3882 5.88263 11.1642C5.88263 10.8002 5.9713 10.4689 6.14863 10.1702C6.32597 9.86224 6.56397 9.62424 6.86263 9.45624C7.17063 9.27891 7.50663 9.19024 7.87063 9.19024C8.24397 9.19024 8.58463 9.27891 8.89263 9.45624C9.20063 9.62424 9.4433 9.86224 9.62063 10.1702C9.8073 10.4689 9.90063 10.8002 9.90063 11.1642C9.90063 11.5376 9.8073 11.8782 9.62063 12.1862C9.4433 12.4942 9.20063 12.7369 8.89263 12.9142C8.58463 13.0916 8.24397 13.1802 7.87063 13.1802ZM7.87063 11.9482C8.0853 11.9482 8.2673 11.8736 8.41663 11.7242C8.56597 11.5656 8.64063 11.3789 8.64063 11.1642C8.64063 10.9496 8.56597 10.7676 8.41663 10.6182C8.2673 10.4596 8.0853 10.3802 7.87063 10.3802C7.65597 10.3802 7.47397 10.4596 7.32463 10.6182C7.1753 10.7676 7.10063 10.9496 7.10063 11.1642C7.10063 11.3789 7.1753 11.5656 7.32463 11.7242C7.47397 11.8736 7.65597 11.9482 7.87063 11.9482ZM7.87063 18.7662C8.0853 18.7662 8.26263 18.6916 8.40263 18.5422C8.55197 18.3929 8.62663 18.2109 8.62663 17.9962C8.62663 17.7816 8.55197 17.5996 8.40263 17.4502C8.26263 17.3009 8.0853 17.2262 7.87063 17.2262C7.6653 17.2262 7.48797 17.3009 7.33863 17.4502C7.19863 17.5996 7.12863 17.7816 7.12863 17.9962C7.12863 18.2109 7.19863 18.3929 7.33863 18.5422C7.48797 18.6916 7.6653 18.7662 7.87063 18.7662ZM3.08263 15.6722C3.3813 15.6722 3.6333 15.5742 3.83863 15.3782C4.04397 15.1822 4.14663 14.9396 4.14663 14.6502C4.14663 14.3422 4.04397 14.0856 3.83863 13.8802C3.64263 13.6656 3.39063 13.5582 3.08263 13.5582C2.7933 13.5582 2.55063 13.6609 2.35463 13.8662C2.15863 14.0716 2.06063 14.3236 2.06063 14.6222C2.06063 14.9209 2.15863 15.1682 2.35463 15.3642C2.55063 15.5696 2.7933 15.6722 3.08263 15.6722ZM11.0346 19.0742C11.128 18.8409 11.1746 18.5002 11.1746 18.0522C11.1746 17.9309 11.1653 17.7582 11.1466 17.5342H15.0806C15.3606 17.5342 15.594 17.4362 15.7806 17.2402C15.9766 17.0536 16.0746 16.8202 16.0746 16.5402L16.1026 8.39224H11.3566C11.002 8.39224 10.6986 8.27091 10.4466 8.02824C10.204 7.78558 10.0826 7.48691 10.0826 7.13224V2.35824H5.01463C4.73463 2.35824 4.49663 2.45624 4.30063 2.65224C4.11397 2.83891 4.02063 3.07224 4.02063 3.35224V10.9682C3.6753 10.8376 3.26463 10.7722 2.78863 10.7722C2.64863 10.7722 2.54597 10.7769 2.48063 10.7862V2.65224C2.48063 2.13891 2.6533 1.70491 2.99863 1.35024C3.34397 0.995577 3.76863 0.818244 4.27263 0.818244H11.2726C11.422 0.818244 11.5853 0.855577 11.7626 0.930244C11.9493 1.00491 12.094 1.09358 12.1966 1.19624L17.2366 6.29224C17.3486 6.39491 17.442 6.53491 17.5166 6.71224C17.5913 6.88958 17.6286 7.05758 17.6286 7.21624V17.2402C17.6286 17.7536 17.456 18.1876 17.1106 18.5422C16.7653 18.8969 16.3406 19.0742 15.8366 19.0742H11.0346ZM11.5106 6.47424C11.5106 6.61424 11.5573 6.73558 11.6506 6.83824C11.744 6.93158 11.8606 6.97824 12.0006 6.97824H15.8926L11.5106 2.66624V6.47424Z" fill="#1F2326"/>
</svg>
