<svg width="18" height="20" viewBox="0 0 18 20" fill="none" xmlns="http://www.w3.org/2000/svg">
<path d="M7.06663 15.2802C7.07597 15.4576 7.0293 15.5976 6.92663 15.7002C6.8333 15.8122 6.70263 15.8682 6.53463 15.8682C6.3853 15.8682 6.2593 15.8216 6.15663 15.7282C6.0633 15.6349 6.0073 15.5136 5.98863 15.3642L5.61063 7.60824C5.6013 7.43091 5.6433 7.29091 5.73663 7.18824C5.8393 7.07624 5.97463 7.02024 6.14263 7.02024C6.29197 7.02024 6.41797 7.06691 6.52063 7.16024C6.6233 7.24424 6.6793 7.36091 6.68863 7.51024L7.06663 15.2802ZM9.54463 15.3222C9.54463 15.4809 9.4933 15.6116 9.39063 15.7142C9.28797 15.8169 9.1573 15.8682 8.99863 15.8682C8.83997 15.8682 8.7093 15.8169 8.60663 15.7142C8.5133 15.6116 8.46663 15.4809 8.46663 15.3222V7.55224C8.46663 7.39358 8.51797 7.26758 8.62063 7.17424C8.7233 7.07158 8.8493 7.02024 8.99863 7.02024C9.1573 7.02024 9.28797 7.07158 9.39063 7.17424C9.4933 7.26758 9.54463 7.39358 9.54463 7.55224V15.3222ZM12.0366 15.3502C12.0273 15.4996 11.9713 15.6209 11.8686 15.7142C11.766 15.8169 11.6446 15.8682 11.5046 15.8682C11.3273 15.8682 11.1873 15.8122 11.0846 15.7002C10.982 15.5976 10.94 15.4622 10.9586 15.2942L11.3226 7.53824C11.332 7.38891 11.3833 7.26758 11.4766 7.17424C11.5793 7.07158 11.7053 7.02024 11.8546 7.02024C12.032 7.02024 12.172 7.07624 12.2746 7.18824C12.3773 7.29091 12.4193 7.42158 12.4006 7.58024L12.0366 15.3502ZM16.8526 3.74424C17.086 3.74424 17.2773 3.81891 17.4266 3.96824C17.576 4.10824 17.6506 4.29024 17.6506 4.51424C17.6506 4.73824 17.576 4.92491 17.4266 5.07424C17.2773 5.21424 17.086 5.28424 16.8526 5.28424H15.7746L15.0326 16.0502C14.9953 16.6196 14.8366 17.1282 14.5566 17.5762C14.2766 18.0336 13.9033 18.3882 13.4366 18.6402C12.9793 18.8922 12.466 19.0182 11.8966 19.0182H6.14263C5.56397 19.0182 5.0413 18.8922 4.57463 18.6402C4.10797 18.3976 3.72997 18.0522 3.44063 17.6042C3.16063 17.1656 3.00197 16.6616 2.96463 16.0922L2.20863 5.28424H1.10263C0.878633 5.28424 0.691966 5.21424 0.542633 5.07424C0.402633 4.92491 0.332633 4.73824 0.332633 4.51424C0.332633 4.29024 0.402633 4.10824 0.542633 3.96824C0.691966 3.81891 0.878633 3.74424 1.10263 3.74424H4.88263L4.86863 2.97424C4.84997 2.36758 5.0273 1.86824 5.40063 1.47624C5.7833 1.08424 6.2733 0.888244 6.87063 0.888244H11.0426C11.6493 0.888244 12.1486 1.07958 12.5406 1.46224C12.9326 1.84491 13.1286 2.33491 13.1286 2.93224V3.74424H16.8526ZM4.35063 15.7142C4.38797 16.2276 4.5653 16.6476 4.88263 16.9742C5.2093 17.3009 5.60597 17.4689 6.07263 17.4782H11.8826C12.3493 17.4782 12.746 17.3149 13.0726 16.9882C13.3993 16.6616 13.5813 16.2416 13.6186 15.7282L14.3046 5.28424H3.66463L4.35063 15.7142ZM6.42263 3.74424H11.5886V2.80624C11.5886 2.65691 11.542 2.54024 11.4486 2.45624C11.3646 2.36291 11.248 2.31624 11.0986 2.31624H6.89863C6.7493 2.31624 6.62797 2.36291 6.53463 2.45624C6.45063 2.54024 6.40863 2.65691 6.40863 2.80624L6.42263 3.74424Z" fill="#1F2326"/>
</svg>
