<svg width="22" height="18" viewBox="0 0 22 18" fill="none" xmlns="http://www.w3.org/2000/svg"><g fill="#27292A"><path fill-rule="evenodd" clip-rule="evenodd" d="M5.633 12.075a1.173 1.173 0 0 1-.736-1.088V7.376c0-.497.31-.922.746-1.093-.746-.407-1.99-.807-4.005-.807a.75.75 0 1 1 0-1.5c2.549 0 4.149.584 5.135 1.238a4.315 4.315 0 0 1 1.073.99h6.306l.045-.06c.21-.27.537-.604 1.028-.93.986-.654 2.586-1.238 5.135-1.238a.75.75 0 0 1 0 1.5c-2.02 0-3.264.402-4.01.81.434.172.74.595.74 1.09v3.61c0 .492-.301.912-.73 1.087.747.406 1.989.805 4 .805a.75.75 0 1 1 0 1.5c-2.55 0-4.15-.585-5.135-1.24a4.316 4.316 0 0 1-1.066-.98h-6.32a4.315 4.315 0 0 1-1.066.98c-.986.655-2.586 1.24-5.135 1.24a.75.75 0 0 1 0-1.5c2.007 0 3.248-.398 3.995-.803Zm1.78-4.372h8.178v2.956h-.907a.744.744 0 0 0-.233 0H7.547a.744.744 0 0 0-.233 0h-.917V7.703h1.017Z"/><path d="M19.08 10.66a.5.5 0 0 1-.264-.44v-2.5a.5.5 0 0 1 1 0v1.566l.473-.315a.5.5 0 0 1 .554.832l-1.25.833a.5.5 0 0 1-.513.025ZM2.802 7.34a.5.5 0 0 1 .264.44v2.497a.5.5 0 0 1-1 0V8.713l-.473.315a.5.5 0 0 1-.554-.832l1.25-.833a.5.5 0 0 1 .513-.025Z"/></g></svg>