<svg width="22" height="18" viewBox="0 0 22 18" fill="none" xmlns="http://www.w3.org/2000/svg"><path d="M12 3.25c-.69 0-1.25.56-1.25 1.25v3.75h-.25a.75.75 0 0 0 0 1.5h.25v3.75c0 .69.56 1.25 1.25 1.25h1a.75.75 0 0 0 0-1.5h-.75v-8.5H13a.75.75 0 0 0 0-1.5h-1Z" fill="#27292A"/><path fill-rule="evenodd" clip-rule="evenodd" d="M1.33 6.25A1.08 1.08 0 0 0 .25 7.33v3.34c0 .597.483 1.08 1.08 1.08h6.34a1.08 1.08 0 0 0 1.08-1.08V7.33a1.08 1.08 0 0 0-1.08-1.08H1.33Zm.42 4v-2.5h5.5v2.5h-5.5Z" fill="#27292A"/><path d="M19.5 4.25a.75.75 0 0 1 0 1.5h-4a.75.75 0 0 1 0-1.5h4ZM20.25 9a.75.75 0 0 0-.75-.75h-4a.75.75 0 0 0 0 1.5h4a.75.75 0 0 0 .75-.75ZM19.5 12.25a.75.75 0 0 1 0 1.5h-4a.75.75 0 0 1 0-1.5h4Z" fill="#27292A"/></svg>