<svg width="22" height="18" viewBox="0 0 22 18" fill="none" xmlns="http://www.w3.org/2000/svg"><path d="M10 3.25c.69 0 1.25.56 1.25 1.25v3.75h.25a.75.75 0 0 1 0 1.5h-.25v3.75c0 .69-.56 1.25-1.25 1.25H9a.75.75 0 0 1 0-1.5h.75v-8.5H9a.75.75 0 0 1 0-1.5h1Z" fill="#27292A"/><path fill-rule="evenodd" clip-rule="evenodd" d="M20.67 6.25c.597 0 1.08.483 1.08 1.08v3.34a1.08 1.08 0 0 1-1.08 1.08h-6.34a1.08 1.08 0 0 1-1.08-1.08V7.33c0-.597.483-1.08 1.08-1.08h6.34Zm-5.92 4h5.5v-2.5h-5.5v2.5Z" fill="#27292A"/><path d="M2.5 4.25a.75.75 0 0 0 0 1.5h4a.75.75 0 0 0 0-1.5h-4ZM1.75 9a.75.75 0 0 1 .75-.75h4a.75.75 0 0 1 0 1.5h-4A.75.75 0 0 1 1.75 9ZM2.5 12.25a.75.75 0 0 0 0 1.5h4a.75.75 0 0 0 0-1.5h-4Z" fill="#27292A"/></svg>