<svg width="22" height="18" viewBox="0 0 22 18" fill="none" xmlns="http://www.w3.org/2000/svg"><path fill-rule="evenodd" clip-rule="evenodd" d="M14.416 5.376a.75.75 0 0 1 .208 1.04L13.401 8.25h2.174l1.282-2.136a.75.75 0 1 1 1.286.772l-.818 1.364H21a.75.75 0 0 1 0 1.5h-2.675l.818 1.364a.75.75 0 0 1-1.286.772L16.575 9.75h-2.174l1.223 1.834a.75.75 0 1 1-1.248.832L12.599 9.75h-.588a.76.76 0 0 1-.023 0H10.25v.92a1.08 1.08 0 0 1-1.08 1.08H2.83a1.08 1.08 0 0 1-1.08-1.08V7.33c0-.597.483-1.08 1.08-1.08h6.34c.597 0 1.08.483 1.08 1.08v.92h1.349l1.777-2.666a.75.75 0 0 1 1.04-.208ZM3.25 10.25v-2.5h5.5v2.5h-5.5Z" fill="#27292A"/></svg>