<svg width="22" height="18" viewBox="0 0 22 18" fill="none" xmlns="http://www.w3.org/2000/svg"><path fill-rule="evenodd" clip-rule="evenodd" d="M7.584 5.376a.75.75 0 0 0-.208 1.04L8.599 8.25H6.425L5.143 6.114a.75.75 0 0 0-1.286.772l.818 1.364H1a.75.75 0 0 0 0 1.5h2.675l-.818 1.364a.75.75 0 0 0 1.286.772L5.425 9.75h.562a.75.75 0 0 0 .027 0H7.6l-1.223 1.834a.75.75 0 1 0 1.248.832L9.401 9.75h2.349v.92c0 .597.483 1.08 1.08 1.08h6.34a1.08 1.08 0 0 0 1.08-1.08V7.33a1.08 1.08 0 0 0-1.08-1.08h-6.34a1.08 1.08 0 0 0-1.08 1.08v.92h-1.349L8.624 5.584a.75.75 0 0 0-1.04-.208ZM18.75 10.25v-2.5h-5.5v2.5h5.5Z" fill="#27292A"/></svg>