<svg width="22" height="18" viewBox="0 0 22 18" fill="none" xmlns="http://www.w3.org/2000/svg"><path fill-rule="evenodd" clip-rule="evenodd" d="M14 3.25c-.69 0-1.25.56-1.25 1.25v3.75h-2V6.8c0-.58-.47-1.05-1.05-1.05H2.3c-.58 0-1.05.47-1.05 1.05v4.4c0 .58.47 1.05 1.05 1.05h7.4c.58 0 1.05-.47 1.05-1.05V9.75h2v3.75c0 .69.56 1.25 1.25 1.25h4a.75.75 0 0 0 0-1.5h-3.75v-3.5H18a.75.75 0 0 0 0-1.5h-3.75v-3.5H18a.75.75 0 0 0 0-1.5h-4Zm-4.75 4v1.723a.774.774 0 0 0 0 .054v1.723h-6.5v-3.5h6.5Z" fill="#27292A"/></svg>