<svg width="22" height="18" viewBox="0 0 22 18" fill="none" xmlns="http://www.w3.org/2000/svg"><path fill-rule="evenodd" clip-rule="evenodd" d="M7.846 6.203h6.306l.045-.059c.21-.27.537-.604 1.028-.93.986-.654 2.586-1.238 5.135-1.238a.75.75 0 0 1 0 1.5c-2.02 0-3.264.402-4.009.81.434.172.74.595.74 1.09v3.61c0 .492-.302.912-.73 1.087.746.406 1.988.805 3.999.805a.75.75 0 1 1 0 1.5c-2.55 0-4.149-.585-5.135-1.24a4.312 4.312 0 0 1-1.066-.98h-6.32a4.315 4.315 0 0 1-1.066.98c-.986.655-2.586 1.24-5.135 1.24a.75.75 0 0 1 0-1.5c2.007 0 3.249-.398 3.996-.803a1.173 1.173 0 0 1-.736-1.088V7.375c0-.497.309-.922.745-1.093-.746-.407-1.99-.808-4.005-.808a.75.75 0 1 1 0-1.5c2.549 0 4.149.585 5.135 1.24a4.315 4.315 0 0 1 1.073.988Zm-.3 4.456a.744.744 0 0 0-.231 0h-.917V7.703H15.59v2.956h-.907a.746.746 0 0 0-.232 0H7.545Z" fill="#27292A"/></svg>