<svg width="22" height="18" viewBox="0 0 22 18" fill="none" xmlns="http://www.w3.org/2000/svg"><path fill-rule="evenodd" clip-rule="evenodd" d="M6.25 4.3c0-.58.47-1.05 1.05-1.05h7.4c.58 0 1.05.47 1.05 1.05v3.4c0 .58-.47 1.05-1.05 1.05h-2.95v1.5H18c.69 0 1.25.56 1.25 1.25V14a.75.75 0 0 1-1.5 0v-2.25h-6V14a.75.75 0 0 1-1.5 0v-2.25h-6V14a.75.75 0 0 1-1.5 0v-2.5c0-.69.56-1.25 1.25-1.25h6.25v-1.5H7.3c-.58 0-1.05-.47-1.05-1.05V4.3Zm8 2.95h-3.223a.772.772 0 0 0-.054 0H7.75v-2.5h6.5v2.5Z" fill="#27292A"/></svg>