<svg width="22" height="18" viewBox="0 0 22 18" fill="none" xmlns="http://www.w3.org/2000/svg"><path d="M12.75 6.5a.75.75 0 0 0-1.5 0v1.75H9a.75.75 0 0 0 0 1.5h5.25v1.75a.75.75 0 0 0 1.5 0V9.75h4.75a.75.75 0 0 0 0-1.5h-1.75V6.5a.75.75 0 0 0-1.5 0v1.75h-4.5V6.5Z" fill="#27292A"/><path fill-rule="evenodd" clip-rule="evenodd" d="M.75 7.33c0-.597.483-1.08 1.08-1.08h6.34c.597 0 1.08.483 1.08 1.08v3.34a1.08 1.08 0 0 1-1.08 1.08H1.83a1.08 1.08 0 0 1-1.08-1.08V7.33Zm1.5.42v2.5h5.5v-2.5h-5.5Z" fill="#27292A"/></svg>