<svg width="22" height="18" viewBox="0 0 22 18" fill="none" xmlns="http://www.w3.org/2000/svg"><path fill-rule="evenodd" clip-rule="evenodd" d="M6.25 3.3c0-.58.47-1.05 1.05-1.05h7.4c.58 0 1.05.47 1.05 1.05v3.4c0 .58-.47 1.05-1.05 1.05H7.3c-.58 0-1.05-.47-1.05-1.05V3.3Zm1.5.45v2.5h6.5v-2.5h-6.5Z" fill="#27292A"/><path d="M11.75 7a.75.75 0 0 0-1.5 0v1.75H9.5a.75.75 0 0 0 0 1.5h.75v1H9.5a.75.75 0 0 0 0 1.5h.75v1H9.5a.75.75 0 0 0 0 1.5h.75V16a.75.75 0 0 0 1.5 0v-.75h.75a.75.75 0 0 0 0-1.5h-.75v-1h.75a.75.75 0 0 0 0-1.5h-.75v-1h.75a.75.75 0 0 0 0-1.5h-.75V7Z" fill="#27292A"/></svg>