<svg width="326" height="310" viewBox="0 0 326 310" fill="none" xmlns="http://www.w3.org/2000/svg"><path fill="#F5F4C9" d="M0 0h326v310H0z"/><mask id="encryptMindMap_a" style="mask-type:alpha" maskUnits="userSpaceOnUse" x="0" y="0" width="326" height="310"><path fill="#FFFDD2" d="M0 0h326v310H0z"/></mask><g mask="url(#encryptMindMap_a)"><path fill-rule="evenodd" clip-rule="evenodd" d="M95.778 198a1 1 0 0 1 1 1v2.375a1 1 0 0 1-2 0V199a1 1 0 0 1 1-1Zm0 7.125a1 1 0 0 1 1 1v1.375h.992a1 1 0 0 1 0 2h-2.992v-3.375a1 1 0 0 1 1-1Zm4.976 3.375a1 1 0 0 1 1-1h3.984a1 1 0 0 1 0 2h-3.984a1 1 0 0 1-1-1Zm7.968 0a1 1 0 0 1 1-1h3.983a1 1 0 1 1 0 2h-3.983a1 1 0 0 1-1-1Zm7.967 0a1 1 0 0 1 1-1h3.984a1 1 0 0 1 0 2h-3.984a1 1 0 0 1-1-1Zm7.968 0a1 1 0 0 1 1-1h3.984a1 1 0 0 1 0 2h-3.984a1 1 0 0 1-1-1Zm7.967 0a1 1 0 0 1 1-1h3.984a1 1 0 1 1 0 2h-3.984a1 1 0 0 1-1-1Zm7.968 0a1 1 0 0 1 1-1h3.984a1 1 0 0 1 0 2h-3.984a1 1 0 0 1-1-1Zm7.968 0a1 1 0 0 1 1-1h3.983a1 1 0 1 1 0 2h-3.983a1 1 0 0 1-1-1Zm7.967 0a1 1 0 0 1 1-1h3.984a1 1 0 0 1 0 2h-3.984a1 1 0 0 1-1-1Zm7.968 0a1 1 0 0 1 1-1h1.992a1 1 0 0 1 0 2h-1.992a1 1 0 0 1-1-1Z" fill="#E4E2B5" fill-opacity=".5"/><path d="M60.676 199v22.5H48.14v15" stroke="#E4E2B5" stroke-opacity=".5" stroke-width="2" stroke-linecap="round" stroke-dasharray="4 4"/><path fill-rule="evenodd" clip-rule="evenodd" d="M25.577 124a1 1 0 0 1 1-1h2.382a1 1 0 0 1 0 2h-2.382a1 1 0 0 1-1-1Zm7.146 0a1 1 0 0 1 1-1h3.382v2.911a1 1 0 0 1-2 0V125h-1.382a1 1 0 0 1-1-1Zm3.382 4.732a1 1 0 0 1 1 1v3.822a1 1 0 0 1-2 0v-3.822a1 1 0 0 1 1-1Zm0 7.643a1 1 0 0 1 1 1v3.821a1 1 0 1 1-2 0v-3.821a1 1 0 0 1 1-1Zm0 7.643a1 1 0 0 1 1 1v3.821a1 1 0 1 1-2 0v-3.821a1 1 0 0 1 1-1Zm0 7.643a1 1 0 0 1 1 1v3.821a1 1 0 0 1-2 0v-3.821a1 1 0 0 1 1-1Zm0 7.643a1 1 0 0 1 1 1v3.821a1 1 0 0 1-2 0v-3.821a1 1 0 0 1 1-1Zm0 7.642a1 1 0 0 1 1 1v3.822a1 1 0 0 1-2 0v-3.822a1 1 0 0 1 1-1Zm0 7.643a1 1 0 0 1 1 1v.911h.836a1 1 0 0 1 0 2h-2.836v-2.911a1 1 0 0 1 1-1Zm4.509 2.911a1 1 0 0 1 1-1h3.672a1 1 0 0 1 0 2h-3.672a1 1 0 0 1-1-1Zm7.345 0a1 1 0 0 1 1-1h3.672a1 1 0 0 1 0 2H48.96a1 1 0 0 1-1-1Zm7.345 0a1 1 0 0 1 1-1h1.836a1 1 0 0 1 0 2h-1.836a1 1 0 0 1-1-1ZM106.813 136h2.974a1 1 0 0 1 0 2h-.974v1.219a1 1 0 1 1-2 0V136Zm5.92 1a1 1 0 0 1 1-1h3.947a1 1 0 0 1 0 2h-3.947a1 1 0 0 1-1-1Zm7.894 0a1 1 0 0 1 1-1h3.946a1 1 0 1 1 0 2h-3.946a1 1 0 0 1-1-1Zm7.893 0a1 1 0 0 1 1-1h3.947a1 1 0 0 1 0 2h-3.947a1 1 0 0 1-1-1Zm7.893 0a1 1 0 0 1 1-1h3.947a1 1 0 0 1 0 2h-3.947a1 1 0 0 1-1-1Zm7.894 0a1 1 0 0 1 1-1h3.946a1 1 0 0 1 0 2h-3.946a1 1 0 0 1-1-1Zm7.893 0a1 1 0 0 1 1-1h3.947a1 1 0 0 1 0 2H153.2a1 1 0 0 1-1-1Zm7.893 0a1 1 0 0 1 1-1h3.947a1 1 0 0 1 0 2h-3.947a1 1 0 0 1-1-1Zm7.894 0a1 1 0 0 1 1-1h3.946a1 1 0 0 1 0 2h-3.946a1 1 0 0 1-1-1Zm7.893 0a1 1 0 0 1 1-1h3.946a1 1 0 1 1 0 2h-3.946a1 1 0 0 1-1-1Zm7.893 0a1 1 0 0 1 1-1h3.947a1 1 0 0 1 0 2h-3.947a1 1 0 0 1-1-1Zm7.893 0a1 1 0 0 1 1-1h3.947a1 1 0 0 1 0 2h-3.947a1 1 0 0 1-1-1Zm7.894 0a1 1 0 0 1 1-1h3.946a1 1 0 1 1 0 2h-3.946a1 1 0 0 1-1-1Zm7.893 0a1 1 0 0 1 1-1h3.947a1 1 0 0 1 0 2h-3.947a1 1 0 0 1-1-1Zm7.893 0a1 1 0 0 1 1-1h3.947a1 1 0 0 1 0 2h-3.947a1 1 0 0 1-1-1Zm7.894 0a1 1 0 0 1 1-1h3.946a1 1 0 1 1 0 2h-3.946a1 1 0 0 1-1-1Zm7.893 0a1 1 0 0 1 1-1h3.947a1 1 0 0 1 0 2h-3.947a1 1 0 0 1-1-1Zm7.893 0a1 1 0 0 1 1-1h3.947a1 1 0 0 1 0 2h-3.947a1 1 0 0 1-1-1Zm7.894 0a1 1 0 0 1 1-1h3.946a1 1 0 1 1 0 2h-3.946a1 1 0 0 1-1-1Zm7.893 0a1 1 0 0 1 1-1h3.947a1 1 0 0 1 0 2h-3.947a1 1 0 0 1-1-1Zm7.893 0a1 1 0 0 1 1-1h3.947a1 1 0 0 1 0 2h-3.947a1 1 0 0 1-1-1Zm7.894 0a1 1 0 0 1 1-1h3.946a1 1 0 0 1 0 2H271.6a1 1 0 0 1-1-1Zm7.893 0a1 1 0 0 1 1-1h3.947a1 1 0 0 1 0 2h-3.947a1 1 0 0 1-1-1Zm7.893 0a1 1 0 0 1 1-1h3.947a1 1 0 0 1 0 2h-3.947a1 1 0 0 1-1-1Zm7.893 0a1 1 0 0 1 1-1h3.947a1 1 0 0 1 0 2h-3.947a1 1 0 0 1-1-1Zm7.894 0a1 1 0 0 1 1-1h3.946a1 1 0 1 1 0 2h-3.946a1 1 0 0 1-1-1Zm7.893 0a1 1 0 0 1 1-1h3.947a1 1 0 0 1 0 2h-3.947a1 1 0 0 1-1-1Zm7.893 0a1 1 0 0 1 1-1h1.974a1 1 0 0 1 0 2h-1.974a1 1 0 0 1-1-1Zm-210.146 5.656a1 1 0 0 1 1 1v4.438a1 1 0 1 1-2 0v-4.438a1 1 0 0 1 1-1Zm0 8.875a1 1 0 0 1 1 1v4.438a1 1 0 1 1-2 0v-4.438a1 1 0 0 1 1-1Zm0 8.875a1 1 0 0 1 1 1v4.438a1 1 0 1 1-2 0v-4.438a1 1 0 0 1 1-1Zm0 8.875a1 1 0 0 1 1 1v3.219h-3.294a1 1 0 1 1 0-2h1.294v-1.219a1 1 0 0 1 1-1ZM79.277 172.5a1 1 0 0 1 1-1h2.295a1 1 0 0 1 0 2h-2.295a1 1 0 0 1-1-1Zm6.884 0a1 1 0 0 1 1-1h4.59a1 1 0 0 1 0 2h-4.59a1 1 0 0 1-1-1Zm9.179 0a1 1 0 0 1 1-1h4.589a1 1 0 0 1 0 2h-4.59a1 1 0 0 1-1-1Z" fill="#E4E2B5" fill-opacity=".5"/><path d="M60.175 272v-35H39.114l-6.018 6v29h27.079Z" fill="#F3F0AA"/><path d="M39.114 243v-6l-6.018 6h6.018Z" fill="#E7E16B"/><path d="M187.746 219v-21h-12.637l-3.61 3.6V219h16.247Z" fill="#F3F0AA"/><path d="M175.109 201.6V198l-3.61 3.6h3.61Z" fill="#E7E16B"/><g opacity=".7"><path d="M349.015 154v-35h-21.062l-6.017 6v29h27.079Z" fill="#F3F0AA"/><path d="M327.953 125v-6l-6.017 6h6.017Z" fill="#E7E16B"/></g><g opacity=".5"><path d="M26.076 134.037V112H12.815l-3.789 3.778v18.259h17.05Z" fill="#F3F0AA"/><path d="M12.815 115.778V112l-3.789 3.778h3.789Z" fill="#E7E16B"/></g><path fill-rule="evenodd" clip-rule="evenodd" d="M71.709 200.5a1 1 0 0 1 1 1c0 .628.026 1.279.08 1.953a1 1 0 1 1-1.993.16 26.39 26.39 0 0 1-.088-2.113 1 1 0 0 1 1-1Zm.472 6.075a1 1 0 0 1 1.185.772c.26 1.237.6 2.523 1.024 3.85a1 1 0 0 1-1.906.608 41.535 41.535 0 0 1-1.075-4.046 1 1 0 0 1 .772-1.184Zm2.276 7.824a1 1 0 0 1 1.307.541 54.386 54.386 0 0 0 1.675 3.652 1 1 0 1 1-1.786.899 56.57 56.57 0 0 1-1.737-3.785 1 1 0 0 1 .541-1.307Zm3.534 7.358a.999.999 0 0 1 1.37.354 66.853 66.853 0 0 0 2.139 3.394 1 1 0 1 1-1.66 1.116 68.968 68.968 0 0 1-2.203-3.495 1 1 0 0 1 .354-1.369Zm4.446 6.826a1 1 0 0 1 1.4.194 76.625 76.625 0 0 0 2.515 3.145 1 1 0 0 1-1.53 1.289 79.181 79.181 0 0 1-2.58-3.227 1 1 0 0 1 .195-1.401Zm5.175 6.304a.999.999 0 0 1 1.413.05 85.928 85.928 0 0 0 2.818 2.883 1.001 1.001 0 0 1-1.398 1.431 87.275 87.275 0 0 1-2.883-2.951 1 1 0 0 1 .05-1.413Zm5.767 5.766a1 1 0 0 1 1.412-.08 93.54 93.54 0 0 0 3.07 2.622 1 1 0 0 1-1.267 1.548 95.681 95.681 0 0 1-3.135-2.678 1 1 0 0 1-.08-1.412Zm6.26 5.234a1 1 0 0 1 1.401-.199c1.061.797 2.155 1.586 3.282 2.365a1 1 0 1 1-1.136 1.646 103.411 103.411 0 0 1-3.348-2.412 1 1 0 0 1-.198-1.4Zm6.679 4.711a1 1 0 0 1 1.38-.307c1.117.71 2.263 1.41 3.439 2.099a1 1 0 1 1-1.011 1.726 112.076 112.076 0 0 1-3.501-2.137 1 1 0 0 1-.307-1.381Zm6.982 4.176a1 1 0 0 1 1.355-.406 117.16 117.16 0 0 0 3.594 1.86 1 1 0 0 1-.889 1.792 119.92 119.92 0 0 1-3.654-1.891 1 1 0 0 1-.406-1.355Zm7.291 3.695a1 1 0 0 1 1.325-.495c1.208.551 2.442 1.09 3.701 1.617a1.001 1.001 0 0 1-.773 1.845 130.6 130.6 0 0 1-3.758-1.643 1 1 0 0 1-.495-1.324Zm7.482 3.201a1 1 0 0 1 1.292-.576c1.247.479 2.518.945 3.812 1.398a1.001 1.001 0 0 1-.662 1.888c-1.312-.46-2.601-.933-3.866-1.419a1 1 0 0 1-.576-1.291Zm7.693 2.757a.999.999 0 0 1 1.256-.648c1.266.404 2.553.796 3.862 1.175a1 1 0 1 1-.557 1.921c-1.326-.384-2.63-.781-3.913-1.191a1 1 0 0 1-.648-1.257Zm7.819 2.321a1 1 0 0 1 1.22-.714c1.29.337 2.599.662 3.928.975a1 1 0 1 1-.457 1.946 165.125 165.125 0 0 1-3.977-.986 1 1 0 0 1-.714-1.221Zm41.506.437 9.976 5.815-10.024 5.732.021-4.936a22.189 22.189 0 0 1-.263-.011 1 1 0 1 1 .085-1.998l.186.008.019-4.61ZM151.5 268.66a1 1 0 0 1 1.184-.774c1.317.276 2.652.54 4.006.791a1 1 0 0 1-.365 1.967c-1.369-.254-2.72-.521-4.051-.8a1 1 0 0 1-.774-1.184Zm8.009 1.533a1.002 1.002 0 0 1 1.148-.827c1.326.216 2.67.419 4.031.61a1 1 0 1 1-.277 1.981 195.488 195.488 0 0 1-4.075-.616 1.002 1.002 0 0 1-.827-1.148Zm8.075 1.177c.066-.548.563-.94 1.112-.875 1.331.159 2.679.306 4.042.441a1 1 0 1 1-.196 1.99 198.551 198.551 0 0 1-4.083-.445 1 1 0 0 1-.875-1.111Zm8.118.843a1 1 0 0 1 1.076-.918c1.335.106 2.685.2 4.05.283a1 1 0 1 1-.121 1.996 214.95 214.95 0 0 1-4.087-.285 1 1 0 0 1-.918-1.076Z" fill="#E4E2B5"/></g><path fill-rule="evenodd" clip-rule="evenodd" d="M139.408 172h3.073a1 1 0 0 1 0 2h-1.073v.625a1 1 0 0 1-2 0V172Zm6.218 1a1 1 0 0 1 1-1h4.146a1 1 0 0 1 0 2h-4.146a1 1 0 0 1-1-1Zm8.291 0a1 1 0 0 1 1-1h4.146a1 1 0 0 1 0 2h-4.146a1 1 0 0 1-1-1Zm8.291 0a1 1 0 0 1 1-1h4.145a1 1 0 1 1 0 2h-4.145a1 1 0 0 1-1-1Zm8.291 0a1 1 0 0 1 1-1h4.145a1 1 0 1 1 0 2h-4.145a1 1 0 0 1-1-1Zm8.291 0a1 1 0 0 1 1-1h4.145a1 1 0 0 1 0 2h-4.145a1 1 0 0 1-1-1Zm8.291 0a1 1 0 0 1 1-1h4.145a1 1 0 0 1 0 2h-4.145a1 1 0 0 1-1-1Zm8.29 0a1 1 0 0 1 1-1h4.146a1 1 0 0 1 0 2h-4.146a1 1 0 0 1-1-1Zm8.291 0a1 1 0 0 1 1-1h4.146a1 1 0 0 1 0 2h-4.146a1 1 0 0 1-1-1Zm8.291 0a1 1 0 0 1 1-1h4.146a1 1 0 0 1 0 2h-4.146a1 1 0 0 1-1-1Zm8.291 0a1 1 0 0 1 1-1h4.145a1 1 0 1 1 0 2h-4.145a1 1 0 0 1-1-1Zm8.291 0a1 1 0 0 1 1-1h4.145a1 1 0 1 1 0 2h-4.145a1 1 0 0 1-1-1Zm8.291 0a1 1 0 0 1 1-1h4.145a1 1 0 1 1 0 2h-4.145a1 1 0 0 1-1-1Zm8.291 0a1 1 0 0 1 1-1h2.072a1 1 0 1 1 0 2h-2.072a1 1 0 0 1-1-1Zm-104.709 3.875a1 1 0 0 1 1 1v3.25a1 1 0 0 1-2 0v-3.25a1 1 0 0 1 1-1Zm-36.134 14.899-10-5.774 10-5.774v4.852a1.002 1.002 0 0 1 0 1.844v4.852Zm36.134-8.399a1 1 0 0 1 1 1V187h-2.922a1 1 0 1 1 0-2h.922v-.625a1 1 0 0 1 1-1ZM106.73 186a1 1 0 0 1 1-1h3.844a1 1 0 1 1 0 2h-3.844a1 1 0 0 1-1-1Zm7.689 0a1 1 0 0 1 1-1h3.844a1 1 0 1 1 0 2h-3.844a1 1 0 0 1-1-1Zm7.689 0a1 1 0 0 1 1-1h3.844a1 1 0 1 1 0 2h-3.844a1 1 0 0 1-1-1Zm7.689 0a1 1 0 0 1 1-1h3.844a1 1 0 1 1 0 2h-3.844a1 1 0 0 1-1-1Z" fill="#E4E2B5"/><rect x="201.586" y="255" width="90.262" height="35" rx="10" fill="#BFB826"/><mask id="encryptMindMap_b" style="mask-type:alpha" maskUnits="userSpaceOnUse" x="201" y="255" width="89" height="35"><path d="M201.586 265c0-5.523 4.477-10 10-10h70.256a8 8 0 0 1 8 8v17c0 5.523-4.477 10-10 10h-68.256c-5.523 0-10-4.477-10-10v-15Z" fill="#9E1818"/></mask><g mask="url(#encryptMindMap_b)"><path d="M199.58 263c0-5.523 4.477-10 10-10h72.262a8 8 0 0 1 8 8v19a8 8 0 0 1-8 8H209.58c-5.523 0-10-4.477-10-10v-15Z" fill="#EFDC2F"/></g><ellipse cx="271.288" cy="272.5" rx="8.525" ry="8.5" fill="#C9B611"/><path d="M274.402 272.259a6.395 6.395 0 0 1-3.113 4.741 6.39 6.39 0 0 1-3.113-4.741l-.398-3.259a2.979 2.979 0 0 0 3.511 0 2.977 2.977 0 0 0 3.51 0l-.397 3.259Z" fill="#fff"/><path d="M58.17 184.5V175c0-6.075 4.938-11 11.031-11 6.093 0 11.032 4.925 11.032 11v9.5" stroke="#000" stroke-width="3"/><rect x="50.146" y="186" width="42.122" height="42" rx="4" fill="#E96025"/><rect x="48.14" y="184" width="42.122" height="42" rx="4" fill="#FF8C5B"/><ellipse cx="69.201" cy="203" rx="4.012" ry="4" fill="#fff"/><path d="M66.694 206h5.014l2.508 8h-10.03l2.508-8Z" fill="#fff"/><path d="M246.717 171h4.012v23.994a2.006 2.006 0 1 1-4.012 0V171Z" fill="#BFB826"/><path d="M255.749 181a2 2 0 1 1 0 4h-8.029v-4h8.029ZM255.749 188a2 2 0 1 1 0 4h-8.029v-4h8.029Z" fill="#BFB826"/><path d="M256.749 163c0 4.416-3.59 8-8.026 8s-8.026-3.584-8.026-8 3.59-8 8.026-8 8.026 3.584 8.026 8Z" fill="#BFB826" stroke="#BFB826" stroke-width="2"/><ellipse cx="248.723" cy="163" rx="3.009" ry="3" fill="#FFFDD2"/></svg>