<svg width="326" height="310" viewBox="0 0 326 310" fill="none" xmlns="http://www.w3.org/2000/svg"><path fill="#D8E1B1" d="M0 0h326v310H0z"/><mask id="handDrawnStyle_a" style="mask-type:alpha" maskUnits="userSpaceOnUse" x="0" y="0" width="326" height="310"><path fill="#E4EDC1" d="M0 0h326v310H0z"/></mask><g mask="url(#handDrawnStyle_a)" fill-rule="evenodd" clip-rule="evenodd" fill="#fff" fill-opacity=".5"><path d="m10.113 145.445 7.53-5.568 3.353 3.673c-6.687 7.504-14.67 13.523-23.113 19.206-3.384 2.278-6.799 4.475-10.24 6.691-5.269 3.39-10.601 6.822-15.99 10.649l-2.934-4.049.5-.37-2.982-3.942c1.168-.922 2.346-1.855 3.532-2.794 6.383-5.054 12.967-10.267 19.08-14.837 7.208-5.389 13.939-10.022 19.016-12.445l2.248 3.786Zm34.615 6.229 5.075-4.453 3.485 3.576c-19.936 21.571-31.732 30.032-43.62 38.275l-3.074-3.933 16.783-14.728-24.075 17.81-3.098-3.921c9.705-8.185 19.594-15.97 27.979-22.157 8.32-6.138 15.327-10.828 19.2-12.697l1.345 2.228Zm-19.903 39.277c9.626-10.498 17.628-16.907 47.831-38.216l3.001 3.996-47.43 37.863-3.402-3.643Zm64.366-28.429 5.328-4.566 3.348 3.711c-6.722 6.387-16.75 14.949-26.344 22.985l25.217-17.268 3.234 3.775c-4.93 5.24-11.506 9.97-18.452 14.398-4.062 2.589-8.388 5.158-12.63 7.677-2.944 1.748-5.847 3.472-8.593 5.162l-1.852-2.851c-1.353 1.124-2.646 2.2-3.864 3.216l-3.228-3.818 33.423-28.64c-9.816 7.584-17.216 12.642-23.396 16.769-.927.62-1.825 1.216-2.697 1.796l-1.133.754-14.375 10.35-2.112-2.739-6.151 4.935-3.184-3.854c17.332-14.738 36.285-29.574 47.42-38.046l3.079 3.939-18.06 14.49 22.163-15.958 2.859 3.783Zm-39.434-3.448c4.022-3.091 7.692-5.912 10.787-8.479l3.217 3.827-46.393 39.504-3.462-3.596c11.585-12.606 24.998-22.915 35.85-31.256Zm-71.907-24.447c.737-.45 1.51-.921 2.348-1.475l3.05 3.944-11.911 10.722.808-6.628c.283-2.314 1.61-3.759 3.085-4.86.704-.526 1.513-1.026 2.315-1.517l.305-.186Zm3.431 20.859c-5.313 4.232-10.203 8.043-14.21 10.109l-2.635-4.229 9.24-6.859-2.475-2.513c3.971-4.622 7.322-7.39 10.358-9.573 1.1-.791 2.096-1.467 3.037-2.105 1.524-1.033 2.902-1.967 4.33-3.128l.642-.535 3.086 3.663c1.175-.858 2.367-1.71 3.573-2.547l2.916 4.061-10.098 7.496a701.165 701.165 0 0 0-5.955 4.718l-1.808 1.442Zm28.273.469 15.534-10.554 2.874 4.091c-5.515 4.007-10.738 7.482-15.655 10.637l-31.697 21.535-3.041-3.958c6.315-5.469 13.46-10.083 21.32-15.024l2.527-1.585c2.628-1.647 5.339-3.346 8.138-5.142Zm-6.3 13.443L32.24 147.11l3.097 3.925c-10.582 8.572-19.422 15.186-27.116 20.902l-1.725 1.281-.23.17-18.323 14.09-3.12-3.907c5.588-4.632 11.597-9.1 18.43-14.173Zm75.429 30.108-8.967 6.655-3.25-3.783c7.527-7.458 14.35-12.241 29.031-21.57l2.831 4.118-6.577 4.881 2.987 1.654c-1.724 3.113-4.698 4.802-7.103 6.121l-.464.255c-2.39 1.308-4.288 2.346-5.632 3.996l-2.856-2.327ZM272.478 280.149l1.064-9.305 4.973.053c.927 10.009-.116 19.951-1.718 30.002-.642 4.029-1.364 8.025-2.091 12.053-1.114 6.165-2.241 12.405-3.118 18.957l-4.962-.616.071-.618-4.916-.508.365-4.489c.657-8.115 1.336-16.485 2.162-24.073.975-8.947 2.177-17.029 3.868-22.394l4.302.938Zm28.164-21.067.205-6.748 4.992-.11c2.178 29.291.321 43.689-1.758 58.005l-4.973-.435.675-22.318-3.394 29.753-4.981-.408c.633-12.68 1.684-25.222 2.878-35.573 1.185-10.271 2.534-18.595 3.809-22.701l2.547.535Zm15.15 41.344c-1.112-14.2-.341-24.423 4.673-61.045l4.97.531-4.658 60.51-4.985.004Zm23.108-66.463.295-7.01 4.997.082c.087 9.272-.492 22.446-1.157 34.943l4.569-30.22 4.967.211c.47 7.178-.556 15.214-2.055 23.313-.877 4.737-1.949 9.653-3 14.474-.729 3.344-1.449 6.643-2.086 9.804l-3.348-.59c-.1 1.756-.195 3.436-.283 5.02l-4.994-.243 1.851-43.977c-1.149 12.351-2.496 21.213-3.693 28.547a1620.353 1620.353 0 0 1-.748 4.54l-2.234 17.572-3.444-.324-.586 7.865-4.991-.301c1.043-22.727 3.12-46.706 4.519-60.628l4.98.435-1.721 23.09 3.446-27.092 4.716.489Zm-29.416 26.488c.482-5.049.922-9.657 1.155-13.671l4.994.258-2.752 60.87-4.99.08c-1.318-17.071.291-33.911 1.593-47.537Zm-66.921 35.914c.173-.845.355-1.732.522-2.723l4.965.459-.283 16.024-4.296-5.112c-1.499-1.784-1.65-3.741-1.45-5.57.096-.874.281-1.806.47-2.727l.072-.351Zm17.595 11.717c-.529 6.772-1.078 12.948-2.299 17.287l-4.891-.957 1.286-11.435-3.525.096c-.672-6.057-.411-10.395.063-14.105.171-1.343.357-2.533.532-3.656.284-1.819.541-3.464.665-5.3l.047-.834 4.784.241c.173-1.445.364-2.897.574-4.351l4.959.638-1.406 12.497c-.227 2.59-.422 5.125-.611 7.573-.059.778-.119 1.547-.178 2.306Zm19.625-20.356 2.877-18.559 4.951.688c-.831 6.767-1.852 12.956-2.897 18.704l-5.869 37.868-4.969-.475c.307-8.348 1.805-16.72 3.554-25.839.185-.967.373-1.943.564-2.929.587-3.045 1.193-6.186 1.789-9.458Zm5.534 13.776 3.47-36.399 4.983.411c-.949 13.585-2.141 24.562-3.208 34.086l-.24 2.136-.031.283-2.194 23.011-4.984-.383c.423-7.246 1.254-14.688 2.204-23.145Zm73.464-34.629-1.248 11.096-4.984-.204c-.321-10.59.836-18.843 4.026-35.942l4.942.738-.916 8.139 3.246-1.056c1.101 3.384.308 6.711-.367 9.369l-.131.513c-.673 2.641-1.208 4.737-.918 6.845l-3.65.502ZM44.492 252.437l2.58-4.4 2.716 1.24c-1.797 5.311-4.559 10.122-7.62 14.852-.166.256-.333.511-.5.765l.752-1.088.94-1.354c.978-1.408 1.986-2.859 3.019-4.38l5.608-8.745 2.55 1.58c-1.938 3.242-3.84 6.146-5.655 8.819l-11.444 17.846-2.61-1.468c1.115-2.287 2.41-4.493 3.834-6.715l-.252.374c-1.94 2.866-3.903 5.764-5.814 8.883l-2.573-1.542.209-.355-2.366-1.354 1.192-2.193c2.154-3.965 4.377-8.057 6.497-11.717 2.498-4.313 4.921-8.143 6.979-10.48l1.958 1.432Zm18.731-4.051 1.591-3.316 2.765 1.155c-5.515 15.393-9.684 22.273-13.944 29.058l-2.623-1.447 4.095-8.535-6.872 11.724-2.633-1.434c3.17-6.291 6.518-12.414 9.444-17.391 2.901-4.935 5.45-8.853 7.018-10.648l1.16.834Zm-1.81 24.628c2.649-7.482 5.34-12.5 16.079-29.915l2.597 1.498-15.94 29.628-2.735-1.211Zm26.495-28.39 1.69-3.421 2.722 1.26c-1.806 4.176-4.554 9.774-7.337 15.287l7.721-12.139 2.674 1.323c-1.387 3.767-3.712 7.614-6.283 11.377-1.503 2.199-3.146 4.447-4.755 6.65a354.827 354.827 0 0 0-3.242 4.482l-1.553-1.042c-.435.847-.85 1.658-1.241 2.424l-2.68-1.347 9-18.209a222.063 222.063 0 0 1-6.197 10c-.337.517-.664 1.015-.982 1.5l-.411.628-5.067 8.394-1.662-.931-2.036 3.807-2.665-1.377c5.637-11.297 12.07-22.986 15.9-29.727l2.627 1.449-3.859 7.214 5.37-8.898 2.266 1.296Zm-20.62 6.586c1.376-2.448 2.63-4.681 3.648-6.659l2.676 1.355-15.073 30.26-2.756-1.171c3.19-8.986 7.79-17.171 11.505-23.785Zm-41.361 2.49c.277-.389.566-.794.87-1.257l2.613 1.459-3.914 8.425-1.08-3.955c-.35-1.28.022-2.33.543-3.228.247-.426.553-.86.853-1.283l.115-.161Zm6.353 10.154c-1.786 3.311-3.454 6.329-5.048 8.256l-2.451-1.713 3.227-5.525-1.796-.739c1.031-3.241 2.141-5.39 3.216-7.168.391-.648.753-1.211 1.094-1.74.548-.854 1.041-1.621 1.514-2.519l.212-.413 2.358 1.19c.402-.676.814-1.352 1.236-2.024l2.566 1.553-3.512 6.014c-.696 1.26-1.363 2.501-2.008 3.699-.205.381-.407.758-.608 1.129Zm13.745 2.521 9.92-17.665 2.634 1.436c-3.531 6.677-6.596 11.971-9.272 16.557l-.6 1.027-.08.137-6.27 11.166-2.642-1.42c1.843-3.583 3.934-7.168 6.31-11.238Zm44.565-.225-3.11 5.324-2.684-1.323c2.229-5.463 4.668-9.39 10.105-17.323l2.532 1.605-2.282 3.908 1.859.202c-.218 2.003-1.378 3.526-2.313 4.719l-.177.225c-.933 1.186-1.658 2.109-1.983 3.229l-1.948-.566Z"/><path d="M59.939 273.613a1 1 0 0 1 1.083.91c.055.633.13 1.301.23 1.999a1 1 0 0 1-1.98.281 39.44 39.44 0 0 1-.243-2.107 1 1 0 0 1 .91-1.083Zm.865 6.152a1 1 0 0 1 1.202.745 50.032 50.032 0 0 0 1.091 3.918 1 1 0 0 1-1.903.614 51.857 51.857 0 0 1-1.135-4.075 1 1 0 0 1 .745-1.202Zm2.392 7.942a1 1 0 0 1 1.308.539 47.378 47.378 0 0 0 1.715 3.68 1 1 0 1 1-1.774.923 49.475 49.475 0 0 1-1.788-3.835 1 1 0 0 1 .54-1.307Zm3.675 7.428a1 1 0 0 1 1.383.298 39.893 39.893 0 0 0 2.36 3.287 1 1 0 1 1-1.562 1.249 41.872 41.872 0 0 1-2.479-3.452 1 1 0 0 1 .298-1.382Zm5.017 6.594a1 1 0 0 1 1.414 0c.94.939 1.942 1.834 3.01 2.673a1.001 1.001 0 0 1-1.236 1.573 35.727 35.727 0 0 1-3.188-2.832 1 1 0 0 1 0-1.414Zm6.36 5.298a1 1 0 0 1 1.372-.342 31.734 31.734 0 0 0 3.57 1.845 1 1 0 0 1-.805 1.831 33.605 33.605 0 0 1-3.794-1.962 1 1 0 0 1-.343-1.372Zm7.472 3.559a1 1 0 0 1 1.244-.672 34.54 34.54 0 0 0 3.921.924 1 1 0 1 1-.346 1.97 37.005 37.005 0 0 1-4.147-.977 1 1 0 0 1-.672-1.245Zm8.114 1.666a1 1 0 0 1 1.066-.93c.664.045 1.34.075 2.03.088a1 1 0 0 1-.039 2 43.163 43.163 0 0 1-2.127-.093 1 1 0 0 1-.93-1.065Z"/></g><path fill-rule="evenodd" clip-rule="evenodd" d="M146.138 126.346c-1.318-.009-2.632.002-3.943.031a1 1 0 1 1-.045-1.999c1.33-.03 2.664-.041 4.001-.032a.999.999 0 1 1-.013 2Zm2.97-.952a1 1 0 0 1 1.035-.963c1.33.048 2.662.116 3.997.204a.999.999 0 1 1-.131 1.995 133.938 133.938 0 0 0-3.938-.2 1 1 0 0 1-.963-1.036Zm-9.899.079a1 1 0 0 1-.947 1.05c-1.316.068-2.627.154-3.935.259a1 1 0 1 1-.159-1.994c1.326-.106 2.656-.194 3.991-.262a.998.998 0 0 1 1.05.947Zm17.821.384a1 1 0 0 1 1.091-.9c1.323.127 2.649.274 3.977.442a1 1 0 0 1-.25 1.984c-1.308-.165-2.614-.31-3.918-.435a1 1 0 0 1-.9-1.091Zm-25.736.193a1 1 0 0 1-.886 1.102c-1.31.143-2.614.303-3.914.481a1 1 0 0 1-.271-1.981 139.59 139.59 0 0 1 3.969-.488 1 1 0 0 1 1.102.886Zm33.616.742a1 1 0 0 1 1.143-.832c1.313.206 2.627.433 3.943.681a1 1 0 1 1-.371 1.965c-1.295-.244-2.59-.467-3.883-.671a1 1 0 0 1-.832-1.143Zm-41.487.28a1 1 0 0 1-.824 1.15c-1.299.214-2.593.447-3.881.696a1 1 0 0 1-.379-1.964c1.305-.252 2.617-.488 3.934-.705a1 1 0 0 1 1.15.823Zm49.296 1.13a1 1 0 0 1 1.192-.762c1.296.285 2.594.591 3.892.918a1 1 0 0 1-.489 1.939 130.306 130.306 0 0 0-3.833-.904 1 1 0 0 1-.762-1.191Zm-57.099.323a1 1 0 0 1-.76 1.193c-1.286.284-2.565.586-3.838.903a1 1 0 1 1-.484-1.94 150.69 150.69 0 0 1 3.89-.916 1 1 0 0 1 1.192.76Zm64.81 1.556a1 1 0 0 1 1.236-.688c1.274.362 2.549.745 3.824 1.149a1 1 0 0 1-.604 1.907 132.32 132.32 0 0 0-3.767-1.132 1 1 0 0 1-.689-1.236Zm-72.524.314a1 1 0 0 1-.696 1.231c-1.269.352-2.531.72-3.784 1.103a1 1 0 0 1-.585-1.913 155.28 155.28 0 0 1 3.834-1.118 1 1 0 0 1 1.231.697Zm80.11 2.028a1.001 1.001 0 0 1 1.275-.613c1.247.437 2.495.895 3.741 1.373a1 1 0 1 1-.716 1.867 133.492 133.492 0 0 0-3.686-1.352 1 1 0 0 1-.614-1.275Zm-87.716.242a1 1 0 0 1-.632 1.265c-1.249.417-2.49.849-3.721 1.296a1 1 0 1 1-.682-1.881c1.248-.452 2.505-.889 3.77-1.312a1 1 0 0 1 1.265.632Zm95.153 2.55a1 1 0 0 1 1.308-.537c1.216.508 2.431 1.036 3.644 1.585a1 1 0 0 1-.824 1.823 133.18 133.18 0 0 0-3.591-1.563 1 1 0 0 1-.537-1.308Zm-102.633.107a1 1 0 0 1-.567 1.295c-1.226.48-2.442.974-3.65 1.481a1 1 0 0 1-.774-1.844 155.542 155.542 0 0 1 3.696-1.499 1 1 0 0 1 1.295.567Zm-7.337 3.029a1 1 0 0 1-.502 1.322c-1.2.54-2.39 1.093-3.569 1.659a1.001 1.001 0 0 1-.865-1.804 167.426 167.426 0 0 1 3.614-1.679 1 1 0 0 1 1.322.502Zm117.223.082a1 1 0 0 1 1.337-.46c1.184.577 2.366 1.173 3.547 1.791a1 1 0 0 1-.927 1.772 143.193 143.193 0 0 0-3.496-1.766 1 1 0 0 1-.461-1.337ZM78.305 141.74a1 1 0 0 1-.436 1.346 157.004 157.004 0 0 0-3.483 1.832 1 1 0 0 1-.953-1.759c1.164-.63 2.34-1.249 3.527-1.855a1 1 0 0 1 1.345.436Zm131.448.314a1 1 0 0 1 1.361-.385c1.154.645 2.306 1.309 3.457 1.994a1.001 1.001 0 0 1-1.023 1.719 142.911 142.911 0 0 0-3.41-1.967 1 1 0 0 1-.385-1.361Zm-138.45 3.424c.275.479.11 1.091-.37 1.366a157.1 157.1 0 0 0-3.391 2.003 1 1 0 0 1-1.038-1.71 164.592 164.592 0 0 1 3.434-2.028 1 1 0 0 1 1.365.369Zm145.287.581a1.002 1.002 0 0 1 1.38-.312 154.43 154.43 0 0 1 3.369 2.192 1 1 0 1 1-1.112 1.662 152.79 152.79 0 0 0-3.325-2.163 1 1 0 0 1-.312-1.379Zm-152.095 3.497a1 1 0 0 1-.301 1.382c-.552.353-1.1.71-1.643 1.069a1 1 0 1 1-1.102-1.67 163.98 163.98 0 0 1 1.664-1.082 1 1 0 0 1 1.382.301Zm158.715.868a1 1 0 0 1 1.394-.239c1.086.767 2.17 1.554 3.251 2.36a1 1 0 1 1-1.195 1.603 155.72 155.72 0 0 0-3.211-2.33 1 1 0 0 1-.239-1.394Zm6.399 4.704a1 1 0 0 1 1.404-.17 173.37 173.37 0 0 1 3.109 2.497 1 1 0 0 1-1.271 1.545 165.111 165.111 0 0 0-3.072-2.468 1 1 0 0 1-.17-1.404Zm6.178 5.024a1 1 0 0 1 1.411-.104c.99.854 1.977 1.726 2.962 2.615a1 1 0 1 1-1.34 1.484c-.974-.879-1.95-1.741-2.929-2.585a1 1 0 0 1-.104-1.41Zm5.906 5.272a.999.999 0 0 1 1.413-.041c.96.906 1.917 1.828 2.871 2.768a1 1 0 1 1-1.403 1.425c-.944-.93-1.891-1.843-2.84-2.739a.999.999 0 0 1-.041-1.413Zm5.667 5.521a1 1 0 0 1 1.414.019c.929.954 1.856 1.925 2.78 2.913a1 1 0 1 1-1.461 1.366 195.3 195.3 0 0 0-2.752-2.884 1 1 0 0 1 .019-1.414Zm5.458 5.776a1 1 0 0 1 1.412.074c.88.979 1.756 1.972 2.63 2.982a1 1 0 1 1-1.512 1.309c-.866-1-1.734-1.985-2.605-2.953a1 1 0 0 1 .075-1.412Zm5.246 6.004a.998.998 0 0 1 1.408.128 219.174 219.174 0 0 1 2.498 3.051 1 1 0 0 1-1.559 1.253 215.28 215.28 0 0 0-2.475-3.024 1 1 0 0 1 .128-1.408Zm4.967 6.123a1 1 0 0 1 1.403.178 228.587 228.587 0 0 1 2.446 3.21 1 1 0 0 1-1.601 1.199 238.965 238.965 0 0 0-2.425-3.184 1 1 0 0 1 .177-1.403Zm4.789 6.338a1 1 0 0 1 1.396.224 248.939 248.939 0 0 1 2.303 3.236 1 1 0 0 1-1.639 1.146 262.111 262.111 0 0 0-2.284-3.209 1 1 0 0 1 .224-1.397Zm4.594 6.511a1.001 1.001 0 0 1 1.389.268 268.877 268.877 0 0 1 2.193 3.293 1 1 0 1 1-1.673 1.097 257.593 257.593 0 0 0-2.176-3.269 1 1 0 0 1 .267-1.389Zm4.347 6.579a.998.998 0 0 1 1.38.308 272.288 272.288 0 0 1 2.128 3.403 1 1 0 1 1-1.704 1.048 280.507 280.507 0 0 0-2.112-3.379 1 1 0 0 1 .308-1.38Zm4.207 6.781a1 1 0 0 1 1.371.347c.667 1.119 1.332 2.25 1.994 3.393a1 1 0 1 1-1.731 1.002 302.867 302.867 0 0 0-1.981-3.371 1 1 0 0 1 .347-1.371Zm3.98 6.825a1 1 0 0 1 1.362.382 305.873 305.873 0 0 1 1.959 3.54 1 1 0 1 1-1.756.957 319.424 319.424 0 0 0-1.947-3.518 1 1 0 0 1 .382-1.361Zm3.825 6.958a1.001 1.001 0 0 1 1.352.416 346.622 346.622 0 0 1 1.833 3.51 1 1 0 1 1-1.778.916 323.655 323.655 0 0 0-1.823-3.49 1.001 1.001 0 0 1 .416-1.352Zm3.659 7.057a1 1 0 0 1 1.342.447 354.001 354.001 0 0 1 1.773 3.593 1.002 1.002 0 0 1-1.799.875 372.172 372.172 0 0 0-1.762-3.573 1 1 0 0 1 .446-1.342Zm9.279 5.62L300.5 253l-9.34-6.79 4.268-1.898a.999.999 0 0 1 1.816-.837l.011.024 4.456-1.982Z" fill="#fff" fill-opacity=".5"/><path fill-rule="evenodd" clip-rule="evenodd" d="M182.651 158.212c6.125-1.821 12.703-2.67 19.673-2.614l.633.005.101.626a3.755 3.755 0 0 1-.383 2.348l-.217.412-.464-.011c-5.731-.128-10.997.626-15.87 2.204l-.105.094-.047-.044c-5.201 1.705-9.955 4.351-14.352 7.869-7.527 6.022-14.03 14.617-19.922 25.471.08.098.159.199.238.304l-.81.761a156.812 156.812 0 0 0-1.843 3.579l-.53 1.061-.732-.933a8.157 8.157 0 0 1-1.147-1.918 21.122 21.122 0 0 1-.171-.408l-.085-.151h-.97l.552-.846a37.187 37.187 0 0 0-.204-.42l-.028-.058a19.457 19.457 0 0 1-.39-.825 6.286 6.286 0 0 1-.176-.454l-.357-.263.214-.313c-.038-.281-.033-.625.137-.951a87.09 87.09 0 0 1 2.455-4.88l-1.414-1.19 1.873.356a75.227 75.227 0 0 1 4.078-6.514l-.257-.24.424.003c4.733-6.687 10.232-11.95 16.416-15.868a53.967 53.967 0 0 1 11.161-5.38l.068-.065.033.03a58.679 58.679 0 0 1 2.031-.661l.283-.236.104.12Zm-.523 1.729c-.22.07-.439.141-.658.213.246.262.499.562.701.894.231-.097.462-.191.694-.284a22.86 22.86 0 0 1-.737-.823Zm2.262.247c.173-.062.346-.122.52-.182a8.788 8.788 0 0 1-.471-.743c-.233.064-.467.128-.699.194l.523.599.127.132Zm2.147-.706-.471-.633c.218-.052.436-.103.655-.153.176.195.356.386.539.574-.242.069-.483.139-.723.212Zm2.424-.658c.218-.053.437-.105.656-.154l-.11-.114-.059-.061.449-.432c-.477.082-.952.169-1.424.262l.488.499Zm1.992-.933.025.03-.658.595a48.432 48.432 0 0 1 1.597-.308l-.212-.19.241-.273a64.11 64.11 0 0 0-.993.146Zm2.742.041c.306-.042.613-.081.922-.117l-.09-.102.317-.304c-.465.044-.928.092-1.389.145l.319.278-.079.1Zm2.76-.298-.09-.11-.187-.228.659-.046-.032.036c.119.119.233.216.339.297-.231.016-.46.033-.689.051Zm2.11-.126c.486-.02.975-.033 1.467-.039a2.098 2.098 0 0 0-.279-.216l.088-.136c-.32.008-.639.018-.957.029l-.319.362Zm2.814-.064-.04.023.036.001.004-.024Zm-21.618 3.306.84.99-.266.124-.998-.956.424-.158Zm-2.034.796c-.18.074-.359.149-.538.226.373.362.726.743 1.059 1.142.193-.104.387-.206.582-.307a16.994 16.994 0 0 1-1.103-1.061Zm-2.066.908 1.196 1.235c-.115.067-.229.133-.343.201l-1.053-.869-.049-.055a9.167 9.167 0 0 0-.252-.276l.501-.236Zm-2.032 1-.272.142c.502.42.96.891 1.367 1.406l.36-.232a7.675 7.675 0 0 1-.664-.663l-.791-.653Zm-1.8.98 1.574 1.46c-.273.191-.545.385-.816.582l.306-.291a9.719 9.719 0 0 0-.497-.503l-.994-1.001.427-.247Zm-1.772 1.059a27.02 27.02 0 0 0-.283.178l-.28.178c.669.463 1.309.967 1.916 1.509l.304-.233-.366-.369a34.044 34.044 0 0 1-1.291-1.263Zm-1.926 1.263 2.059 1.573c-.223.182-.444.367-.665.554a17.99 17.99 0 0 1-.112-.183l-.07-.115a6.664 6.664 0 0 0-.472-.688 5.806 5.806 0 0 0-1-.961c.087-.061.173-.121.26-.18Zm-1.655 1.186-.44.332 1.348 1.481c.175.177.351.357.527.545.143-.13.287-.26.431-.388l-1.866-1.97Zm-.179 2.847.502.551-.169.163-2.207-1.948c.136-.113.273-.225.41-.335.457.545.879.977 1.269 1.372l.089.09.106.107Zm-3.112-.18a17.12 17.12 0 0 0-.202.178c.066.064.131.129.194.195l2.16 1.807.186-.189a10.687 10.687 0 0 1-2.338-1.991Zm-1.04 1.465c.12.126.245.265.379.414.095.105.195.216.302.332.368.401.798.84 1.338 1.202l-.402.436c-.334-.342-.677-.579-1.015-.812l-.089-.061-.035-.025-1.377-1.167c.199-.192.399-.382.6-.57l.299.251Zm-1.991 1.402a29 29 0 0 0-.245.251l2.276 2.519c.181-.212.362-.422.544-.63l-1.021-.865a11.645 11.645 0 0 1-1.554-1.275Zm-1.3 1.367c.726.912 1.504 1.78 2.331 2.6a10.01 10.01 0 0 0-.041.05l-2.337-2.598.047-.052Zm-1.192 1.335-.424.494c.54.394.985.857 1.419 1.374.268.318.562.697.877 1.103l.147.188.349-.449c-.784-.545-1.658-1.245-2.368-2.71Zm-1.433 1.715 2.486 2.724-.168.227c-.572-.51-1.298-1.128-2.44-2.1l-.331-.282.453-.569Zm-1.374 1.769c-.162.217-.324.435-.485.655.277.057.527.179.743.317.298.191.586.448.86.727.386.393.79.882 1.202 1.399.156-.225.313-.448.471-.67l-2.791-2.428Zm1.396 4.447a77.62 77.62 0 0 0-.528.791 9.538 9.538 0 0 0-.626-.893c-.462-.577-1.078-1.17-2.05-1.812.149-.219.299-.437.45-.653l2.754 2.567Zm-4.112-.546-.162.252c.515.32.922.616 1.26.898l-1.098-1.15Zm-1.807 2.943c-.168.289-.335.579-.501.873.688.288 1.282.815 1.797 1.328.258.257.519.537.776.811l.234.249.033.036.246-.417-.262-.304c-.226-.249-.45-.485-.683-.73-.131-.139-.266-.28-.405-.429-.385-.41-.789-.858-1.235-1.417Zm3.4 1.529-1.944-2.249 2.164 1.891-.22.358Zm-4.71.808 2.826 2.378-.206.361-1.607-1.119a12.223 12.223 0 0 0-1.327-1.03c.104-.198.209-.394.314-.59Zm-1.048 2.013c-.071.139-.141.279-.211.42l.418.358.069.049c.157.112.324.224.506.347l.023.016c.174.117.36.242.551.376.405.283.839.608 1.282 1.008l.218-.395c-.503-.303-.947-.699-1.354-1.062l-.054-.049c-.105-.093-.21-.187-.316-.279l-1.132-.789Zm-.896 1.828c.058.044.115.087.173.129l2.527 2.165-.211.397a41.456 41.456 0 0 0-2.576-1.893l-.119-.362.206-.436Zm-.628 3.687a.11.11 0 0 1 .008.015l.065-.045-.073.03Zm2.126.916-.514-.913a5.395 5.395 0 0 0-.102-.223l.869.641-.253.495Z" fill="#333"/><path fill-rule="evenodd" clip-rule="evenodd" d="m149.68 192.046.316.697c10.53 23.193 26.192 37.075 45.178 39.976l.397-.427.693.581c.606.078 1.215.146 1.827.202a3.6 3.6 0 0 1 .654-.464l.399.55c.448.032.897.058 1.348.078.336-.32.671-.556 1.126-.725l.482.771.225.003.632.005.101.625a3.758 3.758 0 0 1-.383 2.349l-.216.41-.463-.01c-5.053-.099-9.819-.649-14.307-1.639l-.408.075.124-.138c-7.212-1.625-13.706-4.393-19.523-8.265-6.85-4.56-12.739-10.635-17.754-18.137l-1.834.203 1.267-1.063a85.24 85.24 0 0 1-1.76-2.829l-.419-.466.089-.092a93.324 93.324 0 0 1-1.972-3.545l-.14-.197.025-.021a98.004 98.004 0 0 1-.688-1.333l-.173-.343.133-.257-.024-.045.065-.035.003-.005a18.13 18.13 0 0 1 .978-1.649l.022-.038h-.052l.582-.891.158-.267.012.006.008-.013a7.33 7.33 0 0 1 .057-.087l.042-.058c.008-.01.031-.039.063-.072.012-.012.036-.036.071-.064.17-.257.297-.516.44-.808.083-.171.173-.353.279-.553.324-.606.767-1.252 1.63-1.665l.69-.33Zm-3.285 7.201.157.303 1.32-1.134c.676-.687 1.417-1.44 2.223-1.952-.315-.641-.625-1.29-.932-1.945l-.378.511.023-.012.71 1.321c-.196.105-.392.267-.629.508-.156.158-.303.322-.47.508-.102.114-.211.236-.336.371a10.541 10.541 0 0 1-1.688 1.521Zm2.502.266 1.905-1.638c.269.526.54 1.047.814 1.563l-.475-.587-3.573 2.597-.241-.441c.552-.461 1.061-.978 1.531-1.455l.006-.006.033-.033Zm-.511 3.39.202.35c1.033-.908 1.902-1.465 2.631-1.933.382-.245.726-.466 1.035-.7a61.022 61.022 0 0 1-.277-.509l-.42.381c-.992.903-1.984 1.808-3.171 2.411Zm1.059 1.794c.107.177.215.353.323.528l2.336-2.589-2.659 2.061Zm1.153 1.847.121.187 3.403-2.856-.349-.587a15.569 15.569 0 0 1-1.333 1.453c-.238.234-.47.454-.695.668-.4.382-.778.741-1.125 1.111l-.022.024Zm1.124 1.7c.633-.256 1.209-.671 1.726-1.144.558-.512 1.083-1.125 1.571-1.763.323.516.65 1.026.979 1.529l-.747-.874-.003.003-.084.071c-.407.342-.811.62-1.222.902-.18.123-.361.248-.544.379-.498.356-1.019.768-1.388 1.317a76.43 76.43 0 0 1-.288-.42Zm1.02 1.464.38.526 3.249-2.659.212.172c-.131-.194-.261-.39-.39-.586a2.49 2.49 0 0 0-.053.045l-3.164 2.687-.234-.185Zm1.346 1.823c1.814-.923 2.712-1.837 3.238-2.699.51.733 1.027 1.452 1.552 2.156-.654.404-1.193.864-1.72 1.339l-.348.314c-.292.266-.588.536-.912.812l-.175.141-.152-.184 2.039-1.955.115-.091c.201-.161.452-.376.612-.644l-1.164-.925-.545.523-.175.133c-.109.081-.229.172-.378.288a9.315 9.315 0 0 0-1.5 1.423 61.992 61.992 0 0 1-.487-.631Zm2.604 3.214c.17.198.341.393.513.588.727-1.004 1.659-1.838 2.524-2.612l.281-.252-.192-.246-2.968 2.389a7.359 7.359 0 0 1-.158.133Zm1.636 1.827 2.639-2.907c.174.213.348.424.524.634a15.246 15.246 0 0 0-2.864 2.593l-.299-.32Zm1.426 1.485.135.135 1.745-1.461.084-.083c.33-.323.655-.642 1.023-.893a38.66 38.66 0 0 1-.258-.294l-2.729 2.596Zm2.887-.213 1.13-.947.258.278-2.682 2.299.353.457a52.947 52.947 0 0 1-.695-.65 18.11 18.11 0 0 0 1.609-1.411l.027-.026Zm-.243 2.721c.198.176.396.35.595.523l.446-.426c.091-.104.188-.216.292-.338l.288-.334c.38-.436.832-.922 1.411-1.357a60.258 60.258 0 0 1-.353-.359 19.317 19.317 0 0 1-2.679 2.291Zm2.126 1.135 2.038-1.952.277.264a2.271 2.271 0 0 0-.496.457 4.689 4.689 0 0 0-.187.239l-1.652 1.647-.34-.277c.124-.121.243-.249.36-.378Zm1.231 1.639c.252.193.507.384.762.573a10.726 10.726 0 0 1 2.199-2.114l.96 1.107.144-.177 1.182.923c-.207.277-.399.555-.587.827l-.076.111c-.158.231-.316.461-.468.67a6.945 6.945 0 0 1-.502.622l.324.208-.057-.07 2.135-1.8a59.462 59.462 0 0 1-4.234-3.554l.336.449-.578.576c-.053.072-.115.156-.196.263-.29.38-.685.842-1.344 1.386Zm5.215 3.536.077-.061c.601-.474 1.117-.88 1.975-1.669l.306.219c-.077.096-.153.195-.228.294l-1.411 1.64c-.241-.139-.481-.28-.719-.423Zm2.09 1.188c.195.105.39.209.585.311a14.943 14.943 0 0 1 1.702-1.645c-.255-.163-.508-.33-.761-.499l-.31.361-.054.07-.151.198a14.54 14.54 0 0 1-1.011 1.204Zm2.013 1.032 1.644-1.512.341.204c-.512.433-.969.93-1.359 1.48l.315.276a50.733 50.733 0 0 1-.941-.448Zm1.997.925.386.167-.038-.045c.201-.173.384-.349.567-.528l.115-.113c.143-.141.291-.288.439-.425.101-.093.204-.185.314-.275l-.297-.161-1.486 1.38Zm1.905.794 1.473-1.188.327.16-1.455 1.163-.345-.135Zm2.154.802c.41.143.823.282 1.239.417l-.333-.259c.243-.366.511-.715.802-1.042l-.55-.241c-.342.42-.731.797-1.158 1.125Zm2.364.769.913-1.008.481.185c-.207.213-.407.432-.602.656l.627.577c-.477-.131-.95-.268-1.419-.41Zm2.136.603c.597.157 1.199.305 1.807.445l-.728-.611.374-.486a62.857 62.857 0 0 1-.613-.204l-.84.856Zm2.417.583c.172.038.344.075.517.111l.638-.708c-.195-.054-.39-.109-.584-.165a7.493 7.493 0 0 1-.571.762Zm2.462.491c.098-.108.182-.217.254-.313.076-.104.15-.212.22-.317.237.056.474.11.711.163-.162.192-.318.39-.468.592-.24-.041-.479-.082-.717-.125Zm2.517.403c.203.028.405.056.609.082l-.087-.077c.135-.161.261-.304.379-.434-.151-.027-.302-.053-.452-.081l-.449.51Zm2.308.285c.518.056 1.039.106 1.564.151l-.275-.289.005-.004.033-.033c.04-.038.081-.081.124-.127-.345-.04-.689-.083-1.032-.13l-.023.023-.152.147-.244.262Zm3.037.262.39-.375.429.031-.336.375-.483-.031Zm2.578.127.428.013.062-.379-.102-.003-.388.369Zm-31.49-11.966-1.462 1.793-.158-.109 1.62-1.684Z" fill="#333"/><path fill-rule="evenodd" clip-rule="evenodd" d="m225.28 147.381 3.97-4.521 3.245 2.302c-1.916 3.401-4.206 6.528-6.714 9.51l.652-.649 8.352-8.776 2.719 2.507 2.056-2.432 3.087 2.543c-5.498 6.851-10.171 12.232-14.239 16.887l-.911 1.041-.121.139-9.618 11.378-3.102-2.525c2.892-3.689 6.076-7.333 9.688-11.463l8.878-10.502a254.227 254.227 0 0 1-3.929 4.001l-17.045 17.912-3.049-2.579c.242-.323.488-.644.738-.963a176.17 176.17 0 0 0-3.602 3.821l-2.98-2.668.22-.25-2.424-2.082 1.842-2.242c3.33-4.055 6.769-8.243 10.001-11.963 3.806-4.381 7.44-8.25 10.351-10.504l1.935 2.078Zm22.901-1.013 2.54-3.435 3.332 2.203c-3.336 5.674-6.274 10.218-8.956 14.019 2.543-3.197 5.051-6.162 7.336-8.865 2.105-2.488 4.022-4.755 5.605-6.776l3.165 2.447-23.808 31.206-3.317-2.221c1.76-3.013 3.67-5.909 5.64-8.675-2.782 3.424-5.353 6.214-7.938 8.983l-3.07-2.554 3.101-4.193-6.732 7.67-3.088-2.54c4.997-6.486 10.168-12.748 14.614-17.8 4.403-5.003 8.204-8.946 10.429-10.684l1.147 1.215Zm-7.075 27.424c4.634-7.953 8.827-13.112 24.957-30.674l3.023 2.616-24.701 30.328-3.279-2.27Zm36.834-26.853 2.742-3.618 3.248 2.332c-2.309 3.398-5.464 7.657-8.816 12.059l8.362-8.852 3.169 2.402c-2.407 4.011-5.935 7.919-9.718 11.669-2.211 2.191-4.603 4.416-6.943 6.592a411.262 411.262 0 0 0-4.705 4.422l-1.559-1.547-1.983 2.54-3.172-2.437 10.631-14.025a286.967 286.967 0 0 1-5.419 5.74l-1.457 1.503-.607.625-7.643 8.484-1.71-1.442-3.212 3.963-3.143-2.473c8.903-11.654 18.821-23.595 24.683-30.459l3.075 2.558-.146.18 1.997-2.216 2.326 2Zm-74.708-1.765c.404-.386.822-.784 1.271-1.243l3.053 2.566-6.59 9.154-.54-5.232c-.17-1.651.548-2.852 1.361-3.786.385-.443.84-.882 1.278-1.3l.167-.159Zm5.701 13.1c-2.761 3.383-5.347 6.485-7.631 8.369l-2.778-2.859 4.803-5.49-1.901-1.241c1.878-3.479 3.629-5.706 5.262-7.517a82.689 82.689 0 0 1 1.654-1.769c.809-.848 1.529-1.604 2.256-2.512l.333-.428 2.452 1.891c.642-.724 1.296-1.445 1.963-2.16l2.967 2.681-5.336 6.1c-1.07 1.285-2.102 2.553-3.101 3.779l-.943 1.156Zm68.303 13.642-4.833 5.523-3.183-2.406c3.737-5.756 7.413-9.73 15.404-17.627l2.911 2.739-3.34 3.817 2.08.616c-.686 2.317-2.426 3.86-3.754 5.014l-.234.203c-1.356 1.177-2.357 2.044-2.937 3.191l-2.114-1.07Z" fill="#20E77B"/><path fill-rule="evenodd" clip-rule="evenodd" d="M271.647 137.834a4.002 4.002 0 0 1-3.831 4.163c-4.272.177-7.684 2.694-10.947 7.033-2.319 3.082-4.183 6.524-6.095 10.054-.884 1.632-1.778 3.282-2.732 4.925-1.475 2.541-4.054 5.547-7.994 4.8-1.639-.311-2.883-1.223-3.728-2.01-.869-.81-1.62-1.777-2.253-2.68-.643-.917-1.267-1.919-1.842-2.854l-.294-.48a95.814 95.814 0 0 0-1.404-2.242c-.99-1.516-1.744-2.435-2.299-2.916l-.038.019c-.647.327-1.604 1.096-2.777 2.407-2.296 2.569-4.524 6.198-5.859 8.783a4 4 0 1 1-7.108-3.672c1.506-2.915 4.092-7.186 7.003-10.442 1.431-1.601 3.176-3.227 5.131-4.215 2.038-1.03 4.889-1.607 7.604.115 2.185 1.387 3.848 3.72 5.041 5.546.534.818 1.059 1.674 1.541 2.461l.274.446c.576.937 1.087 1.753 1.577 2.451.156.222.3.419.433.592l.074-.126c.709-1.221 1.466-2.617 2.273-4.104 2.036-3.755 4.389-8.091 7.078-11.667 3.883-5.162 9.247-9.895 17.009-10.217a4 4 0 0 1 4.163 3.83Zm-31.377 23.339c0-.005.027-.033.082-.069-.054.056-.082.074-.082.069Zm1.67-.087a.086.086 0 0 1 .012.007l-.012-.007Z" fill="#FFFA8C"/><path d="M159.025 217.208c4.855-3.275 7.44-7.893 11.097-11.126M30.423 180.61c-.183-1.668 1.375-2.549 3.569-4.667l-3.569 4.667Zm.744 7.457c3.638-6.324 6.709-8.005 9.457-11.391l-9.457 11.391Zm-1.135 4.482c3.676-2.672 8.79-9.895 14.943-16.009l-14.943 16.009Zm.215 8.651c8.064-9.236 16.935-19.568 22.61-23.748L30.246 201.2Zm-1.116 5.991c10.945-11.44 22.697-20.738 29.999-32.313l-30 32.313Zm-1.01 7.604c9.231-11.299 21.129-21.076 36.57-37.59l-36.57 37.59Zm3.046 5.289c9.672-11.206 20.592-22.166 38.46-42.928l-38.46 42.928Zm7.453-1.09c15.352-18.318 31.436-35.712 38.29-41.709l-38.29 41.709Zm6.84-.924c9.71-10.104 19.357-20.411 35.567-43.272L45.46 218.07Zm5.542 1.971c12.39-17.813 27.59-33.341 37.83-45.114l-37.83 45.114Zm7.17-1.103c7.735-10.965 14.898-19.216 38.276-43.801l-38.277 43.801Zm4.81 1.244c14.255-16.803 29.431-33.944 38.214-43.851l-38.214 43.851Zm5.088-2.506c9.117-10.682 18.48-18.471 38.113-40.828L68.07 217.676Zm7.686.216c11.16-12.992 26.354-30.706 35.679-42.712l-35.68 42.712Zm3.795-1.152c14.149-14.161 29.816-28.667 38.713-40.76l-38.713 40.76Zm7.1 3.455c10.018-12.253 19.904-22.991 38.933-42.99l-38.933 42.99Zm4.4-1.534c9.653-12.677 22.572-22.997 38.404-43.1l-38.404 43.1Zm8.07-.794c12.371-17.104 29.123-32.497 36.046-41.394l-36.045 41.394Zm5.474.302c9.924-10.646 18.637-20.879 37.123-43.716l-37.123 43.716Zm6.62.542c9.917-12.813 20.989-23.305 36.386-43.359l-36.386 43.359Zm6.563.221c11.286-15.325 27.679-32.78 36.506-41.93l-36.506 41.93Zm4.18.197c14.306-15.737 27.799-31.703 38.839-42.342l-38.839 42.342Zm7.415.037c8.65-12.006 19.797-23.397 36.688-44.22l-36.688 44.22Zm4.647 1.121c11.979-12.672 19.747-25.084 35.566-40.286l-35.566 40.286Zm6.607-1.047c7.264-6.914 13.335-13.158 28.303-34.086l-28.303 34.086Zm5.517 1.213c7.27-8.398 13.814-18.724 23.82-28.273l-23.82 28.273Zm6.721-1.601c6.665-6.391 13.152-12.997 15.618-19.77l-15.618 19.77Z" stroke="#D1D370" stroke-width="5"/><path fill-rule="evenodd" clip-rule="evenodd" d="m225.28 225.089 3.97-4.521 3.245 2.302c-1.916 3.401-4.206 6.528-6.714 9.51l.652-.648 8.352-8.777 2.719 2.507 2.056-2.432 3.087 2.543c-5.498 6.851-10.171 12.232-14.239 16.887l-.911 1.041-.121.139-9.618 11.378-3.102-2.525c2.892-3.689 6.076-7.333 9.688-11.463l8.878-10.502a254.227 254.227 0 0 1-3.929 4.001l-17.045 17.912-3.049-2.579c.242-.323.488-.644.738-.963a176.17 176.17 0 0 0-3.602 3.821l-2.98-2.668.22-.25-2.424-2.082 1.842-2.242c3.33-4.055 6.769-8.243 10.001-11.963 3.806-4.381 7.44-8.25 10.351-10.504l1.935 2.078Zm22.901-1.013 2.54-3.435 3.332 2.203c-3.336 5.674-6.274 10.218-8.956 14.019 2.543-3.197 5.051-6.162 7.336-8.865 2.105-2.488 4.022-4.755 5.605-6.776l3.165 2.447-23.808 31.206-3.317-2.221c1.76-3.013 3.67-5.909 5.64-8.675-2.782 3.424-5.353 6.214-7.938 8.983l-3.07-2.554 3.101-4.193-6.732 7.67-3.088-2.54c4.997-6.486 10.168-12.748 14.614-17.8 4.403-5.003 8.204-8.946 10.429-10.684l1.147 1.215Zm-7.075 27.424c4.634-7.953 8.827-13.112 24.957-30.674l3.023 2.616-24.701 30.328-3.279-2.27Zm36.834-26.853 2.742-3.618 3.248 2.332c-2.309 3.398-5.464 7.657-8.816 12.059l8.362-8.852 3.169 2.402c-2.407 4.011-5.935 7.919-9.718 11.669-2.211 2.191-4.603 4.416-6.943 6.592a411.262 411.262 0 0 0-4.705 4.422l-1.559-1.547-1.983 2.54-3.172-2.437 10.631-14.025a286.967 286.967 0 0 1-5.419 5.74l-1.457 1.503-.607.625-7.643 8.484-1.71-1.442-3.212 3.963-3.143-2.473c8.903-11.654 18.821-23.595 24.683-30.459l3.075 2.558-.146.18 1.997-2.216 2.326 2Zm-74.708-1.765c.404-.385.822-.784 1.271-1.243l3.053 2.566-6.59 9.154-.54-5.232c-.17-1.651.548-2.852 1.361-3.786.385-.443.84-.882 1.278-1.3l.167-.159Zm5.701 13.1c-2.761 3.383-5.347 6.485-7.631 8.369l-2.778-2.859 4.803-5.49-1.901-1.241c1.878-3.479 3.629-5.706 5.262-7.517a82.689 82.689 0 0 1 1.654-1.769c.809-.848 1.529-1.604 2.256-2.512l.333-.427 2.452 1.89c.642-.724 1.296-1.445 1.963-2.16l2.967 2.681-5.336 6.1c-1.07 1.285-2.102 2.553-3.101 3.779l-.943 1.156Zm68.303 13.642-4.833 5.523-3.183-2.406c3.737-5.756 7.413-9.73 15.404-17.627l2.911 2.739-3.34 3.817 2.08.616c-.686 2.317-2.426 3.86-3.754 5.014l-.234.203c-1.356 1.177-2.357 2.044-2.937 3.191l-2.114-1.07Z" fill="#fff"/><mask id="handDrawnStyle_b" style="mask-type:alpha" maskUnits="userSpaceOnUse" x="40" y="183" width="30" height="30"><path fill-rule="evenodd" clip-rule="evenodd" d="M40.447 183.341h29.339v29.339H40.447v-29.339Z" fill="#fff"/></mask><g mask="url(#handDrawnStyle_b)"><path fill-rule="evenodd" clip-rule="evenodd" d="M42.683 205.791c-4.298-6.866-2.215-15.917 4.653-20.214 6.866-4.297 15.916-2.215 20.214 4.652 4.297 6.867 2.214 15.917-4.653 20.215-6.866 4.297-15.916 2.214-20.214-4.653" fill="#FFDC73"/></g><path fill-rule="evenodd" clip-rule="evenodd" d="M55.063 207.318h.053v-.001c3.233-.028 6.62-1.238 6.753-2.635.098-1.014-.68-.729-2.049-.228-1.199.439-2.85 1.044-4.762 1.085-1.91-.041-3.563-.646-4.762-1.085-1.368-.501-2.146-.786-2.048.228.132 1.394 3.973 2.602 6.752 2.635v.001h.063Z" fill="#4C4023"/><path fill-rule="evenodd" clip-rule="evenodd" d="M47.75 192.574s-1.353-1.245-2.695-.836c-1.342.407-2.352 1.911-1.73 3.957.702 2.31 3.75 3.732 6.663 4.245l-2.239-7.366Z" fill="#E74643"/><path fill-rule="evenodd" clip-rule="evenodd" d="M47.75 192.574s.432-1.786 1.775-2.195c1.342-.407 3.017.282 3.639 2.327.701 2.31-1.04 5.188-3.176 7.234l-2.239-7.366ZM62.304 192.574s1.352-1.245 2.696-.836c1.342.407 2.35 1.911 1.73 3.957-.702 2.31-3.75 3.732-6.664 4.245l2.238-7.366Z" fill="#E74643"/><path fill-rule="evenodd" clip-rule="evenodd" d="M62.304 192.574s-.432-1.786-1.773-2.195c-1.343-.407-3.019.282-3.64 2.327-.701 2.31 1.04 5.188 3.175 7.234l2.238-7.366Z" fill="#E74643"/></svg>