<svg width="326" height="310" viewBox="0 0 326 310" fill="none" xmlns="http://www.w3.org/2000/svg"><path fill="#B9ADFF" d="M0 0h326v310H0z"/><mask id="stylishAndComplete_a" style="mask-type:alpha" maskUnits="userSpaceOnUse" x="0" y="0" width="326" height="310"><path fill="#C3B9FF" d="M0 0h326v310H0z"/></mask><g mask="url(#stylishAndComplete_a)"><path fill-rule="evenodd" clip-rule="evenodd" d="m327.629 207.276-23.184-36.347 1.686-1.075 23.184 36.346-1.686 1.076Z" fill="#D9D2FF"/><path fill-rule="evenodd" clip-rule="evenodd" d="M355.427 176.404a7.007 7.007 0 0 0-9.677-2.139l-52.661 33.589a7.006 7.006 0 0 0-2.139 9.676l-1.686 1.076c-2.676-4.194-1.444-9.763 2.75-12.439l52.66-33.589a9.009 9.009 0 0 1 12.439 2.751l-1.686 1.075Z" fill="#D9D2FF"/><rect x="276.304" y="175.582" width="54" height="22" rx="2" transform="rotate(-32.531 276.304 175.582)" fill="#D9D2FF"/><rect x="275.254" y="227.541" width="34" height="14" rx="2" transform="rotate(-32.531 275.254 227.541)" fill="#D9D2FF"/><rect x="307.66" y="206.871" width="34" height="14" rx="2" transform="rotate(-32.531 307.66 206.871)" fill="#D9D2FF"/><path fill-rule="evenodd" clip-rule="evenodd" d="M208.032 143.526c-1.333-.001-2.665.01-3.995.034a1 1 0 0 1-.035-2c1.342-.024 2.686-.035 4.032-.034a1.001 1.001 0 0 1-.002 2Zm3.024-.978a1 1 0 0 1 1.019-.98c1.344.026 2.689.064 4.035.116a1 1 0 1 1-.076 1.998 214.128 214.128 0 0 0-3.998-.115 1 1 0 0 1-.98-1.019Zm-10.058.083a1 1 0 0 1-.963 1.035c-1.335.048-2.668.108-3.999.18a1 1 0 1 1-.108-1.997c1.343-.073 2.688-.133 4.035-.181a1 1 0 0 1 1.035.963Zm18.086.186a1 1 0 0 1 1.056-.942c1.344.077 2.69.166 4.036.269a1 1 0 1 1-.152 1.994c-1.333-.101-2.666-.19-3.998-.266a1 1 0 0 1-.942-1.055Zm-26.109.211a1 1 0 0 1-.925 1.069c-1.334.096-2.666.204-3.995.323a1 1 0 0 1-.179-1.992c1.341-.12 2.684-.229 4.03-.326a1 1 0 0 1 1.069.926Zm34.128.36a.999.999 0 0 1 1.09-.9 203.1 203.1 0 0 1 4.015.421 1 1 0 1 1-.228 1.987 206.866 206.866 0 0 0-3.976-.417 1.001 1.001 0 0 1-.901-1.091Zm-42.142.324a1 1 0 0 1-.887 1.102c-1.326.143-2.65.297-3.971.463a1 1 0 0 1-.249-1.985c1.332-.167 2.668-.323 4.006-.467a1 1 0 0 1 1.101.887Zm50.141.554a1.001 1.001 0 0 1 1.125-.858c1.327.178 2.656.37 3.985.574a1 1 0 0 1-.305 1.977 207.038 207.038 0 0 0-3.946-.569 1 1 0 0 1-.859-1.124Zm-58.122.413a1 1 0 0 1-.848 1.131c-1.321.19-2.639.39-3.954.601a1 1 0 1 1-.317-1.974 229.32 229.32 0 0 1 3.987-.606 1 1 0 0 1 1.132.848Zm66.061.77a1 1 0 0 1 1.157-.814c1.327.23 2.654.474 3.981.732a1 1 0 0 1-.381 1.963 209.521 209.521 0 0 0-3.943-.725 1 1 0 0 1-.814-1.156Zm-74 .472a1 1 0 0 1-.809 1.16c-1.315.234-2.627.48-3.936.736a1 1 0 0 1-.385-1.962c1.32-.259 2.644-.507 3.97-.743a1 1 0 0 1 1.16.809Zm81.895 1.019a1 1 0 0 1 1.187-.768c1.315.282 2.63.577 3.945.885a1 1 0 1 1-.458 1.947 207.006 207.006 0 0 0-3.906-.877.999.999 0 0 1-.768-1.187Zm-89.787.492a1 1 0 0 1-.769 1.187 243.12 243.12 0 0 0-3.912.869 1 1 0 1 1-.45-1.949 236.62 236.62 0 0 1 3.944-.876 1 1 0 0 1 1.187.769Zm97.63 1.31a1 1 0 0 1 1.217-.721c1.297.331 2.594.677 3.891 1.035a1 1 0 0 1-.533 1.928 208.891 208.891 0 0 0-3.854-1.026.999.999 0 0 1-.721-1.216Zm-105.474.467a1 1 0 0 1-.729 1.212 235.95 235.95 0 0 0-3.872.995 1 1 0 0 1-.514-1.933c1.297-.345 2.598-.679 3.904-1.003a.998.998 0 0 1 1.211.729Zm113.226 1.637a1 1 0 0 1 1.244-.673c1.288.384 2.575.781 3.861 1.192a1 1 0 1 1-.608 1.905c-1.274-.407-2.549-.8-3.824-1.18a1.001 1.001 0 0 1-.673-1.244Zm-121.003.397a1.002 1.002 0 0 1-.69 1.235c-1.284.363-2.564.737-3.84 1.121a1 1 0 1 1-.576-1.915c1.286-.387 2.576-.764 3.871-1.131a1 1 0 0 1 1.235.69Zm128.663 2.008a1 1 0 0 1 1.269-.624c1.274.435 2.547.883 3.819 1.345a.999.999 0 1 1-.683 1.879c-1.259-.457-2.52-.901-3.781-1.331a1 1 0 0 1-.624-1.269Zm-136.367.276a1 1 0 0 1-.65 1.256c-1.274.406-2.543.822-3.808 1.247a1 1 0 0 1-.637-1.896c1.275-.428 2.554-.847 3.838-1.256a1 1 0 0 1 1.257.649Zm143.944 2.433a1 1 0 0 1 1.293-.573c1.249.481 2.496.975 3.743 1.484a1 1 0 1 1-.755 1.852c-1.235-.504-2.47-.994-3.707-1.47a1 1 0 0 1-.574-1.293Zm-151.571.097a1 1 0 0 1-.609 1.276c-1.262.447-2.518.903-3.769 1.368a1.001 1.001 0 0 1-.697-1.875c1.261-.469 2.527-.928 3.799-1.378a1 1 0 0 1 1.276.609Zm-7.551 2.773a1 1 0 0 1-.568 1.295c-1.244.485-2.482.978-3.714 1.481a1 1 0 0 1-.756-1.852c1.243-.506 2.49-1.004 3.743-1.492a1 1 0 0 1 1.295.568Zm166.579.129a1 1 0 0 1 1.314-.523c.622.268 1.244.539 1.865.814a1 1 0 0 1-.808 1.829c-.616-.272-1.231-.541-1.848-.806a1 1 0 0 1-.523-1.314Zm-174.035 2.879a1 1 0 0 1-.528 1.312 250.38 250.38 0 0 0-3.667 1.596 1 1 0 0 1-.813-1.828 254.331 254.331 0 0 1 3.696-1.608 1 1 0 0 1 1.312.528Zm-7.356 3.236a.998.998 0 0 1-.487 1.327 273.096 273.096 0 0 0-3.622 1.713 1 1 0 0 1-.869-1.802 259.757 259.757 0 0 1 3.651-1.725 1 1 0 0 1 1.327.487Zm-7.247 3.46a1 1 0 0 1-.446 1.342c-1.198.601-2.39 1.21-3.575 1.827a1 1 0 1 1-.924-1.774 253.693 253.693 0 0 1 3.603-1.841.999.999 0 0 1 1.342.446Zm-7.15 3.689a1 1 0 0 1-.405 1.356 252.345 252.345 0 0 0-3.505 1.93 1 1 0 1 1-.979-1.744c1.17-.657 2.348-1.305 3.533-1.946a1 1 0 0 1 1.355.404Zm-7.03 3.907c.277.478.115 1.09-.362 1.368-1.154.67-2.299 1.348-3.436 2.033a1 1 0 1 1-1.032-1.713c1.146-.691 2.3-1.374 3.462-2.049a1 1 0 0 1 1.367.361Zm-6.902 4.122a1 1 0 0 1-.319 1.377c-1.134.708-2.26 1.423-3.378 2.145a1 1 0 1 1-1.085-1.68 259.656 259.656 0 0 1 3.404-2.161.999.999 0 0 1 1.378.319Zm-6.763 4.332a1 1 0 0 1-.276 1.387c-1.115.745-2.22 1.498-3.317 2.257a1 1 0 0 1-1.138-1.645c1.105-.765 2.22-1.523 3.343-2.275a1 1 0 0 1 1.388.276Zm-6.625 4.545a1 1 0 0 1-.23 1.395c-1.092.782-2.174 1.57-3.247 2.365a1 1 0 1 1-1.19-1.607 248.509 248.509 0 0 1 3.272-2.384 1 1 0 0 1 1.395.231Zm-6.485 4.765a1 1 0 0 1-.185 1.402 241.032 241.032 0 0 0-3.154 2.461 1 1 0 0 1-1.244-1.567c1.05-.833 2.11-1.66 3.18-2.481a1 1 0 0 1 1.403.185Zm-6.322 4.975a1 1 0 0 1-.138 1.407c-1.029.846-2.048 1.698-3.055 2.555a1.001 1.001 0 0 1-1.296-1.524 238.482 238.482 0 0 1 3.082-2.576 1 1 0 0 1 1.407.138Zm-6.145 5.183a1 1 0 0 1-.09 1.412 221.105 221.105 0 0 0-2.97 2.665 1 1 0 0 1-1.35-1.477c.988-.901 1.987-1.798 2.998-2.689a1 1 0 0 1 1.412.089Zm-5.957 5.393a1 1 0 0 1-.038 1.414 213.1 213.1 0 0 0-2.88 2.778 1 1 0 1 1-1.402-1.426c.956-.939 1.925-1.874 2.906-2.804a1 1 0 0 1 1.414.038Zm-5.753 5.604a1 1 0 0 1 .015 1.414c-.94.96-1.867 1.925-2.779 2.894a1 1 0 0 1-1.456-1.371c.921-.979 1.857-1.953 2.806-2.922a1 1 0 0 1 1.414-.015Zm-5.532 5.818a1 1 0 0 1 .07 1.412c-.904 1-1.793 2.003-2.667 3.011a1 1 0 1 1-1.51-1.311 192.145 192.145 0 0 1 2.694-3.041 1 1 0 0 1 1.413-.071Zm-5.303 6.048a1 1 0 0 1 .13 1.408 179.93 179.93 0 0 0-2.532 3.116 1 1 0 0 1-1.567-1.244c.837-1.054 1.691-2.104 2.56-3.151a1 1 0 0 1 1.409-.129Zm-5.039 6.271a1 1 0 0 1 .193 1.401 169.705 169.705 0 0 0-2.381 3.221 1 1 0 0 1-1.622-1.17 170.524 170.524 0 0 1 2.41-3.259 1 1 0 0 1 1.4-.193Zm-4.742 6.496a1 1 0 0 1 .26 1.39 154.654 154.654 0 0 0-2.214 3.327 1 1 0 1 1-1.68-1.086c.729-1.126 1.477-2.25 2.244-3.371a1 1 0 0 1 1.39-.26Zm-.088 10.132L5 256l-.481-11.537 4.49 2.348.045-.073a1 1 0 0 1 1.73 1.002l3.967 2.074Z" fill="#fff" fill-opacity=".3"/><path fill-rule="evenodd" clip-rule="evenodd" d="m98.305 294.775-50.879-10.742.413-1.957 50.879 10.742-.413 1.957Z" fill="#D2CBFF"/><path fill-rule="evenodd" clip-rule="evenodd" d="M81.346 259.398a7 7 0 0 0-8.295 5.403l-9.502 45.008a7 7 0 0 0 5.403 8.295l-.413 1.957a9 9 0 0 1-6.947-10.665l9.502-45.008a9 9 0 0 1 10.665-6.947l-.413 1.957Z" fill="#D2CBFF"/><rect x="-10.629" y="258" width="64" height="26" rx="2" transform="rotate(11.921 -10.63 258)" fill="#D2CBFF"/><rect x="83.145" y="250" width="42" height="18" rx="2" transform="rotate(11.921 83.145 250)" fill="#D2CBFF"/><rect x="76.718" y="280.44" width="42" height="18" rx="2" transform="rotate(11.921 76.718 280.44)" fill="#D2CBFF"/><rect x="32" y="143" width="142" height="94" rx="8" fill="#fff"/><path fill-rule="evenodd" clip-rule="evenodd" d="M103 191.127H73.47v-1H103v1ZM134.531 191.127H105v-1h29.531v1Z" fill="#6B52FF"/><path fill-rule="evenodd" clip-rule="evenodd" d="M116.181 190.627c0 10.106 8.214 18.3 18.35 18.3v1c-10.686 0-19.35-8.64-19.35-19.3h1Z" fill="#95A7FF"/><path fill-rule="evenodd" clip-rule="evenodd" d="M134.531 172.326c-10.135 0-18.35 8.195-18.35 18.3h-1c0-10.66 8.665-19.3 19.35-19.3v1ZM91.819 190.627c0 10.106-8.215 18.3-18.35 18.3v1c10.685 0 19.35-8.64 19.35-19.3h-1Z" fill="#42FFDD"/><path fill-rule="evenodd" clip-rule="evenodd" d="M73.469 172.327c10.136 0 18.35 8.195 18.35 18.3h1c0-10.66-8.665-19.3-19.35-19.3v1Z" fill="#95A7FF"/><path d="M86 185a2 2 0 0 1 2-2h32a2 2 0 0 1 2 2v12a2 2 0 0 1-2 2H88a2 2 0 0 1-2-2v-12Z" fill="#0038FF"/><rect x="133.593" y="166.813" width="24" height="10" rx="2" fill="#42FFDD"/><rect x="49.593" y="166.813" width="24" height="10" rx="2" fill="#95A7FF"/><rect x="133.814" y="184.707" width="24" height="10" rx="2" fill="#6B52FF"/><rect x="49.593" y="184.813" width="24" height="10" rx="2" fill="#6B52FF"/><rect x="133.593" y="202.813" width="24" height="10" rx="2" fill="#95A7FF"/><rect x="49.593" y="202.813" width="24" height="10" rx="2" fill="#42FFDD"/></g><rect x="166.318" y="202.172" width="124" height="82" rx="8" fill="#6B52FF"/><path d="m204.309 233.856 23.778 9.96M251.865 253.775l-23.778-9.96" stroke="#6B52FF"/><rect x="186.779" y="221.757" width="20.843" height="8.776" rx="2" transform="rotate(22.727 186.779 221.757)" fill="#6B52FF"/><rect x="196.774" y="213.185" width="35.428" height="14.66" rx="2" fill="#CCD7FF"/><rect x="221.207" y="246" width="24" height="12" rx="2" fill="#FF42E1"/><rect x="253" y="243" width="12" height="4" rx="2" fill="#FF42E1"/><rect x="253" y="257" width="12" height="4" rx="2" fill="#FF42E1"/><path fill-rule="evenodd" clip-rule="evenodd" d="M223.099 252.5h-8v-1h8v1ZM251.197 252.5h-8v-1h8v1Z" fill="#FF42E1"/><path fill-rule="evenodd" clip-rule="evenodd" d="M214.599 227.845h1v39.5h7.5v1h-8.5v-40.5Z" fill="#9AABFF"/><path fill-rule="evenodd" clip-rule="evenodd" d="M250.5 244.5h4.5v1h-3.5v13h3.5v1h-4.5v-15Z" fill="#FF42E1"/><rect x="221.207" y="262.052" width="24" height="12" rx="2" fill="#9AABFF"/></svg>