<svg width="326" height="310" viewBox="0 0 326 310" fill="none" xmlns="http://www.w3.org/2000/svg"><path fill="#FFC2C2" d="M0 0h326v310H0z"/><mask id="supportLaTexEquation_a" style="mask-type:alpha" maskUnits="userSpaceOnUse" x="0" y="0" width="326" height="310"><path fill="#E1AAAA" d="M0 0h326v310H0z"/></mask><g mask="url(#supportLaTexEquation_a)"><path d="M-56.046 216.512c-.31 0-.533-.079-.668-.239a.916.916 0 0 1-.222-.54c0-.133.04-.333.121-.599.081-.267.223-.58.425-.94.202-.359.506-.699.91-1.019a3.88 3.88 0 0 1 1.436-.699l.647-.1h.243c.445 0 .708.006.789.02.85.146 1.557.499 2.124 1.059.566.559.97 1.179 1.213 1.858.243.68.357 1.419.344 2.219 0 1.265-.317 2.711-.95 4.336-.634 1.625-1.423 2.871-2.367 3.737-1.092.999-2.3 1.499-3.62 1.499-1.349 0-2.36-.52-3.034-1.559-.418-.613-.627-1.226-.627-1.838v-.22c0-1.559.586-2.964 1.76-4.217 1.172-1.252 2.474-1.885 3.903-1.898.822 0 1.443.206 1.86.619.419.413.695.86.83 1.339l.06-.22c.27-1.105.405-2.018.405-2.737 0-1.173-.276-1.999-.83-2.478-.552-.48-1.179-.727-1.88-.74-1.052 0-1.868.426-2.447 1.279.552.08.829.347.829.799 0 .334-.122.627-.364.88-.243.253-.54.386-.89.399Zm4.611 4.037c0-.879-.195-1.505-.586-1.878a1.929 1.929 0 0 0-1.376-.56c-.85 0-1.598.307-2.245.919-.337.373-.6.766-.788 1.179-.19.413-.412 1.093-.668 2.039-.243.959-.364 1.658-.364 2.098 0 1.266.674 1.899 2.023 1.899.161 0 .283-.007.364-.02 1.038-.174 1.874-.773 2.508-1.799.202-.333.438-.893.708-1.679.27-.786.41-1.518.424-2.198ZM-46.078 213.348c-.257 0-.462-.084-.614-.254a.895.895 0 0 1-.23-.621c0-.669.253-1.249.758-1.738.506-.49 1.135-.735 1.888-.735.868 0 1.592.264 2.174.791.581.528.877 1.211.886 2.049 0 .405-.095.791-.286 1.158-.19.368-.42.688-.686.961-.267.273-.648.622-1.144 1.046-.343.292-.82.725-1.43 1.299l-.844.792 1.087.014c1.497 0 2.293-.024 2.388-.071.067-.019.181-.438.343-1.257v-.043h.572v.043c-.01.028-.071.457-.186 1.285-.114.829-.186 1.263-.214 1.3v.043h-5.305v-.438c0-.066.028-.137.085-.212.058-.076.2-.24.43-.495.276-.301.514-.565.714-.791a77.6 77.6 0 0 1 .487-.523c.238-.254.4-.428.486-.522.086-.095.224-.25.415-.467.19-.216.324-.376.4-.48.076-.104.186-.245.329-.424.143-.179.243-.33.3-.452.057-.123.129-.259.215-.41.085-.151.147-.301.185-.452.039-.151.072-.292.1-.424.03-.132.043-.287.043-.466 0-.593-.162-1.107-.486-1.54-.324-.433-.786-.65-1.387-.65-.314 0-.59.08-.83.24-.237.16-.404.316-.5.466-.095.151-.143.241-.143.269 0 .009.024.014.072.014.171 0 .348.066.529.198.181.132.272.348.272.65a.827.827 0 0 1-.23.593c-.152.16-.366.245-.643.254ZM-39.051 220.929c0-.107.06-.313.182-.62.121-.306.29-.653.506-1.039.215-.386.512-.719.89-.999.377-.28.775-.426 1.193-.44.62 0 1.085.167 1.395.5.31.333.466.726.466 1.179 0 .24-.23.986-.688 2.238-.458 1.252-.688 2.192-.688 2.818 0 .573.095.972.284 1.199.188.226.472.346.849.36.378.013.735-.1 1.072-.34.337-.24.587-.466.748-.68l.223-.339c.027-.054.283-1.066.768-3.038.405-1.599.648-2.531.729-2.798.08-.266.175-.459.283-.579.229-.2.472-.3.728-.3.229 0 .398.067.505.2.108.133.162.26.162.38l-1.537 6.354a1.8 1.8 0 0 0-.02.32c0 .333.047.553.141.66.095.106.236.166.425.18.297-.04.533-.247.708-.62.175-.373.378-.959.607-1.759.027-.106.162-.159.404-.159.257 0 .385.06.385.179-.014.067-.027.16-.04.28-.014.12-.075.333-.183.64-.108.306-.222.593-.344.859a2.98 2.98 0 0 1-.505.759c-.216.24-.459.407-.728.5a2.16 2.16 0 0 1-.486.04c-.89 0-1.503-.373-1.84-1.119-.027.013-.102.08-.223.2-.121.12-.243.22-.364.299-.121.08-.27.18-.445.3s-.37.2-.586.24c-.216.04-.445.073-.688.1-.593 0-1.12-.12-1.578-.36-.7-.413-1.051-1.119-1.051-2.118 0-.759.236-1.752.707-2.978.472-1.225.708-2.005.708-2.338V218.81c0-.039-.027-.086-.08-.139a.3.3 0 0 0-.223-.08h-.08c-.311 0-.594.126-.85.379a3.157 3.157 0 0 0-.607.82 5.258 5.258 0 0 0-.344.839c-.08.266-.135.413-.162.44-.027.026-.135.04-.323.04h-.284c-.08-.08-.121-.14-.121-.18ZM-53.389 244.409c-.31 0-.532-.08-.667-.24a.916.916 0 0 1-.223-.54c0-.133.04-.333.122-.599.08-.267.222-.58.424-.94.202-.359.506-.699.91-1.019a3.895 3.895 0 0 1 1.437-.699l.647-.1h.242c.445 0 .708.007.79.02.849.146 1.557.499 2.123 1.059.566.56.97 1.179 1.213 1.859.243.679.358 1.418.344 2.218 0 1.265-.317 2.711-.95 4.336-.634 1.626-1.423 2.871-2.367 3.737-1.092.999-2.299 1.499-3.62 1.499-1.349 0-2.36-.52-3.034-1.559-.418-.613-.627-1.225-.627-1.838v-.22c0-1.559.587-2.964 1.76-4.217 1.173-1.252 2.474-1.885 3.903-1.898.823 0 1.443.206 1.861.619.418.413.694.86.83 1.339l.06-.22c.27-1.105.404-2.018.404-2.737 0-1.173-.276-1.999-.829-2.478-.553-.48-1.18-.726-1.88-.74-1.053 0-1.868.427-2.448 1.279.553.08.83.347.83.8 0 .333-.122.626-.365.879a1.26 1.26 0 0 1-.89.4Zm4.612 4.036c0-.879-.196-1.505-.587-1.878a1.929 1.929 0 0 0-1.375-.56c-.85 0-1.598.307-2.245.92-.337.373-.6.766-.79 1.179-.188.413-.41 1.092-.667 2.038-.242.959-.364 1.659-.364 2.098 0 1.266.675 1.899 2.023 1.899.162 0 .283-.007.364-.02 1.038-.173 1.874-.773 2.508-1.799.202-.333.438-.892.708-1.678.27-.787.411-1.519.425-2.199ZM-45.5 246.866c-.095-.093-.142-.159-.142-.199 0-.054.02-.16.06-.32.04-.16.075-.253.102-.28.026-.067.087-.1.181-.1.095 0 .439-.006 1.032-.02h1.072l.384-1.599c.04-.146.088-.339.142-.579.054-.24.101-.413.141-.52.04-.106.081-.239.122-.399.04-.16.094-.273.162-.34.067-.067.134-.147.202-.24a.46.46 0 0 1 .283-.18c.121-.026.243-.04.364-.04.243.014.411.087.506.22.094.133.141.26.141.38 0 .093-.06.406-.182.939a30.048 30.048 0 0 1-.404 1.579l-.202.739c0 .027.337.04 1.01.04h1.032c.095.093.142.167.142.22 0 .293-.088.526-.263.699h-2.164l-.728 2.898c-.526 2.132-.79 3.277-.79 3.437 0 .56.183.84.547.84.472 0 .93-.227 1.375-.68.445-.453.803-1.012 1.072-1.678.027-.08.06-.127.101-.14.04-.014.142-.027.304-.04h.08c.203 0 .304.053.304.16a.97.97 0 0 1-.06.239 3.723 3.723 0 0 1-.365.76 7.105 7.105 0 0 1-.687.939 3.721 3.721 0 0 1-1.032.839c-.404.227-.816.34-1.234.34-.404 0-.788-.1-1.152-.3-.365-.2-.628-.546-.79-1.039a2.471 2.471 0 0 1-.04-.539v-.36l.708-2.798c.472-1.878.715-2.824.728-2.838 0-.026-.344-.04-1.031-.04h-1.032ZM-37.166 242.724c-.258 0-.463-.085-.615-.254a.897.897 0 0 1-.229-.622c0-.669.253-1.248.758-1.738s1.134-.735 1.888-.735c.867 0 1.591.264 2.173.792.582.527.877 1.21.887 2.048 0 .405-.096.791-.286 1.159-.191.367-.42.687-.687.961-.267.273-.648.621-1.144 1.045-.343.292-.82.725-1.43 1.3l-.843.791 1.086.014c1.497 0 2.293-.023 2.388-.07.067-.019.182-.438.344-1.258v-.042h.572v.042c-.01.028-.072.457-.186 1.286-.115.829-.186 1.262-.215 1.3v.042h-5.305v-.438c0-.066.029-.137.086-.212.057-.075.2-.24.429-.494.276-.302.515-.566.715-.792.086-.094.248-.268.486-.522l.486-.523c.086-.094.224-.25.415-.466a8.05 8.05 0 0 0 .4-.481c.077-.103.186-.245.33-.424.142-.179.242-.329.3-.452a5.75 5.75 0 0 1 .214-.409c.086-.151.148-.302.186-.453.038-.15.071-.292.1-.423.029-.132.043-.288.043-.467 0-.593-.162-1.106-.486-1.54-.325-.433-.787-.65-1.387-.65-.315 0-.591.08-.83.241-.238.16-.405.315-.5.466-.096.151-.143.24-.143.268 0 .01.024.014.071.014.172 0 .348.066.53.198.18.132.271.349.271.65a.829.829 0 0 1-.229.594c-.152.16-.367.244-.643.254ZM-25.884 235.777h-36.27v-1.199h36.27v1.199ZM-11.087 233.239c0-.173.095-.307.283-.4H2.08c.202.107.303.24.303.4 0 .146-.094.273-.283.38l-6.431.02h-6.432c-.216-.067-.324-.2-.324-.4Zm0 3.877c0-.2.108-.333.324-.4H2.1c.19.133.283.266.283.4 0 .173-.1.306-.303.399h-12.884c-.188-.093-.283-.226-.283-.399ZM9.82 236.996c0-1.452.58-2.758 1.74-3.917 1.159-1.159 2.413-1.738 3.761-1.738.755 0 1.349.159 1.78.479.432.32.654.74.668 1.259 0 .386-.128.713-.385.979-.256.267-.58.407-.97.42-.257 0-.459-.067-.607-.2-.149-.133-.223-.333-.223-.599 0-.267.075-.493.223-.68a1.84 1.84 0 0 1 .445-.419c.148-.094.242-.134.283-.12h.02c0-.027-.04-.067-.121-.12-.081-.054-.223-.107-.425-.16a2.718 2.718 0 0 0-.688-.08 2.49 2.49 0 0 0-1.152.28c-.284.12-.574.326-.87.619-.593.586-1.025 1.412-1.295 2.478-.27 1.066-.41 1.839-.424 2.318 0 .613.175 1.073.525 1.379.297.32.688.48 1.174.48h.08c1.51 0 2.758-.566 3.742-1.699.122-.133.203-.2.243-.2.054 0 .141.06.263.18.121.12.189.213.202.28.014.067-.047.167-.182.3-.135.133-.33.319-.586.559-.257.24-.56.44-.91.6-.351.16-.783.326-1.295.499a4.344 4.344 0 0 1-1.618.22c-1.011 0-1.827-.32-2.447-.959-.62-.639-.937-1.452-.951-2.438ZM19.449 225.858c-.258 0-.463-.085-.615-.254a.897.897 0 0 1-.23-.622c0-.669.254-1.248.759-1.738.505-.489 1.134-.734 1.887-.734.868 0 1.592.263 2.174.791.581.527.877 1.21.886 2.049 0 .405-.095.791-.286 1.158-.19.367-.42.688-.686.961-.267.273-.648.622-1.144 1.045-.343.292-.82.726-1.43 1.3l-.844.791 1.087.015c1.497 0 2.293-.024 2.388-.071.067-.019.181-.438.343-1.258v-.042h.572v.042c-.01.029-.071.457-.185 1.286-.115.829-.186 1.262-.215 1.3v.042h-5.305v-.438a.36.36 0 0 1 .086-.212c.057-.075.2-.24.429-.494.276-.301.514-.565.715-.791.085-.094.247-.269.486-.523a36.645 36.645 0 0 0 .9-.989c.191-.217.325-.377.401-.48.076-.104.186-.245.329-.424.143-.179.243-.33.3-.452.057-.123.129-.259.215-.41.085-.151.147-.301.186-.452.038-.151.071-.292.1-.424.028-.132.043-.287.043-.466 0-.594-.162-1.107-.487-1.54-.324-.434-.786-.65-1.387-.65-.314 0-.59.08-.829.24-.238.16-.405.316-.5.466-.096.151-.143.24-.143.269 0 .009.023.014.071.014.172 0 .348.066.53.198.18.131.27.348.27.649a.827.827 0 0 1-.228.594c-.152.16-.367.245-.643.254ZM26.984 226.665c0-.039.033-.086.1-.139H41.85c.067.053.1.1.1.139 0 .027-1.139 2.359-3.417 6.995-2.28 4.636-3.446 6.981-3.5 7.034-.067.093-.256.14-.566.14-.31 0-.499-.047-.566-.14-.04-.053-1.2-2.398-3.479-7.034l-3.438-6.995Zm13.167 1.599c0-.013-1.7-.02-5.097-.02-3.398 0-5.097.007-5.097.02.027.067.876 1.799 2.548 5.196 1.672 3.397 2.522 5.103 2.549 5.116l5.097-10.312ZM44.46 225.86c-.258 0-.463-.085-.615-.254a.898.898 0 0 1-.229-.622c0-.669.253-1.248.758-1.738.505-.489 1.134-.734 1.887-.734.868 0 1.592.263 2.174.791.581.527.877 1.21.886 2.049 0 .405-.095.791-.285 1.158a4 4 0 0 1-.687.961c-.267.273-.648.621-1.144 1.045-.343.292-.82.726-1.43 1.3l-.843.791 1.086.014c1.497 0 2.293-.023 2.388-.07.067-.019.181-.438.343-1.258v-.042h.572v.042c-.009.029-.071.457-.185 1.286-.115.829-.186 1.262-.215 1.3v.042h-5.305v-.438a.36.36 0 0 1 .086-.212c.057-.075.2-.24.429-.494.276-.301.515-.565.715-.791.086-.094.248-.269.486-.523s.4-.429.486-.523c.086-.094.224-.249.415-.466.19-.217.324-.377.4-.48.076-.104.186-.245.33-.424.142-.179.242-.33.3-.452.057-.123.128-.259.214-.41.086-.151.148-.302.186-.452.038-.151.071-.292.1-.424.029-.132.043-.287.043-.466 0-.594-.162-1.107-.486-1.54-.325-.434-.787-.65-1.388-.65-.314 0-.59.08-.829.24-.238.16-.405.315-.5.466-.096.151-.143.24-.143.269 0 .009.023.014.071.014.172 0 .348.066.53.198.18.131.27.348.27.649a.828.828 0 0 1-.228.594c-.152.16-.367.245-.643.254ZM51.487 234.439c0-.107.061-.313.182-.62.122-.306.29-.652.506-1.039.216-.386.512-.719.89-.999s.775-.426 1.193-.44c.62 0 1.086.167 1.396.5.31.333.465.726.465 1.179 0 .24-.23.986-.688 2.238-.458 1.253-.687 2.192-.687 2.818 0 .573.094.973.283 1.199.189.227.472.346.85.36.377.013.734-.1 1.071-.34.337-.24.587-.466.749-.679l.222-.34c.027-.053.283-1.066.769-3.038.404-1.598.647-2.531.728-2.797.08-.267.175-.46.283-.58.23-.2.472-.3.728-.3.23 0 .398.067.506.2.108.133.162.26.162.38l-1.538 6.355c-.013.066-.02.173-.02.319 0 .333.047.553.142.66.094.106.236.166.424.18.297-.04.533-.247.708-.62.176-.373.378-.959.607-1.758.027-.107.162-.16.405-.16.256 0 .384.06.384.18-.014.066-.027.16-.04.279-.014.12-.075.333-.183.64-.107.306-.222.593-.343.859-.122.267-.29.52-.506.76a1.747 1.747 0 0 1-.728.499 2.16 2.16 0 0 1-.485.04c-.89 0-1.504-.373-1.841-1.119-.027.013-.101.08-.223.2-.12.12-.242.22-.364.3-.121.08-.27.18-.445.299-.175.12-.37.2-.586.24-.216.04-.445.074-.688.1-.593 0-1.119-.12-1.577-.36-.702-.413-1.052-1.119-1.052-2.118 0-.759.236-1.752.708-2.977.472-1.226.708-2.005.708-2.339V232.321c0-.04-.027-.087-.081-.14a.3.3 0 0 0-.223-.08h-.08c-.31 0-.594.126-.85.38a3.155 3.155 0 0 0-.607.819 5.258 5.258 0 0 0-.344.839c-.08.267-.135.413-.162.44-.027.026-.134.04-.323.04h-.283c-.081-.08-.122-.14-.122-.18Z" fill="#E7A3A3"/><path d="M261.787 201.5v52.232c0 5.523-4.477 10-10 10h-7.049" stroke="#000" stroke-width="3" stroke-linecap="round"/><path d="M188.99 148.065c.114-.672.554-1.448 1.32-2.328.765-.88 1.71-1.328 2.835-1.344.57 0 1.091.144 1.564.432.472.288.823.648 1.051 1.08.684-1.008 1.507-1.512 2.468-1.512.603 0 1.124.176 1.564.528.44.352.668.824.685 1.416 0 .464-.114.84-.343 1.128-.228.288-.448.464-.659.528a1.98 1.98 0 0 1-.563.096c-.309 0-.562-.088-.757-.264a.89.89 0 0 1-.293-.696c0-.736.407-1.24 1.222-1.512-.18-.208-.506-.312-.978-.312-.212 0-.367.016-.464.048-.62.256-1.076.784-1.369 1.584-.978 3.536-1.466 5.6-1.466 6.192 0 .448.13.768.391.96.26.192.545.288.855.288.603 0 1.198-.264 1.784-.792a3.988 3.988 0 0 0 1.198-1.944c.049-.16.097-.248.146-.264a2.38 2.38 0 0 1 .391-.048h.098c.244 0 .367.064.367.192 0 .016-.017.104-.049.264-.261.912-.766 1.72-1.515 2.424-.75.704-1.622 1.056-2.616 1.056-1.14 0-2.004-.504-2.59-1.512-.668.992-1.434 1.488-2.297 1.488h-.147c-.798 0-1.369-.208-1.711-.624-.342-.416-.521-.856-.538-1.32 0-.512.155-.928.465-1.248.309-.32.676-.48 1.1-.48.7 0 1.051.336 1.051 1.008 0 .32-.098.6-.294.84-.195.24-.383.4-.562.48-.179.08-.285.12-.318.12l-.073.024c0 .016.049.048.147.096.097.048.228.104.391.168a.972.972 0 0 0 .464.072c.587 0 1.092-.36 1.515-1.08.147-.256.334-.8.562-1.632a138.301 138.301 0 0 0 1.076-4.176c.081-.432.122-.744.122-.936 0-.448-.122-.768-.367-.96a1.308 1.308 0 0 0-.831-.288c-.651 0-1.262.256-1.832.768-.571.512-.97 1.168-1.198 1.968-.033.144-.073.224-.122.24a2.362 2.362 0 0 1-.391.048h-.342c-.098-.096-.147-.184-.147-.264ZM202.062 153.731c.011-.068.028-.158.051-.271a5.77 5.77 0 0 1 .208-.645c.115-.317.23-.583.345-.797.116-.215.306-.425.571-.628.264-.204.529-.3.794-.289.415 0 .761.102 1.037.306.277.203.449.396.518.577.07.181.104.299.104.356 0 .023.006.034.017.034l.19-.187c.703-.724 1.504-1.086 2.402-1.086.622 0 1.123.153 1.503.458.381.306.576.753.588 1.341.011.588-.207 1.476-.657 2.664-.449 1.188-.668 1.906-.656 2.155 0 .294.098.441.294.441.069 0 .12-.006.155-.017.334-.057.634-.272.899-.645.264-.373.466-.826.604-1.357.023-.091.139-.136.346-.136.23 0 .345.045.345.136 0 .011-.023.096-.069.254a5.257 5.257 0 0 1-.38.967c-.161.317-.426.634-.795.951-.368.316-.766.469-1.192.458-.541 0-.933-.153-1.175-.458-.242-.306-.363-.622-.363-.951 0-.214.208-.893.622-2.036.415-1.142.628-2.002.64-2.579 0-.667-.254-1.001-.761-1.001h-.086c-.991 0-1.826.571-2.505 1.714l-.121.203-.571 2.274c-.38 1.482-.599 2.28-.656 2.393-.15.305-.398.458-.743.458a.612.612 0 0 1-.553-.306c-.035-.068-.046-.124-.035-.169 0-.147.219-1.069.657-2.766.438-1.697.668-2.619.691-2.766.012-.056.017-.187.017-.39 0-.441-.138-.662-.414-.662-.438 0-.801.566-1.089 1.697a6.11 6.11 0 0 0-.104.356c-.023.068-.132.102-.328.102h-.242c-.069-.068-.103-.119-.103-.153ZM213.034 154.58v-.221c0-.147.08-.26.241-.339h5.167v-2.546l.017-2.545c.115-.147.225-.22.328-.22.15 0 .265.084.346.254v5.057h5.149c.173.09.259.203.259.339s-.086.249-.259.339h-5.149v5.057c-.092.158-.196.237-.311.237h-.069c-.138 0-.242-.079-.311-.237v-5.057h-5.167c-.161-.079-.241-.192-.241-.339v.221ZM227.392 151.322c-.311 0-.558-.102-.743-.305a1.075 1.075 0 0 1-.276-.747c0-.803.305-1.499.916-2.087.61-.588 1.37-.882 2.28-.882 1.049 0 1.924.316 2.627.95.703.633 1.06 1.453 1.071 2.46 0 .487-.115.95-.345 1.392a4.807 4.807 0 0 1-.83 1.153c-.322.328-.783.747-1.382 1.256-.415.351-.991.871-1.728 1.561l-1.019.95 1.313.017c1.808 0 2.77-.028 2.885-.085.081-.022.219-.526.415-1.51v-.051h.691v.051c-.011.034-.086.549-.224 1.544-.139.996-.225 1.516-.26 1.561v.051h-6.41v-.526c0-.079.034-.164.104-.254.069-.091.241-.289.518-.594.334-.362.622-.679.864-.95.104-.113.299-.323.587-.628.288-.306.484-.515.588-.628.104-.113.271-.3.501-.56.23-.26.392-.452.484-.577.092-.124.224-.294.397-.509.173-.215.294-.396.363-.543.069-.147.156-.311.259-.492.104-.181.179-.362.225-.543.046-.181.086-.351.121-.509.034-.158.052-.345.052-.56 0-.713-.196-1.329-.588-1.849-.392-.521-.95-.781-1.676-.781-.38 0-.714.096-1.002.289-.288.192-.49.378-.605.559-.115.181-.173.289-.173.323 0 .011.029.017.087.017.207 0 .42.079.639.237.219.159.328.419.328.781 0 .283-.092.52-.276.713-.184.192-.444.294-.778.305ZM243.532 146.671c0-.208.114-.368.342-.48h15.568c.244.128.367.288.367.48 0 .176-.114.328-.342.456l-7.772.024h-7.772c-.261-.08-.391-.24-.391-.48Zm0 4.656c0-.24.13-.4.391-.48h15.544c.228.16.342.32.342.48 0 .208-.123.368-.367.48h-15.568c-.228-.112-.342-.272-.342-.48ZM268.48 148.113c.016-.048.033-.112.049-.192s.057-.256.122-.528.147-.52.245-.744c.097-.224.22-.488.366-.792a2.57 2.57 0 0 1 .489-.72c.179-.176.391-.352.635-.528a1.13 1.13 0 0 1 .807-.216c.472 0 .888.096 1.246.288.359.192.611.368.758.528.147.16.236.32.269.48.032.096.057.144.073.144.016 0 .082-.056.196-.168.782-.832 1.686-1.248 2.713-1.248h.073c.782 0 1.368.328 1.759.984.131.304.196.6.196.888 0 .48-.106.864-.318 1.152-.212.288-.423.472-.635.552-.212.08-.416.112-.611.096-.326 0-.587-.088-.782-.264a.89.89 0 0 1-.293-.696c0-.768.456-1.28 1.368-1.536-.358-.208-.652-.312-.88-.312-.912 0-1.751.592-2.517 1.776a3.18 3.18 0 0 0-.367.792c-.081.272-.358 1.336-.831 3.192-.553 2.24-.871 3.432-.953 3.576-.211.432-.562.648-1.051.648-.211 0-.382-.048-.513-.144a.876.876 0 0 1-.269-.288c-.049-.096-.065-.176-.049-.24 0-.208.326-1.584.978-4.128.652-2.544.978-3.96.978-4.248 0-.624-.212-.936-.636-.936-.342 0-.635.224-.88.672-.244.448-.44.936-.586 1.464-.147.528-.236.816-.269.864-.033.032-.163.048-.391.048h-.342c-.098-.096-.147-.168-.147-.216ZM280.259 148.065c.114-.672.554-1.448 1.32-2.328.766-.88 1.711-1.328 2.835-1.344.57 0 1.092.144 1.564.432.473.288.823.648 1.051 1.08.684-1.008 1.507-1.512 2.469-1.512.602 0 1.124.176 1.564.528.44.352.668.824.684 1.416 0 .464-.114.84-.342 1.128-.228.288-.448.464-.66.528a1.974 1.974 0 0 1-.562.096c-.31 0-.562-.088-.758-.264a.893.893 0 0 1-.293-.696c0-.736.407-1.24 1.222-1.512-.179-.208-.505-.312-.978-.312-.211 0-.366.016-.464.048-.619.256-1.075.784-1.369 1.584-.977 3.536-1.466 5.6-1.466 6.192 0 .448.13.768.391.96.261.192.546.288.855.288.603 0 1.198-.264 1.785-.792a3.993 3.993 0 0 0 1.197-1.944c.049-.16.098-.248.147-.264.049-.016.179-.032.391-.048h.098c.244 0 .366.064.366.192 0 .016-.016.104-.049.264-.26.912-.766 1.72-1.515 2.424-.75.704-1.621 1.056-2.615 1.056-1.141 0-2.004-.504-2.591-1.512-.668.992-1.433 1.488-2.297 1.488h-.147c-.798 0-1.368-.208-1.71-.624-.343-.416-.522-.856-.538-1.32 0-.512.155-.928.464-1.248.31-.32.676-.48 1.1-.48.701 0 1.051.336 1.051 1.008 0 .32-.098.6-.293.84-.196.24-.383.4-.562.48-.18.08-.286.12-.318.12l-.073.024c0 .016.048.048.146.096.098.048.228.104.391.168a.976.976 0 0 0 .465.072c.586 0 1.091-.36 1.515-1.08.146-.256.334-.8.562-1.632a146.65 146.65 0 0 0 1.075-4.176c.082-.432.122-.744.122-.936 0-.448-.122-.768-.366-.96a1.312 1.312 0 0 0-.831-.288c-.652 0-1.263.256-1.833.768-.57.512-.969 1.168-1.198 1.968-.032.144-.073.224-.122.24a2.362 2.362 0 0 1-.391.048h-.342c-.098-.096-.147-.184-.147-.264ZM293.331 153.731c.012-.068.029-.158.052-.271.023-.113.092-.328.207-.645.115-.317.231-.583.346-.797.115-.215.305-.425.57-.628.265-.204.53-.3.795-.289.414 0 .76.102 1.037.306.276.203.449.396.518.577.069.181.104.299.104.356 0 .023.005.034.017.034l.19-.187c.703-.724 1.503-1.086 2.402-1.086.622 0 1.123.153 1.503.458.38.306.576.753.587 1.341.012.588-.207 1.476-.656 2.664-.449 1.188-.668 1.906-.657 2.155 0 .294.098.441.294.441a.538.538 0 0 0 .155-.017c.335-.057.634-.272.899-.645s.466-.826.605-1.357c.023-.091.138-.136.345-.136.231 0 .346.045.346.136 0 .011-.023.096-.069.254a5.257 5.257 0 0 1-.38.967c-.162.317-.427.634-.795.951-.369.316-.766.469-1.192.458-.542 0-.934-.153-1.175-.458-.242-.306-.363-.622-.363-.951 0-.214.207-.893.622-2.036.414-1.142.628-2.002.639-2.579 0-.667-.253-1.001-.76-1.001h-.087c-.99 0-1.825.571-2.505 1.714l-.121.203-.57 2.274c-.38 1.482-.599 2.28-.657 2.393-.15.305-.397.458-.743.458a.6.6 0 0 1-.553-.306c-.034-.068-.046-.124-.034-.169 0-.147.219-1.069.656-2.766.438-1.697.668-2.619.692-2.766.011-.056.017-.187.017-.39 0-.441-.138-.662-.415-.662-.438 0-.8.566-1.088 1.697-.07.226-.104.345-.104.356-.023.068-.133.102-.328.102h-.242c-.069-.068-.104-.119-.104-.153ZM306.858 149c0-1.104.081-2.152.244-3.144.163-.992.35-1.848.562-2.568.212-.72.513-1.424.904-2.112.391-.688.701-1.224.929-1.608.228-.384.57-.8 1.027-1.248.456-.448.725-.72.806-.816.082-.096.285-.264.611-.504h.416c.228 0 .342.072.342.216 0 .048-.139.216-.416.504-.277.288-.611.712-1.002 1.272s-.79 1.248-1.197 2.064c-.408.816-.75 1.92-1.027 3.312-.277 1.392-.415 2.936-.415 4.632 0 1.696.138 3.232.415 4.608.277 1.376.611 2.488 1.002 3.336.391.848.79 1.536 1.198 2.064.407.528.749.952 1.026 1.272.277.32.416.488.416.504 0 .144-.122.216-.367.216h-.391l-.684-.576c-1.532-1.36-2.648-3.056-3.348-5.088a19.291 19.291 0 0 1-1.051-6.336ZM319.272 141.129l-.317.12a7.1 7.1 0 0 1-.978.24c-.423.08-.896.136-1.417.168h-.465v-1.104h.465a8.085 8.085 0 0 0 2.126-.36c.652-.208 1.108-.4 1.369-.576a6.36 6.36 0 0 0 .684-.528c.032-.048.13-.072.293-.072a.69.69 0 0 1 .416.144v7.176l.024 7.2a.972.972 0 0 0 .293.216c.082.032.277.064.587.096.309.032.814.048 1.515.048h.636v1.104h-.269c-.342-.048-1.638-.072-3.886-.072-2.216 0-3.495.024-3.837.072h-.294v-1.104h1.565c.26 0 .464-.008.611-.024.146-.016.277-.04.391-.072a1.5 1.5 0 0 1 .195-.048c.016 0 .065-.04.147-.12.081-.08.13-.112.146-.096v-12.408ZM333.771 149.313v-.312c0-.208.114-.368.342-.48h14.2c.244.128.366.288.366.48s-.122.352-.366.48h-14.2c-.228-.112-.342-.272-.342-.48v.312ZM357.189 155.001h-.049c-.228 0-.342-.088-.342-.264 0-.064.024-.192.073-.384.065-.224.122-.352.171-.384.049-.032.204-.056.465-.072 1.401-.048 2.501-.464 3.299-1.248.163-.16 1.108-1.168 2.835-3.024 1.727-1.856 2.582-2.8 2.566-2.832-1.776-4.448-2.704-6.712-2.786-6.792-.147-.176-.66-.272-1.54-.288h-.684c-.098-.096-.147-.16-.147-.192s.017-.184.049-.456c.065-.208.147-.36.245-.456h.342c.554.032 1.54.048 2.957.048h1.491c.456 0 .823-.008 1.1-.024.277-.016.44-.016.488 0 .277 0 .416.088.416.264 0 .016-.016.12-.049.312-.065.24-.122.384-.171.432-.049.048-.179.072-.391.072a3.115 3.115 0 0 0-1.32.408l1.882 4.656 1.295-1.416c1.711-1.808 2.567-2.808 2.567-3 0-.288-.196-.488-.587-.6a1.4 1.4 0 0 1-.318-.048c-.244 0-.366-.088-.366-.264 0-.032.016-.16.049-.384.065-.208.146-.36.244-.456H371.877c.391 0 .831.016 1.32.048.489.032.823.04 1.002.024 1.466 0 2.273-.024 2.419-.072h.196c.114.112.171.2.171.264-.033.4-.13.68-.293.84h-.391a5.959 5.959 0 0 0-1.491.216c-.44.128-.774.264-1.002.408a4.59 4.59 0 0 0-.587.432l-.268.216c0-.016-.774.816-2.322 2.496l-2.126 2.304a278.043 278.043 0 0 0 2.346 5.808c.554 1.328.855 2.016.904 2.064.163.144.66.224 1.491.24.57 0 .855.072.855.216 0 .032-.016.144-.049.336-.065.256-.122.408-.171.456-.049.048-.163.072-.342.072h-.806c-.489 0-1.214-.008-2.176-.024h-2.272c-.522 0-.807.008-.856.024-.277 0-.415-.072-.415-.216 0-.016.016-.136.049-.36.032-.16.065-.272.097-.336.033-.064.074-.104.123-.12.048-.016.122-.032.219-.048.098-.016.229-.024.392-.024.162 0 .374-.056.635-.168.277-.128.415-.208.415-.24-.016 0-.399-.936-1.148-2.808l-1.149-2.832c-3.063 3.264-4.635 4.984-4.717 5.16-.065.128-.098.224-.098.288 0 .304.237.504.709.6h.147c.081 0 .13.008.146.024h.098a.19.19 0 0 1 .074.024.16.16 0 0 1 .073.072.412.412 0 0 1 .024.168c0 .144-.016.272-.049.384-.048.208-.097.328-.146.36-.049.032-.171.056-.367.072h-.44c-.244 0-.586-.008-1.026-.024-.44-.016-.921-.016-1.442 0-1.271 0-2.086.016-2.444.048ZM376.761 153.731c.011-.068.029-.158.052-.271.023-.113.092-.328.207-.645a5.97 5.97 0 0 1 .346-.797c.115-.215.305-.425.57-.628.265-.204.53-.3.795-.289.414 0 .76.102 1.036.306.277.203.45.396.519.577.069.181.103.299.103.356 0 .023.006.034.018.034l.19-.187c.702-.724 1.503-1.086 2.402-1.086.622 0 1.123.153 1.503.458.38.306.576.753.587 1.341.012.588-.207 1.476-.656 2.664-.45 1.188-.668 1.906-.657 2.155 0 .294.098.441.294.441a.538.538 0 0 0 .155-.017c.334-.057.634-.272.899-.645s.466-.826.605-1.357c.023-.091.138-.136.345-.136.231 0 .346.045.346.136 0 .011-.023.096-.069.254a5.262 5.262 0 0 1-.381.967c-.161.317-.426.634-.794.951-.369.316-.766.469-1.193.458-.541 0-.933-.153-1.175-.458-.241-.306-.362-.622-.362-.951 0-.214.207-.893.622-2.036.414-1.142.627-2.002.639-2.579 0-.667-.253-1.001-.76-1.001h-.087c-.99 0-1.826.571-2.505 1.714l-.121.203-.57 2.274c-.38 1.482-.599 2.28-.657 2.393-.15.305-.397.458-.743.458a.596.596 0 0 1-.363-.102.622.622 0 0 1-.19-.204c-.034-.068-.046-.124-.034-.169 0-.147.218-1.069.656-2.766.438-1.697.668-2.619.691-2.766.012-.056.018-.187.018-.39 0-.441-.139-.662-.415-.662-.438 0-.801.566-1.089 1.697a5.552 5.552 0 0 0-.103.356c-.023.068-.133.102-.329.102h-.241c-.07-.068-.104-.119-.104-.153ZM389.456 137.024l.098-.024h.538l.684.576c1.531 1.36 2.648 3.056 3.348 5.088a19.291 19.291 0 0 1 1.051 6.336c0 1.088-.081 2.136-.244 3.144-.163 1.008-.351 1.864-.562 2.568a10.721 10.721 0 0 1-.905 2.112c-.391.704-.7 1.24-.928 1.608-.229.368-.563.776-1.002 1.224-.44.448-.701.712-.783.792-.081.08-.268.232-.562.456l-.097.096h-.563c-.048 0-.089-.024-.122-.072a.564.564 0 0 1-.073-.216c.016-.016.106-.12.269-.312 2.525-2.576 3.788-6.376 3.788-11.4s-1.263-8.824-3.788-11.4a13.003 13.003 0 0 0-.269-.312c0-.128.041-.216.122-.264Z" fill="#E7A3A3"/></g><rect x="192.586" y="170" width="107.312" height="35" rx="10" fill="#E62A2A"/><mask id="supportLaTexEquation_b" style="mask-type:alpha" maskUnits="userSpaceOnUse" x="192" y="170" width="106" height="35"><rect x="192.586" y="170" width="105.306" height="35" rx="10" fill="#E62A2A"/></mask><g mask="url(#supportLaTexEquation_b)"><path d="M190.58 178c0-5.523 4.477-10 10-10h89.312a8 8 0 0 1 8 8v19a8 8 0 0 1-8 8H200.58c-5.523 0-10-4.477-10-10v-15Z" fill="#FF6060"/></g><ellipse cx="210.137" cy="187.5" rx="8.525" ry="8.5" fill="#FFC226"/><path d="M205.624 185a1 1 0 0 1 1-1h7.026a1 1 0 0 1 0 2h-7.026a1 1 0 0 1-1-1ZM205.624 190a1 1 0 0 1 1-1h7.026a1 1 0 0 1 0 2h-7.026a1 1 0 0 1-1-1Z" fill="#fff"/><g clip-path="url(#supportLaTexEquation_c)" fill="#000"><path d="M49.114 264.304c0-1.446.424-2.836 1.27-4.17.847-1.333 1.915-2.39 3.204-3.17 1.289-.78 2.578-1.176 3.867-1.188 1.137 0 2.041.32 2.71.962.114.126.21.233.285.321.076.088.127.151.152.188l.019.057c.038 0 .208-.163.511-.491.089-.075.184-.163.285-.264l.303-.302c.101-.1.164-.169.19-.207l.284-.283h.114c.177 0 .265.044.265.132 0 .05-.202.912-.606 2.585a282.514 282.514 0 0 0-.683 2.642c-.025.062-.057.1-.095.113a2.222 2.222 0 0 1-.34.038h-.304c-.076-.076-.114-.133-.114-.17a4.638 4.638 0 0 0 .057-.51c.013-.176.019-.377.019-.604 0-.893-.202-1.673-.607-2.339-.404-.667-1.093-1.007-2.066-1.019-.227 0-.474.019-.74.056-.265.038-.6.12-1.004.246-.404.125-.79.302-1.156.528a9.005 9.005 0 0 0-1.194.906c-.43.377-.797.824-1.1 1.339-.303.516-.6 1.158-.89 1.925-.291.767-.487 1.61-.589 2.529a6.653 6.653 0 0 0-.037.735c0 .604.088 1.139.265 1.604.177.466.404.824.682 1.076.279.251.594.465.948.641s.683.283.986.321c.303.038.588.063.853.076.682 0 1.308-.145 1.877-.434.568-.29.96-.661 1.175-1.114.038-.1.133-.446.284-1.037.152-.592.228-.925.228-1 0-.101-.082-.164-.247-.189-.164-.025-.543-.044-1.137-.057h-.701c-.076-.075-.114-.126-.114-.151 0-.025.013-.144.038-.358a.865.865 0 0 1 .19-.359h.322c.505.025 1.39.038 2.653.038h1.233c.316 0 .543-.006.682-.019.139-.012.215-.012.227 0 .177 0 .266.057.266.17 0 .025-.013.113-.038.264-.063.239-.126.371-.19.396a1.206 1.206 0 0 1-.284.019 5.48 5.48 0 0 0-.777.057.36.36 0 0 0-.19.17c-.038.075-.126.396-.265.962-.114.415-.209.767-.284 1.057-.316 1.283-.493 1.943-.531 1.981a.13.13 0 0 1-.095.038c-.126 0-.303-.126-.53-.378-.228-.251-.374-.446-.437-.585 0-.012-.012-.012-.038 0a.54.54 0 0 0-.113.095c-.936.868-2.2 1.302-3.792 1.302-1.529 0-2.767-.485-3.715-1.453-.948-.969-1.428-2.208-1.44-3.718ZM63.843 274.771a.501.501 0 0 1-.321-.107.393.393 0 0 1-.148-.294c0-.089.326-1.432.979-4.029.652-2.596.996-3.922 1.032-3.975.116-.249.321-.374.616-.374a.513.513 0 0 1 .268.094.355.355 0 0 1 .134.16.435.435 0 0 1 .027.133c0 .107-.139.703-.416 1.788-.276 1.085-.424 1.694-.442 1.828a2.87 2.87 0 0 0-.027.467v.106c0 .65.3.974.898.974.08 0 .161-.004.242-.013a.937.937 0 0 0 .227-.054c.072-.026.139-.057.201-.093.063-.036.121-.067.175-.093a.53.53 0 0 0 .16-.134.652.652 0 0 1 .148-.133.423.423 0 0 0 .134-.16.472.472 0 0 1 .107-.147.585.585 0 0 0 .12-.16l.095-.133.482-1.908c.322-1.263.5-1.935.536-2.015a.595.595 0 0 1 .576-.36.41.41 0 0 1 .282.094.73.73 0 0 1 .147.16.182.182 0 0 1 .027.133l-1.019 4.242a1.217 1.217 0 0 0-.013.214c0 .222.031.369.094.44.063.071.156.111.281.12a.586.586 0 0 0 .268-.12c.188-.178.371-.605.55-1.281.053-.177.098-.271.134-.28a.395.395 0 0 1 .134-.013h.054c.17 0 .254.04.254.12 0 .053-.022.173-.067.36a4.188 4.188 0 0 1-.268.721c-.134.293-.277.515-.429.667-.116.115-.259.209-.429.28a1.493 1.493 0 0 1-.321.026c-.188 0-.358-.026-.51-.08a1.062 1.062 0 0 1-.361-.2c-.09-.08-.166-.16-.228-.24a.738.738 0 0 1-.12-.2.54.54 0 0 1-.028-.093l-.08.08c-.054.053-.134.12-.241.2-.108.08-.224.16-.349.24a2.04 2.04 0 0 1-.482.213 1.843 1.843 0 0 1-.563.094 2.78 2.78 0 0 1-1.246-.307l-.322 1.294c-.188.729-.3 1.152-.335 1.267a.777.777 0 0 1-.161.294.687.687 0 0 1-.456.187ZM72.14 266.14l.965-.067c.634-.045.96-.071.978-.08.107 0 .16.035.16.107 0 .053-.205.911-.616 2.574l-.643 2.535h.04l.134-.053c.099-.036.22-.089.362-.16.143-.072.308-.156.496-.254s.397-.245.63-.44c.232-.196.46-.4.683-.614a6.786 6.786 0 0 0 1.783-3.055c.116-.427.344-.64.683-.64.117 0 .22.035.308.107.09.071.139.173.148.306 0 .187-.063.45-.188.787-.125.338-.335.739-.63 1.201a7.803 7.803 0 0 1-1.085 1.334c-.429.427-.97.836-1.622 1.228a7.576 7.576 0 0 1-2.157.867 2.09 2.09 0 0 1-.47.093c-.044 0-.098-.004-.16-.013-.063-.009-.099-.018-.108-.027-.053-.036-.08-.08-.08-.133 0-.018.192-.805.576-2.362l.59-2.348c.009-.115-.022-.186-.094-.213-.071-.027-.246-.049-.522-.067h-.282c-.054-.053-.08-.089-.08-.106 0-.018.009-.103.026-.254.036-.169.094-.253.175-.253ZM84.476 264.587v-.245c0-.164.088-.289.265-.377h5.668v-2.831l.019-2.83c.126-.164.246-.246.36-.246.164 0 .29.095.38.284v5.623h5.648c.19.1.284.226.284.377s-.094.277-.284.377h-5.649v5.623c-.101.176-.215.264-.341.264h-.076c-.151 0-.265-.088-.341-.264v-5.623H84.74c-.177-.088-.265-.214-.265-.377v.245ZM108.439 255.7c.076-.1.203-.151.379-.151H109.103c.151 0 .259.051.322.151.025.025.348 1.038.967 3.038a1072.931 1072.931 0 0 0 2.881 9.152.452.452 0 0 0 .304.226c.126.025.398.05.815.076h.511v.868h-.151c-.114-.038-.879-.057-2.294-.057-1.529 0-2.426.019-2.692.057h-.208v-.868h.246c.91 0 1.365-.12 1.365-.359-.013-.063-.48-1.572-1.403-4.529-.922-2.956-1.39-4.427-1.402-4.415l-1.327 4.208c-.872 2.78-1.308 4.239-1.308 4.378 0 .151.132.308.398.471.265.164.581.246.948.246h.094v.868h-.151c-.19-.038-.917-.057-2.18-.057-1.049 0-1.631.019-1.744.057h-.114v-.868h.246c.847-.063 1.365-.346 1.555-.85.012-.012.625-1.949 1.839-5.811 1.213-3.862 1.819-5.806 1.819-5.831ZM121.425 268.248c-.19.164-.468.34-.834.529a2.504 2.504 0 0 1-1.157.283c-.796 0-1.434-.283-1.914-.85-.48-.566-.727-1.289-.739-2.169 0-1.321.486-2.535 1.459-3.642.973-1.107 2.054-1.667 3.242-1.68.594 0 1.143.302 1.649.906l.057-.075a.736.736 0 0 1 .095-.114c.037-.037.094-.088.17-.15a.684.684 0 0 1 .247-.133c.088-.025.189-.044.303-.056a.59.59 0 0 1 .436.17.583.583 0 0 1 .189.358c0 .189-.36 1.711-1.08 4.566-.72 2.856-1.1 4.315-1.137 4.378-.228.679-.714 1.239-1.46 1.679-.746.441-1.599.667-2.559.68-1.782 0-2.673-.428-2.673-1.283 0-.327.114-.617.341-.868.228-.252.518-.378.872-.378.19 0 .367.057.531.17.164.113.253.308.265.585 0 .126-.012.245-.038.359a.523.523 0 0 1-.132.264 1.036 1.036 0 0 0-.152.188.505.505 0 0 1-.133.151l-.038.038h.019c.127.038.506.057 1.138.057.48 0 .859-.076 1.137-.227.291-.138.563-.346.815-.622a2.41 2.41 0 0 0 .531-.887c.076-.239.177-.629.303-1.17.165-.604.247-.956.247-1.057Zm1.384-5.377-.076-.208a1.806 1.806 0 0 0-.095-.283 4.213 4.213 0 0 1-.114-.264.544.544 0 0 0-.189-.264 1.737 1.737 0 0 1-.247-.208.626.626 0 0 0-.341-.17 4.582 4.582 0 0 0-.417-.056c-.556 0-1.093.333-1.611 1-.379.49-.695 1.239-.948 2.245s-.379 1.736-.379 2.189c0 .994.392 1.491 1.175 1.491.708 0 1.403-.441 2.085-1.321l.152-.189 1.005-3.962ZM125.349 274.771a.5.5 0 0 1-.321-.107.392.392 0 0 1-.148-.294c0-.089.326-1.432.978-4.029.653-2.596.997-3.922 1.032-3.975.117-.249.322-.374.617-.374a.515.515 0 0 1 .268.094.36.36 0 0 1 .134.16.433.433 0 0 1 .027.133c0 .107-.139.703-.416 1.788-.277 1.085-.424 1.694-.442 1.828a2.854 2.854 0 0 0-.027.467v.106c0 .65.3.974.898.974.081 0 .161-.004.241-.013a.927.927 0 0 0 .228-.054c.072-.026.139-.057.201-.093.063-.036.121-.067.175-.093a.528.528 0 0 0 .16-.134.655.655 0 0 1 .148-.133.433.433 0 0 0 .134-.16.46.46 0 0 1 .107-.147.588.588 0 0 0 .121-.16l.093-.133.483-1.908c.322-1.263.5-1.935.536-2.015a.595.595 0 0 1 .576-.36c.116 0 .21.031.282.094.071.062.12.115.147.16a.18.18 0 0 1 .027.133l-1.019 4.242a1.216 1.216 0 0 0-.013.214c0 .222.031.369.094.44.062.071.156.111.281.12a.582.582 0 0 0 .268-.12c.188-.178.371-.605.55-1.281.053-.177.098-.271.134-.28a.392.392 0 0 1 .134-.013h.053c.17 0 .255.04.255.12 0 .053-.022.173-.067.36a4.213 4.213 0 0 1-.268.721c-.134.293-.277.515-.429.667a1.33 1.33 0 0 1-.429.28 1.483 1.483 0 0 1-.321.026c-.188 0-.358-.026-.51-.08a1.053 1.053 0 0 1-.361-.2 1.8 1.8 0 0 1-.228-.24.731.731 0 0 1-.121-.2.54.54 0 0 1-.027-.093l-.08.08c-.054.053-.134.12-.241.2-.108.08-.224.16-.349.24-.125.08-.286.151-.482.213a1.849 1.849 0 0 1-.563.094c-.42 0-.836-.103-1.247-.307l-.321 1.294c-.188.729-.3 1.152-.335 1.267a.789.789 0 0 1-.161.294.688.688 0 0 1-.456.187ZM133.645 266.14l.965-.067c.635-.045.961-.071.979-.08.107 0 .161.035.161.107 0 .053-.206.911-.617 2.574l-.643 2.535h.04l.134-.053a3.74 3.74 0 0 0 .362-.16c.143-.072.308-.156.496-.254a3.68 3.68 0 0 0 .63-.44c.232-.196.46-.4.683-.614a6.786 6.786 0 0 0 1.783-3.055c.116-.427.344-.64.683-.64.116 0 .219.035.308.107.09.071.139.173.148.306 0 .187-.063.45-.188.787-.125.338-.335.739-.63 1.201a7.8 7.8 0 0 1-1.085 1.334c-.429.427-.97.836-1.622 1.228a7.567 7.567 0 0 1-2.158.867 2.079 2.079 0 0 1-.469.093 1.16 1.16 0 0 1-.161-.013c-.062-.009-.098-.018-.107-.027-.053-.036-.08-.08-.08-.133 0-.018.192-.805.576-2.362l.59-2.348c.009-.115-.023-.186-.094-.213-.071-.027-.246-.049-.523-.067h-.281c-.054-.053-.081-.089-.081-.106 0-.018.009-.103.027-.254.036-.169.094-.253.174-.253ZM147.032 262.512c0-.164.089-.29.266-.378h12.075c.189.101.284.227.284.378 0 .138-.088.258-.265.358l-6.028.019h-6.028c-.203-.063-.304-.188-.304-.377Zm0 3.66c0-.188.101-.314.304-.377h12.056c.177.126.265.252.265.377 0 .164-.095.29-.284.378h-12.075c-.177-.088-.266-.214-.266-.378ZM171.482 248.436v-1.453c0-.968.341-1.748 1.024-2.339a3.56 3.56 0 0 1 2.35-.906c.898 0 1.694.264 2.389.792.695.529 1.042 1.214 1.042 2.057 0 .377-.069.73-.208 1.057a2.65 2.65 0 0 1-.493.792c-.19.201-.385.378-.588.529a6.08 6.08 0 0 1-.493.339c-.126.076-.195.126-.208.151l.265.17.531.377c.177.126.278.195.303.208.948.742 1.422 1.679 1.422 2.811 0 .994-.366 1.856-1.099 2.585-.733.73-1.681 1.101-2.844 1.114-1.137 0-2.072-.321-2.805-.963-.733-.641-1.1-1.434-1.1-2.377 0-1.359.815-2.491 2.446-3.397l-.342-.245c-.265-.163-.436-.289-.511-.377-.721-.617-1.081-1.409-1.081-2.378v1.453Zm4.095.585.113-.075.171-.114c.038-.025.101-.069.189-.132.089-.063.165-.125.228-.188s.133-.139.208-.227l.209-.245c.063-.076.126-.176.19-.302a6.94 6.94 0 0 1 .17-.321.91.91 0 0 0 .095-.377c.013-.164.025-.302.038-.415 0-.541-.183-1-.55-1.378a2.447 2.447 0 0 0-1.27-.717 6.204 6.204 0 0 0-.625-.019c-.519 0-1.005.164-1.46.491-.455.327-.689.736-.702 1.227 0 .289.083.553.247.792.164.239.329.421.493.547.164.126.48.327.948.604.088.063.158.107.208.132l1.1.717Zm-.683 6.887c.733 0 1.365-.213 1.896-.641.531-.428.796-.944.796-1.547 0-.214-.032-.416-.095-.604a1.836 1.836 0 0 0-.227-.472 2.167 2.167 0 0 0-.417-.415c-.19-.151-.335-.264-.436-.34a8.729 8.729 0 0 0-.55-.358 29.572 29.572 0 0 1-.512-.321 52.352 52.352 0 0 0-.569-.359 10.894 10.894 0 0 1-.492-.32l-.152-.095c-.076 0-.259.107-.55.321-.29.214-.594.56-.91 1.038a2.88 2.88 0 0 0-.493 1.547c0 .742.272 1.352.816 1.83a2.857 2.857 0 0 0 1.895.736ZM182.135 256.512c-.429 0-.644-.208-.644-.623v-.208l.246-.528c.948-1.987 1.637-3.704 2.066-5.151l.152-.453h-.607c-.48 0-.821.019-1.023.057-.202.037-.449.157-.74.358a2.444 2.444 0 0 0-.417.34 4.755 4.755 0 0 0-.53.622c-.026.013-.12.019-.285.019-.24 0-.36-.063-.36-.188 0-.076.12-.296.36-.661.24-.365.588-.755 1.043-1.17.455-.415.904-.654 1.346-.717.088-.025 1.51-.037 4.265-.037 2.022 0 3.058.006 3.109.018.253.089.379.265.379.529 0 .39-.202.654-.607.792-.076.025-.512.038-1.308.038h-1.213l-.057.321c-.151.906-.227 1.654-.227 2.245 0 .654.057 1.239.17 1.755.114.516.234.918.361 1.208.126.289.189.465.189.528 0 .214-.088.415-.265.604a.894.894 0 0 1-.683.283.873.873 0 0 1-.341-.057c-.088-.037-.189-.188-.303-.453-.114-.264-.215-.641-.303-1.132-.013-.113-.019-.39-.019-.83 0-.616.056-1.277.17-1.981a21.69 21.69 0 0 1 .341-1.736l.19-.755h-1.858l-.019.076c0 .037-.12.534-.36 1.49s-.512 1.969-.815 3.038c-.303 1.069-.499 1.679-.588 1.83-.139.353-.41.529-.815.529ZM191.386 251.55c0-1.447.424-2.837 1.27-4.17.847-1.334 1.915-2.391 3.204-3.17 1.289-.78 2.578-1.177 3.867-1.189 1.137 0 2.041.321 2.711.962.113.126.208.233.284.321.076.088.126.151.152.189l.019.056c.038 0 .208-.163.511-.49a4.97 4.97 0 0 0 .285-.265l.303-.302c.101-.1.164-.169.19-.207l.284-.283h.114c.177 0 .265.044.265.132 0 .05-.202.912-.606 2.585a312.127 312.127 0 0 0-.683 2.642c-.025.063-.057.1-.095.113a2.08 2.08 0 0 1-.341.038h-.303c-.076-.076-.114-.132-.114-.17a4.626 4.626 0 0 0 .057-.51 8.3 8.3 0 0 0 .019-.603c0-.894-.202-1.673-.607-2.34-.404-.667-1.093-1.007-2.066-1.019-.227 0-.474.019-.739.056-.266.038-.6.12-1.005.246-.404.126-.79.302-1.156.528a9.013 9.013 0 0 0-1.194.906 5.41 5.41 0 0 0-1.1 1.34c-.303.515-.6 1.157-.891 1.924-.291.768-.486 1.61-.587 2.529a6.467 6.467 0 0 0-.038.736c0 .603.088 1.138.265 1.603.177.466.404.824.682 1.076.278.252.594.465.948.641.354.177.683.284.986.321.303.038.588.063.853.076.682 0 1.308-.145 1.877-.434.568-.29.96-.661 1.175-1.114.038-.1.133-.446.284-1.037.152-.592.228-.925.228-1 0-.101-.082-.164-.247-.189-.164-.025-.543-.044-1.137-.057h-.701c-.076-.075-.114-.125-.114-.151 0-.025.012-.144.038-.358a.857.857 0 0 1 .189-.359h.323c.505.026 1.39.038 2.653.038h1.233c.316 0 .543-.006.682-.019.139-.012.215-.012.227 0 .177 0 .266.057.266.17 0 .025-.013.113-.038.264-.063.239-.126.371-.19.396a1.2 1.2 0 0 1-.284.019c-.253 0-.512.019-.777.057a.359.359 0 0 0-.19.17c-.038.075-.126.396-.265.962-.114.415-.209.767-.284 1.057-.316 1.283-.493 1.943-.531 1.981a.13.13 0 0 1-.095.038c-.126 0-.303-.126-.531-.378-.227-.251-.373-.446-.436-.585 0-.012-.012-.012-.038 0a.534.534 0 0 0-.113.095c-.936.868-2.199 1.302-3.792 1.302-1.529 0-2.767-.485-3.715-1.453-.948-.969-1.428-2.208-1.441-3.717ZM180.461 279.79c0-1.371.544-2.604 1.631-3.698 1.086-1.095 2.262-1.642 3.526-1.642.707 0 1.263.151 1.668.453.404.302.613.698.625 1.189 0 .365-.12.673-.36.924-.24.252-.543.384-.91.397-.24 0-.43-.063-.569-.189-.139-.126-.208-.315-.208-.566 0-.252.069-.466.208-.642.139-.176.279-.308.418-.396.139-.088.227-.126.265-.113h.019c0-.025-.038-.063-.114-.113a1.417 1.417 0 0 0-.398-.151 2.485 2.485 0 0 0-.644-.076c-.38 0-.74.088-1.081.264-.265.114-.537.309-.815.585-.556.554-.961 1.334-1.213 2.34-.253 1.006-.386 1.736-.398 2.189 0 .579.164 1.013.492 1.302.279.302.645.453 1.1.453h.076c1.415 0 2.584-.535 3.507-1.604.113-.126.189-.189.227-.189.051 0 .133.057.247.17.113.113.177.201.189.264.013.063-.044.157-.17.283-.127.126-.31.302-.55.529-.24.226-.525.415-.853.566-.329.151-.733.308-1.213.471a4.063 4.063 0 0 1-1.517.208c-.948 0-1.712-.302-2.294-.906-.581-.604-.878-1.371-.891-2.302ZM194.217 277.336c-.161-.027-.737-.04-1.729-.04-1.036 0-1.635.013-1.796.04h-.12v-.614H191.349c.062 0 .138-.009.228-.026a.482.482 0 0 0 .187-.067.366.366 0 0 0 .094-.107c.009-.018.014-.258.014-.72v-.667H188.4v-.614l2.024-3.082c1.367-2.063 2.06-3.099 2.077-3.108.018-.018.112-.027.282-.027h.241l.081.08v6.137h1.232v.614h-1.232v1.32c0 .063.026.116.08.161.071.062.326.097.764.106h.388v.614h-.12Zm-2.265-2.815v-4.456l-2.935 4.443 1.461.013h1.474ZM207.234 264.907H168.26v-1.132h38.974v1.132ZM210.267 260.813c-.24 0-.36-.051-.36-.151 0-.063.101-.415.303-1.057.202-.641.417-1.277.645-1.906l.322-.924c.063-.227.145-.39.246-.491h10.578c.404 0 .644.007.72.019.076.013.12.069.133.17 0 .075-.108.792-.322 2.151-.215 1.359-.335 2.044-.361 2.057 0 .088-.12.132-.36.132h-.227c-.038 0-.076-.032-.114-.095l-.038-.056c0-.076.038-.359.114-.849.076-.491.114-.875.114-1.151 0-.441-.083-.774-.247-1-.164-.227-.512-.384-1.042-.472-.064-.013-.43-.025-1.1-.038-.581 0-.948.006-1.099.019-.152.013-.266.063-.342.151-.012.013-.461 1.767-1.345 5.264-.885 3.498-1.327 5.278-1.327 5.34 0 .151.556.239 1.668.265.404 0 .663.006.777.018.114.013.171.07.171.17a.897.897 0 0 1-.057.264c-.051.227-.108.359-.171.397l-.038.019h-.133c-.063 0-.391-.007-.985-.019-.594-.013-1.447-.019-2.559-.019-1.631 0-2.667.012-3.109.038h-.284c-.076-.076-.114-.132-.114-.17 0-.038.012-.151.038-.34a.852.852 0 0 1 .189-.358h.74c1.011 0 1.611-.057 1.8-.17.013-.013.026-.019.038-.019.063-.038.127-.164.19-.377.063-.214.316-1.202.758-2.963.215-.855.392-1.553.531-2.094.885-3.46 1.327-5.227 1.327-5.303 0-.062-.183-.094-.55-.094h-.588c-.846 0-1.402.038-1.668.113-.568.126-1.011.384-1.327.774-.316.39-.657 1.119-1.023 2.189-.089.276-.152.44-.19.49-.038.051-.126.076-.265.076h-.057ZM221.357 274.771a.5.5 0 0 1-.322-.107.395.395 0 0 1-.148-.294c0-.089.327-1.432.979-4.029.652-2.596.996-3.922 1.032-3.975.116-.249.321-.374.616-.374a.512.512 0 0 1 .268.094.353.353 0 0 1 .161.293c0 .107-.138.703-.415 1.788-.277 1.085-.425 1.694-.443 1.828a3.004 3.004 0 0 0-.026.467v.106c0 .65.299.974.898.974.08 0 .16-.004.241-.013a.949.949 0 0 0 .228-.054c.071-.026.138-.057.201-.093.062-.036.12-.067.174-.093a.542.542 0 0 0 .161-.134.632.632 0 0 1 .147-.133.424.424 0 0 0 .134-.16.493.493 0 0 1 .107-.147.588.588 0 0 0 .121-.16l.094-.133.482-1.908c.322-1.263.501-1.935.536-2.015a.596.596 0 0 1 .577-.36c.116 0 .21.031.281.094a.692.692 0 0 1 .147.16.18.18 0 0 1 .027.133l-1.018 4.242a1.194 1.194 0 0 0-.014.214c0 .222.032.369.094.44.063.071.156.111.282.12a.591.591 0 0 0 .268-.12c.187-.178.37-.605.549-1.281.054-.177.098-.271.134-.28a.396.396 0 0 1 .134-.013h.054c.17 0 .254.04.254.12 0 .053-.022.173-.067.36a4.13 4.13 0 0 1-.268.721c-.134.293-.277.515-.429.667a1.336 1.336 0 0 1-.428.28 1.5 1.5 0 0 1-.322.026 1.51 1.51 0 0 1-.509-.08 1.058 1.058 0 0 1-.362-.2c-.09-.08-.165-.16-.228-.24a.597.597 0 0 1-.147-.293l-.081.08a2.34 2.34 0 0 1-.241.2c-.107.08-.223.16-.349.24-.125.08-.285.151-.482.213a1.844 1.844 0 0 1-.563.094c-.42 0-.835-.103-1.246-.307l-.322 1.294a49.75 49.75 0 0 1-.335 1.267.775.775 0 0 1-.161.294.687.687 0 0 1-.455.187ZM229.653 266.14l.965-.067c.634-.045.96-.071.978-.08.107 0 .161.035.161.107 0 .053-.206.911-.617 2.574l-.643 2.535h.04l.134-.053c.099-.036.219-.089.362-.16.143-.072.308-.156.496-.254s.398-.245.63-.44c.232-.196.46-.4.684-.614a6.793 6.793 0 0 0 1.782-3.055c.116-.427.344-.64.683-.64.117 0 .219.035.309.107a.406.406 0 0 1 .147.306c0 .187-.062.45-.187.787-.126.338-.336.739-.63 1.201a7.807 7.807 0 0 1-1.086 1.334c-.429.427-.969.836-1.622 1.228a7.572 7.572 0 0 1-2.157.867c-.224.062-.38.093-.469.093-.045 0-.099-.004-.161-.013-.063-.009-.098-.018-.107-.027-.054-.036-.081-.08-.081-.133 0-.018.192-.805.576-2.362l.59-2.348c.009-.115-.022-.186-.094-.213-.071-.027-.245-.049-.522-.067h-.282c-.053-.053-.08-.089-.08-.106 0-.018.009-.103.027-.254.035-.169.093-.253.174-.253Z"/></g><path d="M70.23 173c0-5.523 4.478-10 10-10h87.657c5.523 0 10 4.477 10 10v11.25l8.682 5.25-8.682 5.25V206c0 5.523-4.477 10-10 10H80.231c-5.523 0-10-4.477-10-10v-33Z" fill="#FFE8E8" fill-opacity=".8"/><path d="M65.216 216.688c2.841-5.5 84.846-11.8 89.259-9 5.516 3.5-60.326 31.871-67.195 23.5-13.54-16.5 76.723-13 95.277-2.5" stroke="#F8EF2D" stroke-width="4" stroke-linecap="round"/><path opacity=".5" d="M86.626 185.693h3.885V187h-5.408v-8.455l5.268.012v1.3h-3.745v2.192h3.381v1.306h-3.38v2.338Zm5.116-7.699h1.523v1.524h-1.523v-1.524Zm.023 2.619h1.477V187h-1.477v-6.387Zm8.631 6.387h-1.47v-3.639c0-.535-.12-.939-.358-1.213-.234-.273-.576-.41-1.025-.41-.254 0-.483.063-.686.188-.199.125-.36.303-.486.533-.121.23-.191.496-.21.797V187h-1.472v-6.387h1.471v.932h.07c.149-.34.381-.602.698-.785a2.093 2.093 0 0 1 1.072-.276c.781 0 1.375.219 1.781.657.41.437.615 1.074.615 1.91V187Zm3.657.135c-.492 0-.984-.078-1.477-.235a3.943 3.943 0 0 1-1.236-.627l.504-.984c.32.203.672.367 1.055.492.382.121.742.182 1.078.182.191 0 .367-.029.527-.088a.969.969 0 0 0 .387-.252.515.515 0 0 0 .14-.352.588.588 0 0 0-.146-.398c-.094-.113-.246-.223-.457-.328a8.72 8.72 0 0 0-.897-.381c-.445-.164-.798-.332-1.06-.504a1.785 1.785 0 0 1-.58-.621c-.125-.238-.188-.533-.188-.885 0-.332.094-.623.282-.873.191-.254.459-.449.802-.586.344-.14.739-.211 1.184-.211.418 0 .795.049 1.131.147.336.098.646.246.931.445v1.061c-.64-.344-1.269-.516-1.886-.516-.301 0-.539.047-.715.141a.455.455 0 0 0-.264.427c0 .223.098.415.293.575.199.156.531.312.996.468.672.223 1.178.508 1.518.856.34.344.51.746.51 1.207 0 .375-.098.701-.293.978-.196.278-.477.491-.844.639-.367.149-.799.223-1.295.223Zm5.561-5.203v2.83c0 .269.023.474.07.615.051.141.131.24.24.299.11.054.266.082.469.082h.486V187h-.843c-1.262 0-1.893-.684-1.893-2.051v-3.017h-1.037v-1.284h1.037v-1.459l1.471-.503v1.962h1.306v1.284h-1.306Zm5.385 5.203c-.684 0-1.27-.133-1.758-.399a2.675 2.675 0 0 1-1.119-1.142c-.258-.496-.389-1.088-.393-1.776 0-.664.119-1.248.358-1.752a2.753 2.753 0 0 1 1.025-1.171c.445-.278.959-.415 1.541-.411.598.008 1.117.143 1.559.405a2.58 2.58 0 0 1 1.019 1.095c.238.469.358 1.016.358 1.641 0 .211-.01.428-.03.65h-4.365c.008.336.09.623.246.862.156.238.373.42.651.545.281.125.603.187.966.187.325 0 .657-.041.996-.123.34-.082.663-.203.967-.363l.246 1.125c-.371.226-.74.388-1.107.486a4.66 4.66 0 0 1-1.16.141Zm1.142-3.862c0-.296-.06-.558-.181-.785a1.258 1.258 0 0 0-.51-.527 1.51 1.51 0 0 0-.762-.188c-.293 0-.553.065-.779.194a1.357 1.357 0 0 0-.533.527 1.587 1.587 0 0 0-.188.779h2.953Zm2.42-5.279h1.524v1.524h-1.524v-1.524Zm.024 2.619h1.476V187h-1.476v-6.387Zm8.631 6.387h-1.471v-3.639c0-.535-.119-.939-.357-1.213-.235-.273-.576-.41-1.026-.41-.253 0-.482.063-.685.188a1.405 1.405 0 0 0-.486.533 1.96 1.96 0 0 0-.211.797V187h-1.471v-6.387h1.471v.932h.07c.148-.34.381-.602.697-.785a2.096 2.096 0 0 1 1.073-.276c.781 0 1.375.219 1.781.657.41.437.615 1.074.615 1.91V187Zm2.625-8.883-.205 3.24h-1.055v-3.24h1.26Zm3.709 9.018a4.83 4.83 0 0 1-1.476-.235 3.932 3.932 0 0 1-1.236-.627l.503-.984c.321.203.672.367 1.055.492.383.121.742.182 1.078.182.192 0 .367-.029.528-.088a.958.958 0 0 0 .386-.252.516.516 0 0 0 .141-.352.589.589 0 0 0-.147-.398c-.093-.113-.246-.223-.457-.328a8.59 8.59 0 0 0-.896-.381c-.445-.164-.799-.332-1.061-.504a1.795 1.795 0 0 1-.58-.621c-.125-.238-.187-.533-.187-.885 0-.332.094-.623.281-.873.191-.254.459-.449.803-.586.344-.14.738-.211 1.183-.211.418 0 .795.049 1.131.147.336.098.647.246.932.445v1.061c-.641-.344-1.27-.516-1.887-.516-.301 0-.539.047-.715.141a.456.456 0 0 0-.263.427c0 .223.097.415.293.575.199.156.531.312.996.468.672.223 1.177.508 1.517.856.34.344.51.746.51 1.207 0 .375-.098.701-.293.978-.195.278-.476.491-.844.639-.367.149-.798.223-1.295.223Zm-48.447 5.41h5.315v1.377h-3.792v2.162h3.422v1.301h-3.422V201h-1.523v-8.455Zm6.358-.551h1.523v1.524h-1.523v-1.524Zm.023 2.619h1.477V201h-1.477v-6.387Zm5.848 6.522c-.684 0-1.27-.133-1.758-.399a2.673 2.673 0 0 1-1.119-1.142c-.258-.496-.389-1.088-.392-1.776 0-.664.119-1.248.357-1.752a2.752 2.752 0 0 1 1.025-1.171c.446-.278.96-.415 1.541-.411.598.008 1.117.143 1.559.405a2.58 2.58 0 0 1 1.02 1.095c.238.469.357 1.016.357 1.641 0 .211-.01.428-.03.65h-4.365c.008.336.09.623.246.862.157.238.374.42.65.545.282.125.604.187.968.187.324 0 .656-.041.996-.123a4.18 4.18 0 0 0 .966-.363l.247 1.125c-.371.226-.74.388-1.108.486a4.662 4.662 0 0 1-1.16.141Zm1.143-3.862c0-.296-.061-.558-.182-.785a1.254 1.254 0 0 0-.51-.527 1.509 1.509 0 0 0-.761-.188c-.294 0-.553.065-.78.194a1.36 1.36 0 0 0-.533.527 1.586 1.586 0 0 0-.188.779h2.954Zm4.834 2.485V201h-.428c-.512 0-.9-.059-1.166-.176a1.035 1.035 0 0 1-.557-.615c-.105-.289-.158-.713-.158-1.271v-6.797h1.471v6.609c0 .301.019.521.059.662.042.137.117.229.222.276.11.046.278.07.504.07h.053Zm6.984-7.647V201h-1.476v-.879h-.059a2.245 2.245 0 0 1-.785.733c-.324.183-.715.275-1.172.275a2.652 2.652 0 0 1-1.447-.404 2.789 2.789 0 0 1-.996-1.131c-.238-.489-.358-1.047-.358-1.676 0-.676.122-1.273.364-1.793s.578-.922 1.008-1.207a2.553 2.553 0 0 1 1.459-.434c.41 0 .783.09 1.119.27.336.176.607.424.814.744h.053v-3.387h1.476Zm-3.199 7.922c.375 0 .692-.086.949-.258.262-.175.455-.396.58-.662.129-.269.194-.543.194-.82v-.82c0-.348-.074-.659-.223-.932a1.618 1.618 0 0 0-1.459-.885c-.297 0-.572.096-.826.287a1.984 1.984 0 0 0-.609.803 2.92 2.92 0 0 0-.223 1.172c0 .41.072.775.217 1.096.148.32.346.57.592.75.25.179.519.269.808.269Zm9.417-.34h3.884V201h-5.408v-8.455l5.268.012v1.3h-3.744v2.192h3.381v1.306h-3.381v2.338Zm11.062-5.08v8.52h-1.476v-2.988h-.07a2.294 2.294 0 0 1-.791.714c-.321.18-.706.27-1.155.27a2.674 2.674 0 0 1-1.447-.399 2.78 2.78 0 0 1-.996-1.13c-.238-.489-.358-1.047-.358-1.676 0-.676.122-1.274.364-1.793.242-.524.578-.928 1.008-1.213a2.553 2.553 0 0 1 1.459-.434c.417 0 .794.092 1.13.276.34.179.614.433.821.761h.035v-.908h1.476Zm-3.199 5.42c.375 0 .692-.086.949-.258.262-.175.455-.396.58-.662.129-.269.194-.543.194-.82v-.814c0-.348-.074-.661-.223-.938a1.618 1.618 0 0 0-1.459-.885c-.297 0-.572.096-.826.287a1.978 1.978 0 0 0-.609.809 2.92 2.92 0 0 0-.223 1.172c0 .41.072.775.217 1.096.148.32.346.57.592.75.25.175.519.263.808.263Zm7.524 1.096c-.582 0-1.092-.111-1.529-.334a2.455 2.455 0 0 1-1.02-.943c-.238-.411-.357-.885-.357-1.424v-3.815h1.476v3.815c0 .312.061.584.182.814.121.231.289.408.504.533.218.121.467.182.744.182.269 0 .508-.061.715-.182.211-.125.373-.302.486-.533.117-.23.176-.502.176-.814v-3.815h1.476v3.815c0 .539-.115 1.013-.345 1.424-.231.406-.561.72-.991.943-.429.223-.935.334-1.517.334Zm9.645-.129h-1.477v-.949h-.059c-.148.32-.402.582-.761.785-.356.203-.77.305-1.242.305-.438 0-.821-.082-1.149-.246a1.848 1.848 0 0 1-.756-.709 2.097 2.097 0 0 1-.263-1.067c0-.363.101-.689.304-.978.207-.293.502-.536.885-.727a4.653 4.653 0 0 1 1.359-.41 19.805 19.805 0 0 1 1.623-.152c-.078-.411-.238-.713-.48-.909-.242-.195-.58-.293-1.014-.293-.273 0-.572.032-.896.094a5.88 5.88 0 0 0-.932.264l-.24-1.102c.34-.129.707-.23 1.102-.304a5.427 5.427 0 0 1 1.037-.118c.691 0 1.254.11 1.687.328.434.215.752.545.955.991.207.445.313 1.015.317 1.711V201Zm-3.211-.955c.289 0 .552-.051.791-.152a1.71 1.71 0 0 0 .603-.428c.164-.184.278-.389.34-.615v-.996c-.348.011-.635.027-.861.046-.227.02-.477.053-.75.1-.356.062-.637.188-.844.375-.203.187-.301.436-.293.744 0 .277.092.502.275.674.188.168.434.252.739.252Zm6.697-4.113v2.83c0 .269.024.474.071.615.05.141.13.24.24.299.109.054.265.082.468.082h.487V201h-.844c-1.262 0-1.893-.684-1.893-2.051v-3.017h-1.037v-1.284h1.037v-1.459l1.471-.503v1.962h1.307v1.284h-1.307Zm2.461-3.938h1.524v1.524h-1.524v-1.524Zm.024 2.619h1.476V201h-1.476v-6.387Zm5.848 6.522c-.629 0-1.192-.141-1.688-.422a3.046 3.046 0 0 1-1.166-1.19c-.277-.507-.416-1.082-.416-1.722 0-.641.139-1.213.416-1.717.281-.504.67-.896 1.166-1.178.496-.285 1.059-.427 1.688-.427s1.189.142 1.681.427a2.98 2.98 0 0 1 1.16 1.178c.278.504.417 1.076.417 1.717 0 .64-.139 1.215-.417 1.722a3.005 3.005 0 0 1-1.16 1.19c-.492.281-1.052.422-1.681.422Zm0-1.289c.343 0 .65-.086.92-.258.269-.176.48-.418.632-.727.153-.312.229-.666.229-1.06 0-.395-.076-.746-.229-1.055a1.758 1.758 0 0 0-.632-.721 1.684 1.684 0 0 0-.92-.257 1.71 1.71 0 0 0-.926.257 1.745 1.745 0 0 0-.639.721c-.152.309-.228.66-.228 1.055 0 .394.076.748.228 1.06.153.309.365.551.639.727.273.172.582.258.926.258ZM163.405 201h-1.471v-3.639c0-.535-.119-.939-.357-1.213-.235-.273-.576-.41-1.026-.41a1.28 1.28 0 0 0-.685.188 1.405 1.405 0 0 0-.486.533c-.122.23-.192.496-.211.797V201h-1.471v-6.387h1.471v.932h.07c.148-.34.381-.602.697-.785a2.095 2.095 0 0 1 1.072-.276c.782 0 1.375.219 1.782.657.41.437.615 1.074.615 1.91V201Z" fill="#000"/><defs><clipPath id="supportLaTexEquation_c"><path fill="#fff" transform="translate(48.166 243)" d="M0 0h188.548v40H0z"/></clipPath></defs></svg>