<svg width="48" height="28" viewBox="0 0 48 28" version="1.1" xmlns="http://www.w3.org/2000/svg"><g stroke="none" stroke-width="1" fill="none" fill-rule="evenodd"><path d="M0 0h48v28H0z"/><path d="M9.3 6.6c5.05 0 8.275 1.126 9.571 3.5h10.19c.937-2.203 4.014-3.214 9.088-3.214a.75.75 0 0 1 0 1.5c-3.886 0-6.293.611-7.312 1.714h.9c.78 0 1.413.633 1.413 1.414v5.673c0 .78-.633 1.413-1.413 1.413l-.721.001c1.094.828 3.405 1.3 6.984 1.3a.75.75 0 0 1 0 1.5c-.252 0-.498-.003-.74-.007l-.71-.02-.68-.035c-3.7-.226-5.98-1.096-6.785-2.738H18.822c-1.323 1.917-4.508 2.8-9.522 2.8a.75.75 0 1 1 0-1.5c3.526 0 5.969-.458 7.343-1.3h-.38c-.78 0-1.413-.634-1.413-1.414v-5.673c0-.781.633-1.414 1.413-1.414h.754c-1.27-1.308-3.82-2-7.717-2a.75.75 0 1 1 0-1.5Zm1.443 5.547.007.103v4.2a.75.75 0 0 1-1.493.102l-.007-.102v-2.799l-.934.623a.75.75 0 0 1-.972-.12l-.068-.088a.75.75 0 0 1 .12-.972l.088-.068 2.1-1.4a.75.75 0 0 1 1.16.521ZM38 11.5a.75.75 0 0 1 .743.648l.007.102.001 2.798.933-.622a.75.75 0 0 1 .972.12l.068.088a.75.75 0 0 1-.12.972l-.088.068-2.1 1.4a.75.75 0 0 1-1.16-.521l-.006-.103v-4.2a.75.75 0 0 1 .75-.75Zm-6.35.101h-15.3v5.5h15.3v-5.5Z" fill="#000" fill-rule="nonzero"/></g></svg>