<svg width="48" height="28" viewBox="0 0 48 28" version="1.1" xmlns="http://www.w3.org/2000/svg"><g stroke="none" stroke-width="1" fill="none" fill-rule="evenodd"><path d="M0 0h48v28H0z"/><path d="m18.995 5.525.18.005a3.06 3.06 0 0 1 2.88 3.055v3.445l1.977 1.322.087.068a.75.75 0 0 1 .246.58.75.75 0 0 1-.25.58l-.089.067-1.97 1.294-.001 3.47a3.06 3.06 0 0 1-2.88 3.054l-.18.005a.75.75 0 0 1 0-1.5 1.56 1.56 0 0 0 1.554-1.418l.006-.142v-3.875a.75.75 0 0 1 .253-.562l.086-.065 1.396-.917-1.402-.936-.084-.065a.75.75 0 0 1-.25-.559V8.585l-.005-.142a1.56 1.56 0 0 0-1.554-1.418.75.75 0 1 1 0-1.5ZM14.9 20.9l.102.007A.75.75 0 0 1 14.9 22.4h-3.5l-.102-.007A.75.75 0 0 1 11.4 20.9h3.5ZM37.97 9.7c.818 0 1.48.662 1.48 1.48v4.84a1.48 1.48 0 0 1-1.48 1.48H27.53a1.48 1.48 0 0 1-1.48-1.48v-4.84c0-.818.662-1.48 1.48-1.48h10.44Zm-.02 1.499h-10.4v4.8h10.4v-4.8ZM14.9 13.2l.102.007A.75.75 0 0 1 14.9 14.7h-3.5l-.102-.007A.75.75 0 0 1 11.4 13.2h3.5Zm0-7.7.102.007A.75.75 0 0 1 14.9 7h-3.5l-.102-.007A.75.75 0 0 1 11.4 5.5h3.5Z" fill="#000" fill-rule="nonzero"/></g></svg>