<svg width="48" height="28" viewBox="0 0 48 28" version="1.1" xmlns="http://www.w3.org/2000/svg"><g stroke="none" stroke-width="1" fill="none" fill-rule="evenodd"><path d="M0 0h48v28H0z"/><path d="M30.105 5.525a.75.75 0 1 1 0 1.5 1.56 1.56 0 0 0-1.554 1.418l-.006.142v3.846a.75.75 0 0 1-.25.559l-.083.065-1.403.936 1.397.917.086.065a.75.75 0 0 1 .253.562v3.875l.006.142a1.56 1.56 0 0 0 1.554 1.418.75.75 0 1 1 0 1.5l-.18-.005a3.06 3.06 0 0 1-2.88-3.055v-3.469l-1.971-1.294-.089-.067a.75.75 0 0 1-.25-.58.751.751 0 0 1 .246-.58l.087-.068 1.977-1.322V8.585a3.06 3.06 0 0 1 2.88-3.055l.18-.005ZM37.7 20.9a.75.75 0 0 1 .102 1.493l-.102.007h-3.5a.75.75 0 0 1-.102-1.493l.102-.007h3.5ZM21.57 9.7c.818 0 1.48.662 1.48 1.48v4.84a1.48 1.48 0 0 1-1.48 1.48H11.13a1.48 1.48 0 0 1-1.48-1.48v-4.84c0-.818.662-1.48 1.48-1.48Zm-.021 1.5h-10.4V16h10.4v-4.8Zm16.151 2a.75.75 0 0 1 .102 1.493l-.102.007h-3.5a.75.75 0 0 1-.102-1.493l.102-.007h3.5Zm0-7.7a.75.75 0 0 1 .102 1.493L37.7 7h-3.5a.75.75 0 0 1-.102-1.493L34.2 5.5h3.5Z" fill="#000" fill-rule="nonzero"/></g></svg>