<svg width="48" height="28" viewBox="0 0 48 28" version="1.1" xmlns="http://www.w3.org/2000/svg"><g stroke="none" stroke-width="1" fill="none" fill-rule="evenodd"><path d="M0 0h48v28H0z"/><path d="M19.139 7.82a.75.75 0 0 1 .956.457l1.773 5.023h2.92v-1.847l.007-.136a1.414 1.414 0 0 1 1.407-1.277h10.673l.136.006a1.414 1.414 0 0 1 1.277 1.407v5.177l-.006.136a1.41 1.41 0 0 1-1.407 1.274H26.202l-.136-.006a1.41 1.41 0 0 1-1.278-1.404V14.8h-4.92l-1.773 5.023a.75.75 0 0 1-1.441-.4l.027-.099 1.596-4.524h-4.395l-1.457 3.912a.75.75 0 0 1-1.435-.426l.029-.098 1.262-3.388H8.83l-.102-.007A.75.75 0 0 1 8.83 13.3h5.432l-1.243-3.338-.03-.097a.75.75 0 0 1 1.436-.427l1.439 3.862h4.413l-1.596-4.524-.027-.098a.75.75 0 0 1 .485-.858Zm17.65 3.72h-10.5v5h10.5v-5Z" fill="#000" fill-rule="nonzero"/></g></svg>