<svg width="48" height="28" viewBox="0 0 48 28" version="1.1" xmlns="http://www.w3.org/2000/svg"><g stroke="none" stroke-width="1" fill="none" fill-rule="evenodd"><path d="M0 0h48v28H0z"/><path d="M28.94 7.82a.75.75 0 0 1 .485.858l-.028.098-1.596 4.524h4.413l1.44-3.862a.75.75 0 0 1 1.435.427l-.03.097-1.244 3.338h5.433a.75.75 0 0 1 .102 1.493l-.102.007h-3.452l1.263 3.388.03.098a.75.75 0 0 1-1.393.519l-.042-.093-1.458-3.912h-4.395l1.596 4.524.028.098a.75.75 0 0 1-1.402.495l-.04-.094-1.774-5.023H23.29v1.83a1.41 1.41 0 0 1-1.277 1.404l-.136.006H11.203a1.41 1.41 0 0 1-1.407-1.274l-.006-.136v-5.177c0-.734.56-1.338 1.277-1.407l.136-.006h10.674c.734 0 1.338.56 1.407 1.277l.006.136V13.3h2.919l1.774-5.023a.75.75 0 0 1 .957-.457Zm-7.15 3.72h-10.5v5h10.5v-5Z" fill="#000" fill-rule="nonzero"/></g></svg>