<svg width="48" height="28" viewBox="0 0 48 28" version="1.1" xmlns="http://www.w3.org/2000/svg"><g stroke="none" stroke-width="1" fill="none" fill-rule="evenodd"><path d="M48 0H0v28h48z"/><path d="M20.95 20.3a2.15 2.15 0 0 1-1.996 2.145l-.154.005h-6.3a.75.75 0 0 1-.102-1.493l.102-.007h6.3a.65.65 0 0 0 .643-.554l.007-.096v-5.55h-6.752l-.101-.007a.75.75 0 0 1 .101-1.493h6.752V7.7l-.007-.096a.65.65 0 0 0-.643-.554h-6.3l-.102-.007A.75.75 0 0 1 12.5 5.55h6.3l.154.005A2.15 2.15 0 0 1 20.95 7.7v5.55h2.699l.001-2.087c0-.78.633-1.413 1.413-1.413h12.674c.78 0 1.413.633 1.413 1.413v5.674c0 .78-.633 1.413-1.413 1.413H25.063c-.78 0-1.413-.633-1.413-1.413l-.001-2.087H20.95v5.55Zm16.701-9.05h-12.5v5.5h12.5v-5.5Z" fill="#000" fill-rule="nonzero"/></g></svg>