<svg width="48" height="28" viewBox="0 0 48 28" version="1.1" xmlns="http://www.w3.org/2000/svg"><g stroke="none" stroke-width="1" fill="none" fill-rule="evenodd"><path d="M0 0h48v28H0z"/><path d="M36.3 5.55a.75.75 0 0 1 .102 1.493l-.102.007H30a.65.65 0 0 0-.643.554l-.007.096v5.55h6.752a.75.75 0 0 1 .101 1.493l-.101.007H29.35v5.55l.007.096a.65.65 0 0 0 .643.554h6.3l.102.007a.75.75 0 0 1-.102 1.493H30l-.154-.005A2.15 2.15 0 0 1 27.85 20.3v-5.55h-2.7v2.087c0 .734-.56 1.338-1.277 1.407l-.136.006H11.063c-.78 0-1.413-.633-1.413-1.413v-5.674c0-.78.633-1.413 1.413-1.413h12.674c.78 0 1.413.633 1.413 1.413v2.087h2.7V7.7a2.15 2.15 0 0 1 1.996-2.145L30 5.55h6.3Zm-12.65 5.7H11.149v5.5H23.65v-5.5Z" fill="#000" fill-rule="nonzero"/></g></svg>