<svg width="48" height="28" viewBox="0 0 48 28" version="1.1" xmlns="http://www.w3.org/2000/svg"><g stroke="none" stroke-width="1" fill="none" fill-rule="evenodd"><path d="M0 0h48v28H0z"/><path d="M12.03 23.5a1.38 1.38 0 0 1-1.38-1.38V5.88c0-.762.618-1.38 1.38-1.38h23.94c.762 0 1.38.618 1.38 1.38v16.24a1.38 1.38 0 0 1-1.38 1.38Zm7.019-5.6h-6.901l.001 4.1h6.9v-4.1Zm16.8 0h-15.3V22H35.85l-.001-4.1Zm-16.8-6.3h-6.901v4.8h6.901v-4.8Zm16.8 0h-15.3v4.8h15.3v-4.8Zm-16.8-5.601h-6.9l-.001 4.101h6.901V5.999Zm16.801 0H20.549V10.1h15.3l.001-4.101Z" fill="#000" fill-rule="nonzero"/></g></svg>