<svg width="48" height="28" viewBox="0 0 48 28" version="1.1" xmlns="http://www.w3.org/2000/svg"><g stroke="none" stroke-width="1" fill="none" fill-rule="evenodd"><path d="M0 0h48v28H0z"/><path d="M12.03 23.5a1.38 1.38 0 0 1-1.38-1.38V5.88c0-.762.618-1.38 1.38-1.38h23.94c.762 0 1.38.618 1.38 1.38v16.24a1.38 1.38 0 0 1-1.38 1.38Zm7.019-11.2h-6.901l.001 9.7h6.9v-9.7Zm8.401 0h-6.901V22h6.901v-9.7Zm8.399 0H28.95V22h6.9l-.001-9.7Zm-16.8-6.301h-6.9l-.001 4.801h6.901V5.999Zm8.401 0h-6.901V10.8h6.901V5.999Zm8.4 0h-6.9V10.8h6.899l.001-4.801Z" fill="#000" fill-rule="nonzero"/></g></svg>