<svg width="48" height="28" viewBox="0 0 48 28" version="1.1" xmlns="http://www.w3.org/2000/svg"><g stroke="none" stroke-width="1" fill="none" fill-rule="evenodd"><path d="M0 0h48v28H0z"/><path d="M30.737 4.85c.78 0 1.413.633 1.413 1.413v4.974c0 .78-.633 1.413-1.413 1.413l-5.587-.001v2.7l9.75.001a2.15 2.15 0 0 1 2.145 1.996l.005.154v4.2a.75.75 0 0 1-1.493.102l-.007-.102v-4.2a.65.65 0 0 0-.554-.643l-.096-.007-9.75-.001V21.7a.75.75 0 0 1-1.493.102l-.007-.102v-4.851l-9.75.001-.096.007a.65.65 0 0 0-.554.643v4.2l-.007.102a.75.75 0 0 1-1.493-.102v-4.2l.005-.154A2.15 2.15 0 0 1 13.9 15.35l9.75-.001v-2.7l-5.587.001c-.734 0-1.338-.56-1.407-1.277l-.006-.136V6.263c0-.78.633-1.413 1.413-1.413Zm-.087 1.5h-12.5v4.799h12.5V6.35Z" fill="#000" fill-rule="nonzero"/></g></svg>