<svg width="48" height="28" viewBox="0 0 48 28" version="1.1" xmlns="http://www.w3.org/2000/svg"><g stroke="none" stroke-width="1" fill="none" fill-rule="evenodd"><path d="M0 28h48V0H0z"/><path d="M36.3 5.55a.75.75 0 0 1 .75.75v4.2l-.005.154A2.15 2.15 0 0 1 34.9 12.65l-9.75-.001v2.7l5.587.001c.78 0 1.413.633 1.413 1.413v4.974c0 .78-.633 1.413-1.413 1.413H18.063c-.78 0-1.413-.633-1.413-1.413v-4.974c0-.78.633-1.413 1.413-1.413l5.587-.001v-2.7l-9.75.001a2.15 2.15 0 0 1-2.145-1.996l-.005-.154V6.3a.75.75 0 0 1 1.493-.102l.007.102v4.2c0 .326.24.597.554.643l.096.007 9.75-.001V6.3l.007-.102a.75.75 0 0 1 1.493.102v4.849l9.75.001.096-.007a.65.65 0 0 0 .554-.643V6.3l.007-.102a.75.75 0 0 1 .743-.648Zm-5.65 11.3h-12.5v4.801h12.5V16.85Z" fill="#000" fill-rule="nonzero"/></g></svg>