<svg width="48" height="28" viewBox="0 0 48 28" version="1.1" xmlns="http://www.w3.org/2000/svg"><g stroke="none" stroke-width="1" fill="none" fill-rule="evenodd"><path d="M0 0h48v28H0z"/><path d="M20.087 10H9.413C8.633 10 8 10.633 8 11.413v5.177c0 .78.633 1.41 1.413 1.41h10.674c.78 0 1.413-.63 1.413-1.41v-1.84h4.277v1.358l.007.102a.75.75 0 0 0 1.493-.102V14.75h3.5v1.358l.007.102a.75.75 0 0 0 1.493-.102V14.75h3.5v1.358l.007.102a.75.75 0 0 0 1.493-.102V14.75H40.1l.102-.007a.75.75 0 0 0-.102-1.493h-2.823V11.9l-.007-.101a.75.75 0 0 0-1.493.101v1.35h-3.5V11.9l-.007-.101a.75.75 0 0 0-1.493.101v1.35h-3.5V11.9l-.007-.101a.75.75 0 0 0-1.493.101v1.35H21.5v-1.837c0-.78-.633-1.413-1.413-1.413ZM20 11.5v5H9.5v-5H20Z" fill="#000"/></g></svg>