<svg width="48" height="28" viewBox="0 0 48 28" version="1.1" xmlns="http://www.w3.org/2000/svg"><g stroke="none" stroke-width="1" fill="none" fill-rule="evenodd"><path d="M0 0h48v28H0z"/><path d="M29.337 4H18.663c-.78 0-1.413.633-1.413 1.413V9.59c0 .78.633 1.41 1.413 1.41h4.562v2.505h-1.352l-.102.007a.75.75 0 0 0 .102 1.493h1.352v2.5h-1.353l-.101.008a.75.75 0 0 0 .101 1.493h1.353v2.5h-1.353l-.101.007a.75.75 0 0 0 .101 1.493h1.353v1.823l.007.101a.75.75 0 0 0 1.493-.101v-1.823h1.355l.102-.007a.75.75 0 0 0-.102-1.493h-1.355v-2.5h1.355l.102-.007a.75.75 0 0 0-.102-1.493h-1.355v-2.501h1.355l.102-.007a.75.75 0 0 0-.102-1.493h-1.355V11h4.612c.78 0 1.413-.63 1.413-1.41V5.413c0-.78-.633-1.413-1.413-1.413Zm-.087 1.5v4h-10.5v-4h10.5Z" fill="#000"/></g></svg>