<svg width="48" height="28" viewBox="0 0 48 28" version="1.1" xmlns="http://www.w3.org/2000/svg"><g stroke="none" stroke-width="1" fill="none" fill-rule="evenodd"><path d="M48 0H0v28h48z"/><path d="M31.61 3.75c.685 0 1.24.555 1.24 1.24v6.02a1.24 1.24 0 0 1-1.24 1.24h-6.461l.001 3.45c0 .326.24.597.554.643l.096.007H31a.75.75 0 0 1 .102 1.493L31 17.85h-5.2c-.227 0-.446-.035-.651-.1l.001 4.95c0 .326.24.597.554.643l.096.007H31a.75.75 0 0 1 .102 1.493L31 24.85h-5.2a2.15 2.15 0 0 1-2.145-1.996l-.005-.154-.001-10.45H17.19a1.24 1.24 0 0 1-1.234-1.113l-.006-.127V4.99c0-.685.555-1.24 1.24-1.24Zm-.261 1.5H17.45v5.5h13.899v-5.5Z" fill="#000" fill-rule="nonzero"/></g></svg>