<svg width="48" height="28" viewBox="0 0 48 28" version="1.1" xmlns="http://www.w3.org/2000/svg"><g stroke="none" stroke-width="1" fill="none" fill-rule="evenodd"><path d="M0 0h48v28H0z"/><path d="M35.97 4.5c.762 0 1.38.618 1.38 1.38v16.24a1.38 1.38 0 0 1-1.38 1.38H12.03a1.38 1.38 0 0 1-1.38-1.38V5.88c0-.762.618-1.38 1.38-1.38Zm-12.72 7.8H12.148l.001 9.7H23.25v-9.7Zm12.599 5.599H24.75V22h11.1l-.001-4.101Zm0-5.599H24.75v4.099h11.099V12.3Zm.001-6.301H12.149l-.001 4.801h23.701l.001-4.801Z" fill="#000" fill-rule="nonzero"/></g></svg>