<svg width="48" height="28" viewBox="0 0 48 28" version="1.1" xmlns="http://www.w3.org/2000/svg"><g stroke="none" stroke-width="1" fill="none" fill-rule="evenodd"><path d="M0 0h48v28H0z"/><path d="M31.61 3.75c.685 0 1.24.555 1.24 1.24v6.02a1.24 1.24 0 0 1-1.24 1.24h-6.46V22.7l-.005.154A2.15 2.15 0 0 1 23 24.85h-5.2l-.102-.007a.75.75 0 0 1 .102-1.493H23l.096-.007a.65.65 0 0 0 .554-.643v-4.95c-.205.065-.423.1-.65.1h-5.2l-.102-.007a.75.75 0 0 1 .102-1.493H23l.096-.007a.65.65 0 0 0 .554-.643l-.001-3.45H17.19a1.24 1.24 0 0 1-1.24-1.24V4.99c0-.685.555-1.24 1.24-1.24h14.42Zm-.26 1.5H17.451v5.5H31.35v-5.5Z" fill="#000" fill-rule="nonzero"/></g></svg>