<svg width="48" height="28" viewBox="0 0 48 28" version="1.1" xmlns="http://www.w3.org/2000/svg"><g stroke="none" stroke-width="1" fill="none" fill-rule="evenodd"><path d="M0 0h48v28H0z"/><path d="M17.19 3.75h14.42c.685 0 1.24.555 1.24 1.24v6.02a1.24 1.24 0 0 1-1.24 1.24h-6.46V15.712a.65.65 0 0 0 .554.631l.096.007h4.5a.75.75 0 0 1 .102 1.493l-.102.007h-4.5c-.226 0-.445-.035-.65-.1v4.951c0 .325.24.596.554.642l.096.007h4.5a.75.75 0 0 1 .102 1.493l-.102.007h-4.5a2.15 2.15 0 0 1-2.144-1.996l-.006-.154v-1.45c-.158.05-.324.083-.496.095L23 21.35h-4.5a.75.75 0 0 1-.101-1.493l.101-.007H23a.65.65 0 0 0 .643-.554l.007-.094V12.25h-6.46a1.24 1.24 0 0 1-1.24-1.24V4.99c0-.685.555-1.24 1.24-1.24Zm.261 1.5v5.5h13.9v-5.5h-13.9Z" fill="#000"/></g></svg>