<svg width="40" height="40" viewBox="0 0 40 40" fill="none" xmlns="http://www.w3.org/2000/svg"><g clip-path="url(#arrow-begin-double-arrow_a)"><path d="M31.802 19.118c.243 0 .448.084.616.252.187.168.28.373.28.616a.838.838 0 0 1-.252.616.872.872 0 0 1-.644.252H16.794v1.148c0 .336-.103.504-.308.504-.093 0-.215-.047-.364-.14l-1.4-.952v3.052c0 .336-.103.504-.308.504-.093 0-.215-.047-.364-.14l-6.468-4.368c-.187-.13-.28-.29-.28-.476 0-.168.093-.317.28-.448l6.468-4.368c.15-.093.27-.14.364-.14.205 0 .308.168.308.504v3.052l1.4-.952c.15-.093.27-.14.364-.14.205 0 .308.168.308.504v1.12h15.008Z" fill="#27292A"/></g><defs><clipPath id="arrow-begin-double-arrow_a"><path fill="#fff" d="M0 0h40v40H0z"/></clipPath></defs></svg>