<svg width="40" height="40" viewBox="0 0 40 40" fill="none" xmlns="http://www.w3.org/2000/svg"><g clip-path="url(#arrow-begin-anti-triangle_a)"><path d="M31.522 19.118c.243 0 .448.084.616.252.187.168.28.373.28.616a.838.838 0 0 1-.252.616.872.872 0 0 1-.644.252H13.63l-5.376 3.668c-.15.093-.27.14-.364.14-.205 0-.308-.159-.308-.476v-8.344c0-.336.103-.504.308-.504.112 0 .233.037.364.112l5.348 3.668h17.92Z" fill="#27292A"/></g><defs><clipPath id="arrow-begin-anti-triangle_a"><path fill="#fff" d="M0 0h40v40H0z"/></clipPath></defs></svg>