<svg width="40" height="40" viewBox="0 0 40 40" fill="none" xmlns="http://www.w3.org/2000/svg"><g clip-path="url(#arrow-end-anti-triangle_a)"><path d="M32.404 24.186c0 .317-.103.476-.308.476-.093 0-.215-.047-.364-.14l-5.376-3.668H8.464a.838.838 0 0 1-.616-.252.838.838 0 0 1-.252-.616c0-.243.084-.448.252-.616a.838.838 0 0 1 .616-.252h17.92l5.348-3.668a.742.742 0 0 1 .364-.112c.205 0 .308.168.308.504v8.344Z" fill="#27292A"/></g><defs><clipPath id="arrow-end-anti-triangle_a"><path fill="#fff" d="M0 0h40v40H0z"/></clipPath></defs></svg>