<svg width="49" height="20" viewBox="0 0 49 20" fill="none" xmlns="http://www.w3.org/2000/svg">
<rect x="0.5" y="0.5" width="48" height="19" rx="9.5" fill="white" fill-opacity="0.1"/>
<rect x="0.5" y="0.5" width="48" height="19" rx="9.5" stroke="#949699"/>
<path d="M8.70312 4.43115H16.1592V6.99463H11.6841V8.97217H15.6465V11.2427H11.6841V15H8.70312V4.43115ZM17.3601 15V6.94336H20.2897V8.68652H20.4216C20.5583 8.08105 20.8342 7.6123 21.2492 7.28027C21.6643 6.94824 22.2233 6.78467 22.9265 6.78955V9.41895C22.0329 9.40918 21.3688 9.57031 20.9343 9.90234C20.5046 10.2295 20.2897 10.7373 20.2897 11.4258V15H17.3601ZM29.7743 10.1294L28.9174 11.228V10.3638C28.9174 9.9292 28.8026 9.58252 28.5731 9.32373C28.3437 9.06494 28.0385 8.93555 27.6576 8.93555C27.2914 8.93555 26.9984 9.06006 26.7787 9.30908C26.559 9.55811 26.4491 9.89502 26.4491 10.3198V11.6602C26.4491 12.1338 26.6029 12.5098 26.9105 12.7881C27.2182 13.0615 27.6308 13.1982 28.1483 13.1982C28.4804 13.1982 28.7953 13.1226 29.0932 12.9712C29.3959 12.8198 29.6376 12.6147 29.8183 12.356L31.1879 13.7109C30.9047 14.1895 30.4677 14.5679 29.8769 14.8462C29.286 15.1196 28.6317 15.2563 27.914 15.2563C27.0644 15.2563 26.3197 15.083 25.6801 14.7363C25.0453 14.3896 24.5546 13.8965 24.2079 13.2568C23.8661 12.6172 23.6952 11.8677 23.6952 11.0083C23.6952 10.1538 23.8563 9.40674 24.1786 8.76709C24.5009 8.12744 24.9574 7.63428 25.5482 7.2876C26.1439 6.94092 26.8397 6.76758 27.6356 6.76758C28.4071 6.76758 29.081 6.93604 29.6571 7.27295C30.2333 7.60498 30.6776 8.08105 30.9901 8.70117C31.3026 9.31641 31.4589 10.0391 31.4589 10.8691V11.792H26.31L26.3026 10.1294H29.7743ZM38.6729 10.1294L37.816 11.228V10.3638C37.816 9.9292 37.7013 9.58252 37.4718 9.32373C37.2423 9.06494 36.9371 8.93555 36.5562 8.93555C36.19 8.93555 35.8971 9.06006 35.6773 9.30908C35.4576 9.55811 35.3478 9.89502 35.3478 10.3198V11.6602C35.3478 12.1338 35.5016 12.5098 35.8092 12.7881C36.1168 13.0615 36.5294 13.1982 37.047 13.1982C37.379 13.1982 37.6939 13.1226 37.9918 12.9712C38.2945 12.8198 38.5362 12.6147 38.7169 12.356L40.0865 13.7109C39.8033 14.1895 39.3663 14.5679 38.7755 14.8462C38.1847 15.1196 37.5304 15.2563 36.8126 15.2563C35.963 15.2563 35.2184 15.083 34.5787 14.7363C33.9439 14.3896 33.4532 13.8965 33.1065 13.2568C32.7647 12.6172 32.5938 11.8677 32.5938 11.0083C32.5938 10.1538 32.755 9.40674 33.0772 8.76709C33.3995 8.12744 33.8561 7.63428 34.4469 7.2876C35.0426 6.94092 35.7384 6.76758 36.5343 6.76758C37.3058 6.76758 37.9796 6.93604 38.5558 7.27295C39.1319 7.60498 39.5763 8.08105 39.8888 8.70117C40.2013 9.31641 40.3575 10.0391 40.3575 10.8691V11.792H35.2086L35.2013 10.1294H38.6729Z" fill="#949699"/>
</svg>
