<svg width="16" height="16" viewBox="0 0 16 16" fill="none" xmlns="http://www.w3.org/2000/svg">
<g clip-path="url(#clip0_1045_2982)">
<path d="M7.99927 15.631C6.95435 15.631 5.97046 15.4308 5.04761 15.0304C4.12476 14.6349 3.31177 14.0856 2.60864 13.3825C1.90552 12.6793 1.35376 11.8688 0.953369 10.9508C0.557861 10.028 0.360107 9.04164 0.360107 7.99184C0.360107 6.94691 0.557861 5.96547 0.953369 5.0475C1.35376 4.12465 1.90308 3.31166 2.60132 2.60854C3.30444 1.90541 4.11743 1.35609 5.04028 0.960587C5.96313 0.560196 6.94702 0.360001 7.99194 0.360001C9.03687 0.360001 10.0208 0.560196 10.9436 0.960587C11.8713 1.35609 12.6843 1.90541 13.3826 2.60854C14.0857 3.31166 14.6375 4.12465 15.0378 5.0475C15.4382 5.96547 15.6384 6.94691 15.6384 7.99184C15.6384 9.04164 15.4382 10.028 15.0378 10.9508C14.6375 11.8688 14.0857 12.6793 13.3826 13.3825C12.6843 14.0856 11.8738 14.6349 10.9509 15.0304C10.0281 15.4308 9.04419 15.631 7.99927 15.631ZM4.24927 9.80092C4.39575 9.9474 4.56421 10.0231 4.75464 10.028C4.94995 10.028 5.11353 9.95473 5.24536 9.80824L8.00659 6.87123L10.7678 9.80824C10.8997 9.95473 11.0608 10.028 11.2512 10.028C11.4465 10.0231 11.6174 9.9474 11.7639 9.80092C11.8958 9.67885 11.9592 9.5226 11.9543 9.33217C11.9495 9.13686 11.8787 8.96596 11.7419 8.81947L8.86353 5.75063C8.69263 5.56996 8.50708 5.45033 8.30688 5.39174C8.10669 5.33315 7.90649 5.33559 7.7063 5.39906C7.5061 5.45766 7.32056 5.57729 7.14966 5.75795L4.27124 8.8268C4.13452 8.97328 4.06372 9.14174 4.05884 9.33217C4.05396 9.5226 4.11743 9.67885 4.24927 9.80092Z" fill="url(#paint0_linear_1045_2982)"/>
</g>
<defs>
<linearGradient id="paint0_linear_1045_2982" x1="-0.000732433" y1="1.72046" x2="16.0279" y2="1.75203" gradientUnits="userSpaceOnUse">
<stop stop-color="#9290FF"/>
<stop offset="1" stop-color="#FF3737"/>
</linearGradient>
<clipPath id="clip0_1045_2982">
<rect width="16" height="16" fill="white"/>
</clipPath>
</defs>
</svg>
