<svg width="42" height="20" viewBox="0 0 42 20" fill="none" xmlns="http://www.w3.org/2000/svg">
<rect x="0.5" y="0.5" width="41" height="19" rx="9.5" fill="url(#paint0_linear_1042_2788)" fill-opacity="0.2"/>
<rect x="0.5" y="0.5" width="41" height="19" rx="9.5" stroke="url(#paint1_linear_1042_2788)"/>
<path d="M11.6914 15H8.70312V4.43115H11.6914V15ZM10.4463 9.47754H12.7314C13.1318 9.47754 13.4492 9.35547 13.6836 9.11133C13.9229 8.86719 14.0425 8.5376 14.0425 8.12256C14.0425 7.70752 13.9229 7.38037 13.6836 7.14111C13.4492 6.89697 13.1318 6.7749 12.7314 6.7749H10.4463V4.43115H13.1855C13.957 4.43115 14.6309 4.58252 15.207 4.88525C15.7881 5.18311 16.2349 5.61035 16.5474 6.16699C16.8647 6.72363 17.0234 7.37549 17.0234 8.12256C17.0234 8.86963 16.8647 9.52148 16.5474 10.0781C16.2349 10.6348 15.7881 11.0645 15.207 11.3672C14.6309 11.6699 13.957 11.8213 13.1855 11.8213H10.4463V9.47754ZM18.4001 15V6.94336H21.3298V8.68652H21.4616C21.5983 8.08105 21.8742 7.6123 22.2893 7.28027C22.7043 6.94824 23.2634 6.78467 23.9665 6.78955V9.41895C23.0729 9.40918 22.4089 9.57031 21.9743 9.90234C21.5446 10.2295 21.3298 10.7373 21.3298 11.4258V15H18.4001ZM29.0932 15.2637C28.2387 15.2637 27.4818 15.083 26.8227 14.7217C26.1635 14.3604 25.6508 13.855 25.2846 13.2056C24.9184 12.5513 24.7353 11.8018 24.7353 10.957C24.7353 10.1318 24.9184 9.40186 25.2846 8.76709C25.6508 8.13232 26.1635 7.6416 26.8227 7.29492C27.4818 6.94336 28.2387 6.76758 29.0932 6.76758C29.9428 6.76758 30.6972 6.94336 31.3563 7.29492C32.0155 7.6416 32.5258 8.13232 32.8871 8.76709C33.2533 9.40186 33.4364 10.1318 33.4364 10.957C33.4364 11.8018 33.2533 12.5513 32.8871 13.2056C32.5258 13.855 32.0155 14.3604 31.3563 14.7217C30.6972 15.083 29.9428 15.2637 29.0932 15.2637ZM29.0932 12.8247C29.3764 12.8247 29.6278 12.7466 29.8476 12.5903C30.0673 12.4341 30.2382 12.2144 30.3603 11.9312C30.4823 11.6479 30.5434 11.3232 30.5434 10.957C30.5434 10.6104 30.4823 10.3052 30.3603 10.0415C30.2382 9.77295 30.0673 9.56543 29.8476 9.41895C29.6278 9.27246 29.3764 9.19922 29.0932 9.19922C28.81 9.19922 28.5585 9.27246 28.3388 9.41895C28.119 9.56543 27.9457 9.77295 27.8188 10.0415C27.6967 10.3052 27.6356 10.6104 27.6356 10.957C27.6356 11.3232 27.6967 11.6479 27.8188 11.9312C27.9457 12.2144 28.119 12.4341 28.3388 12.5903C28.5585 12.7466 28.81 12.8247 29.0932 12.8247Z" fill="url(#paint2_linear_1042_2788)"/>
<defs>
<linearGradient id="paint0_linear_1042_2788" x1="-2.38645e-08" y1="1.80068" x2="42.0747" y2="1.97471" gradientUnits="userSpaceOnUse">
<stop stop-color="#9290FF"/>
<stop offset="1" stop-color="#FF3737"/>
</linearGradient>
<linearGradient id="paint1_linear_1042_2788" x1="0" y1="0" x2="42" y2="20" gradientUnits="userSpaceOnUse">
<stop stop-color="#9290FF"/>
<stop offset="1" stop-color="#FF3737"/>
</linearGradient>
<linearGradient id="paint2_linear_1042_2788" x1="8" y1="3.44054" x2="34.0464" y2="3.52391" gradientUnits="userSpaceOnUse">
<stop stop-color="#9290FF"/>
<stop offset="1" stop-color="#FF3737"/>
</linearGradient>
</defs>
</svg>
