<svg width="40" height="40" viewBox="0 0 40 40" fill="none" xmlns="http://www.w3.org/2000/svg"><g clip-path="url(#summary-bright_a)"><path d="M16.262 19.118c1.25 0 2.212-.485 2.884-1.456.69-.97.99-2.259.896-3.864-.056-1.195.103-2.259.476-3.192.392-.933.97-1.661 1.736-2.184.784-.523 1.708-.784 2.772-.784h2.212c.28 0 .504.084.672.252.168.15.252.355.252.616s-.084.467-.252.616c-.168.15-.392.224-.672.224h-2.212c-1.101 0-1.95.392-2.548 1.176-.597.784-.85 1.81-.756 3.08.056 1.475-.159 2.772-.644 3.892-.485 1.101-1.195 1.923-2.128 2.464.896.56 1.577 1.41 2.044 2.548.485 1.12.71 2.417.672 3.892-.037 1.25.243 2.268.84 3.052.597.784 1.437 1.176 2.52 1.176h2.212c.261 0 .476.084.644.252.187.168.28.373.28.616a.797.797 0 0 1-.28.616.872.872 0 0 1-.644.252h-2.212c-1.064 0-1.988-.261-2.772-.784-.784-.523-1.381-1.241-1.792-2.156-.392-.933-.57-1.979-.532-3.136.037-1.643-.261-2.959-.896-3.948-.616-.99-1.493-1.484-2.632-1.484h-3.696a.838.838 0 0 1-.616-.252.838.838 0 0 1-.252-.616c0-.261.084-.467.252-.616a.838.838 0 0 1 .616-.252h3.556Z" fill="#27292A"/></g><defs><clipPath id="summary-bright_a"><path fill="#fff" d="M0 0h40v40H0z"/></clipPath></defs></svg>