<svg width="40" height="40" viewBox="0 0 40 40" fill="none" xmlns="http://www.w3.org/2000/svg"><g clip-path="url(#summary-straight_a)"><path d="M31.004 31.214a.95.95 0 0 1 .28.7.747.747 0 0 1-.168.504.877.877 0 0 1-.672.308.916.916 0 0 1-.672-.28L17.284 20.854H9.556a.838.838 0 0 1-.616-.252.838.838 0 0 1-.252-.616c0-.243.084-.448.252-.616a.838.838 0 0 1 .616-.252h7.84L29.772 7.554a.797.797 0 0 1 .616-.28c.261 0 .476.093.644.28a.69.69 0 0 1 .28.56c0 .224-.112.439-.336.644L19.16 19.818a.266.266 0 0 0-.112.224c0 .093.037.177.112.252l11.844 10.92Z" fill="#27292A"/></g><defs><clipPath id="summary-straight_a"><path fill="#fff" d="M0 0h40v40H0z"/></clipPath></defs></svg>