<svg width="40" height="40" viewBox="0 0 40 40" fill="none" xmlns="http://www.w3.org/2000/svg"><g clip-path="url(#summary-right-angle_a)"><path d="M25.74 31.746a.838.838 0 0 1-.252.616.838.838 0 0 1-.616.252.838.838 0 0 1-.616-.252.894.894 0 0 1-.224-.616V20.854h-8.876a.872.872 0 0 1-.644-.252.838.838 0 0 1-.252-.616c0-.243.084-.448.252-.616a.934.934 0 0 1 .644-.252h8.876V8.31c0-.261.075-.476.224-.644a.797.797 0 0 1 .616-.28c.243 0 .448.093.616.28a.872.872 0 0 1 .252.644v23.436Z" fill="#27292A"/></g><defs><clipPath id="summary-right-angle_a"><path fill="#fff" d="M0 0h40v40H0z"/></clipPath></defs></svg>