<svg width="40" height="40" viewBox="0 0 40 40" fill="none" xmlns="http://www.w3.org/2000/svg"><g clip-path="url(#summary-elbow_a)"><path d="M28.806 30.626c.261 0 .476.084.644.252.187.168.28.383.28.644a.716.716 0 0 1-.28.588.872.872 0 0 1-.644.252h-7.7c-.616 0-1.12-.187-1.512-.56-.373-.373-.56-.859-.56-1.456v-9.52l-7.868.028a.872.872 0 0 1-.644-.252.838.838 0 0 1-.252-.616c0-.261.084-.467.252-.616a.872.872 0 0 1 .644-.252l7.896-.028V9.682c0-.616.187-1.11.56-1.484.373-.373.859-.56 1.456-.56h7.728c.261 0 .476.084.644.252.187.168.28.383.28.644a.797.797 0 0 1-.28.616.933.933 0 0 1-.644.224h-7.252c-.243 0-.439.065-.588.196-.13.13-.196.317-.196.56l.028 19.74c0 .243.065.43.196.56.13.13.317.196.56.196h7.252Z" fill="#27292A"/></g><defs><clipPath id="summary-elbow_a"><path fill="#fff" d="M0 0h40v40H0z"/></clipPath></defs></svg>