<svg width="40" height="40" viewBox="0 0 40 40" fill="none" xmlns="http://www.w3.org/2000/svg"><g clip-path="url(#summary-curve_a)"><path d="M30.766 30.892c.28 0 .504.075.672.224a.872.872 0 0 1 .252.644c0 .261-.084.467-.252.616-.168.168-.392.252-.672.252-2.483 0-4.723-.504-6.72-1.512-1.979-.99-3.556-2.37-4.732-4.144-1.157-1.792-1.801-3.836-1.932-6.132H9.206a.933.933 0 0 1-.644-.224A.838.838 0 0 1 8.31 20c0-.261.084-.467.252-.616a.872.872 0 0 1 .644-.252h8.176c.13-2.296.784-4.33 1.96-6.104 1.176-1.792 2.753-3.183 4.732-4.172 1.979-.99 4.21-1.484 6.692-1.484.28 0 .504.084.672.252a.872.872 0 0 1 .252.644.798.798 0 0 1-.28.616c-.168.15-.401.224-.7.224-2.24 0-4.247.467-6.02 1.4-1.755.915-3.127 2.203-4.116 3.864-.99 1.643-1.484 3.519-1.484 5.628 0 2.11.495 3.995 1.484 5.656 1.008 1.643 2.39 2.93 4.144 3.864 1.773.915 3.79 1.372 6.048 1.372Z" fill="#27292A"/></g><defs><clipPath id="summary-curve_a"><path fill="#fff" d="M0 0h40v40H0z"/></clipPath></defs></svg>