<svg width="20" height="21" viewBox="0 0 20 21" fill="none" xmlns="http://www.w3.org/2000/svg"><g filter="url(#favorite-normal_a)"><rect x="4" y="4" width="12" height="12" rx="6" fill="#fff" shape-rendering="crispEdges"/><path d="M11.134 9.223a.399.399 0 0 1-.21-.077.518.518 0 0 1-.147-.175L10 7.333l-.777 1.638a.492.492 0 0 1-.154.175.399.399 0 0 1-.21.077l-1.729.182 1.246 1.246a.435.435 0 0 1 .098.154.45.45 0 0 1 .035.175.59.59 0 0 1-.014.098L8.11 12.66l1.666-.924a.451.451 0 0 1 .217-.049.42.42 0 0 1 .224.056l1.666.938-.378-1.61a.594.594 0 0 1-.014-.098c0-.06.012-.119.035-.175a.435.435 0 0 1 .098-.154l1.218-1.239-1.708-.182Zm2.149-.378c.08.01.15.037.21.084a.359.359 0 0 1 .161.315c0 .13-.042.238-.126.322l-1.379 1.463.371 1.736c.01.037.014.093.014.168 0 .182-.051.306-.154.371a.481.481 0 0 1-.301.091.746.746 0 0 1-.336-.084L10 12.338l-1.806.973a.679.679 0 0 1-.308.07.517.517 0 0 1-.287-.077.39.39 0 0 1-.133-.154.527.527 0 0 1-.028-.336l.413-1.785-1.386-1.463a.428.428 0 0 1-.091-.14.616.616 0 0 1-.028-.182.44.44 0 0 1 .021-.14.352.352 0 0 1 .133-.168.426.426 0 0 1 .217-.091l1.96-.231.875-1.736a.462.462 0 0 1 .182-.196.467.467 0 0 1 .518 0 .45.45 0 0 1 .189.196l.889 1.736 1.953.231Z" fill="#9EA3A8"/></g><defs><filter id="favorite-normal_a" x="0" y=".5" width="20" height="20" filterUnits="userSpaceOnUse" color-interpolation-filters="sRGB"><feFlood flood-opacity="0" result="BackgroundImageFix"/><feColorMatrix in="SourceAlpha" type="matrix" values="0 0 0 0 0 0 0 0 0 0 0 0 0 0 0 0 0 0 127 0" result="hardAlpha"/><feOffset/><feGaussianBlur stdDeviation=".9"/><feComposite in2="hardAlpha" operator="out"/><feColorMatrix type="matrix" values="0 0 0 0 0 0 0 0 0 0 0 0 0 0 0 0 0 0 0.08 0"/><feBlend mode="normal" in2="BackgroundImageFix" result="effect1_dropShadow_6236_2694"/><feColorMatrix in="SourceAlpha" type="matrix" values="0 0 0 0 0 0 0 0 0 0 0 0 0 0 0 0 0 0 127 0" result="hardAlpha"/><feOffset dy=".5"/><feGaussianBlur stdDeviation="2"/><feComposite in2="hardAlpha" operator="out"/><feColorMatrix type="matrix" values="0 0 0 0 0 0 0 0 0 0 0 0 0 0 0 0 0 0 0.12 0"/><feBlend mode="normal" in2="effect1_dropShadow_6236_2694" result="effect2_dropShadow_6236_2694"/><feBlend mode="normal" in="SourceGraphic" in2="effect2_dropShadow_6236_2694" result="shape"/></filter></defs></svg>