<svg width="20" height="21" viewBox="0 0 20 21" fill="none" xmlns="http://www.w3.org/2000/svg"><g filter="url(#favorite-active_a)"><rect x="4" y="4" width="12" height="12" rx="6" fill="#fff" shape-rendering="crispEdges"/><path d="M13.087 8.754c.117 0 .217.04.301.119.089.08.133.177.133.294a.565.565 0 0 1-.217.448l-1.47 1.232.658 1.883a.74.74 0 0 1 .035.203.463.463 0 0 1-.049.21.315.315 0 0 1-.119.147.504.504 0 0 1-.28.077.745.745 0 0 1-.427-.133L10 12.079l-1.659 1.155a.73.73 0 0 1-.42.14.48.48 0 0 1-.266-.077.372.372 0 0 1-.14-.154.478.478 0 0 1-.049-.217c0-.08.012-.145.035-.196l.679-1.883-1.491-1.232a.709.709 0 0 1-.154-.203.51.51 0 0 1-.056-.231c0-.121.047-.222.14-.301a.485.485 0 0 1 .336-.126h1.911l.679-1.799a.498.498 0 0 1 .469-.329c.098 0 .189.03.273.091.089.06.15.14.182.238l.665 1.799h1.953Z" fill="#F9A825"/></g><defs><filter id="favorite-active_a" x="0" y=".5" width="20" height="20" filterUnits="userSpaceOnUse" color-interpolation-filters="sRGB"><feFlood flood-opacity="0" result="BackgroundImageFix"/><feColorMatrix in="SourceAlpha" type="matrix" values="0 0 0 0 0 0 0 0 0 0 0 0 0 0 0 0 0 0 127 0" result="hardAlpha"/><feOffset/><feGaussianBlur stdDeviation=".9"/><feComposite in2="hardAlpha" operator="out"/><feColorMatrix type="matrix" values="0 0 0 0 0 0 0 0 0 0 0 0 0 0 0 0 0 0 0.08 0"/><feBlend mode="normal" in2="BackgroundImageFix" result="effect1_dropShadow_6236_2696"/><feColorMatrix in="SourceAlpha" type="matrix" values="0 0 0 0 0 0 0 0 0 0 0 0 0 0 0 0 0 0 127 0" result="hardAlpha"/><feOffset dy=".5"/><feGaussianBlur stdDeviation="2"/><feComposite in2="hardAlpha" operator="out"/><feColorMatrix type="matrix" values="0 0 0 0 0 0 0 0 0 0 0 0 0 0 0 0 0 0 0.12 0"/><feBlend mode="normal" in2="effect1_dropShadow_6236_2696" result="effect2_dropShadow_6236_2696"/><feBlend mode="normal" in="SourceGraphic" in2="effect2_dropShadow_6236_2696" result="shape"/></filter></defs></svg>