<svg width="18" height="18" viewBox="0 0 18 18" fill="none" xmlns="http://www.w3.org/2000/svg"><path d="M13.867 4.81c.402-.03.805.01 1.194.115l.393-1.448a5.074 5.074 0 0 0-1.667-.166h-1.432v1.5h1.458c.018 0 .036 0 .054-.002ZM7.495 4.811H4.579v-1.5h2.916v1.5ZM8.467 4.811h.972v-1.5h-.972v1.5ZM10.41 4.811h.973v-1.5h-.972v1.5ZM15.633 5.248c.182.147.335.325.452.527l1.297-.754a3.41 3.41 0 0 0-.808-.94l-.941 1.167ZM16.358 7.243c.011-.281 0-.563-.036-.842l1.488-.188c.046.362.062.728.046 1.093l-1.498-.063ZM15.688 12.279c.178-.158.327-.345.44-.553l1.318.718a3.544 3.544 0 0 1-.765.959l-.993-1.124ZM15.092 12.634c-.22.083-.454.126-.689.127l.008 1.5a3.48 3.48 0 0 0 1.21-.223l-.53-1.404ZM16.36 9c-.001-.248-.003-.499-.003-.754h1.5l.003.706c.005.736.01 1.5-.031 2.252l-1.498-.083c.04-.7.034-1.398.03-2.122ZM9.547 12.761h-.972v1.5h.972v-1.5ZM6.63 12.761h.973v1.5H6.63v-1.5ZM13.435 12.761h-2.916v1.5h2.916v-1.5ZM1.929 11.798c.117.201.27.38.452.526l-.941 1.168a3.41 3.41 0 0 1-.808-.94l1.297-.754ZM1.692 11.172a5.032 5.032 0 0 1-.036-.842l-1.498-.063c-.016.365 0 .73.045 1.093l1.489-.188ZM2.953 12.648a3.575 3.575 0 0 0 1.248.113h1.458v1.5H4.227a5.074 5.074 0 0 1-1.667-.165l.393-1.448ZM1.885 5.847c.114-.209.263-.396.441-.553L1.333 4.17a3.545 3.545 0 0 0-.765.959l1.317.718ZM3.61 4.811a1.981 1.981 0 0 0-.688.128l-.529-1.404a3.481 3.481 0 0 1 1.21-.224l.008 1.5ZM1.657 9.326c0-.254-.002-.505-.004-.752-.005-.724-.01-1.422.03-2.122L.185 6.37A36.104 36.104 0 0 0 .154 8.62l.003.705h1.5Z" fill="#27292A"/></svg>