<svg width="18" height="18" viewBox="0 0 18 18" fill="none" xmlns="http://www.w3.org/2000/svg"><path d="M4.465 4.8h2.592V3.3H4.465v1.5ZM7.921 4.8h.864V3.3h-.864v1.5ZM13.97 4.8h-.865V3.3h.864v1.5ZM9.65 4.8h2.591V3.3H9.65v1.5ZM16.352 7.24c.008-.257 0-.515-.024-.77l1.493-.141c.03.318.04.638.03.957l-1.5-.046ZM14.731 4.826a1.95 1.95 0 0 1 1.443 1.076l1.35-.653a3.45 3.45 0 0 0-2.553-1.903l-.24 1.48ZM15.995 11.92a2.06 2.06 0 0 0 .277-.568l1.433.444c-.108.35-.27.68-.479.98l-1.23-.857ZM16.352 8.127v2.592h1.5V8.127h-1.5ZM11.81 12.75h.863v1.5h-.864v-1.5ZM15.562 12.365a1.896 1.896 0 0 1-.822.354 9.638 9.638 0 0 1-1.177.032l-.052 1.499a11.13 11.13 0 0 0 1.44-.045 3.396 3.396 0 0 0 1.512-.641l-.902-1.199ZM6.625 12.75h.864v1.5h-.864v-1.5ZM10.945 12.75H8.354v1.5h2.591v-1.5ZM2.207 12.156c.144.15.312.277.497.374l-.699 1.328a3.45 3.45 0 0 1-.88-.662l1.082-1.04ZM4.44 12.75a9.59 9.59 0 0 1-1.203-.033l-.135 1.494c.457.041.917.054 1.376.039h1.284v-1.5H4.466a.76.76 0 0 0-.027 0ZM1.651 7.695v.864h-1.5v-.864h1.5ZM1.651 10.719V9.423h-1.5v1.288a3.508 3.508 0 0 0 .344 1.588l1.353-.649a2.008 2.008 0 0 1-.197-.914v-.017ZM3.61 4.8a2.125 2.125 0 0 0-.628.103L2.52 3.476A3.625 3.625 0 0 1 3.592 3.3l.019 1.5ZM1.845 5.9a1.95 1.95 0 0 1 .593-.717L1.543 3.98A3.45 3.45 0 0 0 .152 6.854l1.499-.046a1.95 1.95 0 0 1 .194-.909Z" fill="#27292A"/></svg>