<svg width="18" height="18" viewBox="0 0 18 18" fill="none" xmlns="http://www.w3.org/2000/svg"><path d="M4.499 5.25h.9v-1.5h-.9v1.5ZM6.294 5.25h.9v-1.5h-.9v1.5ZM8.985 5.25H8.09v-1.5h.895v1.5ZM9.885 5.25h.896v-1.5h-.896v1.5ZM12.576 5.25h-.895v-1.5h.895v1.5ZM13.472 5.25h.9v-1.5h-.9v1.5ZM15.583 5.652a1.905 1.905 0 0 0-.565-.3l.471-1.425c.365.121.706.303 1.01.537l-.916 1.188ZM16.03 6.127c.117.177.204.373.255.579l1.456-.362a3.341 3.341 0 0 0-.464-1.05l-1.248.833ZM16.353 8.311v-.895h1.5v.895h-1.5ZM16.353 9.207v.9h1.5v-.9h-1.5ZM16.29 11.76c.052-.23.073-.467.064-.704l1.498-.062c.016.368-.018.736-.098 1.095l-1.464-.328ZM16.044 12.302c-.121.184-.27.348-.443.485l.934 1.174c.297-.237.555-.52.764-.838l-1.255-.821ZM14.38 13.2c.227-.002.453-.039.67-.11l.471 1.423a3.674 3.674 0 0 1-1.13.187l-.011-1.5ZM13.508 13.2h-.9v1.5h.9v-1.5ZM10.812 13.2h.9v1.5h-.9v-1.5ZM9.916 13.2h-.895v1.5h.895v-1.5ZM7.226 13.2h.895v1.5h-.895v-1.5ZM6.325 13.2H5.43v1.5h.895v-1.5ZM3.635 13.2h.9v1.5h-.9v-1.5ZM2.989 13.098a1.908 1.908 0 0 1-.566-.3l-.916 1.188c.304.234.646.416 1.01.536l.472-1.424ZM1.72 11.744c.052.206.139.402.257.579l-1.248.833a3.343 3.343 0 0 1-.464-1.05l1.456-.362ZM1.653 11.034v-.896h-1.5v.896h1.5ZM1.653 8.343v.9h-1.5v-.9h1.5ZM1.652 7.417a2.71 2.71 0 0 1 .064-.705L.252 6.383a4.21 4.21 0 0 0-.098 1.095l1.498-.061ZM2.405 5.663a2.067 2.067 0 0 0-.442.485L.708 5.327c.208-.318.466-.601.763-.838l.934 1.174ZM2.957 5.36c.216-.071.442-.108.67-.11l-.011-1.5a3.675 3.675 0 0 0-1.13.187l.471 1.423Z" fill="#27292A"/></svg>