<svg width="19" height="18" viewBox="0 0 19 18" fill="none" xmlns="http://www.w3.org/2000/svg"><path fill-rule="evenodd" clip-rule="evenodd" d="M16.462 3.835 2.828 3.673l-.163.122h-.001l-.001.002-.003.002-.006.005-.013.01-.013-.011.01.013-.01-.012-.002.001-.005.004-.017.014a5.905 5.905 0 0 0-.257.227c-.162.15-.38.36-.597.606a4.943 4.943 0 0 0-.614.838c-.162.29-.314.665-.285 1.063l.003.124a246.203 246.203 0 0 0 .057 1.755c.037 1.06.09 2.433.154 3.752l-.197.107c.072.29.233.565.4.795.173.239.382.471.592.678.135.134.276.263.415.383.07.092.143.177.22.253.1.1.222.2.365.27a.913.913 0 0 0 .509.1l.368-.008 1.101-.028c.93-.024 2.216-.06 3.64-.108 2.843-.095 6.251-.237 8.47-.422l.269-.023.084-.113c.162-.058.352-.143.543-.263.253-.16.523-.396.712-.736.188-.336.276-.74.226-1.206v-.005l.003-.133.008-.487c.005-.411.008-.978.002-1.601a49.506 49.506 0 0 0-.048-1.84c.044-.617.067-1.22.05-1.738l-.004-.135-.061-.12-.162.083c.162-.083.161-.084.161-.084v-.001l-.004-.006-.01-.02a6.745 6.745 0 0 0-.174-.317 9.063 9.063 0 0 0-.456-.72c-.174-.245-.398-.525-.643-.715a1.19 1.19 0 0 0-.508-.24.85.85 0 0 0-.474.047ZM2.736 3.89l-.071-.095.071.095Zm14.48 6.229-.154 1.643-.487 1.097-.125.147-13.024-.105-.53-1.234.053-5.052.197-.67.387-.437 1.719-.14-.005-.05c1.65-.015 3.697-.041 5.596-.07a2073.358 2073.358 0 0 0 5.313-.085l.2-.003 1.007 1.097-.32 2.995.173.867Z" fill="#27292A"/></svg>