<svg width="18" height="18" viewBox="0 0 18 18" fill="none" xmlns="http://www.w3.org/2000/svg"><path fill-rule="evenodd" clip-rule="evenodd" d="m1.722 4.12 1.853-.059v.009l-.002.21.145.7h-.001v.008h-.045v.267H3.67l.139.314c-.357 0-.308-.023-1.151.003l-.135.222-.545-.641a.846.846 0 0 0-.025.023l-.088-.095-.17-.128h-.073l.03-.064-.15-.396c.017-.018.035-.034.053-.05l-.011-.013c.074-.07.147-.132.212-.184l-.033-.126Zm2.984.16-.13 1.347c.703 0 1.25.131 2.062.13V5.517c.03 0 .062.064.093.064V5.5l-.167-1.554-1.79.124v.013h-.002l-.001.188h-.065v.01Zm5.247-.136V4.13l-1.865-.003v.017l-.001.155h-.115v.011l.041 1.446c.938.088 1.43-.026 2.185-.028V5.58h.143l-.388-1.435Zm7.017.85.128-.36c-.066-.118-.132-.139-.265-.21-.072-.038-.114-.198-.206-.187-.059.008-.141-.083-.19-.055l-1.092-.008-.001.112h-.211l-.445 1.507h.003v.002l.653.086.347.238.022-.076.03.052 1.282-1.008-.055-.094Zm-5.112.732h-.003l-.631-1.638h.163v-.142l2.564.219v.007h.004l.26 1.433c.222.064-.126 0-.19 0v.12c-.68.003-1.334.007-2.167.009v-.008ZM.894 5.698l-.105-.071c-.098.196-.25.396-.228.645l-.001.051-.002.183-.006.584h.022v.005l-.002.33c-.005.253-.033.232-.04.549h.026v.003l1.253-.05.157.004v-.002h.025l.02-1.429.223-.408-.088-.056.002-.003-.1-.071.01-.044-.115-.032-.009-.005L.91 5.675l-.015.023Zm15.105.647-.221.07.02.069-.114.048.182.39-.073 1.257.102-.004h.011v.016h.043l1.277-.095.277.005V8.1l.042.001c.008-.638.213-.998.196-1.49v-.016l-.003-.016-.195.034.195-.034v-.002l-.001-.002-.002-.01a2.7 2.7 0 0 0-.031-.16A6.667 6.667 0 0 0 17.607 6l-.17.049a2.073 2.073 0 0 0-.008-.03l-1.392.314-.006-.01-.032.022ZM1.962 8.743l.026 1.25-1.164.025-.252.006C.56 9.383.428 9.347.426 8.786h.238l1.298-.043Zm13.995.25-.003-.063.076-.003V8.92l1.26.23.17.521v.005h.076c.001.493 0 1.358-.005 1.67l-.006.37-.002.1v.014c.033.25-.088.475-.135.66l-1.253-.875a.747.747 0 0 0 .009-.04l-.162-.198-.085-.037.006-.013-.035-.022-.007-.005.007-.149.084-.262.005-1.895ZM2.444 11.416l.214.642-.243.102a.79.79 0 0 0 .005.041l-1.421.775-.084.047-.097.076-.011-.016-.126.071a2.832 2.832 0 0 1-.231-.576l-.028-.272c-.011-.221.008-.369 0-.6H.45V11.7h.004c-.004-.315.081-.298.083-.675h.035v-.002l1.574-.266.298.659Zm12.837 2.923.003.06c.414-.02.858-.16 1.21-.186l.081-.006.06-.057-.053-.058.053.058.001-.001.002-.002.006-.006a1.965 1.965 0 0 0 .078-.08c.079-.022.164-.254.248-.3l-.06-.137c.02-.025.04-.052.06-.08l-.076-.059.01-.018-.104-.06-.042-.083c-.014.007-.743-.886-.758-.88l-.112-.087-.204.082-.853.313.296 1.498h.006v.015l.136-.004.001.078h.011Zm-13.993-.804-.007-.014.042-.023.026-.026.008.008.063-.033.024-.024.007.007 1.207-.922.081-.063.01.014.058-.043.557.17.7.242v.038l-1.19 1.452H2.87l.001.042h-.006v.008l-.834.01-.296.003h-.059l-.049-.023a1.48 1.48 0 0 1-.062-.032c-.204-.029-.362-.409-.507-.555l.23-.236Zm10.54.572.004-1.257 2.041.007v.026h.002v.05l.13-.001-.064 1.045.01.357c-.732.021-1.22-.056-2.019-.046l-.001-.13h-.002v-.02l-.1.003v-.034ZM8.01 12.8l-.124 1.497h.06v.1c.753.001 1.442.063 2.22.058l-.039-1.523h-.001l-.001-.132h-.09V12.764l-2.025.006v.03Zm-1.884.1-.001-.1-1.906-.017v.028h-.024v.015l.042 1.524h.017v.017c.68.009 1.464.017 2.305.023l.001-.1h.004l-.402-.254-.035-1.135h-.001Z" fill="#27292A"/></svg>