<svg width="18" height="18" viewBox="0 0 18 18" fill="none" xmlns="http://www.w3.org/2000/svg"><g clip-path="url(#diagonal-thin-hand-drawn_a)" fill="#27292A"><path d="m19.888 4.548-.312.816-.427-.152.076-.154-.453-.198-3.335 6.703c.186-.495.394-1.05.612-1.625.745-1.968 1.599-4.189 2.042-5.228l-.466-.17c-.448 1.05-1.305 3.282-2.049 5.246a696.543 696.543 0 0 0-1.267 3.374l-.11.298.474.148.159-.427.289.127 4.004-8.045-3.402 8.188.467.166 2.895-6.967-2.604 6.807.473.153 3.406-8.907-.472-.153ZM20.513 5.153l-2.531 7.982.482.125 2.532-7.982-.483-.125ZM13.143 13.569l-.084.22.472.154 3.422-8.907-.472-.154-2.863 7.45 1.885-6.19.308-.768-.067-.023.023-.076-.485-.12-.257.846-2.725 6.781.47.161.588-1.464-.607 1.993.392.097ZM14.357 5.364l.3-.813.475.147-3.407 9.242-.475-.147 2.735-7.42-3.023 7.573-.47-.16 3.407-8.533-4.008 8.053-.289-.127-.159.427-.474-.148.11-.297a639.947 639.947 0 0 1 1.267-3.375c.744-1.963 1.602-4.196 2.05-5.247l.465.171c-.443 1.04-1.296 3.26-2.041 5.228-.219.576-.427 1.13-.613 1.625l3.336-6.703.453.198-.078.157.44.15ZM7.829 13.79l.092-.24-.32-.078.885-2.883-.946 2.354-.47-.16 3.042-7.57.02.007.001-.003.484.12L8.8 11.26l2.451-6.379.473.154L8.3 13.943l-.472-.153ZM9.508 4.612l-.302.814-.438-.15.078-.156-.452-.2-3.327 6.636c.183-.485.389-1.025.603-1.587.745-1.952 1.598-4.158 2.042-5.198l-.466-.17c-.448 1.05-1.305 3.267-2.049 5.215a729.22 729.22 0 0 0-1.267 3.346l-.11.295.474.15.16-.428.287.127 4.01-7.998-3.408 8.478.47.16 3-7.46L6.1 13.792l.474.148 3.407-9.18-.474-.148ZM2.832 13.396l-.152.393.472.155 3.422-8.846-.472-.155L2.89 13.25 5.37 5.676l-.033-.009.094-.23-.47-.163-3.041 7.508.469.162.395-.974-.426 1.3.473.127ZM4.265 4.942l-.322.817-.42-.155L.1 13.583l.465.171 2.793-6.511-2.5 6.347.47.157L4.736 5.1l-.47-.157ZM-1.422 13.252l.469.163.175-.43.271.13L3.598 5.46l-.446-.212-3.237 6.037.508-1.243c.745-1.817 1.6-3.894 2.044-4.937l-.465-.17A487.767 487.767 0 0 0-.045 9.878l-.968 2.368-.41 1.005ZM.86 5.273l-3.423 8.313.468.165 3.423-8.314-.468-.164ZM-2.857 12.752.185 5.777l-.464-.175-3.042 6.976.464.174Z"/></g><defs><clipPath id="diagonal-thin-hand-drawn_a"><path fill="#fff" transform="translate(.9 3.6)" d="M0 0h16.2v11.25H0z"/></clipPath></defs></svg>