<svg width="18" height="18" viewBox="0 0 18 18" fill="none" xmlns="http://www.w3.org/2000/svg"><g clip-path="url(#diagonal-hand-drawn_a)" fill="#27292A"><path d="m10.356 4.533-.42 1.133-1.114-.423-.048.115-1.08-.57L5.72 8.834l1.434-3.795-1.462-.52-3.165 8.664 1.462.52.292-.74.91.48 2.005-4.08-1.54 4.175 1.45.55.204-.485 1.369.455.77-2.212 1.673-4.316-.673 2.395L9.2 13.34l1.463.52.107-.295.255.062.18-.64 1.41.502.292-.74.91.48 2.123-3.865-1.658 3.96 1.423.396.23-.33 1.37.454 3.074-8.82-1.473-.49-.42 1.133-1.114-.423-.048.115-1.08-.57-1.78 4.045 1.241-3.795-1.462-.52-2.844 7.776.546-1.942 1.808-4.944-1.462-.52-.163.448-.364-.088-.138.49-.04-.016.243-.699-1.473-.49ZM3.742 4.888.576 13.552l1.462.52 3.166-8.664-1.462-.52ZM.466 12.986l2.775-7.183-1.44-.57-2.776 7.184 1.441.57ZM20.314 5.248l-2.176 7.796 1.512.368 2.176-7.796-1.512-.368Z"/></g><defs><clipPath id="diagonal-hand-drawn_a"><path fill="#fff" transform="translate(.9 4.05)" d="M0 0h16.2v10.35H0z"/></clipPath></defs></svg>