<svg width="18" height="18" viewBox="0 0 18 18" fill="none" xmlns="http://www.w3.org/2000/svg"><g clip-path="url(#horizontal-hand-drawn_a)"><path fill-rule="evenodd" clip-rule="evenodd" d="M23.38 8.122h-.587.01V5.836l-8.31.932-.01-.433-5.557.296-.004-.177 4.57-.267v.148l8.433-.5V4.05l-8.351.495v-.148l-7.975.466-5.926-.324v1.786l5.543.038v.17l-4.688.25.043 1.785.578-.03v1.37h8.39v-.104l.234.104H7.677l-.32.362L.57 9.909l-.043 1.785.163-.014v1.539h8.377v-.04l.724-.023.008.171 7.392-.34-.052-1.146 5.62.3.043-1.786-8.39-.446-.002.081-.057-.082h9.027V8.122Zm-8.984 2.488-6.067.792 6.052-.195.015-.597Zm-7.866.59-.193.219h-2.46L6.53 11.2Z" fill="#27292A"/></g><defs><clipPath id="horizontal-hand-drawn_a"><path fill="#fff" transform="translate(.9 4.05)" d="M0 0h16.2v10.35H0z"/></clipPath></defs></svg>