<svg width="116" height="12" viewBox="0 0 116 12" fill="none" xmlns="http://www.w3.org/2000/svg"><path d="M7.316 5.25H.066v1.5h7.25v-1.5ZM13.696 5.25h-3.222v1.5h3.222v-1.5ZM24.169 5.25h-7.25v1.5h7.25v-1.5ZM30.549 5.25h-3.223v1.5h3.223v-1.5ZM33.77 5.25h7.25v1.5h-7.25v-1.5ZM44.179 5.25H47.4v1.5h-3.222v-1.5ZM57.873 5.25h-7.25v1.5h7.25v-1.5ZM64.253 5.25h-3.222v1.5h3.222v-1.5ZM67.475 5.25h7.25v1.5h-7.25v-1.5ZM77.883 5.25h3.223v1.5h-3.223v-1.5ZM91.578 5.25h-7.25v1.5h7.25v-1.5ZM97.958 5.25h-3.222v1.5h3.222v-1.5ZM101.18 5.25h7.25v1.5h-7.25v-1.5ZM111.588 5.25h3.222v1.5h-3.222v-1.5Z" fill="#27292A"/></svg>