<svg width="116" height="12" viewBox="0 0 116 12" fill="none" xmlns="http://www.w3.org/2000/svg"><path d="M7.316 5.25H.066v1.5h7.25v-1.5ZM10.474 5.25h3.222v1.5h-3.222v-1.5ZM16.919 5.25h3.222v1.5h-3.222v-1.5ZM30.613 5.25h-7.25v1.5h7.25v-1.5ZM33.77 5.25h3.223v1.5h-3.222v-1.5ZM40.215 5.25h3.222v1.5h-3.222v-1.5ZM46.66 5.25h7.25v1.5h-7.25v-1.5ZM60.29 5.25h-3.222v1.5h3.222v-1.5ZM66.734 5.25h-3.222v1.5h3.222v-1.5ZM77.206 5.25h-7.25v1.5h7.25v-1.5ZM80.364 5.25h3.222v1.5h-3.222v-1.5ZM86.808 5.25h3.223v1.5h-3.223v-1.5ZM93.253 5.25h7.25v1.5h-7.25v-1.5ZM106.883 5.25h-3.222v1.5h3.222v-1.5ZM113.327 5.25h-3.222v1.5h3.222v-1.5Z" fill="#27292A"/></svg>