<svg width="116" height="12" viewBox="0 0 116 12" fill="none" xmlns="http://www.w3.org/2000/svg"><path fill-rule="evenodd" clip-rule="evenodd" d="M0 5.25h7.25v1.5H0v-1.5Zm9.667 0h7.25v1.5h-7.25v-1.5Zm9.666 0h7.25v1.5h-7.25v-1.5Zm9.667 0h7.25v1.5H29v-1.5Zm9.667 0h7.25v1.5h-7.25v-1.5Zm9.666 0h7.25v1.5h-7.25v-1.5Zm9.667 0h7.25v1.5H58v-1.5Zm9.667 0h7.25v1.5h-7.25v-1.5Zm9.666 0h7.25v1.5h-7.25v-1.5Zm9.667 0h7.25v1.5H87v-1.5Zm9.667 0h7.25v1.5h-7.25v-1.5Z" fill="#27292A"/><path d="M113.583 5.25v1.5h-7.25v-1.5h7.25Z" fill="#27292A"/></svg>