<svg width="116" height="12" viewBox="0 0 116 12" fill="none" xmlns="http://www.w3.org/2000/svg"><path d="M0 5.25h3.222v1.5H0v-1.5ZM5.639 5.25H8.86v1.5H5.64v-1.5ZM14.5 5.25h-3.222v1.5H14.5v-1.5ZM16.917 5.25h3.222v1.5h-3.222v-1.5ZM25.778 5.25h-3.222v1.5h3.222v-1.5ZM28.195 5.25h3.222v1.5h-3.223v-1.5ZM37.056 5.25h-3.223v1.5h3.223v-1.5ZM39.472 5.25h3.222v1.5h-3.222v-1.5ZM48.333 5.25h-3.222v1.5h3.222v-1.5ZM50.75 5.25h3.222v1.5H50.75v-1.5ZM59.611 5.25H56.39v1.5h3.222v-1.5ZM62.028 5.25h3.222v1.5h-3.222v-1.5ZM70.889 5.25h-3.222v1.5h3.222v-1.5ZM73.306 5.25h3.222v1.5h-3.222v-1.5ZM82.167 5.25h-3.222v1.5h3.222v-1.5ZM84.583 5.25h3.223v1.5h-3.223v-1.5ZM93.445 5.25h-3.223v1.5h3.223v-1.5ZM95.861 5.25h3.222v1.5h-3.222v-1.5ZM104.722 5.25H101.5v1.5h3.222v-1.5ZM107.139 5.25h3.222v1.5h-3.222v-1.5ZM116 5.25h-3.222v1.5H116v-1.5Z" fill="#27292A"/></svg>