<svg width="116" height="12" viewBox="0 0 116 12" fill="none" xmlns="http://www.w3.org/2000/svg"><path d="M.782 6.727H.77l-.636.022L.067 6 0 5.251l.64-.021A1302.155 1302.155 0 0 1 8.267 5c4.63-.125 10.29-.251 14.343-.251 3.064 0 5.653-.032 7.878-.06l1.964-.023c2.607-.027 4.695-.029 6.393.087 1.412.097 11.172.496 19.995.496 8.818 0 17.606-.297 22.462-.498 6.273-.26 11.412-.154 15.543-.07 1.728.036 3.28.068 4.664.068 2.474 0 5.337.128 7.947.252l.78.038c2.325.112 4.369.21 5.765.21v1.5c-.985 0-2.23-.017-3.619-.037-3.305-.046-7.425-.104-10.792.036-.696.028-3.377.013-6.21-.003l-.9-.005c-3.23-.018-6.43-.031-7.382.008-3.522.146-12.808.084-19.84.037-2.792-.02-5.23-.036-6.809-.036-1.633 0-3.723.047-6.09.1a771.81 771.81 0 0 1-5.453.107c-4.536.07-9.436.07-13.547-.211-7.97-.547-12.697-.493-18.214-.004-2.93.26-7.048.258-10.371.195a243.666 243.666 0 0 1-5.87-.184L.812 6.75.78 6.748l.002-.02Z" fill="#27292A"/></svg>