<svg width="116" height="12" viewBox="0 0 116 12" fill="none" xmlns="http://www.w3.org/2000/svg"><path fill-rule="evenodd" clip-rule="evenodd" d="M91.091 5.75c-.604 0-1.433.04-2.492.108l-1.202.078-.25-1.492 1.201-.078a45.182 45.182 0 0 1 2.743-.116c.772 0 1.529.009 2.269.025l1.207.027-.085 1.499-1.208-.027a99.34 99.34 0 0 0-2.183-.024Zm6.158-1.306 1.203.072c1.611.096 3.109.214 4.468.328l1.198.101-.325 1.487-1.197-.101a178.714 178.714 0 0 0-4.375-.322l-1.203-.072.231-1.493ZM84.59 6.147l-1.202.083c-1.603.112-3.373.225-5.271.317l-1.205.058-.188-1.495 1.205-.059c1.862-.09 3.603-.2 5.19-.311l1.2-.084.27 1.49ZM4.09 6.25c-.88 0-1.82.017-2.77.045l-1.206.036L0 4.832l1.207-.035a99.034 99.034 0 0 1 2.884-.047c.612 0 1.327.022 2.112.06l1.205.057-.186 1.496-1.204-.058c-.753-.036-1.4-.055-1.927-.055Zm42.695 0c-.51 0-1.23.045-2.153.128l-1.196.107-.346-1.484 1.196-.108c.946-.085 1.808-.143 2.499-.143.853 0 1.859.016 2.963.041l1.208.028-.09 1.5-1.207-.029c-1.091-.025-2.063-.04-2.874-.04Zm7.618-1.322 1.207.04 1.02.035c1.61.055 3.24.11 4.811.157l1.207.037-.117 1.498-1.206-.036a1245.673 1245.673 0 0 1-5.846-.193l-1.207-.04.131-1.498Zm-45.32.055 1.2.09c1.276.096 2.639.206 4.03.319l1.2.097-.314 1.487-1.198-.097a678.58 678.58 0 0 0-4.008-.317l-1.2-.09.29-1.49Zm97.023.142 1.201.085c.837.06 6.001.513 6.555.513l-.26 1.504c-.691 0-5.702-.465-6.569-.527l-1.201-.085.274-1.49Zm-32.09 1.58-1.208.02c-.859.016-1.734.025-2.623.025-.824.033-1.84.042-2.972.034l-1.208-.008.026-1.5 1.209.008a61.61 61.61 0 0 0 2.825-.032l.04-.002h.04c.879 0 1.744-.008 2.593-.024l1.208-.021.07 1.5Zm-32.763.026-1.19.133a260.03 260.03 0 0 1-4.646.486l-1.195.111-.36-1.483 1.196-.112c1.561-.145 3.113-.315 4.578-.479l1.19-.132.427 1.476ZM17.128 5.62l1.198.093c1.365.106 2.713.206 4 .29l1.203.079-.254 1.491-1.201-.078c-1.31-.086-2.676-.187-4.049-.294l-1.198-.094.3-1.488Zm14.757 2.017-1.205.054c-.825.037-1.638.058-2.422.058-.647 0-1.349-.014-2.09-.04l-1.207-.042.135-1.497 1.206.041c.71.025 1.365.038 1.956.038.715 0 1.469-.02 2.248-.054l1.205-.054.174 1.496Z" fill="#27292A"/></svg>